<svg xmlns="http://www.w3.org/2000/svg" width="128" height="128" viewBox="0 0 127.56 127.56"><defs><linearGradient id="Безымянный_градиент_11" y1="63.78" x2="127.56" y2="63.78" gradientUnits="userSpaceOnUse"><stop offset="0" stop-color="#3d3185"/><stop offset="1" stop-color="#ac247a"/></linearGradient></defs><title>Безымянный-1</title><rect width="127.56" height="127.56" rx="6.42" fill="url(#Безымянный_градиент_11)"/><path d="M96.36,18.15h0Zm-12.49,7a1.49,1.49,0,0,0-.3.09h0l-.12.07s0,0,0,0a.38.38,0,0,0-.13.09.17.17,0,0,1-.19,0c-.82-.68-6.66-5.44-7.25-5.91a.12.12,0,0,1,0-.1v0a.06.06,0,0,1,.06-.05H93a.26.26,0,0,1,.22.18.28.28,0,0,1-.1.32l-7.87,5.73a.08.08,0,0,1-.12,0,1.46,1.46,0,0,0-1.29-.39Zm12.46-5.5h0Zm-22.51.52h0ZM75,39.54a.19.19,0,0,1-.12-.19V20.83a.44.44,0,0,1,.21-.4l.1-.06a.06.06,0,0,1,.06,0l7.25,5.92a.47.47,0,0,1,.16.39,1.71,1.71,0,0,0,0,.32.37.37,0,0,0,0,.08.89.89,0,0,0,0,.11l0,.15a.25.25,0,0,1,0,.07.85.85,0,0,1,0,.09l0,.08,0,.09,0,0a.26.26,0,0,1,0,.24c-.76,1.15-6.88,10.35-7.64,11.51a.17.17,0,0,1-.2.07Zm10.6-12h0s0-.06,0-.06a.53.53,0,0,0,0-.12.66.66,0,0,0,0-.1h0a0,0,0,0,1,0,0,.25.25,0,0,1,0-.08v0s0-.07,0-.1v-.09h0v-.2a.2.2,0,0,1,.08-.19l8-5.82a.38.38,0,0,1,.4,0l.16.07a.47.47,0,0,1,.26.42c0,2-.14,12.58-.15,13.73a.13.13,0,0,1-.08.13l-.09.05a.19.19,0,0,1-.19,0l-8.5-7.53Zm-1.9-2h0Zm-.76,1.12h0Zm2.48.46h0s0,0,0,0Zm-9.32,16a.5.5,0,0,1,0-.49,1.42,1.42,0,0,0,.08-.18l0-.11s0-.12.06-.21a4.26,4.26,0,0,0,.06-.5,2.34,2.34,0,0,0-.33-1.21.22.22,0,0,1,0-.22l7.61-11.44a.36.36,0,0,1,.37-.17l.23,0h0a1.35,1.35,0,0,0,.67-.18.08.08,0,0,1,.1,0c.66.57,7.65,6.77,8.54,7.56a.21.21,0,0,1,.06.2h0v.08s0,0,0,.06,0,.12,0,.18v.07a.44.44,0,0,0,0,.16s0,.07,0,.09h0s0,.11,0,.16l0,.09,0,.12,0,.1a.64.64,0,0,1,.06.1l0,0s0,0,0,0a0,0,0,0,1,0,0c-.35.62-7.78,13.61-8.92,15.59a.37.37,0,0,1-.38.2,1.56,1.56,0,0,0-.68.05.35.35,0,0,1-.4-.14L76.08,43.08Zm19.65-7.49h0ZM96,36.74h0Zm-2,23.74-8.2-4.83h0s0,0,0-.06h0l0-.08a.6.6,0,0,1,0-.08,1.56,1.56,0,0,0,0-.21v-.08h0V55a.68.68,0,0,0,0-.14v-.06s0,0,0-.07,0,0,0-.06,0,0,0-.07a.53.53,0,0,0,0-.15l0,0,0-.11h0a.29.29,0,0,0,0-.08l0,0,0,0a.25.25,0,0,1,0-.08s0,0,0,0l8.13-14.21a.37.37,0,0,1,.45-.19.42.42,0,0,1,.28.42c0,4.72,0,19,0,20.14a.14.14,0,0,1-.06.11.67.67,0,0,0-.14.09l-.17.15a0,0,0,0,1,0,0Zm-36.47-20h0Zm1.67,1.9a.15.15,0,0,1,0-.17s0,0,.07,0h13a.23.23,0,0,1,.23.18.49.49,0,0,1,0,.11.46.46,0,0,1-.09.49L66,50a.38.38,0,0,1-.35.12,1,1,0,0,0-.48,0,.37.37,0,0,1-.38-.15C63.89,48.71,59.79,43.08,59.26,42.35ZM45.13,60l0-.17A2.68,2.68,0,0,0,45,59.6s0-.05,0-.09a.33.33,0,0,1,0-.06v0l0-.08h0a1.53,1.53,0,0,0-.17-.27h0l0,0-.15-.16-.13-.1s0,0,0,0l-.26-.14a1.43,1.43,0,0,0-.64-.15.36.36,0,0,1-.36-.24c-.44-1-2-4.58-2.44-5.63a.48.48,0,0,1,.06-.49,1.71,1.71,0,0,0,.2-.27,2.7,2.7,0,0,0,.29-1.5s0,0,0,0L56.9,42.72a.21.21,0,0,1,.26,0l.13.1h0a1.2,1.2,0,0,0,.69.22h0l.22,0a.35.35,0,0,1,.37.16l5.53,7.56a.56.56,0,0,1,.08.38,1.3,1.3,0,0,1,0,.13v.3a2.34,2.34,0,0,0,.09.38l0,.08,0,.09h0a.17.17,0,0,1,0,.14c-.38.71-3.45,6.48-4.14,7.79a.38.38,0,0,1-.39.21,1.28,1.28,0,0,0-.39,0,2,2,0,0,0-1.57,1.36.08.08,0,0,1-.07,0C57,61.57,45.19,60,45.13,60Zm30.05.78a1.48,1.48,0,0,0-1.37-.14.38.38,0,0,1-.42-.12l-6.74-8.24a.43.43,0,0,1-.07-.41,1.63,1.63,0,0,0,0-.18.51.51,0,0,0,0-.17v-.39h0a.13.13,0,0,0,0-.06.47.47,0,0,1,.11-.41l6.5-7a.38.38,0,0,1,.42-.09,1.6,1.6,0,0,0,.68.15h0a1.43,1.43,0,0,0,.5-.09.4.4,0,0,1,.42.15l7.53,10.39a0,0,0,0,1,0,0s0,.06-.06.14a.5.5,0,0,0,0,.13l0,.09h0s0,0,0,0h0a.43.43,0,0,1,0,0l0,.15a1,1,0,0,0,0,.17v.24s0,.09,0,.16l0,.15a.13.13,0,0,0,0,.05.2.2,0,0,1,0,.07,0,0,0,0,1,0,0h0l-7.27,5.17a.15.15,0,0,1-.2,0ZM41.69,77.68a1.77,1.77,0,0,0-1.31-.22l-.21.06a.36.36,0,0,1-.43-.14c-1-1.48-6.11-8.75-6.63-9.5a.09.09,0,0,1,0-.12s0-.07.06-.11.08-.18.1-.2,0,0,0,0l0-.13,0-.17v0a.31.31,0,0,1,0-.08v0c0-.05,0-.11,0-.17v-.26a.88.88,0,0,0,0-.17v0s0-.06,0-.08v0a1.39,1.39,0,0,0-.06-.19.2.2,0,0,0,0-.08v0s-.05-.1-.05-.11a2,2,0,0,0-.14-.25L33,65.5s0,0,0,0a0,0,0,0,1,0,0c.27-.59,5-10.58,5.86-12.39a.38.38,0,0,1,.38-.23h.25a.4.4,0,0,1,.37.25L42.4,59v0h0a0,0,0,0,1,0,0,1.53,1.53,0,0,0-.14.21l0,.08h0l0,0s0,0,0,0l-.06.15,0,.16a.66.66,0,0,0,0,.15.88.88,0,0,0,0,.19v.35a1.08,1.08,0,0,0,0,.19l0,.11c0,.08.05.16.07.23l.05.1,0,.07,0,.05a1.67,1.67,0,0,0,.18.28l0,0,.06.07,0,0a1.27,1.27,0,0,0,.25.21l0,0a1.42,1.42,0,0,0,.78.23h0a1.1,1.1,0,0,0,.31,0,.39.39,0,0,1,.39.15l6.14,8.19v0a2,2,0,0,0-.07.23v0a.17.17,0,0,0,0,.07h0a.76.76,0,0,0,0,.15v.07h0a1.34,1.34,0,0,0,0,.2s0,.07,0,.08h0a.16.16,0,0,1-.06.17l-8.17,6.26a.36.36,0,0,1-.41,0ZM61.35,61.55a2.38,2.38,0,0,0-.23-.45.48.48,0,0,1,0-.49L65.15,53a.33.33,0,0,1,.26-.16h.09a.34.34,0,0,1,.31.14l7.06,8.62a.09.09,0,0,1,0,0,.32.32,0,0,1-.28.19H61.72a.4.4,0,0,1-.37-.26Zm22.36-5h0Zm0,0Zm.54.44h0a1.45,1.45,0,0,0,.67-.17,1.67,1.67,0,0,0,.28-.18.06.06,0,0,1,.07,0l6.08,3.58a.43.43,0,0,1,.2.48.41.41,0,0,1-.37.35l-13.61.6a.39.39,0,0,1-.4-.31.47.47,0,0,1,.17-.5l5.7-4a.37.37,0,0,1,.39,0,1.54,1.54,0,0,0,.8.23ZM44.45,59.21h0Zm7.63,10.33a1.17,1.17,0,0,0-.76,0,.38.38,0,0,1-.4-.14l-6-8a.17.17,0,0,1,0-.18.11.11,0,0,1,.09,0l12.51,1.63a.41.41,0,0,1,.33.3.07.07,0,0,1,0,0,.47.47,0,0,1-.09.47c-.94,1-5,5.32-5.54,5.93a.11.11,0,0,1-.14,0Zm9-8h0ZM93.81,82.65l-18-19.44a.1.1,0,0,1,0-.09l0-.09a0,0,0,0,1,0,0l0-.11s0,0,0-.08,0,0,0,0L93.88,62h0a.06.06,0,0,0,0,0l0,.09.06.09v0l.08.09a1.54,1.54,0,0,0,.19.17h0a.37.37,0,0,1,.15.3c0,2,0,17.31,0,19.55a.41.41,0,0,1-.2.37.34.34,0,0,1-.41-.08ZM61.05,63.19h0ZM76.21,88.28a.43.43,0,0,1-.17-.4,2.14,2.14,0,0,0-.33-1.28,1.67,1.67,0,0,0-.63-.58.43.43,0,0,1-.23-.39V64.27A.26.26,0,0,1,75,64a.22.22,0,0,1,.24.06L93.28,83.64a.33.33,0,0,1,.08.3.25.25,0,0,1,0,.08v0a.28.28,0,0,0,0,.09h0a.76.76,0,0,0,0,.15v.09a1.23,1.23,0,0,0,0,.19v.09a.35.35,0,0,1,0,.07l0,.13a1.18,1.18,0,0,0,.06.18v0s0,0,0,.05S86.36,91.36,85,92.55a.38.38,0,0,1-.44,0,1.93,1.93,0,0,0-.38-.19,1.67,1.67,0,0,0-1.55.32.32.32,0,0,1-.41,0Zm-45-23Zm0,2.77h0Zm0,0h0Zm2.11,16.1a.43.43,0,0,1-.25-.39c-.09-1.73-.5-10.36-.66-13.79a.44.44,0,0,1,.25-.44.38.38,0,0,1,.45.15L39,78.15a.5.5,0,0,1,0,.46,1.07,1.07,0,0,0-.07.19A2.4,2.4,0,0,0,38.9,80a.46.46,0,0,1-.15.45L34,84.3a.36.36,0,0,1-.43,0Zm9.33-4.5h0v-.38A1.65,1.65,0,0,0,42.6,79a.5.5,0,0,1,.16-.49l8.05-6.16a.32.32,0,0,1,.34,0,.41.41,0,0,1,.23.32c.21,1.43,1.26,8.52,1.39,9.38a.13.13,0,0,1-.05.13l-.12.08a.63.63,0,0,0-.12.11.12.12,0,0,0,0,.05h0l-.08.1h0l0,0s0,0,0,.06,0,0-.06.08l-.06.11s0,0,0,0a.06.06,0,0,1-.07,0l-9.4-3.14ZM41.14,98.78a1.63,1.63,0,0,0-.79-.13.33.33,0,0,1-.33-.19c-.8-1.47-5.26-9.74-6-11a.31.31,0,0,1,0-.31h0l0,0a.56.56,0,0,0,0-.08l0-.08h0a.85.85,0,0,0,.06-.13v0l0-.07s0,0,0,0,0-.08,0-.12h0s0,0,0-.06h0v0a0,0,0,0,0,0,0V86.3a.6.6,0,0,1,0-.12h0a.54.54,0,0,1,0-.08v-.26c0-.06,0-.11,0-.16l0-.15,0-.08a.06.06,0,0,0,0,0h0l5-4a.36.36,0,0,1,.44,0,1.74,1.74,0,0,0,1,.32h0A1.86,1.86,0,0,0,42.16,81a.4.4,0,0,1,.41-.13l9.22,3.09a.31.31,0,0,1,.18.22l0,.11.06.15,0,0,0,.06,0,0s0,0,0,0a.06.06,0,0,1,0,.06l-10.54,14a.35.35,0,0,1-.44.13Zm13.3-16.17h0Zm40,.35h0Zm1.42.3h0Zm-2.21.86h0Zm2.58.48h0ZM58.06,96.32a.16.16,0,0,1-.15-.12c-.35-1.14-3.07-9.79-3.42-11a.17.17,0,0,1,0-.2L54.6,85h0a.28.28,0,0,1,.33-.07L61,87.68a.11.11,0,0,1,0,.09h0v.15a.49.49,0,0,0,0,.12.61.61,0,0,0,0,.14.23.23,0,0,0,0,.09.66.66,0,0,0,0,.13.56.56,0,0,0,0,.12l0,0a1.42,1.42,0,0,0,.12.25.46.46,0,0,1,0,.44l-3.11,7a.18.18,0,0,1-.17.1Zm-15.7,4.38a.24.24,0,0,1-.12-.2c0-.13,0-.27-.05-.4h0l0-.12a.45.45,0,0,1,.07-.42c1.21-1.61,9.25-12.32,10.52-14a.38.38,0,0,1,.4-.14l.12,0a.4.4,0,0,1,.31.29l3.44,11a.2.2,0,0,1,0,.18h0l0,.06h0l-.09.15a4571859313312.43,4571859313312.43,0,0,0-.12.32,1.71,1.71,0,0,0,0,.78l0,.09a.41.41,0,0,0,0,.08s0,0,0,0a.75.75,0,0,0,.06.13v0l.06.09,0,.08,0,0,.1.12.15.13.1.07s0,0,0,0a.15.15,0,0,1,0,.09V106a.43.43,0,0,1-.25.4,1.76,1.76,0,0,0-.56.42.35.35,0,0,1-.42.09C54.36,106.1,43.64,101.27,42.36,100.7Zm42.9-5.3a.09.09,0,0,1,0-.07c0-.09.09-.21.09-.22s.08-.25.09-.27v0a2.29,2.29,0,0,0,0-.69l0-.23a.45.45,0,0,1,.14-.45L94.15,86a.17.17,0,0,1,.17,0,.2.2,0,0,1,.1.18c0,1.77,0,20.52,0,20.78h0ZM34,86.73ZM62.6,89.61a1.53,1.53,0,0,0,1-.37h0l.13-.14h0l.05-.07h0a.14.14,0,0,1,0,0,2,2,0,0,0,.18-.32v0a.39.39,0,0,1,0-.09h0a.43.43,0,0,0,0,0s0,0,0,0l0-.09a.69.69,0,0,1,0-.07,0,0,0,0,1,0,0H71a.39.39,0,0,1,.38.33.44.44,0,0,1-.19.49L60.29,95.89a.37.37,0,0,1-.47-.06.49.49,0,0,1-.08-.52l2.45-5.46a.38.38,0,0,1,.36-.24Zm-4,16.88a.49.49,0,0,1-.21-.4V99.5a.45.45,0,0,1,.22-.4l0,0h0a1.22,1.22,0,0,0,.27-.24.7.7,0,0,0,.13-.17h0l0-.06h0a.59.59,0,0,0,.06-.14.42.42,0,0,0,.06-.14.14.14,0,0,0,0-.07h0a.36.36,0,0,0,0-.1s0,0,0,0a.56.56,0,0,1,0-.07.52.52,0,0,0,0-.17h0a.11.11,0,0,1,.06-.1L73,89.27a.36.36,0,0,1,.41,0,1.72,1.72,0,0,0,.93.33h0a1.61,1.61,0,0,0,.94-.34.36.36,0,0,1,.44,0l6,4.45a.44.44,0,0,1,.18.41c0,.07,0,.14,0,.21a.46.46,0,0,1-.22.4L59.44,106.88a.35.35,0,0,1-.44-.08A1.77,1.77,0,0,0,58.59,106.49ZM83.4,92.67h0Zm-1,3.13-5.47,10.47a.38.38,0,0,1-.37.21,1.4,1.4,0,0,0-.89.22l-.14.1-.13.12,0,0,0,0,0,.06h0s0,0,0,.06v0h0l0,0s0,0,0,.06a0,0,0,0,0,0,0h0l-.06.13,0,0h0l0,0a.23.23,0,0,1-.19.15H62.06a.43.43,0,0,1-.38-.34.45.45,0,0,1,.21-.5L82.25,95.66a.1.1,0,0,1,.12,0,.11.11,0,0,1,0,.11ZM77.8,107.4l0,0,0,0h0l-.07-.11h0a.11.11,0,0,1,0-.13l5.48-10.49a.4.4,0,0,1,.38-.22l.16,0h0a1.81,1.81,0,0,0,.56-.12.38.38,0,0,1,.42.13c1.09,1.36,6.56,8.25,8.37,10.53a.49.49,0,0,1,.07.48.4.4,0,0,1-.36.26H77.93s0,0-.06,0a.86.86,0,0,0-.07-.21Zm-38.73-7h0Zm56.83,8.06h0Zm-39.1,1h0Z" fill="#fff" fill-rule="evenodd"/></svg>
