<svg width="108" height="108" xmlns="http://www.w3.org/2000/svg" fill="none"><g><circle fill="#f1d597" r="54" cy="54" cx="54"/><circle fill="#000000" r="48" cy="54" cx="54"/><path fill="#f1d597" d="m52.39883,25.04188c-1.4583,0.06797 -3.23684,0.32626 -4.705,0.68424c-4.69515,1.14643 -8.73504,3.54352 -11.56789,6.87407c-2.87719,3.38039 -4.19755,7.59003 -3.68025,11.72263c0.17736,1.43191 0.55179,2.77319 1.16763,4.19151l0.24634,0.56642l-0.02463,0.63439c-0.02956,0.74314 -0.11824,1.20534 -0.37936,1.92583c-0.20692,0.58001 -0.73408,1.77629 -0.91144,2.06177c-0.05912,0.09969 -0.12317,0.24016 -0.14287,0.3172c-0.01971,0.0725 -0.11331,0.32626 -0.20692,0.56189c-0.2217,0.54376 -0.49267,1.45004 -0.59613,1.99833c-0.05912,0.30813 -0.08375,0.6933 -0.08375,1.33675c0,0.8383 0.00985,0.93799 0.13302,1.35941c0.4434,1.52254 1.3647,2.40615 3.68025,3.53446c1.09865,0.5347 1.4386,0.74314 1.87215,1.15097c0.42862,0.39876 0.68974,0.81564 0.84247,1.35035c0.1478,0.50751 0.14287,1.40019 -0.01971,2.89101c-0.30053,2.78225 -0.30053,3.42571 -0.00493,4.77152c0.65525,3.00882 2.81807,5.69139 6.09433,7.56737c4.03497,2.30646 9.39522,3.03601 14.24802,1.93489c2.94617,-0.66611 5.39474,-1.83973 7.43932,-3.55259c1.96575,-1.65395 3.25162,-3.6704 3.78863,-5.96327c0.06405,-0.27641 0.17243,-0.70236 0.24634,-0.95159c0.21185,-0.77486 0.25126,-1.07846 0.24634,-2.06177c0,-0.67517 -0.03449,-1.17362 -0.12317,-1.8352c-0.1478,-1.14643 -0.15765,-2.33818 -0.02463,-2.78679c0.15765,-0.53017 0.39906,-0.92893 0.80305,-1.31863c0.45818,-0.43954 0.75871,-0.62533 1.96083,-1.22347c1.08387,-0.5347 1.42874,-0.73408 1.96083,-1.12831c0.92129,-0.6797 1.47308,-1.50894 1.73913,-2.61006c0.11824,-0.48486 0.11824,-1.75817 0,-2.39709c-0.17243,-0.94705 -0.38428,-1.56785 -1.00505,-2.9907c-0.73901,-1.69473 -0.82276,-2.04817 -0.81783,-3.44383c0,-0.93346 0.01478,-1.07393 0.21185,-2.26568c0.6454,-3.90603 0.69466,-6.1264 0.19707,-8.42833c-0.84247,-3.88791 -3.26148,-7.43143 -6.86782,-10.06415c-3.32552,-2.42428 -7.46395,-3.94228 -11.84871,-4.34104c-0.93607,-0.0861 -2.86734,-0.12235 -3.86746,-0.0725z"/><circle fill="#000000" r="6" cy="50" cx="64"/><circle fill="#000000" r="6" cy="50" cx="44"/><ellipse fill="#000000" transform="matrix(1.1 0 0 1.7 54 70)" ry="5" rx="10"/></g></svg>