<svg width="128" height="128" viewBox="0 0 771.41 772.39" xmlns="http://www.w3.org/2000/svg">
    <linearGradient id="a" gradientTransform="matrix(1 0 0 -1 0 148)" gradientUnits="userSpaceOnUse" x1="276.7" x2="651.87" y1="-336.41"
                    y2="2.01">
        <stop offset="0" stop-color="#15bcff"/>
        <stop offset=".49" stop-color="#3073ec"/>
        <stop offset="1" stop-color="#b030ec"/>
    </linearGradient>
    <ellipse cx="385.705" cy="386.195" fill="#fff" rx="385.705" ry="386.195"/>
    <path d="m0 386.2c0 213.29 172.69 386.19 385.7 386.19a384 384 0 0 0 153.11-31.62 540.77 540.77 0 0 1 -55.47-8.63q-61.34-13.23-112.42-40.28-106.41-56.5-149.7-165.3h-128.65l39.08-92.56h66.73a440.73 440.73 0 0 1 -3.61-54.7q0-26.44 1.8-47.48h-104l39.08-92h83.56q39.68-116.59 147.29-179.71a418.19 418.19 0 0 1 120.64-47.68 386 386 0 0 0 -97.44-12.43c-213.01 0-385.7 172.91-385.7 386.2zm613.27-311.85c-118.54 15.22-236.49 64.41-280.36 165.49h357.24l-39.68 92h-340.27q-2.42 20.43-2.41 49.89t4.81 52.27h291l-39.7 92.56h-214.62c48.72 80.44 172.98 132.67 303.05 138.7a385.32 385.32 0 0 0 119.08-279.06c0-128.08-62.27-241.59-158.14-311.85z"
          fill="url(#a)" fill-rule="evenodd"/>
</svg>
