<svg width="20" height="20" viewBox="0 0 20 20" fill="none" xmlns="http://www.w3.org/2000/svg">
<rect width="20" height="20" rx="10" fill="#199248"/>
<path fill-rule="evenodd" clip-rule="evenodd" d="M8.87767 5.2068V5.20613C8.84208 5.20879 8.65862 5.22008 8.24931 5.22008C7.9225 5.22008 7.69245 5.21012 7.61156 5.20613V5.20713C6.35353 5.15035 5.41454 4.92557 5.41454 4.65662C5.41454 4.38801 6.35353 4.16322 7.61156 4.10545V4.98334C7.69374 4.98932 7.9293 5.00359 8.25481 5.00359C8.64535 5.00359 8.84111 4.98699 8.87767 4.98367V4.10611C10.1331 4.16355 11.0698 4.38834 11.0698 4.65662C11.0698 4.92557 10.1331 5.14969 8.87767 5.2068V5.2068ZM8.87767 4.01481V3.22922H10.6295V2.03125H5.85977V3.22922H7.61156V4.01447C6.18787 4.08154 5.11719 4.37107 5.11719 4.71771C5.11719 5.06436 6.18787 5.35355 7.61156 5.42096V7.93842H8.87767V5.42029C10.2991 5.35322 11.3672 5.06402 11.3672 4.71771C11.3672 4.37141 10.2991 4.08221 8.87767 4.01481" fill="white"/>
<path fill-rule="evenodd" clip-rule="evenodd" d="M13.0803 7.03125H15.2557C16.5789 7.03125 17.5819 7.73383 17.9551 8.75582H18.6328V9.37373H18.0979C18.1082 9.47135 18.1135 9.57096 18.1135 9.67189V9.68717C18.1135 9.80072 18.1069 9.91295 18.0936 10.0225H18.6328V10.6401H17.9422C17.5594 11.6481 16.5643 12.3438 15.2561 12.3438H13.0803V10.6401H12.3242V10.0225H13.0803V9.37373H12.3242V8.75615H13.0803V7.03125V7.03125ZM13.6882 10.6401V11.7896H15.2554C16.2229 11.7896 16.9414 11.3291 17.2758 10.6401H13.6882V10.6401ZM17.4621 10.0225H13.6882V9.37373H17.4634C17.477 9.47566 17.4843 9.58025 17.4843 9.68717V9.70211C17.4843 9.81135 17.4767 9.91793 17.4621 10.0222V10.0225ZM15.2561 7.58408C16.2276 7.58408 16.9484 8.05689 17.2808 8.75549H13.6882V7.58441H15.2554L15.2561 7.58408Z" fill="white"/>
<path d="M6.26219 12.2227C5.99797 12.2358 5.7482 12.3472 5.56191 12.535C5.37562 12.7228 5.26626 12.9735 5.2553 13.2378C5.2553 13.7351 5.55942 14.0597 6.20465 14.1954L6.65672 14.3022C7.09646 14.405 7.27729 14.5529 7.27729 14.8036C7.27729 15.0543 6.96084 15.3009 6.54987 15.3009C6.40389 15.3143 6.25709 15.2863 6.12627 15.2201C5.99545 15.154 5.88588 15.0524 5.81012 14.9269C5.78767 14.8793 5.75223 14.839 5.70787 14.8106C5.66352 14.7823 5.61206 14.767 5.55942 14.7666H5.31695C5.2983 14.7701 5.28052 14.7772 5.26463 14.7875C5.24874 14.7979 5.23506 14.8113 5.22436 14.8269C5.21367 14.8426 5.20618 14.8602 5.20232 14.8788C5.19846 14.8973 5.19831 14.9165 5.20188 14.9351C5.26094 15.1762 5.39827 15.3908 5.59236 15.5455C5.78645 15.7002 6.02635 15.7862 6.27451 15.7899V16.1352C6.27451 16.212 6.30504 16.2857 6.35938 16.34C6.41371 16.3944 6.48741 16.4249 6.56425 16.4249C6.64109 16.4249 6.71479 16.3944 6.76912 16.34C6.82346 16.2857 6.85399 16.212 6.85399 16.1352V15.7858C7.13459 15.7826 7.40287 15.67 7.60168 15.472C7.8005 15.2739 7.91414 15.0061 7.9184 14.7255C7.9184 14.2036 7.61839 13.9036 6.90741 13.7515L6.49644 13.6611C6.08547 13.5584 5.89231 13.4227 5.89231 13.1926C5.89231 12.9624 6.13889 12.7076 6.54987 12.7076C6.6793 12.6941 6.80987 12.7184 6.92583 12.7774C7.04178 12.8365 7.13816 12.9279 7.20331 13.0405C7.22972 13.0968 7.27154 13.1444 7.32391 13.1779C7.37628 13.2113 7.43706 13.2293 7.49921 13.2296H7.69237C7.73629 13.2188 7.77423 13.1913 7.79806 13.1529C7.82188 13.1144 7.82968 13.0682 7.81977 13.0241C7.76409 12.8015 7.63955 12.6022 7.4639 12.4546C7.28826 12.307 7.07049 12.2187 6.84166 12.2021V11.9186C6.84166 11.8417 6.81113 11.768 6.75679 11.7137C6.70246 11.6594 6.62876 11.6288 6.55192 11.6288C6.47508 11.6288 6.40138 11.6594 6.34705 11.7137C6.29271 11.768 6.26219 11.8417 6.26219 11.9186V12.2227ZM2.9292 14.0145C2.92967 14.7716 3.16796 15.5093 3.61042 16.1236C4.05288 16.7379 4.67714 17.1976 5.39503 17.4379H5.45257C5.50162 17.4379 5.54866 17.4184 5.58334 17.3838C5.61802 17.3491 5.63751 17.302 5.63751 17.253V17.1667C5.63764 17.0902 5.61506 17.0154 5.57263 16.9517C5.53019 16.8881 5.46981 16.8384 5.39914 16.8091C4.84006 16.5835 4.36117 16.1959 4.02394 15.6961C3.68671 15.1963 3.50654 14.6072 3.50654 14.0043C3.50654 13.4013 3.68671 12.8122 4.02394 12.3124C4.36117 11.8126 4.84006 11.425 5.39914 11.1994C5.46949 11.1708 5.52973 11.1219 5.57218 11.059C5.61463 10.996 5.63737 10.9219 5.63751 10.8459V10.7514C5.63777 10.7237 5.63134 10.6963 5.61876 10.6715C5.60618 10.6468 5.58782 10.6254 5.56523 10.6093C5.54265 10.5932 5.51651 10.5827 5.48902 10.5788C5.46154 10.575 5.43353 10.5778 5.40736 10.587C4.6865 10.8254 4.05908 11.2849 3.61422 11.9002C3.16936 12.5155 2.92967 13.2553 2.9292 14.0145ZM10.1705 14.0145C10.1692 13.2582 9.93051 12.5214 9.48811 11.9079C9.04571 11.2944 8.42193 10.8353 7.7047 10.5952H7.64305C7.59182 10.5952 7.54269 10.6156 7.50647 10.6518C7.47025 10.688 7.4499 10.7372 7.4499 10.7884V10.85C7.45155 10.9293 7.4761 11.0064 7.52058 11.072C7.56506 11.1377 7.62758 11.189 7.70059 11.2199C8.2584 11.4462 8.73599 11.8339 9.07224 12.3332C9.4085 12.8325 9.58812 13.4208 9.58812 14.0228C9.58812 14.6247 9.4085 15.213 9.07224 15.7123C8.73599 16.2116 8.2584 16.5993 7.70059 16.8256C7.62897 16.8568 7.56774 16.9078 7.52406 16.9726C7.48039 17.0374 7.45609 17.1132 7.45401 17.1913V17.2612C7.45436 17.2917 7.46191 17.3216 7.47605 17.3486C7.49019 17.3756 7.51051 17.3989 7.53536 17.4165C7.56021 17.4341 7.58888 17.4457 7.61902 17.4501C7.64917 17.4545 7.67993 17.4518 7.70881 17.442C8.4266 17.2008 9.05044 16.7402 9.49218 16.1251C9.93392 15.5101 10.1712 14.7718 10.1705 14.0145Z" fill="white"/>
<path d="M20 10C20 11.7376 19.5472 13.4452 18.6863 14.9546C17.8254 16.4639 16.5861 17.7229 15.0904 18.6074C13.5948 19.4919 11.8945 19.9715 10.1571 19.9988C8.41967 20.0261 6.70515 19.6002 5.18246 18.7631L10 10L20 10Z" fill="#2775C9"/>
<path d="M12.4897 12.4714C12.1933 12.4861 11.913 12.611 11.704 12.8218C11.495 13.0325 11.3723 13.3138 11.36 13.6103C11.36 14.1683 11.7012 14.5326 12.4252 14.6847L12.9324 14.8046C13.4258 14.9199 13.6287 15.0859 13.6287 15.3672C13.6287 15.6485 13.2736 15.9252 12.8125 15.9252C12.6487 15.9402 12.484 15.9088 12.3372 15.8346C12.1904 15.7604 12.0675 15.6463 11.9825 15.5055C11.9573 15.4521 11.9175 15.4069 11.8678 15.3751C11.818 15.3433 11.7603 15.3261 11.7012 15.3257H11.4291C11.4082 15.3296 11.3883 15.3376 11.3704 15.3492C11.3526 15.3608 11.3372 15.3758 11.3252 15.3934C11.3132 15.411 11.3048 15.4307 11.3005 15.4516C11.2962 15.4724 11.296 15.4939 11.3 15.5148C11.3663 15.7852 11.5204 16.0261 11.7381 16.1997C11.9559 16.3732 12.2251 16.4697 12.5035 16.4739V16.8612C12.5035 16.9475 12.5378 17.0302 12.5988 17.0911C12.6597 17.1521 12.7424 17.1863 12.8286 17.1863C12.9149 17.1863 12.9975 17.1521 13.0585 17.0911C13.1195 17.0302 13.1537 16.9475 13.1537 16.8612V16.4693C13.4686 16.4657 13.7696 16.3394 13.9927 16.1172C14.2157 15.895 14.3433 15.5944 14.348 15.2796C14.348 14.694 14.0114 14.3573 13.2137 14.1867L12.7526 14.0853C12.2914 13.97 12.0747 13.8178 12.0747 13.5596C12.0747 13.3014 12.3514 13.0155 12.8125 13.0155C12.9577 13.0003 13.1042 13.0275 13.2343 13.0938C13.3644 13.1601 13.4726 13.2626 13.5457 13.389C13.5753 13.4521 13.6222 13.5055 13.681 13.5431C13.7398 13.5806 13.808 13.6007 13.8777 13.6011H14.0944C14.1437 13.5891 14.1863 13.5581 14.213 13.515C14.2397 13.4719 14.2485 13.42 14.2374 13.3705C14.1749 13.1208 14.0352 12.8972 13.8381 12.7316C13.641 12.566 13.3967 12.4668 13.1399 12.4483V12.1301C13.1399 12.0439 13.1056 11.9612 13.0447 11.9002C12.9837 11.8393 12.901 11.805 12.8148 11.805C12.7286 11.805 12.6459 11.8393 12.5849 11.9002C12.524 11.9612 12.4897 12.0439 12.4897 12.1301V12.4714ZM8.75 14.4819C8.75053 15.3313 9.0179 16.1591 9.51435 16.8483C10.0108 17.5375 10.7112 18.0534 11.5167 18.323H11.5813C11.6363 18.323 11.6891 18.3012 11.728 18.2622C11.7669 18.2233 11.7888 18.1705 11.7888 18.1155V18.0187C11.789 17.9328 11.7636 17.8489 11.716 17.7775C11.6684 17.706 11.6006 17.6504 11.5214 17.6175C10.894 17.3643 10.3567 16.9294 9.97833 16.3686C9.59995 15.8079 9.39779 15.1468 9.39779 14.4703C9.39779 13.7938 9.59995 13.1328 9.97833 12.572C10.3567 12.0113 10.894 11.5764 11.5214 11.3232C11.6003 11.2911 11.6679 11.2363 11.7155 11.1656C11.7631 11.095 11.7887 11.0118 11.7888 10.9266V10.8205C11.7891 10.7894 11.7819 10.7586 11.7678 10.7309C11.7537 10.7031 11.7331 10.6792 11.7077 10.6611C11.6824 10.643 11.653 10.6313 11.6222 10.6269C11.5914 10.6225 11.5599 10.6257 11.5306 10.6361C10.7217 10.9036 10.0178 11.4191 9.51862 12.1095C9.01947 12.7998 8.75053 13.6299 8.75 14.4819ZM16.875 14.4819C16.8735 13.6332 16.6057 12.8065 16.1093 12.1181C15.6129 11.4298 14.913 10.9147 14.1083 10.6453H14.0391C13.9816 10.6453 13.9265 10.6681 13.8858 10.7088C13.8452 10.7494 13.8224 10.8046 13.8224 10.862V10.9312C13.8242 11.0201 13.8518 11.1066 13.9017 11.1803C13.9516 11.2539 14.0217 11.3115 14.1036 11.3462C14.7295 11.6002 15.2654 12.0351 15.6427 12.5953C16.02 13.1556 16.2215 13.8156 16.2215 14.4911C16.2215 15.1665 16.02 15.8266 15.6427 16.3868C15.2654 16.9471 14.7295 17.382 14.1036 17.6359C14.0233 17.671 13.9546 17.7282 13.9056 17.8009C13.8566 17.8736 13.8293 17.9587 13.827 18.0463V18.1247C13.8274 18.1589 13.8358 18.1925 13.8517 18.2228C13.8676 18.2531 13.8904 18.2792 13.9183 18.299C13.9461 18.3188 13.9783 18.3317 14.0121 18.3367C14.0459 18.3416 14.0805 18.3385 14.1129 18.3276C14.9183 18.057 15.6182 17.5401 16.1139 16.85C16.6095 16.1599 16.8758 15.3315 16.875 14.4819Z" fill="white"/>
<path d="M5.30528 18.8295C3.72402 17.9887 2.39756 16.7387 1.46449 15.2101C0.531421 13.6815 0.0259798 11.9303 0.00097478 10.1396C-0.0240302 8.34891 0.432319 6.58434 1.32234 5.03026C2.21237 3.47619 3.50341 2.18965 5.06058 1.30505L10 10L5.30528 18.8295Z" fill="#F4B731"/>
<path fill-rule="evenodd" clip-rule="evenodd" d="M1.84306 6.875H4.44877C6.03359 6.875 7.23504 7.71653 7.68205 8.94064H8.49375V9.68075H7.85306C7.86539 9.79768 7.87175 9.91699 7.87175 10.0379V10.0562C7.87175 10.1922 7.8638 10.3266 7.84789 10.4579H8.49375V11.1976H7.66654C7.20799 12.405 6.0161 13.2382 4.44917 13.2382H1.84306V11.1976H0.9375V10.4579H1.84306V9.68075H0.9375V8.94104H1.84306V6.875V6.875ZM2.57124 11.1976V12.5744H4.44837C5.60726 12.5744 6.46788 12.0228 6.86836 11.1976H2.57124V11.1976ZM7.09147 10.4579H2.57124V9.68075H7.09306C7.10937 9.80285 7.11811 9.92812 7.11811 10.0562V10.0741C7.11811 10.2049 7.10897 10.3326 7.09147 10.4575V10.4579ZM4.44917 7.53717C5.61283 7.53717 6.47623 8.10349 6.87433 8.94024H2.57124V7.53756H4.44837L4.44917 7.53717Z" fill="white"/>
<path d="M5 1.33975C6.52788 0.457623 8.26194 -0.00458467 10.0262 3.42719e-05C11.7904 0.00465321 13.522 0.475934 15.0453 1.36604C16.5685 2.25616 17.8292 3.53341 18.6993 5.06817C19.5694 6.60293 20.0179 8.34057 19.9995 10.1047L10 10L5 1.33975Z" fill="#26A17B"/>
<path fill-rule="evenodd" clip-rule="evenodd" d="M12.5016 5.57083V5.57006C12.4602 5.57315 12.2467 5.58629 11.7703 5.58629C11.3899 5.58629 11.1222 5.57469 11.028 5.57006V5.57122C9.56391 5.50514 8.47108 5.24352 8.47108 4.93051C8.47108 4.61789 9.56391 4.35628 11.028 4.28904V5.31076C11.1237 5.31772 11.3978 5.33433 11.7767 5.33433C12.2312 5.33433 12.459 5.31501 12.5016 5.31115V4.28981C13.9627 4.35666 15.0529 4.61828 15.0529 4.93051C15.0529 5.24352 13.9627 5.50436 12.5016 5.57083V5.57083ZM12.5016 4.18354V3.26924H14.5404V1.875H8.98925V3.26924H11.028V4.18315C9.3711 4.26121 8.125 4.59818 8.125 5.00162C8.125 5.40505 9.3711 5.74163 11.028 5.82008V8.75H12.5016V5.8193C14.1559 5.74125 15.399 5.40466 15.399 5.00162C15.399 4.59857 14.1559 4.26199 12.5016 4.18354" fill="white"/>
</svg>
