<svg width="128" height="128" viewBox="0 0 128 128" fill="none" xmlns="http://www.w3.org/2000/svg">
<path d="M128 64C128 28.6538 99.3462 0 64 0C28.6538 0 0 28.6538 0 64C0 99.3462 28.6538 128 64 128C99.3462 128 128 99.3462 128 64Z" fill="#199248"/>
<path fill-rule="evenodd" clip-rule="evenodd" d="M56.8171 33.3235C56.5893 33.3405 55.4152 33.4085 52.7956 33.4085C50.704 33.4085 49.2317 33.3448 48.714 33.3192C40.6626 32.9558 34.653 31.5236 34.653 29.8024C34.653 28.0833 40.6626 26.6446 48.714 26.2749V31.8934C49.2399 31.9316 50.7475 32.023 52.8308 32.023C55.3302 32.023 56.5831 31.9167 56.8171 31.8955V26.2791C64.8518 26.6467 70.8467 28.0854 70.8467 29.8024C70.8467 31.5236 64.8518 32.958 56.8171 33.3235ZM56.8171 25.6947V20.667H68.0288V13H37.5025V20.667H48.714V25.6926C39.6024 26.1219 32.75 27.9748 32.75 30.1934C32.75 32.4119 39.6024 34.2627 48.714 34.6941V50.8059H56.8171V34.6899C65.9142 34.2606 72.7501 32.4097 72.7501 30.1934C72.7501 27.977 65.9142 26.1261 56.8171 25.6947Z" fill="white"/>
<path fill-rule="evenodd" clip-rule="evenodd" d="M83.7139 45H97.6365C106.105 45 112.524 49.4965 114.913 56.0373H119.25V59.9919H115.827C115.892 60.6166 115.926 61.2541 115.926 61.9001V61.9979C115.926 62.7246 115.884 63.4429 115.799 64.144H119.25V68.0966H114.83C112.38 74.5478 106.012 79.0003 97.639 79.0003H83.7139V68.0966H78.8749V64.144H83.7139V59.9919H78.8749V56.0394H83.7139V45ZM87.6045 68.0966V75.4534H97.6346C103.827 75.4534 108.425 72.5062 110.565 68.0966H87.6045ZM111.757 64.144H87.6045V59.9919H111.766C111.853 60.6442 111.9 61.3136 111.9 61.9979V62.0935C111.9 62.7926 111.851 63.4767 111.757 64.144ZM97.639 48.5381C103.857 48.5381 108.47 51.5641 110.597 56.0351H87.6045V48.5402L97.639 48.5381Z" fill="white"/>
<path d="M40.078 78.2266C38.387 78.3104 36.7884 79.0234 35.5962 80.2253C34.4039 81.4278 33.704 83.0317 33.6339 84.7232C33.6339 87.9059 35.5802 89.984 39.7097 90.8518L42.603 91.536C45.4173 92.1933 46.5746 93.1405 46.5746 94.7443C46.5746 96.3488 44.5493 97.927 41.9191 97.927C40.9848 98.0128 40.0453 97.8336 39.2081 97.4106C38.3708 96.9875 37.6696 96.3366 37.1847 95.5334C37.041 95.2288 36.8142 94.9709 36.5303 94.7898C36.2465 94.608 35.9171 94.5101 35.5802 94.5082H34.0284C33.9091 94.5299 33.7953 94.5754 33.6936 94.6419C33.5919 94.7078 33.5043 94.7936 33.4359 94.8941C33.3674 94.9939 33.3195 95.1072 33.2948 95.2256C33.2701 95.3446 33.2691 95.4669 33.292 95.5866C33.67 97.129 34.5489 98.503 35.7911 99.4931C37.0332 100.483 38.5686 101.033 40.1568 101.057V103.267C40.1568 103.758 40.3522 104.23 40.7 104.578C41.0477 104.925 41.5194 105.121 42.0111 105.121C42.5029 105.121 42.9746 104.925 43.3223 104.578C43.6701 104.23 43.8655 103.758 43.8655 103.267V101.031C45.6613 101.011 47.3783 100.29 48.6507 99.0221C49.9231 97.7549 50.6504 96.041 50.6777 94.2451C50.6777 90.9043 48.7576 88.9843 44.2074 88.0115L41.5772 87.4323C38.947 86.775 37.7107 85.9072 37.7107 84.4339C37.7107 82.9613 39.2888 81.3306 41.9191 81.3306C42.7475 81.2442 43.5831 81.399 44.3253 81.7773C45.0673 82.1549 45.6842 82.7398 46.1011 83.4611C46.2702 83.8208 46.5378 84.1254 46.873 84.3398C47.2081 84.5542 47.5972 84.6688 47.9949 84.6707H49.2311C49.5122 84.6022 49.755 84.4256 49.9075 84.1798C50.06 83.9341 50.1099 83.6378 50.0465 83.3555C49.6901 81.9315 48.8931 80.656 47.7689 79.7114C46.6448 78.7667 45.2511 78.201 43.7866 78.0954V76.2803C43.7866 75.7888 43.5912 75.3171 43.2434 74.969C42.8957 74.6214 42.424 74.4262 41.9322 74.4262C41.4405 74.4262 40.9688 74.6214 40.6211 74.969C40.2733 75.3171 40.078 75.7888 40.078 76.2803V78.2266ZM18.7468 89.6947C18.7498 94.5395 20.2749 99.2614 23.1066 103.193C25.9384 107.124 29.9336 110.067 34.5281 111.604H34.8964C35.2103 111.604 35.5114 111.48 35.7333 111.258C35.9553 111.036 36.08 110.735 36.08 110.42V109.868C36.0808 109.379 35.9363 108.9 35.6648 108.493C35.3932 108.085 35.0067 107.768 34.5544 107.58C30.9763 106.136 27.9114 103.655 25.7532 100.456C23.5949 97.2582 22.4418 93.4874 22.4418 89.6288C22.4418 85.7702 23.5949 81.9994 25.7532 78.8013C27.9114 75.6026 30.9763 73.1219 34.5544 71.6774C35.0047 71.4944 35.3902 71.1821 35.6619 70.7789C35.9336 70.3763 36.0791 69.9014 36.08 69.4157V68.8109C36.0817 68.633 36.0405 68.4576 35.96 68.2995C35.8795 68.1408 35.762 68.0045 35.6174 67.9008C35.4729 67.7978 35.3056 67.7312 35.1297 67.7062C34.9538 67.6813 34.7745 67.6992 34.6071 67.7587C29.9935 69.2845 25.9781 72.2246 23.131 76.1626C20.2838 80.1005 18.7498 84.8352 18.7468 89.6947ZM65.0911 89.6947C65.0828 84.8538 63.5552 80.1382 60.7238 76.2118C57.8925 72.2861 53.9003 69.3478 49.31 67.8112H48.9155C48.5876 67.8112 48.2732 67.9411 48.0414 68.1734C47.8095 68.4051 47.6793 68.7194 47.6793 69.047V69.4419C47.6899 69.9494 47.847 70.4422 48.1317 70.8627C48.4163 71.2826 48.8165 71.6115 49.2837 71.8093C52.8537 73.2576 55.9103 75.7382 58.0623 78.9338C60.2143 82.1293 61.3639 85.8944 61.3639 89.7472C61.3639 93.6 60.2143 97.3651 58.0623 100.561C55.9103 103.756 52.8537 106.237 49.2837 107.685C48.8254 107.885 48.4335 108.211 48.1539 108.626C47.8744 109.041 47.7189 109.526 47.7056 110.026V110.474C47.7078 110.668 47.7562 110.86 47.8467 111.033C47.9372 111.206 48.0672 111.354 48.2263 111.468C48.3853 111.58 48.5688 111.654 48.7617 111.682C48.9546 111.711 49.1515 111.693 49.3363 111.631C53.9302 110.087 57.9228 107.139 60.7499 103.203C63.577 99.2659 65.0956 94.5408 65.0911 89.6947Z" fill="white"/>
<path d="M128 64C128 75.1206 125.102 86.0493 119.592 95.7094C114.083 105.369 106.151 113.427 96.5785 119.087C87.0067 124.748 76.1248 127.818 65.0054 127.992C53.8859 128.167 42.9129 125.441 33.1677 120.084L64 64H128Z" fill="#2775C9"/>
<path d="M79.9341 79.8169C78.0371 79.9109 76.2432 80.7103 74.9056 82.0594C73.568 83.4079 72.7827 85.2082 72.704 87.1058C72.704 90.677 74.8877 93.0085 79.5213 93.982L82.7674 94.7493C85.9251 95.4872 87.2237 96.5496 87.2237 98.35C87.2237 100.15 84.951 101.921 82 101.921C80.9517 102.017 79.8976 101.816 78.9581 101.341C78.0186 100.866 77.232 100.136 76.688 99.2351C76.5267 98.8933 76.272 98.6041 75.9539 98.4005C75.6352 98.197 75.2659 98.0869 74.8877 98.0844H73.1462C73.0125 98.1093 72.8851 98.1605 72.7706 98.2348C72.6566 98.309 72.5581 98.405 72.4813 98.5177C72.4045 98.6303 72.3507 98.7564 72.3232 98.8901C72.2957 99.0233 72.2944 99.1609 72.32 99.2946C72.7443 101.025 73.7306 102.567 75.1238 103.678C76.5178 104.788 78.2406 105.406 80.0224 105.433V107.912C80.0224 108.464 80.2419 108.993 80.6323 109.383C81.0221 109.773 81.5514 109.992 82.103 109.992C82.6554 109.992 83.184 109.773 83.5744 109.383C83.9648 108.993 84.1837 108.464 84.1837 107.912V105.403C86.199 105.38 88.1254 104.572 89.5533 103.15C90.9805 101.728 91.7971 99.8041 91.8272 97.7893C91.8272 94.0415 89.673 91.8866 84.5677 90.7948L81.6166 90.1458C78.665 89.4079 77.2781 88.4338 77.2781 86.7813C77.2781 85.1288 79.049 83.2991 82 83.2991C82.9293 83.2018 83.8669 83.3759 84.6995 83.8002C85.5322 84.2245 86.2246 84.8805 86.6925 85.6895C86.8819 86.0933 87.1821 86.4351 87.5584 86.6757C87.9347 86.9157 88.3712 87.0444 88.8173 87.0469H90.2042C90.5197 86.9701 90.7923 86.7717 90.9632 86.4959C91.1341 86.2201 91.1904 85.8879 91.1194 85.5711C90.7194 83.973 89.8253 82.542 88.5638 81.4821C87.3024 80.4223 85.7389 79.7874 84.0954 79.669V77.6325C84.0954 77.0809 83.8758 76.5516 83.4861 76.1612C83.0957 75.7714 82.5664 75.5519 82.0147 75.5519C81.463 75.5519 80.9338 75.7714 80.5434 76.1612C80.1536 76.5516 79.9341 77.0809 79.9341 77.6325V79.8169ZM56 92.6841C56.0034 98.1202 57.7146 103.418 60.8918 107.829C64.0691 112.24 68.5517 115.542 73.7069 117.267H74.1203C74.4723 117.267 74.8102 117.128 75.0592 116.878C75.3082 116.629 75.4483 116.291 75.4483 115.939V115.32C75.4496 114.77 75.287 114.233 74.9824 113.776C74.6778 113.318 74.2438 112.962 73.737 112.752C69.7216 111.131 66.2829 108.348 63.8613 104.759C61.4397 101.17 60.1459 96.9394 60.1459 92.6098C60.1459 88.2802 61.4397 84.0498 63.8613 80.4607C66.2829 76.8722 69.7216 74.0888 73.737 72.4684C74.2419 72.2629 74.6746 71.9122 74.9792 71.4597C75.2838 71.0079 75.4477 70.4754 75.4483 69.9301V69.2511C75.4502 69.0521 75.4042 68.8549 75.3139 68.6776C75.2237 68.4997 75.0918 68.3468 74.9293 68.2309C74.7674 68.1151 74.5792 68.0402 74.3821 68.012C74.185 67.9839 73.9834 68.0044 73.7958 68.0709C68.6189 69.7829 64.1139 73.0821 60.9192 77.5007C57.7246 81.9186 56.0034 87.2313 56 92.6841ZM108 92.6841C107.99 87.2524 106.276 81.9615 103.1 77.5557C99.9226 73.1506 95.4432 69.854 90.2931 68.1298H89.8502C89.4822 68.1298 89.1296 68.2757 88.8691 68.5362C88.6093 68.796 88.4634 69.1493 88.4634 69.5167V69.9596C88.4749 70.5285 88.6515 71.0821 88.9709 71.5538C89.2902 72.0248 89.7389 72.3935 90.263 72.6156C94.2688 74.2412 97.6986 77.0245 100.113 80.6098C102.528 84.1957 103.818 88.4197 103.818 92.7429C103.818 97.0655 102.528 101.29 100.113 104.875C97.6986 108.461 94.2688 111.245 90.263 112.87C89.7491 113.094 89.3094 113.46 88.9958 113.926C88.6822 114.391 88.5075 114.936 88.4928 115.496V115.998C88.4954 116.217 88.5491 116.432 88.6509 116.626C88.7526 116.82 88.8986 116.987 89.0771 117.113C89.255 117.24 89.4611 117.323 89.6774 117.355C89.8938 117.386 90.1152 117.366 90.3226 117.297C95.4771 115.565 99.9565 112.257 103.129 107.84C106.301 103.423 108.005 98.1215 108 92.6841Z" fill="white"/>
<path d="M33.9538 120.509C23.8337 115.128 15.3444 107.128 9.37274 97.3446C3.4011 87.5616 0.166272 76.3539 0.00624026 64.8934C-0.153792 53.433 2.76684 42.1398 8.46298 32.1936C14.1592 22.2476 22.4218 14.0137 32.3877 8.35229L64 64L33.9538 120.509Z" fill="#F4B731"/>
<path fill-rule="evenodd" clip-rule="evenodd" d="M11.7956 44H28.4721C38.615 44 46.3043 49.3858 49.1651 57.2201H54.36V61.9568H50.2596C50.3385 62.7052 50.3792 63.4687 50.3792 64.2426V64.3597C50.3792 65.2301 50.3283 66.0902 50.2265 66.9306H54.36V71.6646H49.0659C46.1311 79.392 38.503 84.7245 28.4747 84.7245H11.7956V71.6646H6V66.9306H11.7956V61.9568H6V57.2227H11.7956V44ZM16.4559 71.6646V80.4762H28.4696C35.8865 80.4762 41.3944 76.9459 43.9575 71.6646H16.4559ZM45.3854 66.9306H16.4559V61.9568H45.3956C45.5 62.7382 45.5559 63.54 45.5559 64.3597V64.4742C45.5559 65.3114 45.4974 66.1312 45.3854 66.9306ZM28.4747 48.2379C35.9221 48.2379 41.4479 51.8623 43.9957 57.2175H16.4559V48.2404L28.4747 48.2379Z" fill="white"/>
<path d="M32 8.5744C41.7784 2.92879 52.8764 -0.0293418 64.1677 0.000219403C75.4586 0.0297806 86.5408 3.04598 96.2899 8.74266C106.038 14.4394 114.107 22.6138 119.676 32.4363C125.244 42.2587 128.115 53.3796 127.997 64.6701L64 64L32 8.5744Z" fill="#26A17B"/>
<path fill-rule="evenodd" clip-rule="evenodd" d="M80.0102 35.6533C79.7453 35.6731 78.3789 35.7523 75.3299 35.7523C72.8954 35.7523 71.1821 35.678 70.5792 35.6484V35.6558C61.209 35.2329 54.2149 33.5585 54.2149 31.5553C54.2149 29.5545 61.209 27.8802 70.5792 27.4499V33.9889C71.1917 34.0334 72.9459 34.1397 75.3709 34.1397C78.2797 34.1397 79.7376 34.0161 80.0102 33.9914V27.4548C89.3613 27.8826 96.3386 29.557 96.3386 31.5553C96.3386 33.5585 89.3613 35.2279 80.0102 35.6533ZM80.0102 26.7747V20.9231H93.0586V12H57.5312V20.9231H70.5792V26.7722C59.975 27.2717 52 29.4284 52 32.0104C52 34.5923 59.975 36.7464 70.5792 37.2485V56H80.0102V37.2435C90.5978 36.744 98.5536 34.5898 98.5536 32.0104C98.5536 29.4308 90.5978 27.2767 80.0102 26.7747Z" fill="white"/>
</svg>
