<svg width="128" height="128" viewBox="0 0 128 128" fill="none" xmlns="http://www.w3.org/2000/svg">
<rect width="128" height="128" rx="64" fill="black"/>
<mask id="mask0" mask-type="alpha" maskUnits="userSpaceOnUse" x="4" y="4" width="120" height="120">
<path d="M63.989 124C52.1231 123.998 40.5242 120.477 30.659 113.884C20.7937 107.29 13.105 97.9191 8.56515 86.9559C4.02526 75.9928 2.83798 63.9297 5.15345 52.2919C7.46891 40.6541 13.1831 29.9641 21.5736 21.5736C29.9641 13.1831 40.6541 7.46891 52.2919 5.15345C63.9297 2.83798 75.9928 4.02526 86.9559 8.56515C97.9191 13.105 107.29 20.7937 113.884 30.659C120.477 40.5242 123.998 52.1231 124 63.989C124.001 71.8702 122.45 79.6744 119.435 86.9559C116.42 94.2375 111.999 100.854 106.426 106.426C100.854 111.999 94.2375 116.42 86.9559 119.435C79.6744 122.45 71.8702 124.001 63.989 124Z" fill="#C4C4C4"/>
</mask>
<g mask="url(#mask0)">
<g opacity="0.6">
<path opacity="0.4" d="M84.5073 81.9275L64.6232 143L127.116 81.9275H84.5073Z" fill="white"/>
<g opacity="0.5">
<path d="M98.7101 45L127.116 81.9275H84.5072L98.7101 45Z" fill="white"/>
<path d="M64.6232 143L0 81.9275H44.029L64.6232 143Z" fill="white"/>
</g>
<path opacity="0.6" d="M44.029 81.9275H84.5073L64.6232 45H98.7102L84.5073 81.9275L64.6232 143L44.029 81.9275Z" fill="white"/>
<path opacity="0.7" d="M84.5073 81.9275H44.029L64.6232 45L84.5073 81.9275Z" fill="white"/>
<path opacity="0.8" d="M44.029 81.9275L27.6956 45H64.6232L44.029 81.9275Z" fill="white"/>
<path opacity="0.9" d="M44.029 81.9275L27.6957 45L0 81.9275H44.029Z" fill="white"/>
</g>
<path d="M27 45L43.33 82L63.92 45L83.8 82L98 45" stroke="white" stroke-width="8"/>
<path d="M27 45L43.33 82L63.92 45L83.8 82L98 45" stroke="white" stroke-width="8"/>
<path d="M63.9896 121C52.7169 120.998 41.698 117.653 32.326 111.389C22.954 105.125 15.6498 96.2231 11.3369 85.8081C7.024 75.3932 5.89609 63.9333 8.09577 52.8773C10.2955 41.8214 15.724 31.6659 23.6949 23.6949C31.6659 15.724 41.8214 10.2955 52.8773 8.09577C63.9333 5.89609 75.3932 7.024 85.8081 11.3369C96.2231 15.6498 105.125 22.954 111.389 32.326C117.653 41.698 120.998 52.7169 121 63.9896C121.001 71.4767 119.528 78.8907 116.663 85.8081C113.799 92.7256 109.599 99.0109 104.305 104.305C99.0109 109.599 92.7256 113.799 85.8081 116.663C78.8907 119.528 71.4767 121.001 63.9896 121Z" stroke="white" stroke-width="6"/>
</g>
</svg>
