<?xml version="1.0" encoding="UTF-8" standalone="no"?>
<svg
   xmlns:dc="http://purl.org/dc/elements/1.1/"
   xmlns:cc="http://creativecommons.org/ns#"
   xmlns:rdf="http://www.w3.org/1999/02/22-rdf-syntax-ns#"
   xmlns:svg="http://www.w3.org/2000/svg"
   xmlns="http://www.w3.org/2000/svg"
   xmlns:xlink="http://www.w3.org/1999/xlink"
   xmlns:sodipodi="http://sodipodi.sourceforge.net/DTD/sodipodi-0.dtd"
   xmlns:inkscape="http://www.inkscape.org/namespaces/inkscape"
   width="128"
   height="128"
   viewBox="0 0 95.999997 95.999999"
   fill-rule="evenodd"
   version="1.1"
   id="svg869"
   sodipodi:docname="logo.svg"
   inkscape:version="1.0.2-2 (e86c870879, 2021-01-15)">
  <metadata
     id="metadata875">
    <rdf:RDF>
      <cc:Work
         rdf:about="">
        <dc:format>image/svg+xml</dc:format>
        <dc:type
           rdf:resource="http://purl.org/dc/dcmitype/StillImage" />
        <dc:title></dc:title>
      </cc:Work>
    </rdf:RDF>
  </metadata>
  <defs
     id="defs873">
    <linearGradient
       inkscape:collect="always"
       id="linearGradient935">
      <stop
         style="stop-color:#ff0000;stop-opacity:1"
         offset="0"
         id="stop931" />
      <stop
         style="stop-color:#ffd42a;stop-opacity:1"
         offset="1"
         id="stop933" />
    </linearGradient>
    <linearGradient
       inkscape:collect="always"
       xlink:href="#linearGradient935"
       id="linearGradient937"
       x1="265.86072"
       y1="716.3421"
       x2="341.62497"
       y2="47.331417"
       gradientUnits="userSpaceOnUse"
       gradientTransform="matrix(1.0872154,0,0,1.0872154,48.28843,-39.258221)" />
  </defs>
  <sodipodi:namedview
     pagecolor="#ffffff"
     bordercolor="#666666"
     borderopacity="1"
     objecttolerance="10"
     gridtolerance="10"
     guidetolerance="10"
     inkscape:pageopacity="0"
     inkscape:pageshadow="2"
     inkscape:window-width="1920"
     inkscape:window-height="1121"
     id="namedview871"
     showgrid="false"
     units="px"
     inkscape:zoom="2.6191069"
     inkscape:cx="-84.827863"
     inkscape:cy="98.649554"
     inkscape:window-x="-9"
     inkscape:window-y="-9"
     inkscape:window-maximized="1"
     inkscape:current-layer="svg869"
     inkscape:document-rotation="0" />
  <g
     id="g2102"
     transform="matrix(0.13063512,0,0,0.13063512,-0.98816976,-0.98816989)">
    <path
       style="fill:url(#linearGradient937);fill-opacity:1;stroke:none;stroke-width:0.438983"
       d="m 11.521871,374.9999 c 0,-200.74693 162.731069,-363.478027 363.478159,-363.478027 200.74699,0 363.47808,162.731097 363.47808,363.478027 0,200.74713 -162.73109,363.47821 -363.47808,363.47821 -200.74709,0 -363.47816,-162.73108 -363.478159,-363.47821 z"
       id="path855" />
    <path
       style="fill:#ffffff;stroke:none;stroke-width:0.472329"
       d="m 324.09707,507.96066 v 32.26482 h -32.2648 v -32.26482 z m 0,-66.75901 v 32.26481 h -32.2648 v -32.26481 z m -66.20166,0 v 33.3795 h 32.82217 v 32.26482 h -65.08697 v -65.64432 z m 32.82217,-32.82225 v 32.2649 h -32.26482 v -32.2649 z m -99.58117,0 v 32.2649 h -32.82215 v 32.82216 H 126.04944 V 441.20165 H 158.8716 V 408.3794 Z m -66.20167,-33.3795 v 32.26481 H 92.669933 V 374.9999 Z m 267.03132,-0.55738 v 33.37953 H 359.1439 V 374.44252 Z M 224.51591,342.17769 v 32.82221 h 33.3795 v 32.26481 H 192.2511 v -65.08702 z m -66.20165,0 v 32.26483 h -32.26482 v -32.26483 z m -33.37952,-33.37937 v 32.26473 H 92.669933 v -32.26473 z m 267.03132,-32.82215 v 32.26482 H 359.1439 v -32.26482 z m -99.57645,-32.82215 v 32.2648 h -32.26952 v -32.2648 z m -66.20166,-0.55735 v 66.20165 h 31.70746 v 32.26473 h -32.82215 v -33.37941 h -32.2648 v -33.37479 h -32.26954 v -31.71218 z m 332.11829,-32.82215 v 164.668 H 425.34556 V 242.59667 h 99.58117 v -32.82215 z m -166.34018,0 v 32.82215 H 359.1439 v -32.82215 z m -132.95594,-0.55736 v 32.26481 h -32.26954 v -32.26481 z m 332.11827,-32.2648 v 32.82216 h 32.82215 v 65.6443 h 33.37951 v 67.31627 h -32.26481 v -35.05145 h -33.3795 v 36.16143 h 32.2648 v 65.64431 H 590.57103 V 440.6443 H 424.78822 v 132.40333 h -99.57644 v -32.26481 h 25.03345 v -33.93685 h -25.03345 v -32.26482 h 25.03345 V 440.6443 h -26.14816 v -33.37959 h -33.37949 v -33.37953 h -32.26482 v -31.70749 h 32.26482 v -33.37937 h 35.60417 v -66.759 h -33.37951 v -32.2648 h 33.37951 v -32.82216 z"
       id="path865" />
  </g>
</svg>
