<?xml version="1.0"?><svg version="1.2" baseProfile="tiny-ps" viewBox="0 0 320 320" xmlns="http://www.w3.org/2000/svg" xmlns:xlink="http://www.w3.org/1999/xlink"><title>Logion Agro LLC</title><g><g fill="#faf7f3" transform="matrix(.1 0 0 -.1 0 320)"><path d="M1445 3194c-218-31-381-78-540-154-462-223-786-650-881-1165L5 1775v-350l19-100C148 654 654 148 1325 24l100-19h350l100 19c671 124 1177 630 1301 1301l19 100v350l-19 100c-122 660-615 1162-1272 1296l-99 20-165 4c-91 2-178 1-195-1z"/></g><g fill="#f0ebe5" transform="matrix(.1 0 0 -.1 0 320)"><path d="M1445 3194c-218-31-381-78-540-154-462-223-786-650-881-1165L5 1775v-350l19-100C148 654 654 148 1325 24l100-19h350l100 19c671 124 1177 630 1301 1301l19 100v350l-19 100c-122 660-615 1162-1272 1296l-99 20-165 4c-91 2-178 1-195-1zm243-751c-10-2-26-2-35 0l-18 5h70l-17-5zm-195-29l18-12 33 10 34 11 33-7c19-4 43-13 54-21l19-15-1-33c0-17-2-39-4-47l-4-15 26-3 27-3 22-24 22-23 8-36 8-36h-9c-5 0-9-6-9-13s-9-18-20-25c-24-14-26-38-5-46l15-5v-70l-26-20c-15-12-35-21-44-21h-18l-6-15-5-15 9-24 9-24-25-17-25-16-21 3-22 3-7-33-7-33-18-14-19-14-33-1h-33l-19-42-19-43-22-14c-13-7-35-17-50-21l-27-8-27 14c-36 19-34 19-78-21l-38-35-42-10c-23-5-52-10-64-10h-22l-15 16-16 15v-10c0-6-4-11-10-11-5 0-10 6-10 14 0 7-9 25-20 39l-21 26-15-6-15-6-18 20c-10 10-21 31-25 46l-7 28-15-16-15-15h-25c-14 0-34 5-45 10l-19 11v19c0 10-5 22-11 25l-10 7-18-21c-10-12-25-21-33-21-17 0-58 36-58 51 0 19 22 54 58 92l36 37h86v37l25 23 26 24 38-3 38-2-7 44-6 44 18 12 18 11h74l-12 12-12 12v72l20 17 20 17h48l7 33 8 32 23 24 24 24 52-5 52-5 4-12c2-6 10-11 18-11h14v46l28 31 27 32 40 3c45 4 62 0 88-18zm-357-46l7-11-16-12-17-12 7-6 6-7-9 1c-5 0-18 4-29 9l-20 9h13l13 1-6 9-5 10 17 10c23 14 30 13 39-1zm-101-8l6-10-17 7-17 6 7-11 7-12h-26l15-10 15-9-10-10c-8-7-60-19-97-21-3 0-9-8-11-17l-5-18-1 23-1 23 30 6c17 3 28 8 25 11-5 5 54 52 66 52 4 0 11-4 14-10zm888-17c-7-2-19-2-25 0l-13 5h50l-12-5zm204-59c-3-3-12-4-19-1l-13 5 19 1c11 1 17-2 13-5zm-64-11c-7-2-19-2-25 0l-13 5h50l-12-5zm-183-45c0-11-42-38-52-32-12 7-10 38 3 51l12 12 18-12c11-7 19-15 19-19zm444 14l5-8-35 4c-19 2-34 6-34 8 0 8 59 4 64-4zM861 2133c-12-20-14-14-5 12 4 9 9 14 11 11 3-2 0-13-6-23zm12-28c-3-9-8-14-10-11-3 3-2 9 2 15 9 16 15 13 8-4zm1327-45v-30h-8c-4 0-13 5-19 11l-11 11 5 19 5 19h28v-30zm-143 4l22-6 16-35 17-35-4-34-4-34h12c6 0 17 7 24 15l12 15h87l38-37 37-37 28 3 29 3 19-24 19-23 1-36v-35l-30-22c-16-12-36-22-45-22h-15v23l-22-24c-13-13-35-32-51-42l-27-18-35 3-36 2-20 19-19 18-15-15c-8-8-15-18-15-22s-7-16-17-26l-16-18h-75l-30 25-30 25-26-35-27-35h-70l-13 13c-7 7-18 22-24 34l-12 22v81l22 25 22 25h56v-24l12 12 12 12-12 12-12 12v76l40 40 40 40v47l18 15c30 27 73 34 119 22zm363-90c0-14-20-23-37-16-17 5-17 34-1 50l13 13 12-18c7-9 13-22 13-29zm-722-151c-2-9-8-18-14-20l-11-4-6 21-5 20h39l-3-17zm-1108-22v-19l-20-5-20-5-6 9c-3 6-3 16 0 24l5 15h41v-19zm1905-91l7-11-12-14-12-15h-48v9c0 10 39 41 52 41 4 0 10-5 13-10zm-957-86l3-20-25-13-24-13-11 6-10 7 6 17c3 9 11 23 16 30l10 13 16-3 16-3 3-21zm270-86c18-18 15-25-17-36l-28-10-9 7c-8 5-9 17-5 44 2 12 46 8 59-5zm119-34c-3-3-12-4-19-1l-13 5 19 1c11 1 17-2 13-5zm-500 824c-12-43 15-51 50-14l22 23-6 7c-3 3-19 6-34 6h-27l-5-22zm53-273l-12-14 4-18 3-18h40l3 26 3 26-15 6-15 6-11-14zm-108-37c-7-7-12-20-12-30v-18h38l4 18c10 36-7 53-30 30zm28-177c0-11 5-23 10-26l11-7 14 12 14 11-6 15-5 14h-38v-19zm-549-10l-14-9 6-16 6-16h30l11 19c5 11 10 22 10 25 0 9-33 7-49-3zm202-88l-13-5v-46l26-6c33-9 38-4 30 27-6 26-23 37-43 30zm855 160c-9-2-19-11-22-20l-7-16 9-9 9-9 17 16c13 13 24 49 14 44-2-1-10-3-20-6zm277-152c-8-15 3-31 21-31h15l-3 17c-4 20-24 28-33 14z"/></g><g fill="#f8dbc8" transform="matrix(.1 0 0 -.1 0 320)"><path d="M1445 3194c-218-31-381-78-540-154-462-223-786-650-881-1165L5 1775v-350l19-100C148 654 654 148 1325 24l100-19h350l100 19c671 124 1177 630 1301 1301l19 100v350l-19 100c-122 660-615 1162-1272 1296l-99 20-165 4c-91 2-178 1-195-1zm-44-701l41-16 47 16c25 10 57 17 71 17 27-1 60-21 60-38 0-15 26-22 80-22h48l11-13c6-8 9-16 7-18s12-5 31-7l36-2 34-30 34-30h38l37-32 37-33 63 2 63 3-5-15c-4-8-10-15-16-15h-9l7-12 7-11-22 6-22 5 6-18 6-19-11-22-12-22 26-23 25-24h37l14 21c8 12 25 32 38 45 12 13 22 28 22 34s5 17 12 24l12 13 36-7c19-4 42-11 52-14l16-7-3-26-2-25-39-38c-87-85-87-86-44-118 34-25 40-26 74-11l25 12-5 8-5 9h31v13c0 18 56 67 76 67h15l-6 10-6 10h10c5 0 19-12 30-26l21-27v-73l20-17 21-18-6-8-5-9 26-6 26-7-7-17c-3-9-9-29-12-44l-5-28h27l-15-10-15-10h18c10 0 27-9 39-19l21-20-5-25-5-26h17v-50h-15c-8 0-15-4-15-10 0-5-7-10-15-10s-15-4-15-10v-10h-61l6-10 6-10h-94l6-7 7-6-26-14c-15-7-33-13-40-13-8 0-14-4-14-10v-10h-22c-13 0-42-7-66-15l-43-15-11 6-10 7-7-11-7-11-44-2c-25-2-48-7-51-12l-6-9h-57l-56-1-6-8-5-9-62-1h-62l20-9 20-9-85-2c-47-2-103-2-125-1l-40 2 15-11 15-11-20 7c-11 4-108 11-215 16s-223 11-258 15l-62 6 6 9 5 9-18-2h-56l-38 2 6 11 7 10-13-2c-8-1-31-1-52 0l-38 1 4 8 5 7-36 1-36 1-4 11-4 12h-26c-28 0-97 21-108 33-4 4-17 7-28 7h-21l15 10 15 10h-83l-26 13-26 14 8 8 7 8-17-6-17-6-15 14-15 15h-46l15 10 15 10h-54l-10 19c-13 24-9 72 7 89l12 14-5 9-6 9h11c15 0 41 26 33 34-4 3 1 6 10 6 27 0 31 1 44 12l13 10 16-6 17-6 20 6 20 6-12 7-12 8 11 27 10 27 9-5 9-6 4 11 3 10 39 3 38 2 13 17 12 17 6-7 7-6v16c0 8 7 22 15 31 24 23 63 115 75 173l11 53 53 35 53 35h23c13 0 31 6 39 13l16 14 64 11 65 11 35 35c34 33 71 54 98 55 7 1 31-6 54-16zm319-63c0-5 5-10 11-10h10l-6 10c-3 6-8 10-11 10-2 0-4-4-4-10z"/></g><g fill="#efc098" transform="matrix(.1 0 0 -.1 0 320)"><path d="M1445 3194c-218-31-381-78-540-154-462-223-786-650-881-1165L5 1775v-350l19-100C148 654 654 148 1325 24l100-19h350l100 19c671 124 1177 630 1301 1301l19 100v350l-19 100c-122 660-615 1162-1272 1296l-99 20-165 4c-91 2-178 1-195-1zm1065-419l12-15h-41l5 15c4 8 7 15 9 15 1 0 8-7 15-15zm-71-114l-13-30-8 5c-4 3-8 1-8-4s-12-22-27-38l-26-29 16 25c9 14 29 47 44 74l27 48 4-11c2-6-2-24-9-40zm352-128l14-17-12 7-11 7-5-12-5-13 1 23c1 26 1 26 18 5zm-378-8c-3-9-8-14-10-11-3 3-2 9 2 15 9 16 15 13 8-4zm341-9l-6-16-10 6-9 6 12 14c15 18 22 13 13-10zm-1348-22l34-16 40 16 40 16h76l26-30 26-30h94l25-20 26-20h49l19-25 20-24 35-7 35-6 40-34 40-34 60 7 59 6v-9c0-5-16-34-35-64l-35-55 12-3c7-2 23-8 35-14 13-6 24-9 26-7 1 2 16 24 32 49 17 25 35 50 41 57l12 12 56-9 57-9 23-19 24-19-69-69c-37-38-69-75-69-81v-13h14c8 0 17-7 20-16 8-21 17-17 73 36 27 25 61 56 75 69l27 23 30-22 31-21v-87l41-33 41-32-5-31c-2-17-7-39-12-48l-7-18h14c8 0 25-11 38-25l24-25 4-59 4-59-31-16c-89-46-374-137-522-166-53-11-156-26-229-35l-132-15h-323l-130 15c-71 9-163 23-205 31-163 33-433 119-574 183l-45 21-11 19c-5 11-10 40-10 64v44l21 27c11 14 34 33 49 41l29 15h81v57l20 18 21 19h41l41 1 5 15c3 8 21 31 40 50l35 35 18 43c11 24 19 49 19 55 0 7 5 29 11 50l10 37 52 35 52 35h20c11 0 30 7 42 15l22 15 48 7c59 7 95 25 121 58 36 45 91 56 148 29zm1418 7l6-9-18-13-17-14 12 16 13 16-7 6c-3 4-4 7 0 7 3 0 8-4 11-9zm-93-18l14-17-11 7-12 7-6-16-6-15-9 5-9 6-28-22-29-22 29 32 29 31 9-5 8-5-1 8c-5 26 4 29 22 6zm-41-46c0-2-10-12-22-23l-23-19 19 23c18 21 26 27 26 19zm-61-60l-11-19-13 6-14 5 6-15 5-14h-11c-17 0-13 19 12 49l22 28 7-10 7-11-10-19zm-68-40c-6-8-9-16-6-19 7-7-23-32-41-34-25-4-15 14 12 20 15 4 24 10 20 13-6 6 12 33 21 33 3 0 0-6-6-13zm54 52c-4-6-5-12-2-15 2-3 7 2 10 11 7 17 1 20-8 4z"/></g><g fill="#9b8a84" transform="matrix(.1 0 0 -.1 0 320)"><path d="M1450 3194c-351-42-653-173-909-394l-83-73-80-96c-181-218-294-456-350-736L6 1785v-370l22-110c56-280 169-518 351-737l80-97 83-71c226-195 493-323 783-376l100-19h350l100 19c290 53 562 184 784 376l83 73 80 96c181 218 295 457 350 736l22 110v185l1 185-23 110c-56 281-169 518-351 737l-80 97-83 71c-220 189-475 314-754 370l-99 20-160 4c-88 2-176 2-195 0zm1093-437l28-19-21-31-20-32-11 3-10 2 6-11 7-11-25-26c-13-15-68-90-122-167s-108-153-119-168l-21-28 15-9c8-5 30-10 49-10h34l34-21 34-21 17 13c21 17 118 109 254 242l100 98 20-18c11-10 24-26 29-35l10-18-68-64c-37-35-113-103-168-151s-106-93-113-100l-13-12 30-29 31-29v-75l22-18c12-9 32-28 45-42l24-25-4-20c-3-11-8-29-12-40l-6-20 23-10 23-10 17-35 18-35v-92l-27-12c-60-28-262-100-335-120-178-48-339-76-533-92l-140-11-145 6-145 7-135 20-135 19-130 35c-154 40-348 106-426 145l-55 28-12 27c-16 34-15 68 2 110l14 33 28 19 28 18 49 5 50 5 4 23c2 13 8 32 13 43l11 19 24 6c14 3 36 3 50 0l25-6v29l43 43 44 43 16 45c8 25 22 65 29 89l13 45 45 32 45 33h24c14 1 32 7 40 15l16 14 64 11 65 11 35 34c47 44 72 56 117 56h37l19-17 19-17 32 14c18 7 55 15 83 17l51 5 21-27 22-27 58-7 58-7 24-17c13-9 32-17 42-17h17l24-24 25-25 40-10c22-6 45-18 53-27 7-8 24-21 38-28l26-12 64 5 64 6 54 89c29 50 71 113 92 140 21 28 50 69 63 91 14 22 44 70 68 107l42 68 12-7c6-3 24-15 39-26zm213-290c3-10 9-15 12-12s0 11-7 18l-12 12 7-18z"/></g><g fill="#f5604b" transform="matrix(.1 0 0 -.1 0 320)"><path d="M1485 3194c-405-42-715-181-989-444-248-239-407-533-468-870L7 1765v-330l21-115 21-115 41-118c83-242 192-418 369-600C701 238 999 83 1345 24l100-17h160l160 1 115 20c582 106 1051 515 1239 1082l32 95 21 115 20 115 1 155 1 155-18 110-18 110-35 110c-82 255-198 450-382 638-182 188-404 326-651 407l-95 31-113 19-112 20-123 4c-67 2-140 2-162 0zm1050-426c19-13 35-27 35-33-1-11-31-54-265-377l-56-78 6-10 6-10h55l39-20 39-20 17 5c9 3 92 80 185 170 93 91 171 165 173 165 10 0 61-54 61-65 0-14-103-113-247-240-57-49-103-93-103-97 0-3 14-16 30-28l30-21v-89l28-17c15-10 34-27 43-37l16-20-9-34-10-35 25-21c13-12 29-31 35-43l12-22v-108l-52-23c-29-12-64-27-78-33-14-5-34-13-45-18-11-4-51-18-90-30-38-12-79-25-90-30-11-4-33-10-50-14-16-3-49-10-72-16-180-39-232-47-451-60l-182-12-153 12c-201 15-264 24-417 62-19 4-48 11-65 14-16 4-39 10-50 15-11 4-40 13-65 20-25 6-53 16-62 21-10 5-25 9-33 9s-24 5-35 10c-11 6-29 15-40 20-11 6-25 10-32 10s-43 15-80 33l-67 32-10 23c-6 13-11 44-11 69v45l39 39 39 39 38 2c22 0 44 1 51 1h11l6 30c3 17 14 39 23 49l16 18h85l5 28 6 27 29 13 30 13 26 58c14 32 26 68 26 79s4 32 9 45l10 25 54 36 54 36h19c11 0 29 6 40 14l20 14 59 7 59 8 45 43 45 44h109l18-16 17-15 31 15 30 16h111l16-25 16-25h106l12-14c6-8 28-20 48-27s50-22 65-35l29-24h43l44-35 44-35 66 6 66 6 13 16c24 31 159 236 233 354 41 65 77 118 82 118 4 0 23-10 42-22zM1638 213c-15-2-42-2-60 0l-33 4h120l-27-4z"/></g><g fill="#e64c35" transform="matrix(.1 0 0 -.1 0 320)"><path d="M1485 3194c-405-42-715-181-989-444-248-239-407-533-468-870L7 1765v-330l21-115 21-115 41-118c83-242 192-418 369-600C701 238 999 83 1345 24l100-17h160l160 1 115 20c582 106 1051 515 1239 1082l32 95 21 115 20 115 1 155 1 155-18 110-18 110-35 110c-82 255-198 450-382 638-182 188-404 326-651 407l-95 31-113 19-112 20-123 4c-67 2-140 2-162 0zm1050-426c19-13 35-27 35-33-1-11-31-54-265-377l-56-78 6-10 6-10h55l39-20 39-20 17 5c9 3 92 80 185 170 93 91 171 165 173 165 10 0 61-54 61-65 0-14-103-113-247-240-57-49-103-93-103-97 0-3 14-16 30-28l30-21v-89l28-17c15-10 34-27 43-37l16-20-9-34-10-35 25-21c13-12 29-31 35-43l12-22v-111l-47-21c-197-90-476-164-732-194l-126-15h-350l-129 15-129 15-136 31c-164 37-399 114-497 162l-71 35-6 24c-4 13-7 42-7 65v42l30 35 31 35 35 11 35 12 25-5 24-4v44l21 27 20 26h87l5 28 6 27 29 13 30 13 26 58c14 32 26 68 26 79s4 32 9 45l10 25 54 36 54 36h19c11 0 29 6 40 14l20 14 59 7 59 8 45 43 45 44h109l18-16 17-15 31 15 30 16h111l16-25 16-25h106l12-14c6-8 28-20 48-27s50-22 65-35l29-24h43l44-35 44-35 66 6 66 6 13 16c24 31 159 236 233 354 41 65 77 118 82 118 4 0 23-10 42-22zM698 1519c24-5 48-12 55-16 6-4 29-10 52-15 54-10 146-33 165-41 8-3 35-11 60-17s68-18 95-26l50-14 1-192v-193l13-70c24-128 85-283 137-345l26-30h-30c-96 0-301 106-385 199-20 22-39 41-42 41-11 0-70 73-94 114-13 22-26 43-30 46-9 7-66 127-85 177-8 23-27 86-40 140l-25 98-7 84-7 84 24-7c13-4 43-12 67-17zm599-1099c26-5 84-11 128-14s81-5 83-5c5-2 2-79-4-110l-7-31-22-6-22-5-89 11c-49 6-99 12-111 12h-23l5 8c3 5 2 11-3 14l-8 5 7 58c3 32 4 61 2 66-6 9 6 9 64-3zm-190-72l-5-13-1 19c-1 11 2 17 5 13 3-3 4-12 1-19zm531-135c-15-2-42-2-60 0l-33 4h120l-27-4z"/></g><g fill="#bb4436" transform="matrix(.1 0 0 -.1 0 320)"><path d="M1485 3194c-405-42-715-181-989-444-248-239-407-533-468-870L7 1765v-330l21-115 21-115 41-118c83-242 192-418 369-600C701 238 999 83 1345 24l100-17h160l160 1 115 20c582 106 1051 515 1239 1082l32 95 21 115 20 115 1 155 1 155-18 110-18 110-35 110c-82 255-198 450-382 638-182 188-404 326-651 407l-95 31-113 19-112 20-123 4c-67 2-140 2-162 0zm1050-426c19-13 35-27 35-33-1-11-31-54-265-377l-56-78 6-10 6-10h55l39-20 39-20 17 5c9 3 92 80 185 170 93 91 171 165 173 165 10 0 61-54 61-65 0-14-103-113-247-240-57-49-103-93-103-97 0-3 14-16 30-28l30-21v-89l28-17c15-10 34-27 43-37l16-20-9-34-10-35 25-21c13-12 29-31 35-43l12-22v-121h-18c-10 0-22-4-28-9-5-5-38-19-74-32l-65-24 19-3c19-4 29 0 104 37 24 11 49 21 56 21s18 10 25 23l12 23 27 12c40 17 136 74 143 85l7 10 11-7c6-4 11-16 11-27v-19h22l-10-12c-6-7-10-17-11-23 0-5-3-31-6-58l-7-48-14-14-14-14 9-6 10-5-17-48c-9-26-20-48-24-50-5-2-8-21-8-42v-39l-14-14-15-14-6-44c-4-24-10-46-13-49-4-3-8-14-10-25s-9-24-16-30l-13-10 5-13 4-13-21-6-21-5 6-9c3-5 2-18-1-29l-6-20h-30l6-9 5-9-13-14c-15-15-47-76-47-90 0-13-26-38-40-38h-11l6-10 6-10h-22l6-10 6-10h-17c-10 0-15-3-11-6 6-7-12-29-26-32s-35-27-30-34c2-5-1-8-7-8h-11l5-9 6-9-39-35c-22-20-37-38-33-41 3-3-2-6-12-6h-17l6-10 6-10-30-13-31-13 7-7 6-7h-14c-8 0-21-9-29-20s-20-20-28-20h-13l6-10 6-10h-41l-12-20-13-20h-35v-20h-40v-10c0-5-5-10-11-10h-10l7 12 8 13-17-14-17-13 6-9 5-9h-26l-12-28c-11-27-18-55-32-127-4-22-11-50-16-62l-7-23h-67l-6-10-6-10h-58l-6-10-6-10-62-1-62-1 25-8 25-8-55-2c-30-1-66-3-80-5-14-3-71-2-127 2l-103 5 6 9 5 9-43 1c-24 1-47 1-51 0l-8-1 6 10 6 10h-99l-31 13-31 13 7 7 6 7h-63v20h-20c-23 0-21-7-26 95-3 87-11 125-26 125h-9l6 10 6 10h-18c-10 0-26 7-35 14l-18 13 7 6 6 7h-20c-11 0-33 6-48 14l-26 14 13 5 13 5-26 1-26 1-31 30-32 30h-42l-5 20-5 20h-27l6 17 6 16-17-6-17-7 4 8c5 7-18 33-28 32-4-1-15 10-26 24l-19 24 12 5 13 5-23 1-24 1-5 20c-3 11-10 20-15 20h-9l6 10 6 10h-10c-6 0-10 3-10 7 1 5 1 14 0 21l-1 12h-29l-6 20c-3 11-11 20-16 20h-10l6 10 6 10h-10c-10 0-25 35-30 70 0 6-6 10-12 10h-10l6-12c4-7-3-2-15 11l-21 25 4 17c3 9 1 23-4 30l-9 14v-30l-14 30c-8 17-22 48-32 70-20 42-21 46-23 83l-1 23-12-7-11-7 8 13 8 12-13 8-12 8-5 43c-3 24-9 46-14 47-5 2-12 21-15 43l-7 39h-20l6 6 6 7-9 18c-6 9-12 35-15 56-2 21-9 61-15 88-6 28-13 71-15 98l-4 47h9c5 0 12-9 15-20l6-20h14c8 0 18-6 22-14 4-7 32-30 61-51 29-20 57-46 63-56 5-11 14-19 19-19h10l-10 26c-6 14-10 45-10 69v44l30 35 31 35 35 11 35 12 25-5 24-4v44l21 27 20 26h87l5 28 6 27 29 13 30 13 26 58c14 32 26 68 26 79s4 32 9 45l10 25 54 36 54 36h19c11 0 29 6 40 14l20 14 59 7 59 8 45 43 45 44h109l18-16 17-15 31 15 30 16h111l16-25 16-25h106l12-14c6-8 28-20 48-27s50-22 65-35l29-24h43l44-35 44-35 66 6 66 6 13 16c24 31 159 236 233 354 41 65 77 118 82 118 4 0 23-10 42-22zM475 1690l-6-10h41v-10c0-5 7-10 15-10s15-4 15-10v-10h19c11 0 23-4 26-10 3-5 17-10 30-10s27-4 30-10l6-10 27 1 27 1-15 5c-8 2-24 8-35 13s-42 19-70 31c-27 12-62 28-77 35l-27 14-6-10zm245-100c0-4 13-13 29-20l29-12 27 4 26 3-55 16-56 16v-7zm1705-11c-140-45-364-97-495-113-19-2-1-2 40 0 107 5 174 15 185 25 5 5 24 9 41 9h33l6 10 6 10h66l49 19c27 11 60 22 74 25 21 4 75 36 60 35-3 0-32-9-65-20zm-1585-30c0-5 9-9 19-9 11 0 22-4 25-9s23-11 43-14c21-3 58-10 83-17 54-13 175-34 285-49l80-11 240 1h240l19 8 20 8-216-5-215-5-119 12c-124 13-308 47-431 79l-73 20v-9zM1975 483c-16-2-74-13-127-24l-98-20h-290l-37 10c-21 5-67 12-103 16l-65 6 25-15c14-7 52-20 85-27l60-13h370l70 14c39 7 74 17 80 22 5 4 19 8 31 8s35 7 50 15l29 15-25-2c-14 0-38-3-55-5z"/></g><g fill="#583933" transform="matrix(.1 0 0 -.1 0 320)"><path d="M1485 3194c-405-42-715-181-989-444-248-239-407-533-468-870L7 1765v-330l21-115 21-115 41-118c83-242 192-418 369-600C701 238 999 83 1345 24l100-17h160l160 1 115 20c582 106 1051 515 1239 1082l32 95 21 115 20 115 1 155 1 155-18 110-18 110-35 110c-82 255-198 450-382 638-182 188-404 326-651 407l-95 31-113 19-112 20-123 4c-67 2-140 2-162 0zm1050-426c19-13 35-27 35-33-1-11-31-54-265-377l-56-78 6-10 6-10h55l39-20 39-20 17 5c9 3 92 80 185 170 93 91 171 165 173 165 10 0 61-54 61-65 0-14-103-113-247-240-57-49-103-93-103-97 0-3 14-16 30-28l30-21v-89l24-16c14-8 41-31 61-50l36-34h18c9 0 21-4 27-8 5-5 43-19 84-32s89-31 105-40l30-17 3-41 3-42-26-107c-15-60-45-169-67-243l-40-135-52-90c-29-49-66-112-81-140-15-27-49-75-74-105s-55-66-66-80c-78-97-228-226-320-275-38-20-82-47-96-60l-26-23-7-58c-4-33-9-76-12-97l-6-38-26-11c-15-6-43-14-62-19-19-4-64-15-100-25l-65-17-190-1h-190l-100 23-100 23-61 30-61 29-8 92-7 92-13 22c-8 11-27 28-42 35-15 8-46 25-68 38s-52 29-66 37c-15 7-32 20-39 28s-17 15-22 15c-11 0-103 73-131 105-50 56-66 77-124 165-34 52-71 106-81 120-31 42-110 202-136 276-70 199-101 320-116 444-6 52-13 102-15 110l-5 15 48 21c26 12 72 27 102 34s95 26 143 42 92 26 96 23c5-2 35 4 67 14l59 19 6-10 7-10 8 13c5 8 21 20 36 28l26 14 26 57c14 32 26 67 26 78s4 32 9 45l10 25 54 36 54 36h19c11 0 29 6 40 14l20 14 59 7 59 8 45 43 45 44h109l18-16 17-15 31 15 30 16h111l16-25 16-25h106l12-14c6-8 28-20 48-27s50-22 65-35l29-24h43l44-35 44-35 66 6 66 6 13 16c24 31 159 236 233 354 41 65 77 118 82 118 4 0 23-10 42-22z"/></g><g fill="#050203" transform="matrix(.1 0 0 -.1 0 320)"><path d="M1470 3190c-203-20-380-70-565-160-145-71-242-134-357-234l-86-75-82-98C164 2364 40 2059 9 1708l-9-108 9-108c20-225 66-391 161-587 70-143 130-234 231-353l76-87 84-71C829 167 1135 41 1492 9l108-9 108 9c217 19 387 65 568 150 342 163 604 425 763 763 88 185 133 354 152 570l9 108-9 108c-56 636-436 1148-1028 1383-135 53-341 95-513 103l-95 4-85-8zm1068-420l41-29-15-28c-8-15-27-45-42-65-15-21-56-78-92-128s-91-126-122-168-54-80-52-84c3-5 22-8 42-8h37l33-20 33-20 35 26c19 15 41 34 48 43 6 9 74 77 149 151l137 134 35-34c19-19 35-39 35-45 0-14-126-137-230-222-47-39-94-80-105-92l-19-22 29-23 29-24-2-35-3-36 21-18c11-10 33-30 48-44 35-35 69-51 179-88 50-16 106-37 123-46l33-17-7-66c-5-60-25-144-85-357-34-120-50-156-128-295l-76-135-46-55c-25-30-55-66-66-79-90-110-234-234-333-286-105-56-122-75-122-138 0-19-3-55-6-81l-7-47-26-13c-14-8-73-25-131-39l-105-26-115-7-115-6-95 11c-162 20-330 66-378 104l-12 9v157l-9 24-10 25-98 58c-54 31-131 80-171 107l-74 51-36 45c-20 25-42 51-48 58-6 6-37 51-69 100-31 48-65 99-75 113-41 60-110 203-142 295-86 244-109 340-124 500l-6 70 36 18c36 17 131 44 301 88 162 41 240 64 251 74 21 20 43 71 60 139l17 67 52 34 52 35h19c11 0 29 6 40 14s42 17 69 21c62 9 81 18 127 62l36 35 48 6 47 5 33-18 33-18 16 13 15 12 62 5 63 5 28-31 27-31h92l25-20c14-11 35-20 46-20h19l35-30 34-30h45l40-33 39-34 62 5 62 4 14 17c7 9 36 52 62 96 27 44 70 107 95 141 25 33 70 102 100 152 30 51 57 92 61 92 3 0 24-13 47-30z"/></g></g></svg>