<?xml version="1.0" standalone="no"?>
<!DOCTYPE svg PUBLIC "-//W3C//DTD SVG 20010904//EN"
 "http://www.w3.org/TR/2001/REC-SVG-20010904/DTD/svg10.dtd">
<svg version="1.0" xmlns="http://www.w3.org/2000/svg"
 width="250.000000pt" height="250.000000pt" viewBox="0 0 250.000000 250.000000"
 preserveAspectRatio="xMidYMid meet">

<g transform="translate(0.000000,250.000000) scale(0.100000,-0.100000)"
fill="#000000" stroke="none">
<path d="M991 2271 c-20 -20 -29 -52 -33 -124 l-3 -37 -119 -55 c-186 -85
-276 -146 -401 -270 -214 -212 -305 -429 -292 -695 23 -464 345 -845 827 -981
77 -22 104 -24 280 -23 179 0 203 2 293 26 316 86 564 291 638 528 11 36 23
110 28 166 8 101 -2 251 -18 267 -4 4 -35 -29 -67 -75 -70 -97 -167 -182 -270
-235 -41 -21 -74 -41 -74 -45 0 -13 80 -69 135 -94 49 -23 67 -26 135 -22 90
4 93 -9 8 -38 -63 -21 -155 -15 -221 14 -26 12 -71 44 -101 72 -42 40 -60 50
-75 45 -26 -8 -26 -14 0 -71 29 -61 97 -127 167 -160 46 -22 71 -28 131 -28
l74 0 -44 -20 c-30 -14 -64 -20 -109 -20 -146 2 -268 101 -323 267 -4 9 -16
17 -28 17 -20 0 -21 -4 -17 -82 7 -168 106 -290 259 -322 57 -12 61 -14 36
-21 -46 -12 -149 0 -195 24 -123 63 -207 225 -183 354 11 61 -4 71 -40 27 -39
-46 -59 -111 -59 -191 0 -128 66 -240 172 -293 l52 -26 -40 0 c-89 1 -193 80
-240 183 -24 52 -28 75 -28 142 0 85 26 166 65 201 25 23 24 31 -6 37 -43 8
-107 -52 -152 -143 -24 -48 -27 -67 -28 -151 0 -90 2 -100 35 -165 24 -47 48
-78 77 -99 23 -16 42 -33 42 -37 2 -13 -64 12 -104 40 -168 117 -179 409 -21
547 41 37 47 45 32 51 -53 20 -175 -67 -224 -160 -25 -47 -27 -60 -27 -166 0
-108 2 -118 29 -168 29 -51 97 -124 127 -134 8 -3 12 -8 9 -10 -3 -3 -27 1
-54 9 -69 20 -155 107 -184 186 -24 63 -30 184 -12 247 28 100 120 199 206
222 50 14 56 25 18 34 -75 19 -195 -28 -272 -106 -109 -111 -144 -254 -96
-395 l14 -40 -34 37 c-117 124 -69 375 95 505 45 36 135 73 176 73 l27 0 -30
31 c-28 30 -31 31 -97 26 -124 -10 -259 -95 -322 -202 -38 -66 -58 -158 -50
-229 6 -53 5 -58 -9 -47 -27 23 -48 108 -44 179 2 51 12 85 40 144 66 139 150
197 318 221 41 6 77 12 79 13 2 2 -4 20 -14 40 -10 22 -19 71 -22 123 l-5 86
34 -55 c132 -215 273 -328 465 -375 69 -17 203 -18 218 -3 13 13 -17 78 -48
104 -29 24 -36 26 -94 20 -62 -6 -64 -6 -91 24 -15 16 -54 81 -86 144 -48 95
-59 126 -63 180 -8 97 2 112 35 51 48 -88 140 -203 199 -250 74 -59 201 -120
278 -135 33 -6 94 -10 135 -8 l75 3 -3 29 c-8 73 -64 110 -151 100 -56 -6 -58
-5 -85 27 -29 34 -111 193 -141 271 l-17 47 31 34 c38 40 74 97 62 97 -24 0
-41 -14 -41 -34 0 -26 -52 -92 -88 -110 -15 -7 -40 -16 -56 -20 -25 -6 -28 -5
-18 7 7 8 9 16 6 19 -3 3 7 9 21 12 34 9 32 49 -3 54 -13 2 -26 10 -29 18 -8
21 6 99 22 120 13 18 15 17 54 -14 22 -17 45 -32 51 -32 15 0 160 76 190 99
l24 19 -29 12 c-17 7 -76 35 -133 62 -56 28 -109 47 -118 44 -8 -3 -22 -22
-30 -41 -8 -19 -18 -35 -23 -35 -5 0 -14 53 -22 118 -14 128 -21 122 -34 -30
-4 -43 -11 -81 -16 -84 -5 -3 -16 10 -24 30 -22 52 -42 53 -138 2 -47 -25
-104 -50 -126 -57 -23 -7 -41 -16 -41 -21 0 -12 95 -71 157 -98 50 -21 54 -21
75 -6 13 9 33 23 45 32 30 22 40 13 53 -49 13 -63 6 -87 -25 -87 -28 0 -40
-25 -19 -42 27 -23 54 -51 51 -55 -2 -1 -20 2 -41 8 -48 13 -112 71 -128 115
-11 30 -19 37 -68 50 -108 30 -176 69 -201 117 -10 18 -9 19 11 14 20 -5 21
-3 16 27 -5 28 -3 36 19 50 14 9 41 48 60 87 20 38 40 67 46 64 5 -4 7 -16 3
-28 -4 -12 17 4 49 39 45 49 148 123 191 137 7 2 6 10 -3 21 -17 21 -7 33 34
39 17 2 6 5 -27 6 -50 1 -59 4 -83 34 -72 85 -162 120 -204 78z m159 -69 c31
-33 62 -72 70 -87 13 -25 13 -28 -5 -41 -10 -8 -38 -14 -60 -14 -53 0 -79 26
-73 70 4 25 1 30 -17 30 -21 0 -45 17 -45 32 0 4 12 14 28 22 25 14 25 15 5
16 -25 0 -43 -26 -43 -62 1 -31 34 -103 66 -140 32 -39 17 -64 -19 -30 -58 55
-96 198 -67 252 11 20 18 22 58 17 42 -4 53 -12 102 -65z m56 -458 c-3 -9 2
-14 14 -14 10 0 20 8 22 18 2 11 6 13 11 5 11 -17 -21 -43 -53 -43 -31 0 -42
16 -28 42 10 20 42 12 34 -8z m312 -7 c3 -25 0 -27 -30 -27 -37 0 -58 15 -58
40 1 12 2 12 11 -2 5 -10 19 -18 30 -18 11 0 17 5 14 10 -3 6 -3 15 0 21 11
17 30 4 33 -24z"/>
<path d="M1566 2259 c-26 -18 -59 -47 -74 -65 -24 -31 -32 -34 -82 -35 -33 -1
-43 -4 -25 -6 42 -6 54 -21 32 -38 -16 -12 -11 -16 50 -51 37 -20 97 -66 132
-102 41 -42 61 -56 56 -42 -14 45 20 14 47 -43 15 -30 41 -66 58 -78 30 -23
31 -28 12 -77 -3 -10 3 -11 23 -6 20 5 26 4 21 -5 -4 -6 -5 -11 -2 -11 3 0 10
10 17 21 10 20 9 21 -16 15 -24 -6 -27 -5 -20 11 17 41 16 49 -7 62 -26 13
-33 23 -82 114 l-34 62 20 38 c43 85 44 209 2 252 -25 25 -76 18 -128 -16z
m126 -6 c25 -22 24 -88 -3 -158 -23 -61 -63 -115 -85 -115 -22 0 -17 18 21 67
63 82 70 175 15 180 l-25 3 23 -12 c32 -16 26 -52 -11 -56 -23 -3 -26 -7 -21
-28 4 -15 0 -34 -10 -49 -13 -20 -24 -25 -59 -25 -23 1 -52 6 -65 13 l-23 13
50 71 c73 103 145 140 193 96z"/>
<path d="M1784 1669 c-24 -27 -64 -48 -134 -70 -30 -10 -47 -18 -38 -18 35 -2
132 43 167 75 20 18 33 34 30 34 -3 0 -14 -9 -25 -21z"/>
</g>
</svg>
