<?xml version="1.0" encoding="utf-8"?>

<svg version="1.1" id="Layer_1" xmlns="http://www.w3.org/2000/svg" xmlns:xlink="http://www.w3.org/1999/xlink" x="0px" y="0px"
	 viewBox="0 0 5283.918 5000" enable-background="new 0 0 5283.918 5000" xml:space="preserve">
<symbol  id="Heart" viewBox="-44.1 -40 88.2 80">
	<path fill="#FF0000" enable-background="new    " d="M43.347,22.954C40.525,33.942,30.67,40,19.662,40
		C10.354,40,3.73,34.565-0.056,27.136c-3.956,7.753-10.708,12.782-20.553,12.782c-11.478,0-20.187-6.511-22.85-17.981
		C-48.227,1.405-25.662-19.583-0.056-40C27.175-19.721,48.421,3.2,43.347,22.954z"/>
</symbol>
<g>
	
		<use xlink:href="#Heart"  width="88.2" height="80" x="-44.1" y="-40" transform="matrix(-0.7843 -3.0666 -3.0666 0.7843 2569.3479 155.4469)" overflow="visible"/>
	
		<use xlink:href="#Heart"  width="88.2" height="80" x="-44.1" y="-40" transform="matrix(-2.9332 -1.1897 -1.1897 2.9332 522.764 3963.4265)" overflow="visible"/>
	
		<use xlink:href="#Heart"  width="88.2" height="80" x="-44.1" y="-40" transform="matrix(2.8664 -1.3428 -1.3428 -2.8664 2604.679 1116.1968)" overflow="visible"/>
	
		<use xlink:href="#Heart"  width="88.2" height="80" x="-44.1" y="-40" transform="matrix(0.7881 3.0656 3.0656 -0.7881 3932.8787 4239.5811)" overflow="visible"/>
	
		<use xlink:href="#Heart"  width="88.2" height="80" x="-44.1" y="-40" transform="matrix(-1.5755 2.7454 2.7454 1.5755 2133.782 476.4746)" overflow="visible"/>
	
		<use xlink:href="#Heart"  width="88.2" height="80" x="-44.1" y="-40" transform="matrix(0.7849 3.0665 3.0665 -0.7849 2522.2441 3654.1023)" overflow="visible"/>
	
		<use xlink:href="#Heart"  width="88.2" height="80" x="-44.1" y="-40" transform="matrix(-0.2281 3.1571 3.1571 0.2281 3951.9771 3682.9656)" overflow="visible"/>
	
		<use xlink:href="#Heart"  width="88.2" height="80" x="-44.1" y="-40" transform="matrix(-0.7726 -3.0696 -3.0696 0.7726 2171.1848 3732.9587)" overflow="visible"/>
	
		<use xlink:href="#Heart"  width="88.2" height="80" x="-44.1" y="-40" transform="matrix(1.9327 2.5068 2.5068 -1.9327 1614.3215 880.3426)" overflow="visible"/>
	
		<use xlink:href="#Heart"  width="88.2" height="80" x="-44.1" y="-40" transform="matrix(-3.0167 -0.9584 -0.9584 3.0167 739.4868 3346.2168)" overflow="visible"/>
	
		<use xlink:href="#Heart"  width="88.2" height="80" x="-44.1" y="-40" transform="matrix(1.385 2.8462 2.8462 -1.385 4865.6865 4206.4839)" overflow="visible"/>
	
		<use xlink:href="#Heart"  width="88.2" height="80" x="-44.1" y="-40" transform="matrix(2.375 2.0925 2.0925 -2.375 2194.5415 1107.2656)" overflow="visible"/>
	
		<use xlink:href="#Heart"  width="88.2" height="80" x="-44.1" y="-40" transform="matrix(1.4332 2.8223 2.8223 -1.4332 2210.2112 168.7316)" overflow="visible"/>
	
		<use xlink:href="#Heart"  width="88.2" height="80" x="-44.1" y="-40" transform="matrix(-3.076 0.7467 0.7467 3.076 2067.136 2388.5581)" overflow="visible"/>
	
		<use xlink:href="#Heart"  width="88.2" height="80" x="-44.1" y="-40" transform="matrix(2.7867 1.5012 1.5012 -2.7867 950.4772 2746.6704)" overflow="visible"/>
	
		<use xlink:href="#Heart"  width="88.2" height="80" x="-44.1" y="-40" transform="matrix(-2.8433 1.391 1.391 2.8433 1766.8357 501.0004)" overflow="visible"/>
	
		<use xlink:href="#Heart"  width="88.2" height="80" x="-44.1" y="-40" transform="matrix(-3.0371 0.8917 0.8917 3.0371 1155.3323 2120.458)" overflow="visible"/>
	
		<use xlink:href="#Heart"  width="88.2" height="80" x="-44.1" y="-40" transform="matrix(-0.7281 3.0804 3.0804 0.7281 897.2738 4064.3418)" overflow="visible"/>
	
		<use xlink:href="#Heart"  width="88.2" height="80" x="-44.1" y="-40" transform="matrix(-2.5679 -1.8507 -1.8507 2.5679 4536.439 4136.167)" overflow="visible"/>
	
		<use xlink:href="#Heart"  width="88.2" height="80" x="-44.1" y="-40" transform="matrix(-2.9745 1.0823 1.0823 2.9745 3037.7756 1995.8003)" overflow="visible"/>
	
		<use xlink:href="#Heart"  width="88.2" height="80" x="-44.1" y="-40" transform="matrix(2.6899 1.6685 1.6685 -2.6899 3182.021 471.1611)" overflow="visible"/>
	
		<use xlink:href="#Heart"  width="88.2" height="80" x="-44.1" y="-40" transform="matrix(0.7694 -3.0704 -3.0704 -0.7694 1518.9275 1200.9766)" overflow="visible"/>
	
		<use xlink:href="#Heart"  width="88.2" height="80" x="-44.1" y="-40" transform="matrix(-0.8119 -3.0594 -3.0594 0.8119 3095.6414 3994.7168)" overflow="visible"/>
	
		<use xlink:href="#Heart"  width="88.2" height="80" x="-44.1" y="-40" transform="matrix(-1.2045 2.9272 2.9272 1.2045 2406.1755 3259.7595)" overflow="visible"/>
	
		<use xlink:href="#Heart"  width="88.2" height="80" x="-44.1" y="-40" transform="matrix(-0.5404 -3.1189 -3.1189 0.5404 3726.2871 4414.8701)" overflow="visible"/>
	
		<use xlink:href="#Heart"  width="88.2" height="80" x="-44.1" y="-40" transform="matrix(2.9991 -1.0122 -1.0122 -2.9991 1996.8547 2764.7495)" overflow="visible"/>
	
		<use xlink:href="#Heart"  width="88.2" height="80" x="-44.1" y="-40" transform="matrix(-3.154 -0.267 -0.267 3.154 848.9344 3030.5815)" overflow="visible"/>
	
		<use xlink:href="#Heart"  width="88.2" height="80" x="-44.1" y="-40" transform="matrix(0.2961 3.1514 3.1514 -0.2961 1629.3647 2895.5618)" overflow="visible"/>
	
		<use xlink:href="#Heart"  width="88.2" height="80" x="-44.1" y="-40" transform="matrix(1.9566 2.4882 2.4882 -1.9566 1601.3186 1866.9717)" overflow="visible"/>
	
		<use xlink:href="#Heart"  width="88.2" height="80" x="-44.1" y="-40" transform="matrix(-2.9309 1.1954 1.1954 2.9309 685.5814 4308.3706)" overflow="visible"/>
	
		<use xlink:href="#Heart"  width="88.2" height="80" x="-44.1" y="-40" transform="matrix(0.0498 3.1649 3.1649 -0.0498 4306.5205 4450.8516)" overflow="visible"/>
	
		<use xlink:href="#Heart"  width="88.2" height="80" x="-44.1" y="-40" transform="matrix(3.1646 0.0655 0.0655 -3.1646 1734.4359 1500.8997)" overflow="visible"/>
	
		<use xlink:href="#Heart"  width="88.2" height="80" x="-44.1" y="-40" transform="matrix(-0.9966 -3.0043 -3.0043 0.9966 4865.9614 4841.3047)" overflow="visible"/>
	
		<use xlink:href="#Heart"  width="88.2" height="80" x="-44.1" y="-40" transform="matrix(-2.4729 1.9758 1.9758 2.4729 1611.4607 4107.4243)" overflow="visible"/>
	
		<use xlink:href="#Heart"  width="88.2" height="80" x="-44.1" y="-40" transform="matrix(-1.4481 2.8147 2.8147 1.4481 1815.4973 2137.447)" overflow="visible"/>
	
		<use xlink:href="#Heart"  width="88.2" height="80" x="-44.1" y="-40" transform="matrix(2.9037 1.2601 1.2601 -2.9037 3577.7581 3595.4348)" overflow="visible"/>
	
		<use xlink:href="#Heart"  width="88.2" height="80" x="-44.1" y="-40" transform="matrix(-3.0925 -0.6749 -0.6749 3.0925 3683.8225 965.8145)" overflow="visible"/>
	
		<use xlink:href="#Heart"  width="88.2" height="80" x="-44.1" y="-40" transform="matrix(-3.1556 -0.2478 -0.2478 3.1556 1866.0762 1123.849)" overflow="visible"/>
	
		<use xlink:href="#Heart"  width="88.2" height="80" x="-44.1" y="-40" transform="matrix(-2.8369 -1.404 -1.404 2.8369 4746.0337 3853.2097)" overflow="visible"/>
	
		<use xlink:href="#Heart"  width="88.2" height="80" x="-44.1" y="-40" transform="matrix(3.164 0.0914 0.0914 -3.164 3608.9148 1759.8208)" overflow="visible"/>
	
		<use xlink:href="#Heart"  width="88.2" height="80" x="-44.1" y="-40" transform="matrix(-1.0903 -2.9716 -2.9716 1.0903 1736.17 2505.1404)" overflow="visible"/>
	
		<use xlink:href="#Heart"  width="88.2" height="80" x="-44.1" y="-40" transform="matrix(-3.0464 -0.8596 -0.8596 3.0464 4090.5256 2009.4614)" overflow="visible"/>
	
		<use xlink:href="#Heart"  width="88.2" height="80" x="-44.1" y="-40" transform="matrix(-1.6168 -2.7212 -2.7212 1.6168 1360.4083 4808.0239)" overflow="visible"/>
	
		<use xlink:href="#Heart"  width="88.2" height="80" x="-44.1" y="-40" transform="matrix(-3.1603 -0.1788 -0.1788 3.1603 2971.5452 1046.7035)" overflow="visible"/>
	
		<use xlink:href="#Heart"  width="88.2" height="80" x="-44.1" y="-40" transform="matrix(-0.284 -3.1526 -3.1526 0.284 1245.65 4176.5586)" overflow="visible"/>
	
		<use xlink:href="#Heart"  width="88.2" height="80" x="-44.1" y="-40" transform="matrix(2.3622 2.107 2.107 -2.3622 4248.4814 3477.7441)" overflow="visible"/>
	
		<use xlink:href="#Heart"  width="88.2" height="80" x="-44.1" y="-40" transform="matrix(-1.4955 -2.7898 -2.7898 1.4955 2207.1721 2069.0354)" overflow="visible"/>
	
		<use xlink:href="#Heart"  width="88.2" height="80" x="-44.1" y="-40" transform="matrix(1.7856 -2.6136 -2.6136 -1.7856 1927.8184 193.4741)" overflow="visible"/>
	
		<use xlink:href="#Heart"  width="88.2" height="80" x="-44.1" y="-40" transform="matrix(-1.3624 -2.8571 -2.8571 1.3624 3877.3594 4814.231)" overflow="visible"/>
	
		<use xlink:href="#Heart"  width="88.2" height="80" x="-44.1" y="-40" transform="matrix(2.0642 2.3996 2.3996 -2.0642 3396.0383 2067.4441)" overflow="visible"/>
	
		<use xlink:href="#Heart"  width="88.2" height="80" x="-44.1" y="-40" transform="matrix(1.8528 2.5664 2.5664 -1.8528 4999.2583 4551.1021)" overflow="visible"/>
	
		<use xlink:href="#Heart"  width="88.2" height="80" x="-44.1" y="-40" transform="matrix(2.8796 -1.3141 -1.3141 -2.8796 4018.0999 4588.252)" overflow="visible"/>
	
		<use xlink:href="#Heart"  width="88.2" height="80" x="-44.1" y="-40" transform="matrix(1.9793 -2.4701 -2.4701 -1.9793 4440.6255 2952.8037)" overflow="visible"/>
	
		<use xlink:href="#Heart"  width="88.2" height="80" x="-44.1" y="-40" transform="matrix(-2.1083 2.361 2.361 2.1083 843.6631 3707.4399)" overflow="visible"/>
	
		<use xlink:href="#Heart"  width="88.2" height="80" x="-44.1" y="-40" transform="matrix(-2.9944 1.026 1.026 2.9944 3184.1348 1357.8422)" overflow="visible"/>
	
		<use xlink:href="#Heart"  width="88.2" height="80" x="-44.1" y="-40" transform="matrix(-1.3722 -2.8524 -2.8524 1.3722 2419.7432 3999.0447)" overflow="visible"/>
	
		<use xlink:href="#Heart"  width="88.2" height="80" x="-44.1" y="-40" transform="matrix(1.6352 2.7102 2.7102 -1.6352 1813.0728 3454.2151)" overflow="visible"/>
	
		<use xlink:href="#Heart"  width="88.2" height="80" x="-44.1" y="-40" transform="matrix(1.6199 -2.7194 -2.7194 -1.6199 4694.7607 4520.3857)" overflow="visible"/>
	
		<use xlink:href="#Heart"  width="88.2" height="80" x="-44.1" y="-40" transform="matrix(3.1085 0.5972 0.5972 -3.1085 2904.1025 3650.697)" overflow="visible"/>
	
		<use xlink:href="#Heart"  width="88.2" height="80" x="-44.1" y="-40" transform="matrix(-2.5048 1.9352 1.9352 2.5048 4153.8682 2350.8962)" overflow="visible"/>
	
		<use xlink:href="#Heart"  width="88.2" height="80" x="-44.1" y="-40" transform="matrix(-3.0983 0.6478 0.6478 3.0983 4532.1064 4836.0391)" overflow="visible"/>
	
		<use xlink:href="#Heart"  width="88.2" height="80" x="-44.1" y="-40" transform="matrix(2.3815 2.0852 2.0852 -2.3815 3305.2424 2991.6804)" overflow="visible"/>
	
		<use xlink:href="#Heart"  width="88.2" height="80" x="-44.1" y="-40" transform="matrix(-2.9554 -1.1336 -1.1336 2.9554 4535.7148 3239.5134)" overflow="visible"/>
	
		<use xlink:href="#Heart"  width="88.2" height="80" x="-44.1" y="-40" transform="matrix(-2.2369 -2.2395 -2.2395 2.2369 3165.4951 761.1555)" overflow="visible"/>
	
		<use xlink:href="#Heart"  width="88.2" height="80" x="-44.1" y="-40" transform="matrix(-3.06 0.8097 0.8097 3.06 3576.0408 2738.9817)" overflow="visible"/>
	
		<use xlink:href="#Heart"  width="88.2" height="80" x="-44.1" y="-40" transform="matrix(-2.4062 -2.0566 -2.0566 2.4062 4380.562 3785.1506)" overflow="visible"/>
	
		<use xlink:href="#Heart"  width="88.2" height="80" x="-44.1" y="-40" transform="matrix(3.1653 0.0032 0.0032 -3.1653 2367.5022 819.3702)" overflow="visible"/>
	
		<use xlink:href="#Heart"  width="88.2" height="80" x="-44.1" y="-40" transform="matrix(-1.7337 2.6483 2.6483 1.7337 2404.8743 1382.7743)" overflow="visible"/>
	
		<use xlink:href="#Heart"  width="88.2" height="80" x="-44.1" y="-40" transform="matrix(1.3618 2.8574 2.8574 -1.3618 3754.4417 2111.5027)" overflow="visible"/>
	
		<use xlink:href="#Heart"  width="88.2" height="80" x="-44.1" y="-40" transform="matrix(-2.402 -2.0615 -2.0615 2.402 1996.2394 785.2018)" overflow="visible"/>
	
		<use xlink:href="#Heart"  width="88.2" height="80" x="-44.1" y="-40" transform="matrix(-0.2895 3.1521 3.1521 0.2895 1464.359 3544.1907)" overflow="visible"/>
	
		<use xlink:href="#Heart"  width="88.2" height="80" x="-44.1" y="-40" transform="matrix(-1.7896 2.6109 2.6109 1.7896 3158.7388 103.4297)" overflow="visible"/>
	
		<use xlink:href="#Heart"  width="88.2" height="80" x="-44.1" y="-40" transform="matrix(-3.1653 0.0026 0.0026 3.1653 532.2204 4857.0005)" overflow="visible"/>
	
		<use xlink:href="#Heart"  width="88.2" height="80" x="-44.1" y="-40" transform="matrix(-0.2226 3.1575 3.1575 0.2226 2856.7637 484.662)" overflow="visible"/>
	
		<use xlink:href="#Heart"  width="88.2" height="80" x="-44.1" y="-40" transform="matrix(3.0929 -0.6734 -0.6734 -3.0929 2092.856 1461.4395)" overflow="visible"/>
	
		<use xlink:href="#Heart"  width="88.2" height="80" x="-44.1" y="-40" transform="matrix(-1.6659 -2.6915 -2.6915 1.6659 2860.6096 1380.8673)" overflow="visible"/>
	
		<use xlink:href="#Heart"  width="88.2" height="80" x="-44.1" y="-40" transform="matrix(-2.6882 1.6712 1.6712 2.6882 287.065 4559.9316)" overflow="visible"/>
	
		<use xlink:href="#Heart"  width="88.2" height="80" x="-44.1" y="-40" transform="matrix(-1.3588 -2.8588 -2.8588 1.3588 3139.0552 2318.6624)" overflow="visible"/>
	
		<use xlink:href="#Heart"  width="88.2" height="80" x="-44.1" y="-40" transform="matrix(-3.1639 0.0945 0.0945 3.1639 4212.7896 4830.4927)" overflow="visible"/>
	
		<use xlink:href="#Heart"  width="88.2" height="80" x="-44.1" y="-40" transform="matrix(-2.0261 -2.4319 -2.4319 2.0261 3287.5571 1690.0448)" overflow="visible"/>
	
		<use xlink:href="#Heart"  width="88.2" height="80" x="-44.1" y="-40" transform="matrix(-3.1633 0.1128 0.1128 3.1633 1442.4056 4446.8867)" overflow="visible"/>
	
		<use xlink:href="#Heart"  width="88.2" height="80" x="-44.1" y="-40" transform="matrix(1.446 2.8157 2.8157 -1.446 5133.0859 4884.8599)" overflow="visible"/>
	
		<use xlink:href="#Heart"  width="88.2" height="80" x="-44.1" y="-40" transform="matrix(-3.1628 0.1263 0.1263 3.1628 1125.2394 3354.0959)" overflow="visible"/>
	
		<use xlink:href="#Heart"  width="88.2" height="80" x="-44.1" y="-40" transform="matrix(2.4582 -1.9941 -1.9941 -2.4582 376.8226 4278.916)" overflow="visible"/>
	
		<use xlink:href="#Heart"  width="88.2" height="80" x="-44.1" y="-40" transform="matrix(1.3642 2.8563 2.8563 -1.3642 2731.354 4022.2644)" overflow="visible"/>
	
		<use xlink:href="#Heart"  width="88.2" height="80" x="-44.1" y="-40" transform="matrix(-1.894 2.5362 2.5362 1.894 3902.2151 2852.5984)" overflow="visible"/>
	
		<use xlink:href="#Heart"  width="88.2" height="80" x="-44.1" y="-40" transform="matrix(-3.1653 -0.0168 -0.0168 3.1653 3452.2661 232.3815)" overflow="visible"/>
	
		<use xlink:href="#Heart"  width="88.2" height="80" x="-44.1" y="-40" transform="matrix(-3.1437 0.3693 0.3693 3.1437 1944.6711 1752.6479)" overflow="visible"/>
	
		<use xlink:href="#Heart"  width="88.2" height="80" x="-44.1" y="-40" transform="matrix(-3.063 -0.7984 -0.7984 3.063 2172.3862 3402.9585)" overflow="visible"/>
	
		<use xlink:href="#Heart"  width="88.2" height="80" x="-44.1" y="-40" transform="matrix(-0.9449 3.021 3.021 0.9449 2901.1218 1707.562)" overflow="visible"/>
	
		<use xlink:href="#Heart"  width="88.2" height="80" x="-44.1" y="-40" transform="matrix(-1.5867 2.7389 2.7389 1.5867 3603.3252 3147.51)" overflow="visible"/>
	
		<use xlink:href="#Heart"  width="88.2" height="80" x="-44.1" y="-40" transform="matrix(-2.0938 2.3739 2.3739 2.0938 3740.6724 3941.2822)" overflow="visible"/>
	
		<use xlink:href="#Heart"  width="88.2" height="80" x="-44.1" y="-40" transform="matrix(1.0099 -2.9999 -2.9999 -1.0099 580.4646 3668.501)" overflow="visible"/>
	
		<use xlink:href="#Heart"  width="88.2" height="80" x="-44.1" y="-40" transform="matrix(-2.4443 -2.0111 -2.0111 2.4443 755.5411 4627.5962)" overflow="visible"/>
	
		<use xlink:href="#Heart"  width="88.2" height="80" x="-44.1" y="-40" transform="matrix(-2.7714 1.5293 1.5293 2.7714 1444.1688 3874.5115)" overflow="visible"/>
	
		<use xlink:href="#Heart"  width="88.2" height="80" x="-44.1" y="-40" transform="matrix(-3.0236 -0.9366 -0.9366 3.0236 4147.0332 3078.7427)" overflow="visible"/>
	
		<use xlink:href="#Heart"  width="88.2" height="80" x="-44.1" y="-40" transform="matrix(-3.1489 -0.322 -0.322 3.1489 3349.9878 1027.1775)" overflow="visible"/>
	
		<use xlink:href="#Heart"  width="88.2" height="80" x="-44.1" y="-40" transform="matrix(2.8066 1.4636 1.4636 -2.8066 3509.6858 666.3702)" overflow="visible"/>
	
		<use xlink:href="#Heart"  width="88.2" height="80" x="-44.1" y="-40" transform="matrix(-2.6659 -1.7065 -1.7065 2.6659 1303.2416 1824.548)" overflow="visible"/>
	
		<use xlink:href="#Heart"  width="88.2" height="80" x="-44.1" y="-40" transform="matrix(-3.1111 0.5835 0.5835 3.1111 2857.9043 139.2819)" overflow="visible"/>
	
		<use xlink:href="#Heart"  width="88.2" height="80" x="-44.1" y="-40" transform="matrix(-0.9664 -3.0142 -3.0142 0.9664 1080.5851 4498.5542)" overflow="visible"/>
	
		<use xlink:href="#Heart"  width="88.2" height="80" x="-44.1" y="-40" transform="matrix(2.8391 1.3996 1.3996 -2.8391 1793.9949 3798.6343)" overflow="visible"/>
	
		<use xlink:href="#Heart"  width="88.2" height="80" x="-44.1" y="-40" transform="matrix(1.3721 -2.8525 -2.8525 -1.3721 3913.1379 3343.3137)" overflow="visible"/>
	
		<use xlink:href="#Heart"  width="88.2" height="80" x="-44.1" y="-40" transform="matrix(1.9383 2.5025 2.5025 -1.9383 3818.3264 1378.0212)" overflow="visible"/>
	
		<use xlink:href="#Heart"  width="88.2" height="80" x="-44.1" y="-40" transform="matrix(3.1653 -0.0165 -0.0165 -3.1653 2515.0354 507.8004)" overflow="visible"/>
	
		<use xlink:href="#Heart"  width="88.2" height="80" x="-44.1" y="-40" transform="matrix(3.1054 -0.6131 -0.6131 -3.1054 1180.8282 3773.9087)" overflow="visible"/>
	
		<use xlink:href="#Heart"  width="88.2" height="80" x="-44.1" y="-40" transform="matrix(3.1447 0.3606 0.3606 -3.1447 2020.1583 4074.9912)" overflow="visible"/>
	
		<use xlink:href="#Heart"  width="88.2" height="80" x="-44.1" y="-40" transform="matrix(-2.51 1.9285 1.9285 2.51 3928.6326 1699.8713)" overflow="visible"/>
	
		<use xlink:href="#Heart"  width="88.2" height="80" x="-44.1" y="-40" transform="matrix(2.7942 -1.4872 -1.4872 -2.7942 1383.3093 2643.6565)" overflow="visible"/>
	
		<use xlink:href="#Heart"  width="88.2" height="80" x="-44.1" y="-40" transform="matrix(-2.9425 1.1665 1.1665 2.9425 3200.2468 3293.9236)" overflow="visible"/>
	
		<use xlink:href="#Heart"  width="88.2" height="80" x="-44.1" y="-40" transform="matrix(-3.1386 -0.4101 -0.4101 3.1386 1394.9364 1515.9467)" overflow="visible"/>
	
		<use xlink:href="#Heart"  width="88.2" height="80" x="-44.1" y="-40" transform="matrix(-3.1622 -0.1394 -0.1394 3.1622 984.7103 4870.8062)" overflow="visible"/>
	
		<use xlink:href="#Heart"  width="88.2" height="80" x="-44.1" y="-40" transform="matrix(2.1344 -2.3374 -2.3374 -2.1344 3864.8911 2495.8157)" overflow="visible"/>
	
		<use xlink:href="#Heart"  width="88.2" height="80" x="-44.1" y="-40" transform="matrix(2.1024 -2.3662 -2.3662 -2.1024 3450.1458 4045.8579)" overflow="visible"/>
	
		<use xlink:href="#Heart"  width="88.2" height="80" x="-44.1" y="-40" transform="matrix(3.1097 -0.5909 -0.5909 -3.1097 3515.7832 2402.4761)" overflow="visible"/>
	
		<use xlink:href="#Heart"  width="88.2" height="80" x="-44.1" y="-40" transform="matrix(-3.1244 0.5073 0.5073 3.1244 130.2932 4855.8853)" overflow="visible"/>
	
		<use xlink:href="#Heart"  width="88.2" height="80" x="-44.1" y="-40" transform="matrix(3.0756 -0.7483 -0.7483 -3.0756 2306.0625 1761.2936)" overflow="visible"/>
	
		<use xlink:href="#Heart"  width="88.2" height="80" x="-44.1" y="-40" transform="matrix(1.5242 -2.7742 -2.7742 -1.5242 3290.438 3695.8623)" overflow="visible"/>
	
		<use xlink:href="#Heart"  width="88.2" height="80" x="-44.1" y="-40" transform="matrix(1.7709 2.6236 2.6236 -1.7709 1462.0884 2241.1218)" overflow="visible"/>
	
		<use xlink:href="#Heart"  width="88.2" height="80" x="-44.1" y="-40" transform="matrix(-3.165 0.0446 0.0446 3.165 2745.9236 761.2665)" overflow="visible"/>
	
		<use xlink:href="#Heart"  width="88.2" height="80" x="-44.1" y="-40" transform="matrix(3.1461 -0.3487 -0.3487 -3.1461 3232.1863 2660.4636)" overflow="visible"/>
	
		<use xlink:href="#Heart"  width="88.2" height="80" x="-44.1" y="-40" transform="matrix(-1.8123 2.5952 2.5952 1.8123 1217.8522 2977.2412)" overflow="visible"/>
	
		<use xlink:href="#Heart"  width="88.2" height="80" x="-44.1" y="-40" transform="matrix(-1.8184 -2.5909 -2.5909 1.8184 3550.5725 1352.1649)" overflow="visible"/>
	
		<use xlink:href="#Heart"  width="88.2" height="80" x="-44.1" y="-40" transform="matrix(-1.6916 2.6754 2.6754 1.6916 4151.2969 4041.7832)" overflow="visible"/>
	
		<use xlink:href="#Heart"  width="88.2" height="80" x="-44.1" y="-40" transform="matrix(3.1525 0.2845 0.2845 -3.1525 4636.0811 3593.2371)" overflow="visible"/>
	
		<use xlink:href="#Heart"  width="88.2" height="80" x="-44.1" y="-40" transform="matrix(2.6329 -1.757 -1.757 -2.6329 4265.6455 2689.7524)" overflow="visible"/>
	
		<use xlink:href="#Heart"  width="88.2" height="80" x="-44.1" y="-40" transform="matrix(0.9187 3.0291 3.0291 -0.9187 1921.8021 3120.5872)" overflow="visible"/>
	
		<use xlink:href="#Heart"  width="88.2" height="80" x="-44.1" y="-40" transform="matrix(2.0532 2.4091 2.4091 -2.0532 1494.8623 3223.1565)" overflow="visible"/>
	
		<use xlink:href="#Heart"  width="88.2" height="80" x="-44.1" y="-40" transform="matrix(-2.5037 1.9367 1.9367 2.5037 1067.1465 2405.9661)" overflow="visible"/>
	
		<use xlink:href="#Heart"  width="88.2" height="80" x="-44.1" y="-40" transform="matrix(2.324 -2.1491 -2.1491 -2.324 2819.0554 3306.3794)" overflow="visible"/>
</g>
</svg>
