<svg width="56" height="56" viewBox="0 0 56 56" fill="none" xmlns="http://www.w3.org/2000/svg">
<rect width="56" height="56" rx="28" fill="#67B35B"/>
<path fill-rule="evenodd" clip-rule="evenodd" d="M27.0852 18.6459C26.6051 19.1194 26.2155 19.9569 26.2155 21.2279C26.2155 22.5106 26.6797 23.2356 27.4645 23.8606C27.5487 23.9278 27.635 23.9951 27.7236 24.0627H42V25.8222H30.6947C30.7738 25.8583 30.8543 25.8943 30.9362 25.9303C31.0814 25.994 31.23 26.0593 31.3821 26.1264C31.6458 26.2426 31.9075 26.356 32.1663 26.4681C33.0141 26.8354 33.8298 27.1888 34.5746 27.5817H42V29.3413H36.9615C38.1788 30.6701 38.7753 32.2738 38.7753 34.2777C38.7753 37.4995 37.0653 39.4922 34.8285 40.6739C32.7147 41.7907 30.1646 42 28.1502 42C25.7409 42 23.0546 41.4637 20.9574 39.5308C18.8325 37.5723 17.5252 34.5775 17.5252 30.4654V29.3413H14V27.5817H17.5252V25.8222H14V24.0627H17.5252V14.5809H21.1511V24.0627H23.1577C22.7942 23.2484 22.5896 22.3118 22.5896 21.2279C22.5896 19.1755 23.2572 17.502 24.5006 16.2755C25.7077 15.085 27.2945 14.4759 28.8577 14.1999C31.9419 13.6555 35.5014 14.3026 37.906 15.1828L36.6264 18.4754C34.6249 17.7428 31.8533 17.0702 29.6072 17.4667C28.5053 17.6612 27.6016 18.1365 27.0852 18.6459ZM21.1511 29.3413V30.4654C21.1511 33.8312 22.1987 35.8218 23.4543 36.9791C24.7377 38.1619 26.4573 38.6765 28.1502 38.6765C29.8835 38.6765 31.7394 38.2993 33.0948 37.5832C34.3272 36.9321 35.1494 36.0412 35.1494 34.2777C35.1494 32.9623 34.7755 32.1861 34.0962 31.5185C33.3991 30.8336 32.3167 30.1232 30.6522 29.3413H21.1511ZM26.7407 27.5817H21.1511V25.8222H24.3378C24.592 26.0933 24.8687 26.3455 25.1643 26.5809C25.6448 26.9637 26.1808 27.2896 26.7407 27.5817Z" fill="white"/>
</svg>
