<?xml version="1.0" encoding="UTF-8" standalone="no"?>
<svg
   xmlns:dc="http://purl.org/dc/elements/1.1/"
   xmlns:cc="http://creativecommons.org/ns#"
   xmlns:rdf="http://www.w3.org/1999/02/22-rdf-syntax-ns#"
   xmlns:svg="http://www.w3.org/2000/svg"
   xmlns="http://www.w3.org/2000/svg"
   xmlns:sodipodi="http://sodipodi.sourceforge.net/DTD/sodipodi-0.dtd"
   xmlns:inkscape="http://www.inkscape.org/namespaces/inkscape"
   width="128"
   height="128"
   viewBox="0 0 128.01 128.01"
   version="1.1"
   id="svg15"
   sodipodi:docname="logo.svg"
   inkscape:version="1.0.2-2 (e86c870879, 2021-01-15)">
  <metadata
     id="metadata21">
    <rdf:RDF>
      <cc:Work
         rdf:about="">
        <dc:format>image/svg+xml</dc:format>
        <dc:type
           rdf:resource="http://purl.org/dc/dcmitype/StillImage" />
      </cc:Work>
    </rdf:RDF>
  </metadata>
  <defs
     id="defs19" />
  <sodipodi:namedview
     pagecolor="#ffffff"
     bordercolor="#666666"
     borderopacity="1"
     objecttolerance="10"
     gridtolerance="10"
     guidetolerance="10"
     inkscape:pageopacity="0"
     inkscape:pageshadow="2"
     inkscape:window-width="1920"
     inkscape:window-height="1121"
     id="namedview17"
     showgrid="false"
     inkscape:zoom="4.8558348"
     inkscape:cx="43.084559"
     inkscape:cy="73.257838"
     inkscape:window-x="-9"
     inkscape:window-y="-9"
     inkscape:window-maximized="1"
     inkscape:current-layer="svg15"
     inkscape:document-rotation="0" />
  <title
     id="title10">logo111111</title>
  <circle
     id="path854"
     cx="64"
     cy="64"
     r="63.869999"
     stroke="#000000"
     stroke-miterlimit="2.54"
     stroke-width="0.28"
     style="fill:#ffffff;stroke:none" />
  <g
     style="fill-rule:evenodd"
     id="g56"
     transform="matrix(0.18898469,0,0,0.18898469,-6.1834585,-19.507397)">
    <path
       style="fill:#e61e2b;stroke:none"
       d="M 682.25,572.75 C 615.91,721.2 483.24,778.29 372.33,778.29 c -103.65,0 -229.07,-47.75 -300.59,-184.78 42.5,12.46 92.25,18.69 133.71,18.69 124.39,0 276.75,-48.79 395.95,-48.79 27.99,0 50.79,1.04 80.85,9.34 z M 349.53,438.84 c 0,6.23 -21.77,30.11 -27.99,30.11 -6.22,0 -5.18,-6.23 -5.18,-7.27 0,-12.46 9.33,-21.8 17.62,-36.33 5.18,4.15 15.55,10.38 15.55,13.49 z m 119.2,-34.25 c 0,0 1.03,-1.04 1.03,2.07 0,5.19 -38.35,62.29 -44.57,62.29 -4.14,0 -3.1,-3.12 -3.1,-4.15 0,-9.35 20.73,-40.49 24.87,-44.64 5.18,-5.19 11.4,-11.42 17.62,-15.57 z m -106.76,6.23 c 0,4.15 -5.19,19.72 -9.33,19.72 -7.26,0 -10.37,-10.38 -10.37,-12.46 0,-4.15 6.22,-15.57 14.51,-15.57 4.15,0 5.19,7.27 5.19,8.31 z M 351.6,322.58 c -2.07,8.31 -5.18,16.61 -9.33,23.88 -1.03,2.07 -16.58,23.87 -23.84,23.87 h -7.25 v -7.26 c 3.11,-13.5 24.87,-41.53 40.42,-44.64 z M 490.5,312.2 c 0,4.15 -2.08,16.61 -8.3,17.65 h -3.11 c 2.08,-3.12 6.22,-9.35 6.22,-11.42 v -6.23 c 0,0 0,-1.04 -2.07,-1.04 -3.11,0 -12.44,7.27 -16.58,11.42 -29.03,26.99 -49.76,59.17 -65.31,89.27 0,0 0,1.04 1.04,3.12 15.55,-9.34 30.06,-26.99 44.57,-40.49 5.18,-6.22 9.33,-13.49 15.55,-18.68 1.04,-1.04 5.18,0 6.22,-1.04 -11.4,17.65 -30.06,35.29 -47.68,52.94 -9.33,7.27 -20.73,14.53 -29.02,21.8 -3.11,2.08 -3.11,7.27 -5.19,11.42 -2.07,6.23 -6.22,20.76 -6.22,22.84 0,3.11 1.04,7.26 4.15,7.26 12.44,0 47.68,-76.81 77.74,-76.81 5.18,0 5.18,0 12.44,6.23 1.03,-1.04 2.07,-3.12 2.07,-4.16 h 18.66 l -40.43,71.63 c 1.04,1.04 0,2.08 3.11,2.08 9.33,0 25.92,-30.11 30.06,-30.11 2.08,0 3.11,1.04 4.15,1.04 -9.33,12.46 -34.21,46.71 -50.79,46.71 -7.26,0 -8.29,-9.34 -8.29,-10.38 0,-1.04 -1.04,-2.07 -2.08,-3.11 -6.22,6.23 -17.62,13.49 -22.8,13.49 -9.33,0 -9.33,-8.3 -12.44,-16.61 -7.25,8.31 -19.69,16.61 -25.91,16.61 -9.33,0 -11.4,-11.42 -11.4,-15.57 0,-3.11 4.14,-20.76 8.29,-33.22 -1.04,-1.03 -1.04,-1.03 -4.15,-1.03 -2.07,0 -4.14,-1.04 -5.18,1.03 -5.18,5.19 -8.29,13.5 -14.51,20.76 -10.37,12.46 -25.91,28.03 -38.35,28.03 -11.4,0 -12.44,-9.34 -12.44,-15.57 0,-26.99 38.35,-77.85 63.23,-77.85 10.36,0 12.44,6.23 12.44,12.45 0,8.31 -4.15,14.54 -7.26,25.96 1.04,0 0,1.03 2.07,1.03 3.11,0 6.22,-2.07 8.3,-4.15 6.21,-10.38 12.43,-21.8 17.62,-32.18 11.4,-23.87 68.41,-92.39 94.32,-92.39 6.22,0 7.26,1.04 7.26,7.27 z m -22.81,39.45 c -17.62,0 -18.66,-1.04 -19.69,-1.04 4.14,-5.19 9.33,-10.38 13.47,-15.57 21.77,2.07 46.65,-10.38 70.49,-31.14 -12.44,23.87 -44.57,45.67 -64.27,47.75 z M 355.75,307.01 c 2.07,0 21.76,-4.15 23.84,-4.15 19.69,0 37.31,12.45 58.04,24.91 -3.11,4.15 -11.4,14.53 -13.47,14.53 -2.07,0 -38.35,-24.91 -51.83,-29.06 -3.11,-1.04 -7.25,0 -11.4,0 -1.04,1.04 -3.11,2.07 -3.11,3.11 0,6.23 -2.07,12.46 -3.11,18.69 -2.07,11.42 -24.87,42.56 -40.42,42.56 -7.26,0 -9.33,-5.19 -9.33,-10.38 0,-17.65 19.69,-40.49 38.35,-52.94 1.04,0 3.11,-2.08 3.11,-4.16 h -6.22 c -36.28,5.19 -109.87,98.62 -109.87,142.22 0,10.38 5.18,20.76 16.58,20.76 26.95,0 51.83,-48.79 51.83,-62.28 0,-7.27 -4.15,-7.27 -7.26,-7.27 -12.43,0 -19.69,26.99 -21.76,29.07 -7.26,5.19 -15.55,11.41 -23.84,18.68 1.03,-17.65 17.62,-57.09 44.57,-57.09 10.36,0 13.47,8.3 13.47,15.57 0,29.06 -36.28,77.85 -70.48,77.85 -20.73,0 -27.99,-19.72 -27.99,-34.25 0,-62.29 88.11,-150.52 133.71,-150.52 2.08,0 13.48,4.15 16.59,4.15 z M 709.2,439.88 c 0,19.72 -3.11,45.68 -6.22,63.32 -1.04,10.38 -4.15,21.8 -8.29,31.15 -59.08,-6.23 -120.24,14.53 -179.32,28.02 -47.68,10.38 -94.32,17.65 -138.89,21.8 l -43.54,1.04 C 288.37,583.13 243.8,581.06 199.23,569.64 170.21,562.37 139.12,553.03 110.09,539.54 93.51,532.27 79,523.96 63.45,515.66 56.2,511.51 44.79,509.43 40.65,502.17 34.43,489.71 35.46,462.72 35.46,460.64 v -38.41 c 2.08,-20.76 5.19,-41.52 9.33,-62.28 14.51,-69.55 81.89,-175.43 164.81,-214.88 8.29,-4.15 16.58,-9.34 26.95,-13.49 6.22,-3.12 15.55,-6.23 23.84,-9.35 13.47,-5.19 30.06,-9.34 45.61,-12.45 11.4,-2.08 25.91,-4.15 38.35,-5.19 18.65,-2.08 27.98,-1.04 30.06,-1.04 185.53,0 334.79,155.71 334.79,336.33 z"
       id="path42" />
  </g>
</svg>
