<svg xmlns="http://www.w3.org/2000/svg" x="0px" y="0px" width="128" height="128"
     viewBox="0 0 100 100" style="enable-background:new 0 0 100 100;" xml:space="preserve">
<style type="text/css">
	.st0{fill:url(#SVGID_1_);}
	.st1{fill:url(#SVGID_2_);}
	.st2{fill:url(#SVGID_3_);}
	.st3{fill:url(#SVGID_4_);}
</style>
    <linearGradient id="SVGID_1_" gradientUnits="userSpaceOnUse" x1="84.5596" y1="8.7919" x2="58.1103" y2="54.6034">
	<stop offset="7.947286e-08" style="stop-color:#51AF94"/>
        <stop offset="1" style="stop-color:#4AB1BF"/>
</linearGradient>
    <path class="st0" d="M62.6,47l0-8.2l19.8,0h0c2,0,3.8-0.8,5.2-2.1c1.4-1.4,2.2-3.2,2.2-5.2c0-2-0.7-3.8-2.1-5.2
	c-1.4-1.4-3.2-2.2-5.1-2.2l-0.7,0L76,18.2l0-0.7c0-2-0.8-3.8-2.2-5.1c-1.4-1.3-3.2-2.1-5.1-2.1c0,0,0,0-0.1,0c-2,0-3.8,0.8-5.2,2.2
	c-1.4,1.4-2.1,3.2-2.1,5.2v34.1H53V17.6c0-4.2,1.6-8.1,4.5-11c2.9-2.9,6.8-4.6,11-4.6c0,0,0.1,0,0.1,0c4.1,0,8,1.6,10.9,4.5
	c2.6,2.5,4.1,5.8,4.6,9.3h0.1v0.1c3.5,0.4,6.8,2,9.3,4.6c2.9,3,4.5,6.9,4.5,11c0,4.2-1.7,8.1-4.6,11c-2.9,2.9-6.8,4.5-11,4.5H62.6z"
    />
    <linearGradient id="SVGID_2_" gradientUnits="userSpaceOnUse" x1="97.9826" y1="75.4959" x2="48.3255" y2="75.4959">
	<stop offset="7.947286e-08" style="stop-color:#51AF94"/>
        <stop offset="1" style="stop-color:#4AB1BF"/>
</linearGradient>
    <path class="st1" d="M53,62.6l8.3,0l0,19.8v0c0,2,0.8,3.8,2.1,5.2c1.4,1.4,3.2,2.2,5.2,2.2c2,0,3.8-0.7,5.2-2.1
	c1.4-1.4,2.2-3.2,2.2-5.1l0-0.7l5.9-5.9l0.7,0c2,0,3.8-0.8,5.1-2.2c1.3-1.4,2.1-3.2,2.1-5.1c0,0,0,0,0-0.1c0-2-0.8-3.8-2.2-5.2
	c-1.4-1.4-3.2-2.1-5.2-2.1H48.3V53h34.1c4.2,0,8.1,1.6,11,4.5c2.9,2.9,4.6,6.8,4.6,11c0,0,0,0.1,0,0.1c0,4.1-1.6,8-4.5,10.9
	c-2.5,2.6-5.8,4.1-9.3,4.6v0.1h-0.1c-0.4,3.5-2,6.8-4.6,9.3c-3,2.9-6.9,4.5-11,4.5c-4.2,0-8.1-1.7-11-4.6c-2.9-2.9-4.5-6.8-4.5-11
	V62.6z"/>
    <linearGradient id="SVGID_3_" gradientUnits="userSpaceOnUse" x1="8.9838" y1="53.7417" x2="50.2663" y2="82.648">
	<stop offset="7.947286e-08" style="stop-color:#51AF94"/>
        <stop offset="1" style="stop-color:#4AB1BF"/>
</linearGradient>
    <path class="st2" d="M37.4,53l0,8.2l-19.8,0h0c-2,0-3.8,0.8-5.2,2.1c-1.4,1.4-2.2,3.2-2.2,5.2c0,2,0.7,3.8,2.1,5.2
	c1.4,1.4,3.2,2.2,5.1,2.2l0.7,0l5.9,5.9l0,0.7c0,2,0.8,3.8,2.2,5.1c1.4,1.3,3.2,2.1,5.1,2.1c0,0,0,0,0.1,0c2,0,3.8-0.8,5.2-2.2
	c1.4-1.4,2.1-3.2,2.1-5.2V48.3H47v34.1c0,4.2-1.6,8.1-4.5,11c-2.9,2.9-6.8,4.6-11,4.6c0,0-0.1,0-0.1,0c-4.1,0-8-1.6-10.9-4.5
	c-2.6-2.5-4.1-5.8-4.6-9.3h-0.1v-0.1c-3.5-0.4-6.8-2-9.3-4.6c-2.9-3-4.5-6.9-4.5-11c0-4.2,1.7-8.1,4.6-11c2.9-2.9,6.8-4.5,11-4.5
	H37.4z"/>
    <linearGradient id="SVGID_4_" gradientUnits="userSpaceOnUse" x1="4.7267" y1="19.2022" x2="55.4764" y2="32.8006">
	<stop offset="7.947286e-08" style="stop-color:#51AF94"/>
        <stop offset="1" style="stop-color:#4AB1BF"/>
</linearGradient>
    <path class="st3" d="M47,37.4l-8.3,0l0-19.8v0c0-2-0.8-3.8-2.1-5.2c-1.4-1.4-3.2-2.2-5.2-2.2c-2,0-3.8,0.7-5.2,2.1
	c-1.4,1.4-2.2,3.2-2.2,5.1l0,0.7L18.2,24l-0.7,0c-2,0-3.8,0.8-5.1,2.2c-1.3,1.4-2.1,3.2-2.1,5.1c0,0,0,0,0,0.1c0,2,0.8,3.8,2.2,5.2
	c1.4,1.4,3.2,2.1,5.2,2.1h34.1V47H17.6c-4.2,0-8.1-1.6-11-4.5C3.7,39.5,2,35.6,2,31.5c0,0,0-0.1,0-0.1c0-4.1,1.6-8,4.5-10.9
	c2.5-2.6,5.8-4.1,9.3-4.6v-0.1h0.1c0.4-3.5,2-6.8,4.6-9.3c3-2.9,6.9-4.5,11-4.5c4.2,0,8.1,1.7,11,4.6c2.9,2.9,4.5,6.8,4.5,11V37.4z"
    />
</svg>
