<?xml version="1.0" encoding="utf-8"?>
<!-- Generator: Adobe Illustrator 25.2.1, SVG Export Plug-In . SVG Version: 6.00 Build 0)  -->
<svg version="1.1" id="Слой_1" xmlns="http://www.w3.org/2000/svg" xmlns:xlink="http://www.w3.org/1999/xlink" x="0px" y="0px"
	 viewBox="0 0 369 369" enable-background="new 0 0 369 369" xml:space="preserve">
<g>
	<circle fill="#68BC93" cx="184.5" cy="184.5" r="184.3"/>
	<g>
		<g>
		</g>
		<g>
		</g>
		<g opacity="0.47">
		</g>
		<g opacity="0.47">
		</g>
		<g opacity="0.47">
		</g>
		<g>
			<path fill="#FFFFFF" d="M290.4,220.4c-12.1,12.8-35.9,31.3-80.4,46.5c-44.7,15.2-73,13.4-88.9,9.3c-1.4-0.4-2.5-1.4-2.9-2.9
				c-0.4-1.4,0-2.9,1.1-4l68.9-68.3c0.8-0.8,1.8-1.2,2.9-1.2c0.2,0,0.4,0,0.6,0l96.4,13.7c1.5,0.2,2.8,1.2,3.3,2.7
				C291.8,217.7,291.5,219.3,290.4,220.4z"/>
			<path fill="#FFFFFF" d="M176.1,189.3l-69,68.4c-0.9,0.9-2.2,1.3-3.5,0.9c-1.2-0.3-2.2-1.2-2.5-2.5c-2.6-9-4.9-21.6-4.9-38.6
				c0-14.2,1.6-31.5,6-52.1c9.5-44.8,25.9-67.2,37.8-78.1c0.7-0.6,1.5-0.9,2.4-0.9c0.3,0,0.6,0,1,0.1c1.2,0.3,2.1,1.2,2.5,2.4
				l31.1,96.5C177.4,186.9,177.1,188.3,176.1,189.3z"/>
			<path fill="#FFFFFF" d="M298.7,196.4c-0.8,1-2.1,1.4-3.3,1.2l-99.2-14.1c-1.4-0.2-2.6-1.2-3-2.6l-30.7-95.4
				c-0.4-1.3-0.1-2.6,0.7-3.6c0.7-0.8,1.8-1.3,2.8-1.3c0.2,0,0.5,0,0.7,0.1c16.8,3.2,44.3,13.2,80,42c36.1,29.2,48.6,54.3,52.7,70.2
				C299.9,194.3,299.6,195.5,298.7,196.4z"/>
		</g>
	</g>
</g>
</svg>
