<?xml version="1.0" encoding="utf-8"?>
<!-- Generator: Adobe Illustrator 25.2.1, SVG Export Plug-In . SVG Version: 6.00 Build 0)  -->
<svg version="1.1" id="Слой_1" xmlns="http://www.w3.org/2000/svg" xmlns:xlink="http://www.w3.org/1999/xlink" x="0px" y="0px"
	 viewBox="0 0 128 128" style="enable-background:new 0 0 128 128;" xml:space="preserve">
<style type="text/css">
	.st0{fill:none;}
	.st1{fill:#D09061;}
	.st2{fill:#9A6033;}
	.st3{fill:#BC7D4D;}
	.st4{fill:#BC7D4C;}
	.st5{fill:#985F31;}
	.st6{fill:#BC7C4C;}
	.st7{fill:#D18E5C;}
	.st8{fill:#BC7E4D;}
	.st9{fill:#B37545;}
	.st10{fill:#DB9563;}
	.st11{fill:#C78656;}
	.st12{fill:#995F31;}
	.st13{fill:#9B6033;}
	.st14{fill:#A36534;}
	.st15{fill:#A26534;}
	.st16{fill:#CF8C5A;}
	.st17{fill:#C58555;}
	.st18{fill:#AF7345;}
	.st19{fill:#BA7F54;}
	.st20{fill:#B6794B;}
	.st21{fill:#C78756;}
	.st22{fill:#FFFFFF;}
</style>
<g>
	<g>
		<polygon class="st0" points="87.6,49.8 87.6,49.8 87.6,49.8 		"/>
		<polygon class="st0" points="50.4,24.1 50.4,24.1 50.4,24.1 50.4,24.1 50.4,24.1 		"/>
		<path class="st0" d="M59.1,27.5C59.1,27.5,59.1,27.5,59.1,27.5C59.1,27.5,59.1,27.5,59.1,27.5C59.1,27.5,59.1,27.5,59.1,27.5z"/>
		<polygon class="st0" points="53.7,24.3 53.7,24.3 53.7,24.3 		"/>
		<path class="st0" d="M67,100.1L67,100.1L67,100.1C67,100.1,67,100.1,67,100.1C67,100,67,100.1,67,100.1
			C67,100.1,67,100.1,67,100.1z"/>
		<path class="st0" d="M64.3,79.1C64.3,79.1,64.3,79.1,64.3,79.1C64.3,79.1,64.3,79.1,64.3,79.1C64.3,79.1,64.3,79.1,64.3,79.1z"/>
		<path class="st0" d="M6.7,37.2C6.7,37.2,6.7,37.2,6.7,37.2C6.7,37.2,6.7,37.2,6.7,37.2C6.7,37.2,6.7,37.2,6.7,37.2
			C6.7,37.2,6.7,37.2,6.7,37.2z"/>
		<path class="st0" d="M87.6,49.8C87.6,49.8,87.6,49.8,87.6,49.8C87.6,49.8,87.6,49.8,87.6,49.8C87.6,49.8,87.6,49.8,87.6,49.8z"/>
		<polygon class="st0" points="81.3,13.1 81.3,13.1 81.3,13.1 81.3,13.1 81.3,13.1 		"/>
		<path class="st0" d="M63.1,125.4C63.1,125.4,63.1,125.4,63.1,125.4C63.1,125.4,63.1,125.4,63.1,125.4
			C63.1,125.4,63.1,125.4,63.1,125.4z"/>
		<path class="st0" d="M96.7,52.4C96.7,52.4,96.7,52.4,96.7,52.4C96.7,52.4,96.7,52.4,96.7,52.4C96.7,52.4,96.7,52.4,96.7,52.4z"/>
		<polygon class="st0" points="71.7,28.1 71.7,28.1 71.7,28.1 		"/>
		<path class="st0" d="M102.1,112.1C102.1,112.1,102.1,112.1,102.1,112.1C102.1,112.1,102.1,112.1,102.1,112.1
			C102.1,112.1,102.1,112.1,102.1,112.1z"/>
		<polygon class="st0" points="106.5,60.8 106.5,60.8 106.5,60.8 		"/>
		<polygon class="st0" points="87.9,74.9 87.9,74.9 87.9,74.9 		"/>
		<path class="st0" d="M86.4,30.7C86.4,30.7,86.4,30.7,86.4,30.7C86.4,30.7,86.4,30.7,86.4,30.7C86.4,30.7,86.4,30.7,86.4,30.7z"/>
		<path class="st0" d="M44.9,97.3C44.9,97.3,45,97.3,44.9,97.3C45,97.3,44.9,97.3,44.9,97.3C44.9,97.3,44.9,97.3,44.9,97.3z"/>
		<path class="st0" d="M47.7,97.3C47.7,97.3,47.7,97.3,47.7,97.3C47.7,97.3,47.7,97.3,47.7,97.3C47.8,97.3,47.7,97.3,47.7,97.3
			L47.7,97.3z"/>
		<path class="st1" d="M58,3c-0.2,0.5-0.2,0.9,0.1,1.4c0.3,0.4,0.7,0.5,1.1,0.3c2.2-1,4.6-1.2,6.9-1.9c0.1,0,0.2-0.1,0.3-0.1l0,0
			c-0.2-0.9-0.4-1.8-0.6-2.7c-0.6,0-1.2,0-1.8,0c-1.2,0-2.4,0-3.6,0.1c-0.3,0.5-0.7,1-1.1,1.5C58.9,2.1,58.3,2.4,58,3z"/>
		<path class="st2" d="M40.6,7.1c0.8-0.2,0.6-0.5,0.2-0.9c-0.4-0.5-0.9-0.7-1.5-0.9C39.2,5.2,39,5.1,38.9,5c-2.3,1-4.6,2.1-6.8,3.4
			c1.5,0,3-0.3,4.5-0.3C37.9,7.7,39.3,7.3,40.6,7.1z"/>
		<path class="st2" d="M66.4,2.7L66.4,2.7c0.4,0.7,0.7,1.4,1.1,2C67.9,5.4,68.1,6,68,6.8c0,0.5,0.1,0.8,0.8,0.7
			c1.1-0.2,2.2-0.3,3.3-0.3c0,0,0,0,0,0l0,0c1.3-1.6,3.1-2,4.9-2.4c0.2-0.1,0.4-0.1,0.7-0.2c-1.5-1.6-3.3-1.4-5.2-1
			c-0.3,0.1-0.7,0.2-1,0.3c-1.2,0.4-1.7,0-1.7-1.3c0-0.2,0-0.5,0-0.7c0,0,0,0,0,0c-0.3-0.6-0.6-1.2-0.9-1.9c-1-0.1-2.1-0.1-3.1-0.2
			C66,0.8,66.2,1.8,66.4,2.7L66.4,2.7z"/>
		<path class="st3" d="M28.7,28c-0.9-0.4-1.1-0.7-1.1-1.7c-1.2,0.1-2-0.6-2.6-1.5c-0.4-0.6-0.7-1.1-1.1-1.7c0,0-0.1-0.1-0.1-0.1
			c1,2.1,2,4.3,2.9,6.5C27.5,28.9,28.1,28.4,28.7,28C28.7,28,28.7,28,28.7,28z"/>
		<path class="st3" d="M16.1,26.7c0.2,0.5,0.5,0.9,0.7,1.4c0,0,0,0,0,0c0,0,0,0,0,0c0.9-0.6,1.8-1.4,2.8-1.9
			c0.7-0.4,1.4-0.5,2.1-0.7c0.5-0.1,1-0.2,1.3,0.4c0.3,0.6,0.1,1.2-0.4,1.5c-0.9,0.6-1.4,1.5-1.9,2.4c0.7,0.7,1.1,1.6,1.7,2.4
			c0.1,0.1,0.2,0.3,0.3,0.4c0,0,0,0,0,0c1.4-1.1,2.8-2.2,4.2-3.3c-0.9-2.2-1.9-4.3-2.9-6.5c-1.2-1.9-2.5-3.8-3.7-5.7
			c-1.9,1.8-3.7,3.6-5.3,5.6c0.2,1.2,0.7,2.3,1.1,3.4C16,26.4,16.1,26.6,16.1,26.7z"/>
		<path class="st3" d="M28.3,42.6c-0.3,0.6-0.8,0.3-1.2,0.2c-1.5-0.1-2.6,0.7-3.6,1.6c-0.9,0.7-1.5,1.8-2.3,2.6h0
			c0.4,1.3,0.9,2.6,1.2,4c1.7,0.9,3.1,0.3,4.6-0.6c0.6-0.4,1.3-0.7,2.1-0.7c0.5,0.1,0.8-0.2,0.9-0.6c0-0.1,0.1-0.2,0.1-0.3
			c0.5-1.6,0.6-1.7,2.2-1.9c-0.2-0.4-0.6-0.5-0.9-0.7c-0.7-0.4-0.9-0.9-0.7-1.7c0.1-0.5,0.3-1.1,0.5-1.6c0.1-0.3,0.3-0.5,0.5-0.7
			c-1.4-4.3-2.9-8.6-4.7-12.8c-1.4,1.1-2.8,2.2-4.2,3.3c1.9,2.8,3.5,5.7,5.6,8.3C28.6,41.5,28.6,42.1,28.3,42.6z"/>
		<path class="st3" d="M40.9,6.2c0.3,0.4,0.5,0.7-0.2,0.9c-1.4,0.3-2.7,0.7-4.1,1c0.2,1.5,0.4,3.1,0.6,4.6c0.1,0.8,0.2,1.7,0.2,2.5
			c0.1,1.6,0.3,3.1,0.2,4.7c0,0,0,0,0,0c0.5,0.3,0.9,0.6,1.4,1c-0.4,0.3-0.9,0.5-1.3,0.8l0,0c0,0.2,0.1,0.4,0.1,0.6
			c0.1,0.9,0.7,1.3,1.7,1c0.6-0.1,0.8-0.2,0.7,0.6c-0.3,2.6-1.3,5-2.2,7.4c-0.3,0.9-0.6,1.9-0.7,2.9c0,0.3-0.2,0.4-0.4,0.6
			c0,0,0,0,0,0c0,0,0,0,0,0c1.2,0.5,2.1,1.6,3.3,2.3c-0.4,0.5-0.9,0.5-1.4,0.6c-3.3,0.5-5.6-0.5-7-3.7c-0.1-0.2-0.2-0.4,0.1-0.6
			c-1.6-1.4-2.3-3.2-2.6-5.2c0,0,0,0,0,0c0,0,0,0,0,0C29,28.1,28.9,28,28.7,28c-0.6,0.5-1.3,1-1.9,1.4c1.8,4.2,3.3,8.5,4.7,12.8
			c0,0,0,0,0,0c0.3-0.4,0.7-0.6,1.2-0.7c1-0.3,2-0.7,3.1-1c1.4-0.4,2.8,0.5,3,1.8c0.8-0.2,1.1,0.5,1.3,1c0.3,0.8,0.5,1.7,0.4,2.6
			c-0.2,0.8-0.1,1.7-0.1,2.5c1,0.9,2.2,1.5,3.5,2c1,0.4,1.8,1,2.3,1.9c0,0,0,0,0,0c0,0,0,0,0,0c0.6-0.4,1.2-0.8,1.9-1.2
			c1.2-0.8,2.6-1.2,4-1c0.2,0,0.4-0.1,0.5,0.1c0.1,0.2-0.1,0.3-0.2,0.4c-0.8,1.2-1.9,2.3-2.7,3.6c0.5,1.6,1.5,2.9,2.4,4.3
			c1.9,3,3.9,5.9,6.2,8.7c0.7,0.9,1,1.9,1.3,2.9c0.5,1.6,1.6,2.1,3.1,1.5c0.8-0.3,1.5-0.7,2.3-1.1c1.4-0.6,2-0.4,2.7,1
			c0.5,0.9,0.9,1.8,1.4,2.7c0.3,0.5,0.7,0.9,1.4,0.9c1.2,0,2.3,0,3.5,0c0.6-1,1.2-2,2-2.8c0.8-0.8,1.8-1.2,2.9-1.2
			c0.1,0,0.1,0,0.2,0c0.4-0.4,0.5-1,0.7-1.5c0.4-1.3,1.2-1.9,2.6-1.7c1.1-0.1,1.2-0.9,1.5-1.7c0.5-1.8,1.5-3.5,2.6-5
			c1.6-2.1,3.3-4.2,4.5-6.5c0-1.2-0.6-2.1-1.5-2.8c-0.7-0.6-1.5-1.1-1.8-2.1c0,0,0,0,0,0c-1.9,0.4-3.7,1.3-5.6,1.7
			c-1.4,0.3-2.8,0.4-4.2,0.1c-0.1,1.9-0.6,3.6-1.8,5.1c-0.3,0.4-0.7,0.7-1.2,0.8c0,0,0,0,0,0c0,0,0,0,0,0c-0.5,0.9-1.6,1.3-2.8,1
			c-0.6-0.1-1.1-0.2-1.7-0.3c-0.8,1.9-0.4,3,1.3,4c0.9,0.5,1.8,1.2,2.7,1.8c0,0,0,0,0,0c0,0,0,0,0,0c0.9-2.2,2.4-3.8,4.1-5.4
			c0.3-0.3,0.5-0.6,0.8-0.9c0.2-0.3,0.5-0.6,0.9-0.4c0.4,0.1,0.5,0.5,0.5,0.8c0,0.8,0,1.5,0,2.3c-0.1,1.2-0.4,2.4-0.2,3.6
			c0.2,1.2-0.1,1.5-1.4,1.5c-1.3,0-2.7,0-4,0c0,1.2-0.1,2.4-0.8,3.4c-0.3,0.5-0.6,1.2-1.4,1.1c-0.7,0-0.9-0.7-1.2-1.2
			c-1.6-0.5-3.1-1-4.1-2.5c-0.7-1-0.7-2.1-0.4-3.3c0.1-1.8-0.2-3.6-0.5-5.4c-0.8,0.2-1.6-0.1-2.3-0.2c-1.3-0.3-2.7-0.5-4-0.5
			c-0.5,0-0.9-0.1-1.1-0.8c-0.4-1.2-1.1-2.2-2-3.1c-1.3-1.4-2.9-2.6-3.8-4.3c-0.5-0.9-0.7-1.8-0.9-2.8c-0.9-3.2-1.7-6.3-2.5-9.5
			c-0.1-0.3-0.2-0.6-0.3-0.8c-0.3-0.5-1-0.5-1.3,0c-1.3,2.3-2.5,4.6-3.1,7.2c-0.1,0.5-0.2,0.9-0.3,1.4c-0.1,0.2,0,0.6-0.4,0.6
			c-0.2,0-0.4-0.2-0.5-0.4c-0.6-0.8-1.2-1.7-1.5-2.6c-0.4-1.1-0.8-2.2-1.2-3.4c-0.2-0.6-0.1-1.2,0.5-1.6c0.4-0.3,0.8-0.5,1.2-0.8
			c1.5-1.1,2-2.8,1.6-4.5c-0.4-1.9-0.8-3.7-1.2-5.6c-0.1-0.7-0.4-1.4-0.8-1.9c-0.8-1.3-0.9-2.7-0.2-4c1.6-3.4,2-7,1.9-10.7
			c0-0.2,0-0.5,0-0.7c0,0,0,0,0,0c0,0,0,0,0,0c-0.3-0.1-0.5-0.2-0.8-0.4c-0.7-0.4-0.8-1-0.4-1.7c0.4-0.7,1-1.1,1.6-1.5
			c0.4-0.3,0.9-0.5,1.3-0.9C46.3,4,46.5,3.8,46.8,4c0.2,0.1,0.4,0.3,0.4,0.6c0.1,0.7-0.3,1.2-0.7,1.6c-0.6,0.6-1,1.3-1.1,2.2
			c0.7,1.4,1.3,2.8,2.4,3.9c1.3,1.3,2.5,2.7,3.7,4c0.4,0.4,0.7,0.8,1,1.3c0.7,1.1,0.6,2.2-0.6,3.2c-0.9,0.7-1.3,1.6-1.3,2.7
			c0,0.3-0.2,0.5-0.4,0.6c0,0,0,0,0,0c1.1,0,2.2,0,3.3,0.2c0,0,0,0,0,0c0.4-1.4,1.3-2.6,2.1-3.8c0.3-0.4,0.6-0.7,0.9-1.1
			c0.5-0.8,0.4-1.4-0.5-1.7c-0.2-0.1-0.5-0.2-0.8-0.2c-1.1-0.3-1.4-0.7-1.4-1.8c-0.1-1.8,0.2-3.5-0.3-5.3c-0.2-0.8-0.6-1.6-1.1-2.5
			c1.7,0.5,3.2,1.4,4.8,1.8c1-1.9,2.8-2.5,4.7-3c0.2,0,0.5-0.3,0.5,0.2c0.2-0.1,0.3-0.4,0.7-0.3c2,0.5,3.7,2.6,3.7,4.6
			c0,0.9,0.1,1.8-0.3,2.6c-0.2,0.4-0.5,0.7-1,0.7c-1.5,0.1-1.9,0.4-2.2,1.8c-0.9,3.2-1.8,6.4-2.6,9.6c-0.3,1.3-0.3,1.3-1.6,1.3
			c0,0,0,0,0,0c1.9,0.1,3,1.7,4.5,2.6c-1.9,1.1-4,0.9-6.3-0.5c-1.1-0.7-2.1-1.5-3.3-2c-0.4,1.9-1,3.8-1.3,5.7
			c-0.2,1.4,0.1,2.6,1.2,3.5c0.6,0.5,1.2,0.9,1.9,1.3c0.6,0.4,1.3,0.3,1.9-0.2c0.4-0.3,0.8-0.7,1-1.1c0.3-0.4,0.6-0.5,1-0.4
			c0.5,0.1,0.6,0.5,0.6,0.9c0.1,1.1-0.2,2.2-0.4,3.3c0,0.2-0.1,0.4-0.1,0.6c0.7-0.1,1,0.5,1.6,0.8c0.2,0.1,0.4,0.4,0.7,0.4
			c1.7-0.6,3.5-1.1,4.9-2.3c0.5-0.4,1,0.1,1.2,1.1c0.3,0.8,0.8,1.5,0.9,2.3c0.2,1.6-0.2,2.2-1.9,2.7c-1.2,0.5-2.4,1.1-3.7,0.4
			c-0.1-0.1-0.2-0.2-0.4-0.3c-0.5,0-1,0-1.6,0c0.1,1.5,0.6,1.9,2,1.9c1.6,0,3,0.3,4.2,1.4v0c0.8,0.2,1.1,0.8,1.6,1.4
			c1.6,0,3.2,0.3,4.8,0.5c0.3,0,0.6,0,0.9,0.1c0.2-0.6,0.5-1.2,0.7-1.9c0.3-0.6,0.3-1.3-0.1-1.8c-0.6-1.1-0.3-1.4,0.7-2.2
			c0.7-0.5,1.2-1.2,1.8-1.9c0.1-0.2,0.2-0.4,0.3-0.6c-0.5-1.3-1.2-2.5-2-3.6c-1.8-2.9-3.9-5.6-5.4-8.6c-0.4-0.9-0.9-1.7-1-2.7
			c-0.4-0.1-0.8-0.2-1.2-0.2c0.2,0.8-0.1,1.3-0.7,1.8c-0.6,0.5-1.2,0.4-1.9,0.2c-0.2-0.1-0.4-0.3-0.4-0.6c0.1-0.8,1.1-1.6,1.9-1.7
			c-0.2-1.1,0.2-1.9,1.3-2.1c0.3-0.1,0.6-0.1,0.9-0.2c0-2.2,0-4.5,0-6.7c0-1.3,0.8-1.8,1.9-1.2c1.8,0.9,3.3,2.2,4.7,3.7
			c0.9,1,0.5,2.5-0.2,3.5c-0.2,0.3-0.5,0.5-0.8,0.8l0,0h0c0,0.8-0.5,1.4-1.2,1.6c-0.9,0.3-1.7,0.8-2.6,1.2c0,0,0,0,0,0
			c0.5,0,0.8,0.2,1.2,0.4c1.7,1.1,3.7,0.8,5.2-0.5c0.8-0.8,1.6-1.5,2.6-2.1c0.4-0.2,0.7-0.3,1.1-0.4c-0.6-1.2-1.4-2.2-1.7-3.5
			c0-0.2-0.1-0.5-0.1-0.7c0-0.9,0.2-1,1-0.7c0.4,0.2,0.8,0.4,1.2,0.4c-0.9-2.7-0.2-4.6,2.4-6.4c0.3-0.2,0.5-0.4,0.7-0.6
			c0.9-0.9,0.8-2-0.2-2.7c-0.5-0.3-0.9-0.7-1.1-1.3c0,0,0,0,0,0c0,0,0,0,0,0c-0.3,1.3-1,2.5-2,3.4c-0.3,0.3-0.8,0.5-0.8-0.3
			c0,0,0,0,0,0c-0.1,0.8-1,1.1-1.5,1.6c-0.8,0.8-1,1.9-1.5,2.9c-0.2,0.5-0.5,1-1.2,1c-0.7,0-1-0.6-1.2-1.1c-0.6-1.6-1.2-3.2-1.7-4.8
			C73.7,10.8,73,9,72,7.2c0,0,0,0,0,0c-1.1,0-2.2,0.1-3.3,0.3C68.2,7.6,68,7.3,68,6.8c0.1-0.7-0.1-1.4-0.5-2.1
			c-0.4-0.7-0.7-1.4-1.1-2h0c-0.1,0-0.2,0.1-0.3,0.1c-2.3,0.7-4.7,0.8-6.9,1.9c-0.4,0.2-0.8,0-1.1-0.3C57.7,3.9,57.8,3.5,58,3
			c0.3-0.6,0.9-0.9,1.3-1.5c0.4-0.5,0.7-1,1.1-1.5c-7.6,0.4-14.9,2.2-21.5,5c0.2,0.1,0.3,0.2,0.5,0.3C39.9,5.6,40.5,5.7,40.9,6.2z"
			/>
		<path class="st3" d="M37.6,19.9c0,0.1,0,0.2,0,0.4c0,0.5,0,1,0.1,1.5c0.4-0.3,0.9-0.6,1.3-0.8C38.5,20.5,38.1,20.2,37.6,19.9z"/>
		<path class="st4" d="M90.9,13.8c0,0.9-0.4,1.2-1.3,1c-0.3-0.1-0.7-0.2-1-0.4c-0.9-0.4-1.1-0.3-1.4,0.6c-0.2,0.6-0.3,1.3-0.3,2
			c0,1.8-0.4,3.5-0.1,5.3c0.2,1.1-0.4,1.9-1.4,2.2c0.3,0.7,0,1.7,0.7,2.3c0,0,0,0,0,0c0,0,0,0,0,0c1.5,0,2.8-0.6,4.2-1.1
			c0.1,0,0.3-0.1,0.2-0.3c0-0.1-0.2-0.2-0.3-0.3c-0.3-0.2-0.6,0-0.8,0.1c-0.4,0.1-0.8,0.3-1.1-0.1c-0.3-0.5-0.4-1,0-1.6
			c0.5-0.8,1.2-1.4,1.7-2.2c2.3-4.2,6.1-6.6,10.5-8.2c0.6-0.2,1.1-0.4,1.7-0.6c-3.9-2.9-8.1-5.4-12.7-7.3c0.4,2.4,0.8,4.8,1.2,7.1
			C90.9,12.9,90.9,13.3,90.9,13.8z"/>
		<path class="st5" d="M82.3,3.2L82.3,3.2c0.3-0.1,0.7-0.2,1-0.3c-0.3-0.1-0.7-0.2-1-0.3C82.3,2.8,82.4,3,82.3,3.2z"/>
		<path class="st6" d="M120.3,34.6c-0.6,1.5-1.2,1.6-2.4,0.5c-1.3-1.2-2.8-2.2-4.8-1.6c-1.3,0.4-2.1,1.4-2.7,2.6
			c-0.3,0.6-0.1,1.3,0.1,1.9c0.6,1.5,0.8,3,0.5,4.6c-0.3,1.5-1.2,2.6-2.4,3.4c-1.8,1.1-3.8,1.8-5.6,2.8c-0.1,0.1-0.3,0-0.4,0.1
			c-0.2,0.9-0.9,1.4-1.6,1.8c-0.9,0.5-1.9,0.8-2.7,1.3c-0.5,0.3-1.1-0.1-1.6,0.3c0,0,0,0,0,0c1.5,0,1.5,0,2.1,1.5
			c0.9,2.2,1.7,4.4,1.7,6.9c0,0,0,0,0,0c0.9,0.4,1.7,0.2,2.4-0.5c0.3-0.3,0.7-0.4,1-0.7c0.3-0.2,0.5-0.1,0.6,0.1c0,0,0,0,0,0
			c0,0,0,0,0,0c0.6-0.9,1-1.9,1.1-3c0.1-0.4,0.2-0.9,0.6-0.9c0.6-0.1,0.6,0.5,0.9,0.8v0c0,0,0,0,0,0c0.5,0.5,1.1,0.8,1.8,1.1
			c0.7,0.3,1.3,0.1,1.6-0.7c-0.3-1.1-1-2-1.3-3c-0.5-1.6-0.2-3.1,0.7-4.5c0.4-0.6,1.1-1.1,2-0.9c1,0.3,1.2,1.1,1.5,1.9
			c0.1,0.2,0,0.3,0,0.5c1,0,1.9,0.1,2.8,0.5c1.7,0.6,2.3,2.1,2.6,3.7c0.3,1.4,0.2,2.9,0.5,4.3c0.6,2.4,1.9,3.5,4.2,3.8
			c0.6,0.1,1.1,0.2,1.7,0.2v0c0.9-0.4,1.7-0.7,2.6-1c-0.1-3.9-0.5-7.6-1.2-11.3c0,0-0.1,0-0.1,0c-0.3,0.1-0.5,0.3-0.9,0.1
			c0.2-0.5,0.4-1,0.6-1.6c-0.4-1.8-0.9-3.5-1.4-5.2c-0.1,0.2-0.1,0.4-0.2,0.6c0.4,1.2-0.1,2-0.9,2.8c-0.5,0.4-0.9,0.9-1.3,1.4
			c-0.8,1.2-0.8,1.9,0.1,3c1.1,1.5,1.2,3.2,1.4,4.9c0.1,0.5-0.2,0.9-0.7,1.1c-0.5,0.2-0.8-0.1-1.1-0.4c-0.3-0.4-0.6-0.8-0.7-1.3
			c-0.5-2.6-1.6-4.9-2.2-7.5c-0.1-0.6-0.2-1.1,0.5-1.4c-0.3-0.1-0.6,0.1-0.7-0.3c-0.3-1.8-1.6-3.2-2.3-4.8c-0.5-1.2-0.2-1.9,1-2.2
			c1.9-0.5,5,0.5,6.6,2c-1-2.7-2.1-5.4-3.4-7.9C120.6,34.5,120.5,34.6,120.3,34.6L120.3,34.6z"/>
		<path class="st7" d="M26.2,14.4c-0.2-0.3-0.3-0.8,0-1.2c0.3-0.5,0.6-1,0.8-1.6c-1,0.7-2,1.4-2.9,2.2C24.8,14,25.5,14.2,26.2,14.4
			C26.2,14.4,26.2,14.4,26.2,14.4z"/>
		<path class="st7" d="M27.9,15C27.9,15,27.9,15,27.9,15c3.4,1.2,6.7,2.8,9.7,4.9c0-1.6-0.1-3.1-0.2-4.7c-0.1-0.8-0.1-1.7-0.2-2.5
			c-0.3-1.5-0.4-3.1-0.6-4.6c-1.5,0-3,0.3-4.5,0.3c-1,0.6-2,1.2-3,1.9c0,1,0,2.1-0.2,3.1C28.7,14.3,28.4,14.8,27.9,15z"/>
		<path class="st7" d="M29.2,28.2C29.2,28.2,29.2,28.2,29.2,28.2c0.3,2,1,3.8,2.6,5.2c1.6,0.9,3.2,1.5,5.1,1.4c0,0,0,0,0,0
			c0.1-0.2,0.3-0.3,0.4-0.6c0.1-1,0.4-1.9,0.7-2.9c0.8-2.4,1.8-4.8,2.2-7.4c0.1-0.8-0.1-0.7-0.7-0.6c-1,0.2-1.5-0.1-1.7-1
			c0-0.2-0.1-0.4-0.1-0.6c-1.8,1.2-3.7,2.5-5.6,3.8C31.5,26.7,30.5,27.7,29.2,28.2z"/>
		<path class="st7" d="M24,23.1c0.4,0.6,0.7,1.1,1.1,1.7c0.6,0.9,1.4,1.6,2.6,1.5c2-1,3.6-2.6,5.3-4.1c0,1.1-0.3,2.3-0.8,3.4
			c0,0,0,0,0,0c1.9-1.3,3.8-2.6,5.6-3.8l0,0c-0.1-0.5-0.1-1-0.1-1.5c0-0.1,0-0.2,0-0.4c0,0,0,0,0,0c-3-2.1-6.3-3.7-9.7-4.9
			c-0.1,0-0.3,0.1-0.4,0.1c-0.5,0-1-0.3-1.2-0.6c-0.7-0.2-1.4-0.4-2.1-0.6c-1.2,0.9-2.3,1.9-3.4,2.9C21.9,18.8,22.9,20.9,24,23.1z"
			/>
		<path class="st7" d="M24,23.1c-1-2.1-2.1-4.2-3.3-6.3c-0.2,0.2-0.4,0.3-0.5,0.5c1.2,1.9,2.5,3.8,3.7,5.7C23.9,23,23.9,23,24,23.1z
			"/>
		<path class="st8" d="M71.8,2.1c-0.7,0-1.4,0.2-2.1-0.2c0,0.2,0,0.5,0,0.7c0,1.2,0.5,1.6,1.7,1.3c0.3-0.1,0.7-0.2,1-0.3
			c1.9-0.4,3.7-0.6,5.2,1c1.3,1.2,2.8,2,4.4,2.8c0.1,0,0.3,0,0.3-0.2c0-1.3,0-2.7,0-4l0,0v0c0-0.2,0-0.4,0-0.6
			c-2.7-0.8-5.4-1.4-8.2-1.9c0,0.1-0.1,0.2-0.1,0.3C73.5,1.8,72.8,2.2,71.8,2.1z"/>
		<path class="st7" d="M81.3,13.1c0.4-1.9,0.8-3.8,0.7-5.8c-1.5-0.8-3.1-1.6-4.4-2.8c-0.2,0.1-0.4,0.1-0.7,0.2
			c-1.8,0.4-3.7,0.9-4.9,2.4l0,0c1,1.8,1.7,3.6,2.3,5.5c0.5,1.6,1.1,3.2,1.7,4.8c0.2,0.6,0.5,1.1,1.2,1.1c0.6,0,0.9-0.5,1.2-1
			c0.5-1,0.7-2.1,1.5-2.9C80.3,14.2,81.1,14,81.3,13.1C81.3,13.1,81.3,13.1,81.3,13.1C81.3,13.1,81.3,13.1,81.3,13.1z"/>
		<path class="st7" d="M69.8,2c0.7,0.3,1.4,0.1,2.1,0.2C72.8,2.2,73.5,1.8,74,1c0.1-0.1,0.1-0.2,0.1-0.3c-1.7-0.3-3.5-0.5-5.3-0.6
			C69.2,0.7,69.5,1.3,69.8,2C69.8,2,69.8,2,69.8,2z"/>
		<path class="st1" d="M75.4,122.9c-0.2-0.3-0.6-0.1-0.9-0.1c-2.2,0.2-4.2,1.1-6.3,1.6c-0.6,0.1-1.2,0.2-1.8,0.3v0
			c-0.1,1.1,0.1,2.1,0.3,3.1c2-0.1,4-0.3,6-0.5c0.7-1.2,1.5-2.4,2.3-3.6C75.2,123.4,75.6,123.2,75.4,122.9z"/>
		<path class="st8" d="M58.6,126.6c0.4-0.4,0.8-0.9,1.3-1.2c1-0.7,2.1-0.6,3.2-0.1c0,0,0,0,0,0c0-1.6-0.4-2-2-1.7
			c-0.7,0.1-1.5,0.3-2.2,0.4c-1.6,0.3-2.2,0.1-3.1-1.3c-0.8,0-1.5-0.3-2-0.9c-0.3-0.3-0.7-0.6-1-1c-0.6-0.7-1.3-0.9-2.1-0.8
			c0,0,0,0,0,0c0,0,0,0,0,0c-0.2,0.2-0.5,0.3-0.7,0.5c0.3,0.7,0.5,1.5,0.5,2.3c0,1-0.6,1.4-1.4,1.8c0,0,0,0,0,0c0,0,0,0,0,0
			c0.8,0,0.9,0.6,0.9,1.2c1,0.1,1.8,0.4,2.5,0.9c1.9,0.3,3.8,0.6,5.7,0.8C58.2,127.3,58.3,126.9,58.6,126.6z"/>
		<path class="st1" d="M50,125.9c-0.2,0.1-0.3,0.2-0.5,0.3c1,0.2,2,0.4,3,0.6C51.8,126.3,51,126,50,125.9L50,125.9z"/>
		<path class="st2" d="M66.4,124.7L66.4,124.7L66.4,124.7c-0.7-0.9-0.8-2-1.2-2.9c-0.6-1.5-1.4-1.9-3-1.5c-0.6,0.2-1.3,0.4-1.9,0.6
			l0,0l0,0c-0.7,0.7-1.7,0.9-2.6,1.2c-0.7,0.2-1.4,0.2-1.9,0.7l0,0c1,1.4,1.5,1.6,3.1,1.3c0.7-0.2,1.5-0.3,2.2-0.4
			c1.6-0.3,2,0.1,2,1.7c0,0,0,0,0,0c0.3,0.8,0.7,1.7,1.1,2.5c0.9,0,1.7,0,2.5-0.1C66.5,126.8,66.3,125.8,66.4,124.7z"/>
		<path class="st7" d="M102.4,48.9c-0.1,0-0.2,0.1-0.3,0.1C102.3,49,102.3,49,102.4,48.9z"/>
		<path class="st7" d="M90,21.3c-0.4,0.8-1.1,1.4-1.7,2.2c-0.4,0.5-0.3,1.1,0,1.6c0.3,0.4,0.7,0.2,1.1,0.1c0.3-0.1,0.5-0.3,0.8-0.1
			c0.1,0.1,0.2,0.2,0.3,0.3c0.1,0.2-0.1,0.2-0.2,0.3c-1.4,0.5-2.7,1.1-4.2,1.1c0,0,0,0,0,0c0,0.1,0,0.1,0,0.2c0,0,0,0,0,0
			c0.3,0.8,0.1,1.7,0.2,2.6c0,0.4,0,0.7,0,1.2c0,0,0,0,0,0c0.8-0.4,1.5-0.5,2.2-0.5c0.6,0,0.7,0.3,0.5,0.8c-0.1,0.4-0.3,0.9-0.5,1.3
			c-0.7,1.2-1.3,2.3-2,3.4c-0.7,1-1.3,1.1-2.2,0.2c-0.9-0.9-1.2-1.7,0-2.8c0.8-0.7,0.8-1.6,0.9-2.5c-0.8-1.7-1.7-3.4-3.1-4.8
			c-0.1-0.1-0.3-0.2-0.4-0.3v0c-0.4,0-0.8,0.1-1.1,0.4c-1,0.6-1.8,1.3-2.6,2.1c-1.5,1.4-3.5,1.6-5.2,0.5c-0.4-0.2-0.7-0.4-1.2-0.4
			c0,0,0,0,0,0c0,0,0,0,0,0c-0.6,0-1.2,0-1.7,0c0.1,1,0.6,1.9,1,2.7c1.5,3.1,3.5,5.8,5.4,8.6c0.7,1.2,1.5,2.3,2,3.6
			c1.9-0.4,3.3-1.5,4.7-2.7c0.6-0.5,1.1-1,2-1.5c-0.4,2.8-0.6,5.4,2.9,6.1c0,0,0,0,0,0c0,0,0,0,0,0c2.3-0.5,2.8-2.5,2.6-4.3
			c-0.5-3.8,0.1-7.4,3-10.3c0.7-0.7,1.4-1.2,2.2-1.7c0.7-0.5,1.3-0.2,1.3,0.6c0,3.3,0,6.5,0,9.8c0,0.7-0.2,1.4-0.3,2.1
			c-0.1,0.6,0,1,0.8,0.9c1.6-0.1,3.3,0,4.9,0c0,0,0.1,0,0.1,0c0,0,0,0.1,0,0.1c0,0,0,0,0,0c0,0,0,0,0,0c-0.8,1.7-2.3,2.3-4,2.4
			c-0.7,0.1-1.3,0.2-2,0.3c-0.4,0.1-0.8,0.3-0.7,0.6c0.1,1.1-0.1,2.3,1,3.1c0.3,0,0.6-0.1,0.9,0.2c0.1,0,0.1,0,0.2,0c0,0,0,0,0,0
			c0.8-0.3,1.6-0.1,2.4-0.2c0.8,0,1.6,0,2.3,0c0.1,0,0.1,0,0.1,0c0,0,0,0,0,0c0.1,0,0.3,0,0.4-0.1c1.8-1.1,3.8-1.7,5.6-2.8
			c1.2-0.7,2.1-1.9,2.4-3.4c0.4-1.6,0.1-3.1-0.5-4.6c-0.2-0.6-0.5-1.3-0.1-1.9c0.6-1.1,1.4-2.2,2.7-2.6c2-0.6,3.4,0.3,4.8,1.6
			c1.1,1,1.7,0.9,2.4-0.5l0,0h0c0.1-0.3,0.1-0.6,0.2-0.8c-0.7-1.3-1.5-2.6-2.3-3.9c-0.5-0.5-0.9-1.2-1.2-1.9
			c-1.7-2.5-3.6-4.9-5.6-7.1c-0.1,0.6-0.1,1.2-0.2,1.8c-0.6,3.8-1.2,7.5-1.8,11.3c-0.1,0.4,0,1-0.7,1.2c-0.6,0.1-0.9-0.3-1.1-0.7
			c-1.6-2.5-3.1-5-3.9-7.9c0-0.2-0.1-0.4-0.3-0.5c-0.3-0.1-0.4,0.2-0.5,0.4c-0.7,0.8-0.9,1.9-1.2,2.9c-0.1,0.4-0.2,0.8-0.4,1.2
			c-0.3,0.7-0.8,0.8-1.4,0.3c-0.5-0.4-0.8-0.9-1.1-1.5v0c-0.8-0.6-1-1.4-1.3-2.3c-0.3-1-0.6-2.1-0.6-3.2c0-0.7,0.3-1,1-1
			c0.5,0,1,0,1.5,0c1.6-1.4,3.1-2.8,5-3.7c1.1-0.5,2.3-0.9,3.6-0.8c0.4,0,0.7,0,1.1,0c-2.1-2.1-4.4-4-6.7-5.8
			c-0.6,0.2-1.1,0.4-1.7,0.6C96.1,14.7,92.3,17.1,90,21.3z M103.1,36.9c0.1-0.6,0.7-0.5,1.1-0.5c0.8,0,1.5,0.5,2.4,0.8
			c-0.9,0.5-1.6,1.4-2.7,0.9C103.4,37.9,103,37.5,103.1,36.9z"/>
		<path class="st7" d="M67.7,52.7c0-1,0-2,0-3l0,0v0c-1.2-1.1-2.6-1.4-4.2-1.4c-1.4,0-1.9-0.5-2-1.9c-0.3-0.9-0.7-1.7-1.2-2.5
			c-0.4-0.8-0.7-1.6-0.6-2.6c0-0.2,0.1-0.4,0.1-0.6c0.3-1.1,0.5-2.2,0.4-3.3c0-0.4-0.1-0.8-0.6-0.9c-0.4-0.1-0.8,0-1,0.4
			c-0.3,0.4-0.6,0.7-1,1.1c-0.6,0.5-1.2,0.6-1.9,0.2c-0.7-0.4-1.3-0.8-1.9-1.3c-1.1-0.9-1.4-2.1-1.2-3.5c0.3-1.9,0.9-3.8,1.3-5.7
			l0,0c-1.5-0.8-3.2-1.1-4.9-1.4c-0.7-0.1-1.3-0.3-2.1-0.2c0.7-1.5,2-1.7,3.3-2c0,0,0,0,0,0c0,0,0,0,0,0c0.2-0.2,0.4-0.3,0.4-0.6
			c0-1.1,0.4-2,1.3-2.7c1.1-1,1.3-2.1,0.6-3.2c-0.3-0.5-0.7-0.9-1-1.3c-1.2-1.4-2.4-2.7-3.7-4c-1.1-1.1-1.7-2.5-2.4-3.9
			c-0.3,0.1-0.7,0.1-1,0.2c0,0,0,0,0,0c0,0.2,0,0.5,0,0.7c0.1,3.7-0.2,7.3-1.9,10.7c-0.6,1.3-0.6,2.7,0.2,4c0.4,0.6,0.6,1.3,0.8,1.9
			c0.4,1.9,0.8,3.7,1.2,5.6c0.4,1.7-0.1,3.4-1.6,4.5c-0.4,0.3-0.8,0.6-1.2,0.8c-0.6,0.4-0.7,1-0.5,1.6c0.4,1.1,0.8,2.3,1.2,3.4
			c0.3,1,0.9,1.8,1.5,2.6c0.1,0.2,0.4,0.4,0.5,0.4c0.3,0,0.3-0.4,0.4-0.6c0.1-0.4,0.2-0.9,0.3-1.4c0.6-2.6,1.9-4.9,3.1-7.2
			c0.3-0.5,0.9-0.5,1.3,0c0.2,0.2,0.3,0.5,0.3,0.8c0.9,3.2,1.7,6.3,2.5,9.5c0.3,0.9,0.5,1.9,0.9,2.8c1,1.7,2.5,2.9,3.8,4.3
			c0.9,0.9,1.6,1.9,2,3.1c0.2,0.6,0.5,0.8,1.1,0.8c1.4-0.1,2.7,0.2,4,0.5c0.8,0.2,1.5,0.4,2.3,0.2C67.4,56,67.7,54.3,67.7,52.7z"/>
		<path class="st7" d="M34.4,52.7C34.4,52.7,34.4,52.7,34.4,52.7c0.5-0.4,1-0.8,1.5-1.1c1.1-0.5,1.7-0.2,1.7,1c0,1.1,0,2.3,0,3.4
			c0,0.3,0,0.6,0.2,0.9c0.8,0.1,1.5,0.3,2.3,0.4c1.8,0.3,3.2-0.3,4-2c0.5-1.2,0.9-2.4,2.1-3.1c0,0,0,0,0,0c-0.5-0.9-1.3-1.5-2.3-1.9
			c-1.3-0.5-2.5-1.1-3.5-2c-1.8,0-2.4-0.6-1.9-2.4c0.3-1.2,0.4-2.4,0.4-3.7h0c-0.3-1.4-1.7-2.2-3-1.8c-1,0.3-2,0.7-3.1,1
			c-0.5,0.1-0.9,0.4-1.2,0.7C32.6,45.7,33.6,49.2,34.4,52.7z"/>
		<path class="st7" d="M16.8,74.4L16.8,74.4L16.8,74.4c1.7-1.1,3.4-2.2,5.4-2.5c0.4-0.1,0.8-0.1,1.2-0.1v0c1.4-0.1,2.7,0.4,4,0.7
			c0,0,0,0,0,0c0.5-0.4,0.9-0.8,1.4-1.2c-0.8-1.9-2.5-3.8-5.2-3.5c0,0,0,0,0,0c0,0,0,0,0,0c-1.6,0.2-3.1,0.3-4.7,0.5
			c-0.2,0-0.4,0-0.6,0c-0.2,0-0.4,0-0.4-0.3c0-0.2,0.1-0.3,0.3-0.4c1.6-0.5,3.2-1,4.8-1.6c-0.1-0.4-0.2-0.9-0.3-1.3
			c-0.1-0.4-0.1-0.8,0.3-1c0.4-0.2,0.7,0.1,0.9,0.4c0.6,0.9,1.4,1.6,2.3,2.2c0.6,0.4,1.2,0.5,1.8,0.4c2.1-3,4.1-5.9,6.2-8.9
			c0.1-0.2,0.2-0.3,0.3-0.5c0.5-0.9,0.2-1.4-0.8-1.6c-1.2-0.2-1.5-0.6-0.7-1.5c0.4-0.5,0.8-1,1.3-1.5c-0.8-3.5-1.8-7-2.8-10.5
			c0,0,0,0,0,0c-0.2,0.2-0.3,0.4-0.5,0.7c-0.2,0.5-0.4,1-0.5,1.6c-0.2,0.8,0.1,1.3,0.7,1.7c0.3,0.2,0.7,0.3,0.9,0.7
			c-1.6,0.1-1.8,0.3-2.2,1.9c0,0.1-0.1,0.2-0.1,0.3c-0.1,0.5-0.4,0.7-0.9,0.6c-0.8-0.1-1.5,0.3-2.1,0.7c-1.4,0.9-2.9,1.5-4.6,0.6
			l0,0c-0.8-0.2-1.6-0.4-2.3-0.9c-1-0.6-1.7-0.2-2.2,1.4c0,0,0,0,0,0c0,0,0,0,0,0c1,1.2,2.2,2.2,3.4,3.1c0.6,0.4,1.4,0,2,0.4
			c0,0,0,0,0,0c0.8,0.3,1.1,1.1,1.5,1.7c0.2,0.3,0.4,0.6,0.6,0.9c0.4,0.6,0.5,1.1,0,1.7c-0.3,0.4-0.6,0.8-1.1,0.6
			c-0.5-0.1-0.7-0.6-0.8-1c-1.6-0.5-3,0.1-4.3,0.8c-1.7,0.9-3,2.3-4.2,3.8c-0.6,0.7-0.3,1.6-0.2,2.3c0.2,1.2,0.8,2.4,0.7,3.6
			c-0.1,1.6,0.8,2.7,1.2,4.1l0,0l0,0C16.8,73.8,16.8,74.1,16.8,74.4z"/>
		<path class="st7" d="M7.2,36C7.2,36,7.2,36,7.2,36c1-0.7,2.1-1.1,3.4-1.3c2.4-0.4,3.8-2.2,4.9-4.2c0.4-0.8,0.8-1.6,1.3-2.4
			c0,0,0,0,0,0c-0.2-0.5-0.5-0.9-0.7-1.4c-1.2-0.9-2.2-1.3-3.3-1.2c-2.4,3.1-4.4,6.5-6.2,10.1C6.8,35.7,7,35.9,7.2,36
			C7.2,36,7.2,36,7.2,36z"/>
		<path class="st7" d="M98.8,110.9c-0.4-2.3-0.5-4.6-1.4-6.8c-0.2-0.5-0.5-1.1-0.8-1.6c-0.7-1.4-0.6-2.5,0.6-3.6
			c1.4-1.4,2.4-3,2.7-5c0.1-0.9,0.2-1.7-0.1-2.6c0,0,0,0,0,0c0,0,0,0,0,0c-0.8,0-1.1-0.7-1.6-1.2c-1.1,0.1-2.1,0.3-3.1,0.5
			c-0.9,0.2-1.9,0.3-2.7,0.9c-0.3,0.2-0.6,0.2-0.7-0.1c-0.4-0.7-0.6-1.4-0.3-2.1c0.1-0.4,0.5-0.4,0.8-0.2c0.4,0.2,0.8,0.2,1.2,0.2
			c0.2,0,0.3-0.1,0.2-0.3c-0.2-0.4-0.4-0.8-0.6-1.2c-0.6-1.2-0.4-1.6,0.9-2.1c0.1,0,0.3-0.1,0.4-0.1c0-0.8-0.4-1.5-1-1.9
			c-1.4,0-2.7,0.4-4,0.5c0,0,0,0,0,0c0,0,0,0,0,0c-0.9-1-2.1-1.1-3.3-1.3c-1.2-0.3-2-0.9-2.3-2.1c0-0.1-0.1-0.2-0.1-0.3
			c-0.2-0.6-0.7-0.9-1.4-1.1c-1.5-0.5-2.1-1.8-2.2-3.2c-0.1-0.9-0.2-1.6-0.6-2.4c-0.4-0.8-0.6-1.6-0.5-2.5c-1.1,0-2.1,0.4-2.9,1.2
			c-0.8,0.8-1.4,1.8-2,2.8c0.1,0.5,0.4,0.8,0.5,1.2l0,0v0c1.1,0.2,1.4,1,1.7,1.9c0-0.6,0.1-0.8,0.8-0.6c1.1,0.3,1.9,0.8,2.3,1.8
			c0.5,1.1,1.4,1.9,2.3,2.6c1,0.7,2.1,1.2,2.7,2.3c0.2,0.3,0.4,0.6,0.2,0.9c0.3,1.8,0.6,3.6,0.1,5.4c-0.3,1.1-1.2,1.7-2.2,2.1
			c0.6,2.1,1,4.3,2.6,5.9c0.7-0.1,1.3-0.4,1.9-0.8c1.8-1.2,3.6-2.5,5.8-3c0.7-0.1,1.3-0.3,2-0.2c0.9,0.2,1.1,0.8,1,1.4
			c-0.2,1.7-0.7,3.3-1.8,4.7c-0.7,0.9-1.6,1.3-2.5,1.8c-0.9,0.6-1.8,1.2-1.6,2.4c0.2,1,0.9,1.7,1.6,2.3c2,2.1,3.7,4.3,5.3,6.7
			c0.7,1,0.6,1.2-0.2,2c-0.7,0.7-0.7,1.9,0,2.8c1.6-0.9,3.1-1.9,4.6-3c-0.2-0.1-0.4-0.3-0.6-0.4C98.8,114.5,98.4,112.8,98.8,110.9z"
			/>
		<path class="st7" d="M85,70.8c1.3,1.1,2.5,2.4,2.9,4.2c0,0,0,0,0,0c0.4-0.6,0-1.3,0.3-1.9c0.4-1,0.8-1.3,1.9-1.1
			c0.8,0.1,1.5,0.3,2.3,0.5c0.3,0.1,0.7,0.5,1,0c0.3-0.4,0.2-0.9-0.2-1.3c-0.9-1-1.4-2.1-1.3-3.4c0-0.5,0.1-0.9,0.4-1.2
			c0.7-1.2,1.7-2.1,2.9-2.8c0.6-0.4,1.5,0.1,1.6,0.9c0,0.3,0.1,0.6,0,0.8c-0.7,1.7-0.1,3.3,0.6,4.8c0,0.1,0.1,0.2,0.1,0.3
			c0.7,0.1,1.4,0.2,2.1,0.4c0.3,0,0.5-0.3,0.7-0.4l0,0c1.2-0.9,1.6-2,1.3-3.5c-0.1-0.6,0-1.2-0.1-1.7c-0.6-1.5-1.2-2.9-1-4.5
			c0,0,0,0,0,0c0,0,0,0,0,0c0.1-2.4-0.8-4.7-1.7-6.9c-0.6-1.5-0.6-1.5-2.1-1.5c0,0,0,0-0.1,0c-0.9,0-1.7,0.5-2.5,0.8
			c-1.1,0.5-2.1,1.2-3.2,1.4c-1.3,2.3-3,4.4-4.5,6.5c-1.1,1.5-2.1,3.1-2.6,5c-0.2,0.9-0.4,1.6-1.5,1.7C83,69.1,84,69.9,85,70.8z"/>
		<path class="st7" d="M45.7,56.1c-0.5,0.4-0.9,0.9-1.4,1.4c-1.1,1.1-1.2,1.6-0.6,2.9c0.1,0.2,0.2,0.4,0.2,0.7v0
			c1.3,1.5,2.6,2.9,4.5,3.6c1.2,0.4,1.3,0.6,1.3,1.9c-0.1,1.2,0.4,2.3,0.9,3.3c0.5,1,0.7,2,0.7,3.1c0,0,0,0,0,0h0
			c0.5,0.3,0.9,0.8,1.1,1.4c0,0,0,0,0,0c0,0,0,0,0,0c0.1,0.7,0.6,0.8,1.2,0.7v0c0.5-0.2,0.8-0.7,1.1-1.2c0.4-0.5,0.9-1,1.7-0.6
			c0,0,0,0,0,0c0.6,0.1,1.3,0.2,1.9,0.4c0.1,0,0.3,0,0.4,0c0.9-0.4,1,0.3,1.1,0.9c0.2,1.4,0.9,2.5,2,3.2c0.8,0.5,1.7,0.9,2.5,1.3
			c0,0,0,0,0,0c0.3-1.4,1.5-1.7,2.6-2.1c0.4-0.1,0.8-0.2,1.3-0.2c1.1-0.1,1.9-0.6,2.2-1.7c-0.7,0-1.1-0.4-1.4-0.9
			c-0.5-0.9-0.9-1.8-1.4-2.7c-0.7-1.4-1.3-1.6-2.7-1c-0.8,0.3-1.5,0.8-2.3,1.1c-1.6,0.6-2.6,0-3.1-1.5c-0.3-1-0.6-2-1.3-2.9
			c-2.2-2.8-4.3-5.7-6.2-8.7c-0.9-1.4-1.9-2.7-2.4-4.3C48,54.2,46.8,55.1,45.7,56.1z"/>
		<path class="st7" d="M59.1,27.5C59.1,27.5,59.1,27.5,59.1,27.5C59.1,27.5,59.1,27.5,59.1,27.5c1.3,0,1.3,0,1.6-1.3
			c0.9-3.2,1.7-6.4,2.6-9.6c0.4-1.4,0.8-1.7,2.2-1.8c0.5,0,0.8-0.3,1-0.7c0.4-0.8,0.4-1.8,0.3-2.6c0-2.1-1.7-4.1-3.7-4.6
			c-0.4-0.1-0.5,0.2-0.7,0.3c-0.3,0.7-0.9,1.3-1.5,1.9c-0.4,0.4-0.9,0.8-1.2,1.3c-0.8,1.1-1.8,1.3-2.6-0.4c-1.6-0.4-3.1-1.3-4.8-1.8
			c0.5,0.9,0.9,1.6,1.1,2.5c0.5,1.7,0.3,3.5,0.3,5.3c0,1.1,0.3,1.5,1.4,1.8c0.3,0.1,0.5,0.1,0.8,0.2c0.9,0.3,1.1,0.9,0.5,1.7
			c-0.3,0.4-0.6,0.7-0.9,1.1c-0.8,1.2-1.7,2.4-2.1,3.8c0,0,0,0,0,0C54.8,26.5,56.7,27.5,59.1,27.5z"/>
		<path class="st7" d="M16.5,37.9c1,0.8,1.2,1.8,0.9,3.4c0,0.2,0,0.4-0.1,0.6c0.7,1.3,1.4,2.6,2.4,3.8c0.4,0.5,0.9,0.9,1.4,1.3
			c0.8-0.8,1.4-1.8,2.3-2.6c1.1-0.8,2.2-1.7,3.6-1.6c0.5,0,0.9,0.3,1.2-0.2c0.3-0.5,0.2-1.1-0.1-1.6c-2.1-2.6-3.7-5.6-5.6-8.3
			c0,0,0,0,0,0C20.6,34.4,18.5,36.1,16.5,37.9z"/>
		<path class="st7" d="M15.2,33.6c-0.8,1.2-0.3,2.4,0.2,3.6c0,0,0,0,0,0c0,0,0,0,0,0c0.5,0.2,0.8,0.5,1.1,0.7c0,0,0,0,0,0
			c2-1.8,4-3.5,6.1-5.2c-0.1-0.1-0.2-0.3-0.3-0.4c-0.6-0.8-1-1.7-1.7-2.4C18.3,30.4,16.5,31.7,15.2,33.6z"/>
		<path class="st7" d="M82.3,3.2c0,1.3,0,2.7,0,4c1.3,0.5,1.5,1.7,1.8,2.8c0,0,0,0,0,0c0.2,0.6,0.6,0.9,1.1,1.3
			c1.1,0.7,1.1,1.8,0.2,2.7c-0.2,0.2-0.5,0.4-0.7,0.6c-2.5,1.9-3.2,3.8-2.4,6.4c0.9,1.3,1.8,2.6,3.2,3.5c1-0.3,1.6-1.1,1.4-2.2
			c-0.4-1.8,0.1-3.5,0.1-5.3c0-0.6,0.1-1.3,0.3-2c0.3-0.9,0.5-1,1.4-0.6c0.3,0.1,0.6,0.3,1,0.4c0.9,0.3,1.3-0.1,1.3-1
			c0-0.5,0-1-0.1-1.5c-0.4-2.4-0.9-4.8-1.2-7.1c-2-0.9-4.1-1.7-6.2-2.3C83,3,82.7,3.1,82.3,3.2L82.3,3.2z"/>
		<path class="st9" d="M80.1,72.6c1.4,0.2,2.2,1.3,2.9,2.4c0.6,1,1.1,2,1.5,3.1c0.2,0.5,0.1,1-0.4,1.2c-0.6,0.3-0.6,0.8-0.6,1.3
			c0.3,1.2,1.1,1.9,2.3,2.1c1.2,0.2,2.4,0.4,3.3,1.3c0,0,0,0,0,0c0.2-0.9,0.4-1.8,0.7-2.7c0.3-1,1-1.7,2.1-1.8
			c-0.2-0.9,0.3-1.7,0.3-2.6c-0.6,0-1.1,0-1.7,0c-1.7,0-2.3-0.5-2.7-2.1c0,0,0,0,0,0c0,0,0,0,0,0c-0.4-1.8-1.6-3-2.9-4.2
			c-1-0.8-2-1.7-2.7-2.8c-1.4-0.2-2.2,0.4-2.6,1.7c-0.2,0.5-0.3,1.1-0.7,1.5C78.9,71.9,79,72.5,80.1,72.6z M86,77.3
			c0.2-0.1,0.4,0.1,0.5,0.2c1.2,0.9,0.9,2.1,0.7,3.3c0,0.2-0.1,0.3-0.2,0.6c-1-1.1-1.4-2.2-1.3-3.6C85.7,77.6,85.7,77.4,86,77.3z"/>
		<path class="st9" d="M83.6,80.7c0-0.1,0-0.2-0.1-0.3C83.5,80.5,83.5,80.6,83.6,80.7z"/>
		<path class="st5" d="M94.1,53.3c0.8-0.4,1.6-0.8,2.5-0.8c0,0,0,0,0.1,0c0.5-0.3,1.1,0.1,1.6-0.3c0.8-0.6,1.8-0.9,2.7-1.3
			c0.7-0.4,1.4-0.9,1.6-1.8c0,0,0,0,0,0c0,0-0.1,0-0.1,0c-0.1,0-0.2,0.1-0.3,0.1c-0.7,0.2-1.4,0-2.1,0.1c-0.8,0-1.6,0-2.3,0
			c0,0,0,0,0,0c0,0,0,0,0,0c-0.1,0-0.1,0-0.2,0c-0.3,0-0.6,0.1-0.9-0.2c-1-0.8-0.8-2-1-3.1c0-0.4,0.3-0.6,0.7-0.6
			c0.7-0.1,1.3-0.2,2-0.3c1.7-0.2,3.2-0.8,4-2.4c0,0,0,0,0,0c-2,0-4,0-6,0c-0.9,0-1.7,0.1-2.6,0.2c-0.7,0.1-1.2,0.8-1,1.5
			c0.5,1.5,0.2,2.9,0.3,4.4h0c0.1,0.7,0.6,1.4,0,1.9c-0.6,0.5-1.3,0-1.9-0.2c-0.9-0.4-1.8-0.4-2.7-0.7c-0.4,0.1-0.7,0.1-1.1,0.2
			c0,0,0,0,0,0c0,0,0,0,0,0h0c0,0,0,0,0,0c0.3,1,1.1,1.5,1.8,2.1c0.9,0.7,1.5,1.6,1.5,2.8C92.1,54.4,93.1,53.7,94.1,53.3z"/>
		<path class="st10" d="M68.2,76.9c-0.4,0.1-0.9,0.1-1.3,0.2c-1.1,0.3-2.3,0.7-2.6,2.1c0,0,0,0,0,0h0c0.3,1.8,1.2,3.2,2.6,4.4
			c0,0,0,0,0,0c0,0,0,0,0,0c1.5-0.1,2.9,0.4,4.3,0.6c1.4,0.2,2.4-0.2,3.2-1.4c0,0,0,0,0,0l0,0c0-2.1,0-4.3,0-6.4l0,0
			c-0.2-0.4-0.5-0.8-0.5-1.2c-1.2,0-2.3,0-3.5,0C70.1,76.2,69.3,76.7,68.2,76.9z"/>
		<path class="st5" d="M16.1,26.7c-0.1-0.2-0.1-0.3-0.2-0.5c-0.4-1.1-0.8-2.2-1.1-3.4c-0.7,0.9-1.4,1.7-2.1,2.6
			C13.9,25.5,14.9,25.9,16.1,26.7z"/>
		<path class="st5" d="M78.6,47.1c1.1-1.4,2.5-2,4.3-1.7c1,0.1,2.1,0.3,3.1,0.4c0,0,0,0,0,0c0,0,0,0,0,0c0.7,0,1.5,0.1,1.9-0.7
			c0,0,0,0,0,0c-3.5-0.7-3.2-3.4-2.9-6.1c-0.9,0.4-1.4,1-2,1.5c-1.4,1.2-2.8,2.3-4.7,2.7c-0.1,0.2-0.1,0.5-0.3,0.6
			c-0.5,0.7-1.1,1.4-1.8,1.9c-1,0.7-1.3,1-0.7,2.2c0.3,0.6,0.3,1.2,0.1,1.8c-0.3,0.6-0.5,1.2-0.7,1.9h0c0,1.2,0,2.3,0,3.5
			c0,0,0,0,0,0c0,0,0,0,0,0c-0.1,0.8,0.2,1.5-0.2,2.3c0,0.1,0,0.1,0,0.2c0,0,0,0,0,0c0.5-0.1,0.9-0.4,1.2-0.8
			c1.2-1.5,1.7-3.2,1.8-5.1C77.4,49.9,77.6,48.4,78.6,47.1z"/>
		<path class="st2" d="M69.2,51L69.2,51c-0.4-0.6-0.8-1.2-1.6-1.4l0,0c0,1,0,2,0,3c0,1.7-0.3,3.3-1.1,4.8c0.4,1.8,0.6,3.6,0.5,5.4
			c1.5-0.4,2.3,0.1,3.3,1.9c0,0,0,0,0,0c0.3,0.2,0.6,0.4,0.8,0.6c1.3,0.8,1.4,1.3,0.4,2.5c0,0.2,0,0.5,0,0.7h0
			c0.3,0.5,0.4,1.2,1.2,1.2c0.8,0,1.1-0.6,1.4-1.1c0.7-1,0.8-2.2,0.8-3.4c-0.2-0.5-0.5-0.9-0.7-1.4c0,0,0,0,0,0
			c-0.9-0.6-1.8-1.2-2.7-1.8c-1.7-1-2.1-2.1-1.3-4C69.9,55.8,69.6,53.4,69.2,51z"/>
		<path class="st2" d="M11.2,36.6c1-0.1,1.9,0.2,2.8,0.6c0.5,0,0.9,0,1.4,0c0,0,0,0,0,0c-0.6-1.2-1-2.5-0.2-3.6
			c1.3-1.9,3.1-3.2,5.5-3.7c0.5-0.9,1-1.8,1.9-2.4c0.5-0.4,0.7-1,0.4-1.5c-0.3-0.6-0.8-0.5-1.3-0.4c-0.7,0.1-1.5,0.3-2.1,0.7
			c-1,0.5-1.9,1.3-2.8,1.9c0,0,0,0,0,0c-0.4,0.8-0.8,1.6-1.3,2.4c-1.1,2-2.5,3.8-4.9,4.2c-1.3,0.2-2.4,0.7-3.4,1.3c0,0,0,0,0,0
			c-0.2,0.4-0.5,0.7-0.5,1.2c0,0,0,0,0,0C8.2,37,9.7,36.7,11.2,36.6z"/>
		<path class="st7" d="M75.5,25.4L75.5,25.4c0.3-0.3,0.6-0.5,0.8-0.8c0.7-1,1.1-2.5,0.2-3.5c-1.4-1.5-2.9-2.8-4.7-3.7
			c-1.2-0.5-1.9-0.1-1.9,1.2c0,2.2,0,4.5,0,6.7C71.8,25.7,73.7,25.6,75.5,25.4z"/>
		<path class="st1" d="M87.6,49.8C87.6,49.8,87.6,49.8,87.6,49.8C87.6,49.8,87.6,49.8,87.6,49.8c-0.3-0.6-0.9-0.7-1.5-0.8
			c-0.8-0.1-0.9-0.5-0.5-1.1c0.4-0.7,0.9-1.3,0.5-2.1c0,0,0,0,0,0c-1-0.1-2.1-0.3-3.1-0.4c-1.8-0.3-3.2,0.3-4.3,1.7
			c-1,1.3-1.2,2.8-0.8,4.5c1.4,0.4,2.8,0.2,4.2-0.1C83.9,51.1,85.7,50.2,87.6,49.8C87.6,49.8,87.6,49.8,87.6,49.8L87.6,49.8z"/>
		<path class="st2" d="M44.1,55.3c-0.8,1.7-2.2,2.3-4,2c-0.8-0.1-1.5-0.3-2.3-0.4c-0.7,0.4-0.5,1-0.5,1.6v0c1.7,0.3,3.3,0.9,4.8,1.9
			c0.4,0.3,0.8,0.6,1.1,0.9c0.2,0,0.5,0.1,0.7-0.2l0,0v0c-0.1-0.2-0.2-0.4-0.2-0.7c-0.6-1.4-0.4-1.9,0.6-2.9c0.5-0.5,0.9-1,1.4-1.4
			c1.1-1,2.3-1.9,4-2c0.7-1.3,1.8-2.4,2.7-3.6c0.1-0.1,0.3-0.2,0.2-0.4c-0.1-0.2-0.3-0.1-0.5-0.1c-1.5-0.2-2.8,0.2-4,1
			c-0.6,0.4-1.3,0.8-1.9,1.2c0,0,0,0,0,0C45,53,44.6,54.2,44.1,55.3z"/>
		<path class="st7" d="M74.8,57.3c0.1-0.8-0.2-1.5,0.2-2.3c0,0,0,0,0,0c0-1.2,0-2.3,0-3.5h0c-0.3,0-0.6,0-0.9-0.1
			c-1.6-0.2-3.2-0.5-4.8-0.5h0c0.3,2.4,0.7,4.8,1.1,7.1c0.6,0.1,1.1,0.2,1.7,0.3c1.3,0.3,2.4-0.1,2.8-1c0,0,0,0,0,0
			C74.8,57.4,74.8,57.4,74.8,57.3z"/>
		<path class="st2" d="M50.4,24.1c-1.3,0.3-2.6,0.5-3.3,2c0.8-0.1,1.4,0.1,2.1,0.2c1.7,0.2,3.4,0.5,4.9,1.4l0,0
			c1.2,0.5,2.2,1.3,3.3,2c2.2,1.3,4.4,1.6,6.3,0.5c-1.5-0.9-2.5-2.5-4.5-2.6c0,0,0,0,0,0c0,0,0,0,0,0c-2.4,0-4.3-1-5.4-3.1h0
			C52.6,24.1,51.5,24.1,50.4,24.1C50.4,24.1,50.4,24.1,50.4,24.1C50.4,24.1,50.4,24.1,50.4,24.1z"/>
		<path class="st7" d="M75,65.3c1.3,0,2.7,0,4,0c1.2,0,1.6-0.3,1.4-1.5c-0.2-1.2,0.1-2.4,0.2-3.6c0.1-0.7,0-1.5,0-2.3
			c0-0.3-0.1-0.7-0.5-0.8c-0.4-0.1-0.6,0.2-0.9,0.4c-0.3,0.3-0.5,0.7-0.8,0.9c-1.7,1.6-3.2,3.2-4.1,5.4c0,0,0,0,0,0
			C74.5,64.4,74.8,64.9,75,65.3z"/>
		<path class="st2" d="M20.1,50.2c0.7,0.4,1.5,0.7,2.3,0.9l0,0c-0.3-1.4-0.8-2.7-1.2-4h0c-0.5-0.4-1-0.8-1.4-1.3
			c-1-1.2-1.7-2.5-2.4-3.8c-0.8,0.9-0.6,2-0.4,3c0.2,1.1,0.6,2.2,0.6,3.4c0,1.5-0.6,2.6-1.9,3.3c-0.5,0.3-1,0.5-1.6,0.7c0,0,0,0,0,0
			c0,0.2,0,0.3,0,0.5c0,0,0,0,0,0c-0.1,0.2-0.1,0.3-0.2,0.5c-0.2,0.4-0.3,0.9,0.1,1.1c0.4,0.3,0.7-0.2,1-0.4c1-0.9,2-1.7,3-2.6
			c0,0,0,0,0,0C18.4,50,19,49.5,20.1,50.2z"/>
		<path class="st2" d="M82.2,25.9c1.4,1.3,2.3,3,3.1,4.8c0.8,0.2,0.9-0.2,0.9-0.9c-0.1-0.9,0-1.9,0-2.8c0,0,0,0,0,0c0,0,0,0,0,0
			c0-0.1,0-0.1,0-0.2c0,0,0,0,0,0c-0.7-0.6-0.4-1.5-0.7-2.3c-1.4-0.9-2.3-2.2-3.2-3.5c-0.4,0-0.8-0.2-1.2-0.4c-0.8-0.3-1-0.2-1,0.7
			c0,0.2,0,0.5,0.1,0.7c0.3,1.3,1.1,2.3,1.7,3.5v0C82,25.6,82.1,25.7,82.2,25.9z"/>
		<path class="st7" d="M63.1,46.3c0.1,0.1,0.2,0.3,0.4,0.3c1.3,0.7,2.5,0.2,3.7-0.4c0-1.5-0.2-3,0.5-4.4c0.1-0.2,0.2-0.5,0.5-0.7
			c-0.2-1-0.7-1.5-1.2-1.1c-1.4,1.2-3.2,1.7-4.9,2.3C62.4,43.7,62.8,45,63.1,46.3z"/>
		<path class="st11" d="M79.3,73.6c0.4,0.8,0.5,1.5,0.6,2.4c0.1,1.4,0.7,2.8,2.2,3.2c0.7,0.2,1.2,0.5,1.4,1.1c0,0.1,0.1,0.2,0.1,0.3
			c0-0.5-0.1-1,0.6-1.3c0.4-0.2,0.5-0.7,0.4-1.2c-0.4-1.1-0.9-2.1-1.5-3.1c-0.7-1.1-1.5-2.2-2.9-2.4c-1.1-0.2-1.2-0.7-1.1-1.5
			c-0.1,0-0.1,0-0.2,0C78.8,72,78.9,72.8,79.3,73.6z"/>
		<path class="st2" d="M31.8,33.4c-0.3,0.2-0.1,0.4-0.1,0.6c1.4,3.2,3.7,4.2,7,3.7c0.4-0.1,1-0.1,1.4-0.6c-1.2-0.7-2.1-1.8-3.3-2.3
			c0,0,0,0,0,0C35,34.9,33.4,34.3,31.8,33.4z"/>
		<path class="st12" d="M71.7,28.1C71.7,28.1,71.7,28.1,71.7,28.1C71.7,28.1,71.7,28.1,71.7,28.1c0.9-0.4,1.7-0.8,2.6-1.2
			c0.7-0.2,1.2-0.8,1.2-1.6h0c-1.9,0.2-3.7,0.3-5.6,0c-0.3,0.1-0.6,0.1-0.9,0.2c-1.1,0.2-1.6,1-1.3,2.1c0.3,0.1,0.7,0.2,1,0.4v0
			c0.4-0.1,0.8,0.1,1.2,0.2C70.5,28.2,71.1,28.1,71.7,28.1z"/>
		<path class="st7" d="M71.7,68c-1.2-0.7-1.2-1.9-1.2-3.1c0,0,0,0,0,0c0,0,0,0,0,0c-1.1-1.9-1.8-2.3-3.3-1.9
			c-0.3,1.2-0.3,2.3,0.4,3.3c1,1.5,2.5,2,4.1,2.5h0C71.7,68.4,71.7,68.2,71.7,68z"/>
		<path class="st2" d="M28.7,28c1.1-0.8,2.3-1.7,3.4-2.5c0.6-1.1,0.9-2.3,0.8-3.4c-1.7,1.5-3.3,3.1-5.3,4.1
			C27.7,27.3,27.8,27.6,28.7,28z"/>
		<path class="st2" d="M28.7,28C28.7,28,28.7,28,28.7,28c0.1,0.1,0.3,0.1,0.5,0.2c0,0,0,0,0,0c1.3-0.5,2.3-1.5,2.9-2.6c0,0,0,0,0,0
			C31,26.3,29.9,27.1,28.7,28z"/>
		<path class="st2" d="M45.5,8.4c0.1-0.9,0.5-1.6,1.1-2.2c0.4-0.5,0.8-0.9,0.7-1.6c0-0.3-0.2-0.5-0.4-0.6c-0.3-0.2-0.5,0-0.7,0.2
			c-0.4,0.4-0.8,0.6-1.3,0.9c-0.6,0.4-1.3,0.8-1.6,1.5c-0.4,0.7-0.2,1.3,0.4,1.7c0.2,0.1,0.5,0.2,0.8,0.4c0,0,0,0,0,0
			C44.8,8.6,45.1,8.5,45.5,8.4z"/>
		<path class="st5" d="M82.3,7.2c-0.1,0.1-0.2,0.2-0.3,0.2c0.1,2-0.3,3.9-0.7,5.8c0,0,0,0,0,0c0,0,0,0,0,0c0,0.8,0.5,0.6,0.8,0.3
			c1-0.9,1.7-2.1,2-3.4c0,0,0,0,0,0C83.8,8.8,83.6,7.7,82.3,7.2z"/>
		<path class="st13" d="M60,10.2c0.3-0.5,0.8-0.9,1.2-1.3c0.6-0.6,1.1-1.2,1.5-1.9c0-0.4-0.3-0.2-0.5-0.2c-1.9,0.4-3.7,1.1-4.7,3
			C58.1,11.5,59.2,11.4,60,10.2z"/>
		<path class="st13" d="M38.4,46c-0.5,1.8,0.1,2.4,1.9,2.4c0-0.8-0.1-1.7,0.1-2.5c0.2-0.9,0-1.8-0.4-2.6c-0.2-0.5-0.5-1.2-1.3-1h0
			C38.9,43.6,38.8,44.8,38.4,46z"/>
		<path class="st13" d="M60.4,43.8c0.4,0.8,0.9,1.6,1.2,2.5c0.5,0,1,0,1.6,0c-0.3-1.3-0.7-2.6-1-3.8c-0.3,0-0.5-0.3-0.7-0.4
			c-0.5-0.3-0.9-0.9-1.6-0.8C59.7,42.2,59.9,43,60.4,43.8z"/>
		<path class="st14" d="M67.7,41.9c-0.7,1.4-0.5,2.9-0.5,4.4c1.7-0.5,2.1-1.1,1.9-2.7c-0.1-0.8-0.5-1.6-0.9-2.3
			C67.9,41.4,67.8,41.7,67.7,41.9z"/>
		<path class="st7" d="M67.7,27.6c-0.8,0.1-1.8,0.9-1.9,1.7c0,0.3,0.1,0.5,0.4,0.6c0.6,0.2,1.3,0.3,1.9-0.2c0.6-0.4,0.9-1,0.7-1.8v0
			C68.4,27.9,68,27.7,67.7,27.6z"/>
		<path class="st7" d="M126.6,51.2C126.7,51.1,126.7,51.1,126.6,51.2c0-0.5-0.1-1-0.2-1.5c-0.2,0.5-0.4,1.1-0.6,1.6
			C126.1,51.5,126.4,51.3,126.6,51.2z"/>
		<path class="st2" d="M118.2,29.9c-0.4-0.6-0.8-1.3-1.2-1.9C117.3,28.7,117.7,29.3,118.2,29.9z"/>
		<path class="st15" d="M120.3,34.6L120.3,34.6c0.2,0,0.4-0.1,0.6-0.1c-0.1-0.2-0.2-0.5-0.4-0.7C120.4,34,120.3,34.3,120.3,34.6z"/>
		<path class="st9" d="M127.1,67.6c-0.2,0.4-0.4,0.9-1,0.6c-0.5-0.2-0.7-0.7-0.6-1.3c0.1-0.4,0.2-0.7,0.3-1.1c0,0,0,0,0,0
			c0,0,0,0,0,0c-0.1-0.8-0.3-1.6-0.5-2.4c-0.6,0.1-1.1-0.1-1.7-0.2c-2.4-0.3-3.7-1.4-4.2-3.8c-0.3-1.4-0.2-2.9-0.5-4.3
			c-0.3-1.6-0.9-3.1-2.6-3.7c-0.9-0.3-1.8-0.5-2.8-0.5c0,0.7-0.4,1.3-0.7,2c-0.4,1-0.9,2.1-1,3.2c-0.1,1-0.5,1.1-1.3,0.8
			c-0.3,0.8-0.8,1-1.6,0.7c-0.6-0.3-1.3-0.5-1.8-1.1c0,0,0,0,0,0c0,1,0,2,0,3.1c0,0.6-0.1,1-0.7,1.1c0,0,0,0,0,0
			c2,0,3.5,1.2,5.1,2.4c0.5,0.4,0.9,0.9,1.4,1.3c0.7-0.5,1.5-1,2.2-1.4c1-0.6,2.1-0.9,3.3-0.8c0.9,0,0.9,0.2,0.4,0.9
			c-0.9,1.2-1.8,2.4-2.7,3.6c1.2,3,3.2,5.3,5.2,7.7c1.5-0.8,2.7-1.8,4.1-2.7c0.5-0.3,1-0.4,1.5-0.6c0.2,0,0.3,0,0.5,0
			c0.2-1.4,0.3-2.7,0.3-4.1c0,0,0,0,0,0C127.5,66.9,127.3,67.3,127.1,67.6z"/>
		<path class="st11" d="M101.6,65.3c1.4,0,1.7,0.4,1.4,1.7c-0.3,1.6,0.4,2.5,2,2.4c1.7-0.1,3.4,0.4,5.1,0.4c0.2-1.8,1-3.3,2.2-4.7
			c0.2-0.2,0.4-0.5,0.6-0.7c-0.5-0.4-0.9-0.9-1.4-1.3c-1.5-1.1-3-2.3-5.1-2.4c0,0,0,0,0,0c-0.9,0.1-1.6-0.1-1.9-1c0,0,0,0,0,0
			c-0.2-0.3-0.4-0.3-0.6-0.1c-0.3,0.2-0.7,0.4-1,0.7c-0.7,0.7-1.5,0.9-2.4,0.5c0,0,0,0,0,0C100.3,62.4,101,63.9,101.6,65.3z"/>
		<path class="st7" d="M117.7,40.4c-1.2,0.3-1.5,1-1,2.2c0.7,1.6,2,3,2.3,4.8c0.1,0.4,0.4,0.3,0.7,0.3c0.7,0,1.4-0.3,2-0.7
			c1-0.6,1.9-1.4,3.1-1.9v0c0.1-0.2,0.1-0.4,0.2-0.6c-0.2-0.7-0.5-1.4-0.7-2.1C122.7,40.9,119.6,39.9,117.7,40.4z"/>
		<path class="st2" d="M121.7,47c-0.6,0.4-1.3,0.7-2,0.7c-0.7,0.3-0.6,0.8-0.5,1.4c0.6,2.5,1.7,4.9,2.2,7.5c0.1,0.5,0.4,0.9,0.7,1.3
			c0.3,0.3,0.6,0.6,1.1,0.4c0.5-0.2,0.8-0.6,0.7-1.1c-0.2-1.7-0.3-3.5-1.4-4.9c-0.9-1.1-0.8-1.8-0.1-3c0.4-0.6,0.8-1,1.3-1.4
			c0.8-0.8,1.3-1.6,0.9-2.8v0C123.7,45.6,122.8,46.4,121.7,47z"/>
		<path class="st11" d="M111.8,56.2c0.1-1.1,0.6-2.2,1-3.2c0.3-0.6,0.6-1.2,0.7-2c0-0.2,0-0.4,0-0.5c-0.3-0.8-0.5-1.7-1.5-1.9
			c-0.9-0.2-1.6,0.2-2,0.9c-1,1.4-1.2,2.9-0.7,4.5c0.3,1.1,1,2,1.3,3C111.3,57.3,111.7,57.2,111.8,56.2z"/>
		<path class="st2" d="M125.3,63.4c0.2,0.8,0.5,1.6,0.5,2.4c0,0,0,0,0,0c0.7-0.1,1.4-0.3,2.1-0.5c0-0.5,0-1,0-1.5c0-0.5,0-1,0-1.5
			C127.1,62.7,126.2,63.1,125.3,63.4L125.3,63.4z"/>
		<path class="st5" d="M106.5,60.8C106.5,60.8,106.5,60.8,106.5,60.8c0.6-0.2,0.8-0.5,0.7-1.1c-0.1-1,0-2,0-3.1v0
			c-0.2-0.4-0.3-0.9-0.9-0.8c-0.5,0.1-0.6,0.6-0.6,0.9c-0.2,1.1-0.5,2.1-1.1,3c0,0,0,0,0,0C104.9,60.7,105.6,60.9,106.5,60.8z"/>
		<path class="st4" d="M4.7,49.6C4.7,49.6,4.7,49.6,4.7,49.6C4.7,49.6,4.7,49.6,4.7,49.6c0.5-1.2-0.1-2.3,0-3.5c0-1,0.4-1.8,1.2-2.4
			c0,0,0,0,0,0c0,0,0,0,0,0c0.1-1.8-0.2-3.6,0.2-5.4c0.1-0.4,0.1-0.8,0.5-1l0,0c0,0,0,0,0,0c0,0,0,0,0,0C6.7,36.8,7,36.4,7.2,36
			c0,0,0,0,0,0c-0.2-0.1-0.4-0.3-0.6-0.5c-2.2,4.4-3.9,9.1-5,14.1C2.7,49.6,3.7,49.6,4.7,49.6z"/>
		<path class="st15" d="M26.2,14.4C26.2,14.4,26.2,14.4,26.2,14.4c0.2,0.4,0.7,0.6,1.2,0.6c0.2,0,0.3,0,0.4-0.1c0,0,0,0,0,0
			C27.3,14.8,26.8,14.6,26.2,14.4z"/>
		<path class="st15" d="M26.2,14.4c0.6,0.2,1.1,0.4,1.7,0.5c0.5-0.2,0.8-0.7,1-1.6c0.2-1,0.1-2.1,0.2-3.1c-0.7,0.4-1.3,0.9-2,1.4
			c-0.2,0.5-0.5,1.1-0.8,1.6C26,13.6,26,14.1,26.2,14.4z"/>
		<path class="st4" d="M41.8,113c-0.1-0.3-0.2-0.7,0.2-0.9c0.4-0.3,0.7,0,1,0.2c0.3,0.2,0.5,0.4,0.8,0.6c0.7,0.6,1.2,0.6,1.6-0.2
			c0.9-1.5,1.3-3,0.4-4.6c-0.5-0.9-1.5-1.3-2.4-1.1c-1.2,0.3-2.1,0.9-3,1.9c-1.3,1.6-2.8,2.9-4.6,3.9c0,0,0,0,0,0
			c-0.3,1.5-0.6,3-0.9,4.4c0,0,0,0,0,0c0.9,0.4,1.8,1.6,1.8,2.6c0,0.3-0.2,0.6-0.5,0.8c-0.3,0.1-1.3-0.1-1.9-0.4c0,0,0,0,0,0
			c0,0.1-0.1,0.3-0.1,0.4c3,1.6,6.1,2.9,9.4,4c-0.3-1.4-0.4-2.8-0.7-4.2C42.6,117.9,42.2,115.5,41.8,113z"/>
		<path class="st4" d="M33.9,119.9c-0.5-0.7-0.7-1.4-0.3-2.2c0.3-0.5,0.6-0.8,1.3-0.6c0.1,0,0.1,0,0.2,0.1c0.3-1.5,0.6-2.9,0.9-4.4
			c-0.8,0.5-1.7,0.9-2.6,1.3c-2.1,0.8-4.2,1.4-6.4,2c2.4,1.7,4.8,3.2,7.4,4.6c0-0.1,0.1-0.3,0.1-0.4C34.2,120.1,34,120,33.9,119.9z"
			/>
		<path class="st2" d="M20.8,109.4c0.1,0,0.2-0.2,0.3-0.4l0,0c0,0,0,0,0,0c0-0.1,0-0.3-0.2-0.4l0,0c-0.9,0.3-1.8,0.2-2.7,0
			c0.5,0.5,0.9,0.9,1.4,1.4C20,109.8,20.3,109.5,20.8,109.4z"/>
		<path class="st4" d="M96.5,116.2c0.8-0.9,0.8-1,0.2-2c-1.6-2.4-3.3-4.6-5.3-6.7c-0.6-0.7-1.4-1.4-1.6-2.3
			c-0.2-1.3,0.7-1.9,1.6-2.4c0.9-0.5,1.8-1,2.5-1.8c1.1-1.4,1.6-3,1.8-4.7c0.1-0.7-0.1-1.3-1-1.4c-0.7-0.1-1.4,0.1-2,0.2
			c-2.2,0.4-4,1.7-5.8,3c-0.6,0.4-1.2,0.7-1.9,0.8c0.2,1.3,0.5,2.6,0.7,3.9c0,0.2,0,0.3-0.2,0.5c0.3,0.2,0.4,0.5,0.4,0.9
			c1,0.1,2.1-0.3,3,0.4c-0.7,1.1-1.8,1.5-2.9,1.8c-0.2,0.1-0.4,0.1-0.7,0.2c-0.1,0.2-0.2,0.5-0.4,0.7c-0.4,0.6-0.8,0.7-1.4,0.2
			c-1.1-0.8-1.9-1.8-2.9-2.7c-0.8-0.7-1.7-1.3-2.8-1.3c-1.1,0.3-2.1,1-3.2,1.3c-0.2-0.3-0.1-0.6-0.1-0.9c-0.2,1.2-0.6,2.4-1,3.5
			c-0.2,0.7-0.6,1.2-1.4,1.4l0,0h0c0.1,0.2,0.1,0.3,0.2,0.5c0.2,0.5,0.7,0.4,1.1,0.5c1,0.2,1.9,0.5,2.9,0.7c1.4,0.4,2.1,1.3,2.3,2.7
			c0.3,1.9,0.5,3.8,0.8,5.7c0.1,0.5-0.1,0.6-0.4,0.4c-1.1-0.4-2.2-0.8-3.3-1.2c0,0,0,0,0,0c0,0,0,0,0,0c0,0.3-0.2,0.5-0.5,0.7
			c-0.9,0.6-1.7,1.2-2.6,1.8c-1,0.6-1.4,0.4-1.8-0.7c-0.4,0.1-0.8,0.3-1.2,0.4c-1.1,0.3-1.7,0-2.3-1c-1.2-2.2-1.7-4.4-0.5-6.7
			c0.3-0.6,0.4-1.3,0.6-1.9c0,0,0,0,0,0c0,0,0,0,0,0c-1.3-0.3-2.7-0.6-4-0.9c-0.5,0.6-1.3,0.4-1.9,0.3c-2.1-0.2-4.8-2.1-5.2-4.4
			c-0.2-1.3-0.8-2.6-2.4-2.9c-0.6-0.1-1.3,0-1.9-0.1c0,0,0,0,0,0c0,0,0,0,0,0c0.3,0.8,0.6,1.5,0.9,2.3c0.2,0.6,0.4,1.2-0.1,1.7
			c-0.4,0.5-1,0.1-1.4,0c-0.2,0-0.4-0.1-0.6-0.1c0.9,1.5,0.6,3.5-0.7,5c-0.5,0.6-1.1,1.1-1.8,1.5c-0.2,0.1-0.4,0.3-0.5,0.4
			c-1.2,1.2-1.1,2.1,0.2,3.1c0.2,0.2,0.4,0.3,0.7,0.4c0.6-0.6,1-1.3,1.5-2c0.5-0.6,1-1.2,1.9-1c1.7-1,2.4-2.7,3-4.5
			c0.2-0.6,0.5-1.4,1.1-1.5c0.4,0,0.5,0.9,0.7,1.4c1.2,3.1,2.7,6.1,3.5,9.3c0.2,0.7,0.3,1.4,0.3,2.1l0,0c0.6-0.2,1.3-0.4,1.9-0.6
			c1.6-0.5,2.3-0.1,3,1.5c0.4,1,0.6,2.1,1.2,2.9h0c0.6-0.1,1.2-0.2,1.8-0.3c2.1-0.5,4.1-1.4,6.3-1.6c0.3,0,0.7-0.2,0.9,0.1
			c0.2,0.3-0.2,0.5-0.3,0.7c-0.8,1.2-1.6,2.4-2.3,3.6c6.8-0.9,13.3-2.9,19.2-5.8c-0.1-0.1-0.2-0.3-0.2-0.5c0-0.7,0.6-0.7,1.1-0.8
			c0.9-0.2,1.8-0.4,2.7-0.6c0.3-0.2,0.6-0.4,0.9-0.5C95.8,118.1,95.8,116.9,96.5,116.2z M89.3,121.5c-0.9,0.6-1.7,1.2-2.5,1.8
			c-0.3,0.2-0.6,0.5-0.9,0.2c-0.4-0.3-0.4-0.7-0.3-1.1c0-0.2,0.1-0.4,0.2-0.5c1.1-0.9,1.5-2.2,2.4-3.2c-1.4-0.5-2-1.8-2.9-2.9
			c-0.6-0.8-1.2-1.6-1.9-2.4c-0.6-0.7-0.4-1.3,0.4-1.6c2.6-0.8,4.3,0.3,4.7,3.1c0.2,1.2,0.3,2.5,0,3.7c0,0,0,0,0,0c0,0,0,0,0,0
			c0.5,0.1,0.8,0.4,1.1,0.8C90.2,120.2,90.2,120.9,89.3,121.5z"/>
		<path class="st7" d="M122,75.8c-0.7-0.2-1.4-0.2-2.1-0.2c-1,0-2,0.1-3-0.2c-0.5-0.2-1.1-0.3-1.5,0.2c-0.4,0.5-0.3,1-0.1,1.5
			c0,0,0,0,0,0c0.7,0.1,0.9,0.7,0.9,1.2c0,1.2,0,2.4,0.6,3.6c0.4,0.7,0,1.4-0.7,1.8c-1.4,0.7-1.7,1.9-1.7,3.3c0,2.1,0,4.1,0,6.2
			c0,3.1-2.2,5.1-4.7,6c-0.9,0.3-1.4,0-1.7-0.9c-0.4-1-0.4-2.1-0.9-3.1c-0.3-0.5-0.7-0.7-1.1-0.5c-0.9,0.4-1.8,0.8-2.3,1.7
			c0,0,0,0,0,0c-0.1,0.8-0.1,1.6-0.2,2.4c0,0,0,0,0,0c0,0,0,0,0,0c0,0.3,0.1,0.6-0.2,0.9c0,0.1,0,0.1,0,0.2c0.7,0.1,1,0.5,1,1.2l0,0
			c0.8,0.9,1.3,2,2.1,2.9c0.5,0.5,1.1,1,1.7,1.3c1-0.5,2.2-0.9,2.5-2.2c0-0.2,0.1-0.5,0.1-0.7c0-1.2,0.4-1.5,1.5-1.7
			c0.7-0.1,1.3-0.2,2-0.2c1,0,1.7-0.5,2-1.5c0.1-0.3,0.2-0.6,0.2-0.9c0.2-0.8,0.8-1.3,1.3-1.1c0.3,0.1,0.4,0.2,0.5,0.4
			c1.7-2.7,3.2-5.6,4.5-8.6c-0.3-0.6-0.6-1.3-0.9-1.9c-0.7-1.6-0.4-2.3,1.2-2.8c0.7-0.3,1.4-0.5,1.9-1.1c0.1-0.5,0.3-0.9,0.4-1.4
			c0-0.6-0.3-1.2-0.6-1.7C123.9,78.6,123,77.2,122,75.8z M119,87.3c-0.1,0.3-0.2,1-0.4,1.5c-0.3,0.8-0.9,0.9-1.6,0.3
			c-1-0.9-0.8-2.5,0.3-3.1c0.4-0.2,0.8-0.4,1.2-0.2C119.1,86.2,119,86.6,119,87.3z"/>
		<path class="st8" d="M2.5,68.5c-0.3,0.9-0.5,1.9-0.4,2.9c0.1,0.9,0.5,1.5,1.3,1.9c0.6,0.3,1.2,0.3,1.7-0.3c0.4-0.5,0.7-1.1,1-1.6
			c0-0.1,0.1-0.2,0.1-0.3C6.5,70.6,6.9,70,7.3,70c0.4,0,0.1,0.8,0.2,1.2c0.1,1.1-0.2,2.2,0.2,3.3l0,0l0,0c0,0,0,0,0,0l0,0l0,0
			c0-1.3,0-2.7,0-4c0-0.5,0.2-0.7,0.6-0.9c2.1-1,3.5-0.5,4.3,1.4c1.5,0.5,2.9,1.3,4,2.4l0,0c-0.4-1.3-1.3-2.5-1.2-4.1
			c0.1-1.2-0.4-2.4-0.7-3.6c-0.2-0.8-0.4-1.6,0.2-2.3c1.2-1.5,2.6-2.8,4.2-3.8c1.3-0.7,2.7-1.3,4.3-0.8c-0.3-1-0.5-2.1-0.5-3.1
			c0-0.3-0.1-0.7,0.3-0.7h0c0,0,0,0,0,0c-0.6-0.4-1.4,0-2-0.4c-1.3-0.9-2.5-1.9-3.4-3.1c0,0,0,0,0,0c-1,0.9-2,1.7-3,2.6
			c-0.3,0.2-0.6,0.7-1,0.4c-0.3-0.3-0.2-0.7-0.1-1.1c0.1-0.2,0.1-0.3,0.2-0.5c-0.7,0-1.3-0.3-1.8-0.8c-0.8-0.8-1.5-1.6-2.5-2.2
			c-0.3,0.7,0,1.4,0.1,2c0.3,2.7,0.7,5.5,1.1,8.2c0.1,0.7,0,1.2-0.5,1.6c-0.6,0.4-1.4,0.3-2,0.1c-0.5-0.2-0.8-0.7-0.8-1.3
			c0-1-0.3-1.9-0.9-2.7c-0.1-0.2-0.3-0.3-0.3-0.5C6,57.4,5.7,57,5.3,57c-0.7,1.8-1.5,2.2-3.5,1.8c-0.5-0.1-1-0.2-1.6-0.3
			C0.1,59.7,0.1,61,0,62.3c0,0,0.1,0.1,0.1,0.1c0.6,1,0.5,2-0.1,2.6c0,0.7,0,1.5,0.1,2.2c0.6,0,1.1,0,1.7,0
			C2.7,67.3,2.9,67.7,2.5,68.5z"/>
		<polygon class="st8" points="7.7,74.6 7.7,74.6 7.7,74.6 		"/>
		<path class="st7" d="M35.9,112.8C35.9,112.8,35.9,112.8,35.9,112.8c0.6-3.1,1-6.2,1.4-9.3c-2.7,1.5-5.5,3-8.4,4.3
			c-2.4,1.1-5.1,1.3-7.7,1.3l0,0c-0.1,0.1-0.2,0.3-0.3,0.4c-0.5,0.2-0.9,0.4-1.2,0.7c2.3,2.2,4.7,4.2,7.2,6c2.2-0.6,4.3-1.1,6.4-2
			C34.2,113.7,35.1,113.3,35.9,112.8z"/>
		<path class="st7" d="M49.1,124.7C49.1,124.7,49.1,124.7,49.1,124.7c0.8-0.3,1.4-0.8,1.4-1.8c0-0.8-0.2-1.5-0.5-2.3l0,0
			c-0.7-1.2-1.4-2.4-1.6-3.8c-0.2-0.1-0.4-0.3-0.7-0.4c-1.4-1-1.4-2-0.2-3.1c0.2-0.2,0.3-0.3,0.5-0.4c0.6-0.5,1.2-0.9,1.8-1.5
			c1.3-1.4,1.6-3.4,0.7-5c0,0,0,0,0,0c-0.4-0.5-0.6-1-0.3-1.6c0.6-1.6,0.1-3-0.7-4.4c-0.6-1-1.4-1.9-1.7-3c0,0,0,0,0-0.1
			c-0.9,0-1.8,0-2.8,0c0,0,0,0,0,0c0,0.8-0.5,1.2-1.2,1.4l0,0c-1.4,1.7-3.1,2.8-4.9,3.9c-0.5,0.3-1,0.6-1.5,0.9c0,0,0,0,0,0
			c-0.4,3.1-0.8,6.2-1.4,9.3c1.8-1,3.3-2.3,4.6-3.9c0.8-1,1.7-1.6,3-1.9c1-0.2,2,0.2,2.4,1.1c0.9,1.6,0.5,3.2-0.4,4.6
			c-0.4,0.7-0.9,0.7-1.6,0.2c-0.3-0.2-0.5-0.4-0.8-0.6c-0.3-0.2-0.6-0.5-1-0.2c-0.4,0.2-0.3,0.6-0.2,0.9c0.4,2.4,0.8,4.9,1.2,7.3
			c0.2,1.4,0.4,2.8,0.7,4.2c0.8,0.3,1.6,0.5,2.4,0.8C47.1,125.2,48.2,125,49.1,124.7z"/>
		<path class="st7" d="M57.7,122.1c0.9-0.3,1.9-0.5,2.6-1.2l0,0c0-0.7-0.1-1.4-0.3-2.1c-0.7-3.3-2.2-6.3-3.5-9.3
			c-0.2-0.5-0.3-1.5-0.7-1.4c-0.6,0-0.8,0.9-1.1,1.5c-0.7,1.7-1.3,3.5-3,4.5c-0.2,0.7-0.3,1.3-0.6,2c-0.5,1.4-0.6,2.8-0.5,4.3
			c0,0,0,0,0,0c0.8-0.1,1.5,0.1,2.1,0.8c0.3,0.4,0.7,0.6,1,1c0.5,0.6,1.2,0.9,2,0.9l0,0C56.3,122.3,57,122.3,57.7,122.1z"/>
		<path class="st7" d="M63.1,125.4c-1.1-0.5-2.2-0.7-3.2,0.1c-0.5,0.3-0.8,0.8-1.3,1.2c-0.3,0.3-0.4,0.6-0.4,1
			c1.9,0.2,3.8,0.3,5.8,0.3c0.1,0,0.2,0,0.2,0C63.9,127.1,63.5,126.2,63.1,125.4C63.1,125.4,63.1,125.4,63.1,125.4z"/>
		<path class="st2" d="M50,125.9L50,125.9c0-0.6,0-1.2-0.9-1.2c0,0,0,0,0,0c-1,0.4-2,0.6-3,0.7c1.1,0.3,2.2,0.6,3.4,0.9
			C49.7,126.1,49.8,126,50,125.9z"/>
		<path class="st15" d="M51.2,115.9c0.2-0.7,0.4-1.3,0.6-2c-0.9-0.2-1.4,0.4-1.9,1c-0.5,0.7-0.9,1.4-1.5,2c0.2,1.4,0.8,2.6,1.6,3.8
			l0,0c0.2-0.2,0.5-0.3,0.7-0.5c0,0,0,0,0,0C50.6,118.7,50.8,117.3,51.2,115.9z"/>
		<path class="st5" d="M91.8,120.9c0,0.2,0.1,0.4,0.2,0.5c1.2-0.6,2.4-1.2,3.6-1.9c-0.9,0.2-1.8,0.4-2.7,0.6
			C92.4,120.2,91.8,120.2,91.8,120.9z"/>
		<path class="st8" d="M13,100.4c0.1-1-0.1-2-0.2-2.9c0-0.3-0.1-0.7,0.3-0.8c-0.7-0.3-1.1-0.8-1.1-1.6c0-0.5-0.3-0.9-1-0.7
			c-0.9,0.3-1.9,0.5-2.9,0.8c1.1,2,2.3,3.9,3.6,5.7c0.1-0.1,0.3-0.2,0.4-0.2C12.5,100.6,12.7,100.5,13,100.4z"/>
		<path class="st4" d="M104.3,19.2c-1.9,0.9-3.4,2.3-5,3.7c-0.1,1.8,0.2,3.5-0.2,5.3c-0.1,0.4-0.2,0.8-0.3,1.2l0,0v0
			c0.3,0.5,0.6,1.1,1.1,1.5c0.6,0.5,1.1,0.3,1.4-0.3c0.2-0.4,0.3-0.8,0.4-1.2c0.3-1,0.5-2.1,1.2-2.9c0.1-0.2,0.3-0.4,0.5-0.4
			c0.2,0.1,0.3,0.3,0.3,0.5c0.7,2.9,2.3,5.4,3.9,7.9c0.3,0.4,0.5,0.8,1.1,0.7c0.7-0.1,0.6-0.7,0.7-1.2c0.6-3.8,1.2-7.5,1.8-11.3
			c0.1-0.6,0.1-1.2,0.2-1.8c-0.8-0.9-1.6-1.7-2.5-2.6c-0.4,0-0.7,0.1-1.1,0C106.6,18.3,105.4,18.7,104.3,19.2z"/>
		<path class="st4" d="M86,45.8C86,45.8,86,45.8,86,45.8c0.5,0.8-0.1,1.5-0.5,2.1c-0.4,0.6-0.3,1,0.5,1.1c0.6,0.1,1.2,0.1,1.5,0.8
			c0,0,0,0,0,0c0.4-0.1,0.7-0.1,1.1-0.2c0.4-0.9,1-1.5,2-1.4c0.9,0.1,1.7,0,2.6,0.3c0-1.5,0.2-2.9-0.3-4.4c-0.2-0.8,0.3-1.5,1-1.5
			c0.9-0.1,1.7-0.2,2.6-0.2c2,0,4,0,6,0c0,0,0,0,0,0c0,0,0-0.1,0-0.1c0,0,0,0-0.1,0c-1.6,0-3.3-0.1-4.9,0c-0.8,0-0.9-0.3-0.8-0.9
			c0.1-0.7,0.3-1.4,0.3-2.1c0-3.3,0-6.5,0-9.8c0-0.9-0.5-1.1-1.3-0.6c-0.8,0.5-1.5,1-2.2,1.7c-2.9,2.9-3.5,6.4-3,10.3
			c0.2,1.8-0.3,3.9-2.6,4.3c0,0,0,0,0,0C87.5,45.9,86.7,45.8,86,45.8z"/>
		<path class="st4" d="M86.2,29.7c0,0.7-0.1,1.1-0.9,0.9c-0.1,0.9-0.1,1.9-0.9,2.5c-1.2,1-0.9,1.9,0,2.8c0.9,0.9,1.5,0.8,2.2-0.2
			c0.7-1.1,1.4-2.3,2-3.4c0.2-0.4,0.4-0.9,0.5-1.3c0.2-0.5,0.1-0.7-0.5-0.8c-0.8,0-1.5,0.1-2.2,0.5c0,0,0,0,0,0c0,0,0,0,0,0
			c0-0.5,0-0.9,0-1.2c-0.1-0.9,0.2-1.7-0.2-2.6c0,0,0,0,0,0C86.2,27.9,86.1,28.8,86.2,29.7z"/>
		<path class="st15" d="M99.1,28.2c0.4-1.8,0.1-3.5,0.2-5.3c-0.5,0-1,0-1.5,0c-0.7,0-1,0.3-1,1c0.1,1.1,0.3,2.2,0.6,3.2
			c0.3,0.9,0.5,1.7,1.3,2.3l0,0C98.9,29,99,28.6,99.1,28.2z"/>
		<path class="st14" d="M103.9,38.1c1.1,0.5,1.8-0.4,2.7-0.9c-0.9-0.3-1.5-0.8-2.4-0.8c-0.5,0-1-0.1-1.1,0.5
			C103,37.5,103.4,37.9,103.9,38.1z"/>
		<path class="st6" d="M100.1,49.1c0.7,0,1.4,0.1,2.1-0.1c0.1,0,0.2,0,0.3-0.1c-0.8,0-1.6,0-2.3,0c-0.8,0-1.6-0.2-2.4,0.2
			c0,0,0,0,0,0C98.5,49.1,99.3,49.1,100.1,49.1z"/>
		<path class="st6" d="M97.5,49.1c-0.3-0.3-0.6-0.1-0.9-0.2C96.9,49.2,97.2,49.1,97.5,49.1z"/>
		<path class="st4" d="M37.9,96.6c-0.6,0-1.3,0.2-2,0.4c-0.7,0.3-1.1-0.1-1.6-0.4c-1.2-0.9-2-0.7-2.7,0.6c-0.5,1-0.6,2.2-1.1,3.2
			c0,0,0,0.1,0,0.1c-0.2,0.4-0.3,0.9-0.8,1c-0.5,0.1-0.6-0.5-0.8-0.8c-0.6-1.2-1.2-2.5-1.8-3.7c-0.2-0.4-0.1-0.5,0.3-0.5
			c0.3,0,0.6,0,1,0c0.9-0.1,1.5-0.5,1.5-1.4c0.1-1.6,0.1-1.6,1.7-1.8c0.1,0,0.3,0,0.4-0.2c0,0-0.1-0.1-0.1-0.2
			c-0.9-0.3-1.8-0.7-1.6-1.8c0.4-2.1,0.7-3.1,2.5-3.4c0.7-0.1,1.4-0.3,1.8-0.9c0,0,0,0,0,0c0,0,0,0,0,0c-0.3-0.4-0.8-0.6-1-1.1
			c-0.5-0.9-0.4-1.8,0-2.7c-1.1-0.9-2.3-1.9-2.3-3.5c-1.2-1.5-1.8-3.2-2.3-5c-1.2-0.1-1.6-0.9-1.7-1.9c-1.3-0.3-2.6-0.8-4-0.7
			c0,0.8-0.5,1.4-1,1.7c-0.9,0.7-1.5,1.6-2,2.6c0,0,0,0,0,0c0,0,0,0,0,0c0.3,0,0.4,0.2,0.5,0.4c2.3,3.6,4.7,7.2,7,10.8
			c0.5,0.8,0.4,1.4-0.5,1.5c-2,0.2-3,1.5-3.5,3.3c-0.2,1.8-0.8,3.4-1.1,5.2c-0.6,2.8-1.1,5.5-1.4,8.3c-0.1,0.8-0.2,1.6-0.1,2.3
			c0,0.3-0.1,0.5-0.4,0.7c0.1,0.1,0.2,0.2,0.2,0.4c0,0,0,0,0,0c2.7,0.1,5.3-0.2,7.7-1.3c2.9-1.3,5.6-2.7,8.4-4.3c0,0,0,0,0,0
			C37.5,101.2,37.7,98.9,37.9,96.6z"/>
		<path class="st4" d="M37.9,96.6C37.9,96.6,37.9,96.6,37.9,96.6c-0.2,2.3-0.4,4.6-0.6,6.9c0.5-0.3,1-0.6,1.5-0.9
			c1.8-1.1,3.6-2.3,4.9-3.9l0,0h0C41.9,97.5,40,96.5,37.9,96.6z"/>
		<path class="st4" d="M36.4,63.3C36.4,63.3,36.4,63.3,36.4,63.3c0.1-0.9,0.2-1.9,0.1-2.8c0-0.8,0.2-1.4,0.7-2h0v0
			c0-0.6-0.2-1.2,0.5-1.6c-0.2-0.3-0.2-0.6-0.2-0.9c0-1.1,0-2.3,0-3.4c0-1.2-0.6-1.6-1.7-1c-0.6,0.3-1.1,0.7-1.5,1.1
			C35.2,56.2,35.9,59.7,36.4,63.3z"/>
		<path class="st4" d="M29.2,68.6c0.6,0.5,1.1,1.1,1.1,1.9c0.8-0.2,1.5-0.4,2.3-0.7c0,0,0,0,0,0c0,0,0,0,0,0
			c1.9-0.4,2.9-1.7,3.4-3.5c0.2-1,0.4-2.1,0.5-3.1c-0.6-3.6-1.2-7.1-2-10.6c0,0,0,0,0,0c-0.5,0.5-0.9,1-1.3,1.5
			c-0.8,1-0.6,1.3,0.7,1.5c1,0.1,1.3,0.7,0.8,1.6c-0.1,0.2-0.2,0.3-0.3,0.5c-2.1,3-4.1,5.9-6.2,8.9C28.1,67.6,28.5,68.2,29.2,68.6z"
			/>
		<path class="st10" d="M10.6,80.9c2.3-0.4,3.7-2.1,4.8-4c0.5-0.8,0.9-1.7,1.4-2.5v0c0-0.3,0-0.6-0.2-0.9l0,0
			c-1.1-1.1-2.5-1.9-4-2.4c-1.4,0.6-2.4,1.7-3.5,2.6c-0.4,0.3-0.9,0.7-1.4,0.9l0,0l0,0l0,0v0v0c-0.2,0.8-0.5,1.5-1.2,1.9
			c-0.2,0.8-0.3,1.6-0.5,2.4l0,0h0c0,0.5,0,0.9,0,1.4c0,1.3,0.3,1.7,1.2,1.9c0,0,0,0,0,0c0,0,0,0,0,0C8.2,81.5,9.3,81.1,10.6,80.9z"
			/>
		<polygon class="st10" points="7.7,74.6 7.7,74.6 7.7,74.6 		"/>
		<path class="st15" d="M15.2,83.1c-0.5-2-0.3-3.8,1.5-5.1c1.1-0.8,2.4-1.4,3.7-1.9c0,0,0,0,0,0c0.5-1,1-1.9,2-2.6
			c0.5-0.4,1-1,1-1.7v0c-0.4,0-0.8,0-1.2,0.1c-2.1,0.3-3.8,1.4-5.4,2.5l0,0c-0.5,0.8-0.9,1.7-1.4,2.5c-1.1,1.9-2.5,3.7-4.8,4
			c-1.3,0.2-2.4,0.6-3.4,1.3c0,0,0,0,0,0c-0.6,1.2-0.6,1.2,0.8,1.2c2,0,3.9,0,5.9,0v0C14.3,83.3,14.9,83.8,15.2,83.1z"/>
		<path class="st15" d="M30.3,70.6c0-0.9-0.4-1.4-1.1-1.9c-0.6-0.5-1.1-1.1-1.2-1.9c-0.7,0-1.3-0.1-1.8-0.4
			c-0.9-0.6-1.6-1.3-2.3-2.2c-0.2-0.3-0.5-0.6-0.9-0.4c-0.4,0.2-0.4,0.6-0.3,1c0.1,0.4,0.2,0.8,0.3,1.3c0.3,0.5,0.5,1.1,0.7,1.7
			c0,0,0,0,0,0c2.7-0.3,4.5,1.6,5.2,3.5C29.5,71.4,30,71.2,30.3,70.6z"/>
		<path class="st5" d="M32.5,69.9C32.5,69.9,32.5,69.9,32.5,69.9c-0.7,0.3-1.5,0.5-2.3,0.7c-0.3,0.6-0.8,0.8-1.4,0.7
			c-0.5,0.4-0.9,0.8-1.4,1.2c0,0,0,0,0,0c0.1,1,0.6,1.8,1.7,1.9c0,0,0,0,0,0C31.5,73.6,32.5,72.1,32.5,69.9z"/>
		<path class="st14" d="M24.2,59.9c0.6,0.1,0.9-0.3,1.1-0.6c0.4-0.5,0.4-1.1,0-1.7c-0.2-0.3-0.4-0.6-0.6-0.9
			c-0.4-0.6-0.7-1.4-1.5-1.7h0c-0.5,0.1-0.4,0.5-0.3,0.7c0,1.1,0.2,2.1,0.5,3.1C23.6,59.3,23.7,59.8,24.2,59.9z"/>
		<path class="st8" d="M22.9,66c-1.6,0.5-3.2,1-4.8,1.6c-0.2,0.1-0.3,0.2-0.3,0.4c0,0.3,0.2,0.3,0.4,0.3c0.2,0,0.4,0,0.6,0
			c1.6-0.2,3.1-0.3,4.7-0.5c0,0,0,0,0,0C23.5,67.2,23.3,66.6,22.9,66z"/>
		<path class="st4" d="M115,77.2c0,0.8-0.3,1.3-1.1,1.6c-1.6,0.8-2.3,2.2-2.6,3.9c-0.1,0.7-0.2,1.5-0.4,2.2
			c-0.3,1.3-1.1,1.9-2.4,1.9c-0.8,0-1.6,0-2.3,0c-0.7,0-1.1,0.3-1.5,0.8c-0.4,0.5,0,0.4,0.3,0.5c0.1,0,0.3-0.1,0.4,0
			c0.4,0.3,1.3-0.8,1.3,0.5c0,1.3-0.6,2.1-1.6,2.1c-0.5,0-0.9,0-1.4,0c-0.1,0.3-0.2,0.5-0.4,0.8c-0.3,0.5-0.8,0.7-1.4,0.5
			c-0.7-0.3-1.4-0.7-2.2-0.5c0,0,0,0,0,0c0.3,0.8,0.2,1.7,0.1,2.6c-0.3,2-1.3,3.6-2.7,5c-1.2,1.1-1.3,2.2-0.6,3.6
			c0.3,0.5,0.5,1,0.8,1.6c0.9,2.2,1,4.5,1.4,6.8c0.8,0.2,1.6,0.5,2.5,0.7c0.3,0.1,0.6,0.2,0.9,0.5c0,0,0,0,0,0
			c-0.1-0.9,0.7-1.2,1.1-1.8c0.6-0.9,1.4-1.7,2.2-2.6c0.1-0.1,0.2-0.1,0.3-0.1c-0.4-1.1-1-2.1-1.6-3.2c-0.6-1.1-0.3-2.2,0.2-3.3
			c0-0.7-0.3-1.1-1-1.2c-0.2,0.2-0.5,0.4-0.6,0.6c-0.3,0.3-0.6,0.4-1,0.2c-0.3-0.2-0.7-0.4-0.6-0.9c0.2-1.4,0.7-2.6,1.8-3.5
			c0.1-0.1,0.6-0.6,0.8,0.1v0c0,0,0,0,0,0c0.5-1,1.4-1.3,2.3-1.7c0.5-0.2,0.9,0,1.1,0.5c0.5,1,0.6,2.1,0.9,3.1
			c0.3,0.9,0.8,1.2,1.7,0.9c2.6-0.9,4.7-2.9,4.7-6c0-2.1,0-4.1,0-6.2c0-1.4,0.3-2.6,1.7-3.3c0.7-0.3,1.1-1.1,0.7-1.8
			c-0.6-1.1-0.6-2.3-0.6-3.6c0-0.6-0.2-1.1-0.9-1.2c0,0,0,0,0,0c0,0,0,0,0,0C115.3,77.2,115.1,77.2,115,77.2z"/>
		<path class="st11" d="M101.8,86.3c2.2-0.5,3.4-2,4.2-3.8c0.9-2,2.2-3.7,2.9-5.7c0.4-1,1-1.9,1.1-3h0c-0.8-0.9-1.7-1.3-2.9-1.4
			c-1.8-0.1-3.6-0.3-5.4-0.7c-0.6-0.2-1-0.5-1.3-1c-0.2,0.1-0.4,0.4-0.7,0.4c0.3,0.8,0.2,1.5,0.2,2.3c0,1.7,0.4,3.1,2.2,3.8
			c0.8,0.3,0.6,1.1,0.6,1.7c0,1.5-0.7,2.3-2.1,2.6c-1.1,0.2-1.8,0.9-2.2,2c-0.5,1.1-0.4,2.4-0.7,3.6c-0.1,0.4-0.2,0.8-0.7,0.9
			c-0.5,0.1-0.9,0-1.2-0.6c-0.4-0.7-0.7-1.4-1.4-1.7c-0.1,0-0.3,0.1-0.4,0.1c-1.3,0.4-1.4,0.8-0.9,2.1c0.2,0.4,0.4,0.8,0.6,1.2
			c0.1,0.2,0,0.3-0.2,0.3c0.2,0.2,0.4,0.1,0.6,0.2c0.7,0.1,1.2,0.4,1.1,1.2c1-0.3,2.1-0.5,3.1-0.5C98.6,88.1,99.7,86.7,101.8,86.3z"
			/>
		<path class="st8" d="M95.6,87.3c0.3,0.5,0.7,0.6,1.2,0.6c0.5-0.1,0.6-0.5,0.7-0.9c0.2-1.2,0.2-2.4,0.7-3.6c0.4-1,1.1-1.8,2.2-2
			c1.4-0.3,2.1-1.1,2.1-2.6c0-0.6,0.2-1.4-0.6-1.7c-1.8-0.7-2.2-2.1-2.2-3.8c0-0.8,0.2-1.6-0.2-2.3c-0.7-0.1-1.4-0.2-2.1-0.4
			c-0.4,0.6-1,0.7-1.6,0.7c-0.5,0-1,0-1.3,0.5c-0.2,0.5,0.1,0.9,0.3,1.3c1,1.6,0.9,2.2-0.9,3c-0.6,0.3-1.2,0.7-1.8,1
			c0,0.9-0.5,1.7-0.3,2.6c-0.2,1.5,0.8,2.7,1.2,4c0.7,0.5,1.1,1.1,1,1.9C95,85.9,95.3,86.6,95.6,87.3z"/>
		<path class="st9" d="M102,91.9c0.6,0.3,1.1,0,1.4-0.5c0.2-0.2,0.3-0.5,0.4-0.8c0-0.3,0-0.7-0.1-1c-0.3-1-0.1-1.2,1-1.4
			c0.1,0,0.3-0.1,0.4-0.2l0,0c-0.3,0-0.7,0-0.3-0.5c0.4-0.5,0.8-0.8,1.5-0.8c0.8,0,1.6,0,2.3,0c1.3,0,2.1-0.6,2.4-1.9
			c0.2-0.7,0.2-1.5,0.4-2.2c0.3-1.7,1-3.1,2.6-3.9c0.7-0.3,1.1-0.8,1.1-1.6h0c-1.7-0.8-3-2.2-4.4-3.5v0l0,0c-0.2,0-0.5,0-0.7,0
			c-0.1,1.1-0.7,2-1.1,3c-0.7,2-2,3.8-2.9,5.7c-0.8,1.8-2.1,3.3-4.2,3.8c-2,0.4-3.1,1.9-3.5,3.9c0.5,0.5,0.8,1.2,1.6,1.2
			c0,0,0,0,0,0C100.6,91.2,101.3,91.6,102,91.9z"/>
		<path class="st10" d="M76.6,81.6c-1,1.3-0.9,2.7-0.6,4.1c0.1,0.4,0.1,0.7,0.1,1.1c1.4,0.4,1.6,1.6,1.7,2.8c0,0,0,0,0,0
			c0,0,0,0,0,0c2.8-0.6,5-2,6.6-4.4v0c0.2-0.4,0-0.6-0.2-0.9c-0.6-1.1-1.7-1.6-2.7-2.3c-1-0.7-1.9-1.5-2.3-2.6
			c-0.4-1-1.2-1.5-2.3-1.8c-0.6-0.2-0.8,0.1-0.8,0.6C76.3,79.4,76.5,80.5,76.6,81.6z"/>
		<path class="st2" d="M78.5,93.5C78.5,93.5,78.5,93.5,78.5,93.5c-0.1,1.1,0.1,2.2-0.2,3.3c0.2,1.2-0.5,1.9-1.3,2.5
			c-1.3,1.1-2.3,2.5-2.6,4.3c0,0,0,0,0,0c0.1,0.3-0.1,0.6,0.1,0.9c1.1-0.3,2.1-1,3.2-1.3c0.3-1.7,1.3-3,2.7-4c0.5-0.4,1-0.3,1.5,0.2
			c0.4,0.4,0.7,0.8,1,1.3c0.6,1.1,1.3,2,2.5,2.3l0,0c0.2-0.1,0.2-0.3,0.2-0.5c-0.2-1.3-0.5-2.6-0.7-3.9c-1.6-1.6-2.1-3.8-2.6-5.9
			C81,92.6,79.8,93,78.5,93.5z"/>
		<path class="st9" d="M77.8,89.6C77.8,89.6,77.8,89.6,77.8,89.6c-0.4,0.8-0.7,1.6-1.1,2.4l0,0h0c0.6,0.5,1.3,0.8,1.8,1.4v0
			c0,0,0,0,0,0c1.2-0.4,2.5-0.9,3.8-0.7c1-0.4,1.8-1.1,2.2-2.1c0.6-1.8,0.3-3.6-0.1-5.4v0C82.8,87.6,80.6,89,77.8,89.6z"/>
		<path class="st5" d="M102.1,112.1C102.1,112.1,102.1,112.1,102.1,112.1c-0.2-0.3-0.5-0.4-0.9-0.5c-0.8-0.2-1.6-0.5-2.5-0.7
			c-0.3,1.9,0.1,3.6,1.7,4.7c0.2,0.1,0.4,0.3,0.6,0.4c0.8-0.5,1.5-1.1,2.3-1.7c-0.2-0.2-0.3-0.4-0.5-0.6
			C102.6,113.2,102.2,112.7,102.1,112.1z"/>
		<path class="st11" d="M92,79.7c-1.1,0.1-1.8,0.8-2.1,1.8c-0.3,0.9-0.5,1.8-0.7,2.7c0,0,0,0,0,0c1.3-0.2,2.7-0.5,4-0.5
			C92.7,82.3,91.8,81.2,92,79.7z"/>
		<path class="st9" d="M74.5,82.8L74.5,82.8c0.5-0.7,1.1-1.3,2.1-1.2c-0.1-1.1-0.2-2.2-0.4-3.3c-0.3-0.9-0.7-1.7-1.7-1.9v0
			C74.5,78.5,74.5,80.6,74.5,82.8z"/>
		<path class="st14" d="M94,89.4c-0.2,0-0.5,0-0.6-0.2c-0.4,0-0.8,0-1.2-0.2c-0.3-0.1-0.7-0.1-0.8,0.2c-0.3,0.8-0.1,1.5,0.3,2.1
			c0.2,0.3,0.5,0.3,0.7,0.1c0.8-0.6,1.8-0.7,2.7-0.9C95.2,89.8,94.7,89.5,94,89.4z"/>
		<path class="st11" d="M94.1,76c1.7-0.9,1.9-1.4,0.9-3c-0.3-0.4-0.6-0.8-0.3-1.3c0.3-0.5,0.8-0.5,1.3-0.5c0.6,0,1.2-0.1,1.6-0.7
			c0-0.1,0-0.2-0.1-0.3c-0.7-1.5-1.3-3.1-0.6-4.8c0.1-0.2,0.1-0.5,0-0.8c-0.1-0.8-1-1.3-1.6-0.9c-1.2,0.7-2.2,1.6-2.9,2.8
			c-0.2,0.4-0.3,0.8-0.4,1.2c-0.1,1.3,0.4,2.4,1.3,3.4c0.4,0.4,0.5,0.8,0.2,1.3c-0.3,0.4-0.7,0.1-1,0c-0.7-0.2-1.5-0.4-2.3-0.5
			c-1-0.2-1.5,0.1-1.9,1.1c-0.3,0.6,0.1,1.3-0.3,1.9c0,0,0,0,0,0c0,0,0,0,0,0c0.5,1.6,1,2.1,2.7,2.1c0.6,0,1.1,0,1.7,0
			C92.9,76.7,93.5,76.4,94.1,76z"/>
		<path class="st5" d="M101.7,71.6c1.8,0.5,3.6,0.6,5.4,0.7c1.2,0.1,2.1,0.5,2.9,1.4h0c0.2,0,0.5,0,0.7,0l0,0
			c-0.4-1.2-0.6-2.5-0.5-3.8c0,0,0,0,0,0c0,0,0,0,0,0l0,0c0,0,0,0,0,0c-1.7,0.1-3.4-0.5-5.1-0.4c-1.6,0.1-2.3-0.9-2-2.4
			c0.3-1.4,0-1.7-1.4-1.7c0,0.6-0.1,1.2,0.1,1.7c0.3,1.5,0,2.6-1.3,3.5l0,0C100.6,71.1,101.1,71.4,101.7,71.6z"/>
		<path class="st11" d="M61.5,96.1C61.5,96.1,61.5,96.1,61.5,96.1C61.5,96.1,61.5,96.1,61.5,96.1c0-0.8,0-1.5,0.5-2.1
			c-0.2-1.2-0.8-2.2-1.4-3.2c-0.6-1-1-2.1-0.9-3.3c0.3-1.4,0.6-2.9,0.9-4.3c0.1-0.5,0.1-1,0.1-1.6c0-0.4-0.1-0.7-0.5-0.9
			c-0.5-0.2-0.8,0.2-1,0.5c-0.5,0.8-1,1.6-1.7,2.3c-1,1-2.1,1-3.1,0.1c-0.5-0.5-1-0.9-1.4-1.4c-0.5-0.6-0.7-1.2-0.6-2
			c0.3-1.7,0.8-3.4,1-5.2c-0.6,0.1-1.1,0-1.2-0.7c0,0,0,0,0,0c0,0.5,0,0.9-0.4,1.2c-0.5,0.5-1.1,1-1.8,1.2c-1.6,0.6-3.3-0.6-3.3-2.3
			c0,0,0-0.1,0-0.1c0-1.2-0.3-1.7-1.1-1.7c-1,0-1.9,0.8-1.9,1.8c0,0.6,0,1.3,0,1.9h0c1.2,1.8,1.3,3.4,0.1,5
			c-0.4,0.6-1.1,0.9-1.7,1.3c-1.1,0.8-1.3,1.2-0.8,2.5c0.5,1.4,0.8,3,1.6,4.3c0.1,0.1,0.1,0.2,0.2,0.3c0.4,0.4,0.8,1.2,1.3,1.2
			c0.5,0,0.4-0.9,0.5-1.4c0.6-2.7,1.8-5.2,3.2-7.6c0.2-0.4,0.4-0.8,0.9-0.7c0.5,0.1,0.6,0.5,0.7,0.9c0.8,2.9,1.6,5.8,2.4,8.8
			c0.4,1.5,0.9,1.8,2.3,1.4c1.7-0.5,2.9,0.2,3.7,1.6c0.3,0.6,0.6,1.2,0.8,1.8C59.9,96,60.7,95.7,61.5,96.1z"/>
		<path class="st4" d="M37.9,77.2c-0.1,0.2-0.1,0.3-0.2,0.5c0.1,0,0.1,0,0.2,0l0,0C38,77.6,38,77.4,37.9,77.2L37.9,77.2z"/>
		<path class="st4" d="M43.9,74.6c0-1,0.9-1.8,1.9-1.8c0.7,0,1,0.5,1.1,1.7c0,0,0,0.1,0,0.1c0,1.7,1.7,2.8,3.3,2.3
			c0.7-0.2,1.2-0.7,1.8-1.2c-0.2,0-0.5,0-0.7,0c-0.5,0-1.2,0.2-1.4-0.6c-0.2-0.8,0-1.3,0.8-1.8c0.2-0.1,0.4-0.2,0.5-0.3c0,0,0,0,0,0
			c0.1-1.1-0.2-2.1-0.7-3.1c-0.5-1.1-1-2.1-0.9-3.3c0.1-1.3-0.1-1.5-1.3-1.9c-1.9-0.7-3.2-2.1-4.5-3.6l0,0c-0.2,0.3-0.5,0.2-0.7,0.2
			c0,0.3-0.1,0.6-0.3,0.9c-1.3,2.7-2.6,5.4-3.9,8.1c-0.5,1.1-0.8,2.3-0.4,3.5c0.4,1,0,1.8-0.4,2.7c-0.1,0.2-0.2,0.5-0.3,0.7
			c0,0.2,0,0.3,0,0.5c0.9,0,1.8-0.4,2.6-0.7c1.1-0.4,2.1-0.6,3.3-0.5C43.9,75.9,43.9,75.2,43.9,74.6z"/>
		<path class="st4" d="M52.5,80.3c-0.2,0.8,0.1,1.4,0.6,2c0.4,0.5,0.9,1,1.4,1.4c1,0.9,2.2,0.9,3.1-0.1c0.7-0.7,1.2-1.5,1.7-2.3
			c0.2-0.3,0.4-0.7,1-0.5c0.4,0.2,0.6,0.4,0.5,0.9c0,0.5,0,1-0.1,1.6c-0.3,1.4-0.6,2.9-0.9,4.3c1,0.1,1.5,0.9,2.3,1.4
			c0.2-0.4,0.7-0.4,1-0.5c0.7-0.2,1.3-0.4,1.9-0.7c1.4-0.6,2-1.7,1.9-3.2c0-0.3,0-0.7,0-1c0,0,0,0,0,0c-1.4-1.1-2.3-2.6-2.6-4.4h0
			c0,0,0,0,0,0c-0.8-0.4-1.7-0.8-2.5-1.3c-1.1-0.8-1.8-1.9-2-3.2c-0.1-0.6-0.2-1.3-1.1-0.9c-0.1,0.1-0.3,0-0.4,0
			c0.5,0.3,0.7,0.9,0.7,1.5c0,0.6-0.7,1.1-1.2,0.9c-0.9-0.4-1.5-1.2-1.8-2.1c-0.1-0.3,0-0.5,0.3-0.6h0c0,0,0,0,0,0
			c-0.8-0.4-1.2,0.1-1.7,0.6c-0.3,0.4-0.6,0.9-1.1,1.2v0C53.4,76.9,52.9,78.6,52.5,80.3z"/>
		<path class="st15" d="M56,73.9c0.3,0.9,0.9,1.7,1.8,2.1c0.5,0.3,1.2-0.3,1.2-0.9c0-0.6-0.2-1.1-0.7-1.5c-0.6-0.1-1.3-0.2-1.9-0.4
			h0C55.9,73.4,55.9,73.7,56,73.9z"/>
		<path class="st15" d="M50.7,73.3c-0.8,0.4-1.1,1-0.8,1.8c0.2,0.7,0.8,0.6,1.4,0.6c0.2,0,0.5,0,0.7,0c0.3-0.3,0.4-0.8,0.4-1.2
			c0,0,0,0,0,0c-0.1-0.6-0.5-1.1-1.1-1.4h0C51.1,73.1,50.9,73.2,50.7,73.3z"/>
		<path class="st8" d="M16.5,37.9c-0.3-0.2-0.7-0.5-1.1-0.7c0,0,0,0,0,0c-0.5,0-0.9,0-1.4,0c0,1,0,2,0,3c0,0,0,0,0,0
			C14.8,39.5,15.7,38.7,16.5,37.9z"/>
		<path class="st8" d="M16.5,37.9C16.5,37.9,16.5,37.9,16.5,37.9c-0.8,0.8-1.7,1.5-2.5,2.3c0,4.1,0,8.1,0,12.2l0,0c0,0,0,0,0,0
			c0.5-0.2,1.1-0.5,1.6-0.7c1.3-0.7,1.9-1.8,1.9-3.3c0-1.2-0.4-2.3-0.6-3.4c-0.2-1.1-0.4-2.1,0.4-3c0-0.2,0-0.4,0.1-0.6
			C17.7,39.7,17.5,38.7,16.5,37.9z"/>
		<path class="st2" d="M87.2,80.8c0.3-1.2,0.5-2.4-0.7-3.3c-0.2-0.1-0.3-0.3-0.5-0.2c-0.3,0.1-0.3,0.3-0.3,0.6
			c-0.1,1.3,0.3,2.5,1.3,3.6C87.1,81.1,87.1,80.9,87.2,80.8z"/>
		<path class="st1" d="M90.6,48.3c-1-0.2-1.6,0.5-2,1.4c0.9,0.3,1.8,0.3,2.7,0.7c0.6,0.2,1.3,0.7,1.9,0.2c0.6-0.5,0.1-1.3,0-1.9h0
			C92.3,48.3,91.5,48.4,90.6,48.3z"/>
		<path class="st11" d="M67,84.5c0.1,1.5-0.5,2.5-1.9,3.2c-0.6,0.3-1.3,0.5-1.9,0.7c-0.4,0.1-0.8,0.1-1,0.5c0.1,1.1,0.4,2.1,1,3
			c0.6,0.3,1.2,0.6,1.9,0.9c1.1,0.5,1.6,0.2,2.1-0.9l0,0c-0.1-1.5,0.3-2.9,1.2-4.4c0.1,0.8,0.3,1.3,0.6,1.9c0.8,1.6,0.5,2.1-1.2,2.7
			c0,0.1-0.1,0.2-0.1,0.3c0,1.1-0.5,1.8-1.6,2.2c-0.7,0.3-0.9,1.1-0.5,1.8c0.2,0.5,0.5,1,0.8,1.5c0.4,0.7,0.7,1.4,0.6,2.3
			c0,0,0,0,0,0c0.6-0.6,1.5-0.9,2.2-1.4c1.5-1.1,2.2-2.5,2.3-4.3c0.1-2.7,0.7-5.2,3.2-6.8c0.4-0.3,0.9-0.5,1.3-0.7
			c0-0.4,0-0.7-0.1-1.1c-0.3-1.4-0.4-2.9,0.6-4.1c-1-0.1-1.5,0.5-2.1,1.2c0,0,0,0,0,0c-0.8,1.2-1.9,1.6-3.2,1.4
			c-1.4-0.3-2.8-0.7-4.3-0.6c0,0,0,0,0,0C67,83.8,67,84.2,67,84.5z"/>
		<path class="st3" d="M74.8,57.3c0.3-0.7,0.1-1.5,0.2-2.3c0,0,0,0,0,0C74.6,55.8,74.9,56.6,74.8,57.3z"/>
		<path class="st3" d="M71.7,68c1-1.3,0.9-1.8-0.4-2.5c-0.3-0.2-0.6-0.4-0.8-0.6c0,0,0,0,0,0C70.4,66,70.5,67.2,71.7,68z"/>
		<path class="st16" d="M14,52.4L14,52.4c0-4.1,0-8.1,0-12.2c0,0,0,0,0,0c-2.2,2.1-4.4,4.2-6.5,6.5c0.2,0.7,0.4,1.4,0.4,2.2
			c0,0,0,0,0,0c0.2,0.6,0.2,1.2,0,1.8c0,2.3-0.8,4.5-1.4,6.6c0,0.2,0.1,0.4,0.3,0.5c0.7,0.8,1,1.7,0.9,2.7c0,0.6,0.3,1.1,0.8,1.3
			c0.6,0.2,1.4,0.3,2-0.1c0.5-0.4,0.6-1,0.5-1.6c-0.4-2.7-0.8-5.5-1.1-8.2c-0.1-0.6-0.4-1.3-0.1-2c1,0.6,1.7,1.5,2.5,2.2
			c0.5,0.5,1,0.8,1.8,0.8c0,0,0,0,0,0C14,52.8,14,52.6,14,52.4z"/>
		<path class="st16" d="M7.5,46.7C7.5,46.7,7.5,46.7,7.5,46.7c2.1-2.2,4.3-4.4,6.5-6.5c0-1,0-2,0-3c-0.9-0.4-1.8-0.7-2.8-0.6
			c-1.5,0.1-3,0.4-4.5,0.6c0,0,0,0,0,0l0,0c-0.4,0.2-0.4,0.7-0.5,1c-0.4,1.8-0.1,3.6-0.2,5.4c0,0,0,0,0,0
			C6.7,44.6,7.2,45.6,7.5,46.7z"/>
		<path class="st7" d="M36.6,60.5c0,0.9,0,1.8-0.1,2.8c0.7,4.6,1.2,9.3,1.5,14l0,0c0.1-0.2,0.2-0.5,0.3-0.7c0.3-0.9,0.7-1.7,0.4-2.7
			c-0.4-1.2-0.2-2.4,0.4-3.5c1.3-2.7,2.6-5.4,3.9-8.1c0.1-0.3,0.3-0.6,0.3-0.9c-0.4-0.3-0.7-0.6-1.1-0.9c-1.4-1-3.1-1.6-4.8-1.9h0
			C36.7,59.1,36.5,59.7,36.6,60.5z"/>
		<path class="st7" d="M37.3,81c0-1.1,0.3-2.2,0.5-3.3h0c0-0.2,0.1-0.3,0.2-0.5c-0.3-4.7-0.8-9.3-1.5-14c0,0,0,0,0,0
			c-0.1,1.1-0.3,2.1-0.5,3.1c-0.4,1.8-1.5,3.1-3.4,3.5c0,0,0,0,0,0c0,2.2-1.1,3.7-3.3,4.6c0,0,0,0,0,0c0.4,1.8,1,3.6,2.3,5
			C33.3,80.4,35.1,81.3,37.3,81z"/>
		<path class="st4" d="M125.6,71.7c-1.3,0.9-2.6,2-4.1,2.7c0.1,0.5,0.3,1,0.5,1.4c0.9,1.4,1.9,2.7,2.8,4.2c0.3,0.5,0.6,1.1,0.6,1.7
			c1-3.4,1.7-6.9,2.1-10.4c-0.2,0-0.3-0.1-0.5-0.2C126.6,71.3,126,71.4,125.6,71.7z"/>
		<path class="st4" d="M125.9,65.9C125.9,65.9,125.9,65.9,125.9,65.9c-0.1,0.4-0.2,0.7-0.3,1.1c-0.1,0.6,0.1,1.1,0.6,1.3
			c0.6,0.3,0.7-0.2,1-0.6c0.2-0.3,0.4-0.7,0.8-0.7c0,0,0,0,0,0c0-0.5,0-1.1,0-1.6C127.3,65.6,126.6,65.8,125.9,65.9z"/>
		<path class="st4" d="M123.2,84.2c-1.6,0.6-1.9,1.2-1.2,2.8c0.3,0.6,0.6,1.3,0.9,1.9c0.8-1.9,1.5-3.9,2.2-5.9
			C124.6,83.7,123.9,84,123.2,84.2z"/>
		<path class="st11" d="M113.3,68c-1,0.8-1.8,1.7-3.2,1.9c-0.1,1.3,0.1,2.6,0.5,3.8v0c1.4,1.3,2.7,2.7,4.4,3.5h0c0.1,0,0.2,0,0.3,0
			c0,0,0,0,0,0c-0.2-0.5-0.3-1,0.1-1.5c0.4-0.5,1-0.4,1.5-0.2c1,0.3,2,0.2,3,0.2c0.7,0,1.4-0.1,2.1,0.2c-0.2-0.4-0.4-0.9-0.5-1.4
			c-2-2.4-4.1-4.7-5.2-7.7C115,66.6,114.2,67.3,113.3,68z"/>
		<polygon class="st11" points="110.1,69.9 110.1,69.9 110.1,69.9 110.1,69.9 		"/>
		<path class="st5" d="M112.3,65.2c-1.2,1.3-2,2.9-2.2,4.7c0,0,0,0,0,0l0,0h0c0,0,0,0,0,0c1.4-0.1,2.2-1.1,3.2-1.9
			c0.9-0.7,1.7-1.4,2.9-1.3c0.9-1.2,1.8-2.4,2.7-3.6c0.5-0.7,0.4-0.9-0.4-0.9c-1.2,0-2.3,0.2-3.3,0.8c-0.8,0.4-1.5,1-2.2,1.4
			C112.7,64.7,112.5,64.9,112.3,65.2z"/>
		<path class="st17" d="M127.6,71.3c0-0.1,0-0.1,0-0.2c-0.2,0-0.3,0-0.5,0C127.2,71.2,127.4,71.2,127.6,71.3z"/>
		<path class="st7" d="M5.3,57c0-0.4,0-0.8,0-1.2c0,0,0,0,0,0c0,0,0,0,0,0c0-0.8,0-1.5,0-2.3c0-1.3-0.4-2.5-0.5-3.8
			c-1.4,1.6-2.7,3.2-4.1,4.8c-0.2,1.3-0.3,2.6-0.4,4c0.5,0.1,1,0.2,1.6,0.3C3.8,59.1,4.5,58.8,5.3,57z"/>
		<path class="st7" d="M0.1,62.4c0,0-0.1-0.1-0.1-0.1c0,0.5,0,1.1,0,1.6c0,0.4,0,0.8,0,1.1C0.6,64.4,0.7,63.4,0.1,62.4z"/>
		<path class="st7" d="M4.7,49.7C4.7,49.7,4.7,49.7,4.7,49.7C4.7,49.6,4.7,49.6,4.7,49.7c-1.1-0.1-2.1-0.1-3.1-0.1
			c-0.4,1.6-0.7,3.2-0.9,4.9C2,52.9,3.3,51.3,4.7,49.7C4.7,49.7,4.7,49.7,4.7,49.7z"/>
		<path class="st18" d="M7.9,50.7c0-0.6,0-1.2,0-1.8c0,0,0,0,0,0c0,0,0,0,0,0c0-0.8-0.2-1.5-0.4-2.2c0,0,0,0,0,0c-0.9,1-1.9,2-2.8,3
			c0,0,0,0,0,0c0.2,1.3,0.5,2.5,0.5,3.8c0.3,0.8,0.3,1.5,0,2.3c0,0,0,0,0,0c0,0.4,0,0.8,0,1.2c0.4,0,0.8,0.4,1.2,0.4
			C7.2,55.1,7.9,53,7.9,50.7z"/>
		<path class="st18" d="M7.5,46.7c-0.3-1.1-0.8-2.1-1.5-3c0,0,0,0,0,0c-0.8,0.6-1.2,1.4-1.2,2.4c-0.1,1.2,0.5,2.3,0,3.5c0,0,0,0,0,0
			c0,0,0,0,0,0.1C5.6,48.7,6.6,47.7,7.5,46.7z"/>
		<path class="st2" d="M33.6,117.7c-0.4,0.8-0.2,1.5,0.3,2.2c0.1,0.1,0.3,0.2,0.5,0.3c0,0,0,0,0,0c0.2-1,0.5-2,0.7-3c0,0,0,0,0,0
			c-0.1,0-0.1-0.1-0.2-0.1C34.3,116.9,33.9,117.2,33.6,117.7z"/>
		<path class="st2" d="M36.4,120.6c0.4-0.2,0.5-0.5,0.5-0.8c0-1-0.9-2.2-1.8-2.6c-0.2,1-0.4,2-0.7,3C35,120.5,36,120.7,36.4,120.6z"
			/>
		<path class="st7" d="M21,108.6L21,108.6c0.2-0.2,0.4-0.4,0.4-0.7c0-0.8,0.1-1.6,0.1-2.3c0.2-2.8,0.8-5.6,1.4-8.3
			c0.3-1.7,0.9-3.4,1.1-5.2c-1.1,0.3-2.2,0.6-3.3,0.9c-0.2,0.6-0.5,1.1-1.3,1.1c-0.3,0-0.4,0.2-0.5,0.4c-0.1,0.2-0.2,0.6-0.6,0.5
			c-0.3-0.1-0.6-0.3-0.8-0.7c-0.2-0.5-0.2-1-0.2-1.5c-0.2-0.4-0.4-0.8-0.5-1.2c-0.9-0.5-1.4,0.2-1.8,0.7c-0.3,0.3-0.5,0.7-1,1
			c0-1.8,0-3.5,0-5.1c0-1.2,0-2.4,0-3.6c0-0.3,0.1-0.6-0.2-0.8v0l0,0c-2.1,0-4.2,0-6.4,0c-0.9,0-1.2,0.3-1.3,1.1
			c-0.3,1.9-0.2,3.7,0.4,5.6c0,0,0,0,0,0c0,0,0,0,0,0c0.8,1.3,1.1,2.6,1.2,4.1C7.9,94.7,8,95,8.2,95.2c1-0.3,1.9-0.5,2.9-0.8
			c0.7-0.2,1,0.2,1,0.7c0,0.8,0.4,1.3,1.1,1.6c3.5,1.3,4.1,6.3,2.6,8.9c-0.5-0.8-0.6-1.7-1-2.6c-0.5-1-0.8-2-1.7-2.7
			c-0.2,0.1-0.5,0.1-0.7,0.3c-0.1,0.1-0.3,0.2-0.4,0.2c1.9,2.7,4.1,5.3,6.4,7.7C19.2,108.8,20.1,108.9,21,108.6z"/>
		<path class="st7" d="M77,99.3c0.8-0.7,1.5-1.4,1.3-2.5c-1.8,0.1-2,0-2.6-1.7c-0.2-0.4-0.2-0.9-0.5-1.2c-0.6-0.7-0.1-1.1,0.4-1.4
			c0.4-0.2,0.8-0.3,1.1-0.4l0,0c0.4-0.8,0.7-1.6,1.1-2.4c0,0,0,0,0,0c-0.2-1.2-0.4-2.4-1.7-2.8c-0.4,0.2-0.9,0.4-1.3,0.7
			c-2.5,1.6-3.2,4.1-3.2,6.8c-0.1,1.8-0.8,3.3-2.3,4.3c-0.7,0.5-1.6,0.8-2.2,1.4c0,0,0,0,0,0l0,0c-0.4,1.5-1.1,3-1.5,4.5
			c-0.1,0.7-0.2,1.3,0.1,1.9c2,1.3,4.2,1.7,6.5,1.9l0,0c0.8-0.1,1.2-0.6,1.4-1.4c0.4-1.2,0.8-2.3,1-3.5c0,0,0,0,0,0
			C74.7,101.8,75.7,100.4,77,99.3z"/>
		<path class="st7" d="M67.1,110.4C67.1,110.4,67.1,110.4,67.1,110.4c-0.2,0.6-0.2,1.3-0.6,1.9c-1.2,2.3-0.6,4.5,0.5,6.7
			c0.5,1,1.2,1.3,2.3,1c0.4-0.1,0.8-0.3,1.2-0.4c0.7-0.8,1.5-1.7,2.2-2.4c1.3-1.4,2.1-1.2,2.7,0.7c0,0,0,0,0,0
			c1.1,0.3,2.2,0.7,3.3,1.2c0.3,0.1,0.5,0,0.4-0.4c-0.3-1.9-0.5-3.8-0.8-5.7c-0.2-1.4-0.9-2.3-2.3-2.7c-0.9-0.3-1.9-0.5-2.9-0.7
			c-0.4-0.1-0.9-0.1-1.1-0.5v0C70.5,109.4,68.8,109.9,67.1,110.4z"/>
		<path class="st7" d="M61.2,107.9c-0.5-0.4-0.8-0.9-0.9-1.5c0,0,0,0,0,0c-0.2-0.5-0.4-1-0.8-1.5c-0.6-0.7-0.3-1.5,0.5-1.9
			c0.5-0.2,1-0.4,1.4-0.6c1.5-0.6,2-1.5,1.6-3c-0.3-1.2-1-2.2-1.5-3.2c0,0,0,0,0,0c-0.8-0.4-1.6-0.1-2.5-0.2v0
			c-2.1,0.3-3.9,1.5-5.8,2.2c-0.7,0.3-1.4,0.2-2.1,0.6c-0.1,1.3,0,2.6,0.6,3.8c0,0,0,0,0,0c0.6,0,1.3,0,1.9,0.1
			c1.6,0.3,2.2,1.6,2.4,2.9c0.3,2.3,3.1,4.2,5.2,4.4c0.6,0.1,1.3,0.3,1.9-0.3C62.5,109,61.9,108.4,61.2,107.9z"/>
		<path class="st7" d="M82.9,100.7c-0.3-0.5-0.6-0.9-1-1.3c-0.5-0.5-1-0.6-1.5-0.2c-1.3,1-2.4,2.3-2.7,4c1.1,0,2,0.6,2.8,1.3
			c1,0.9,1.8,1.9,2.9,2.7c0.6,0.5,1,0.4,1.4-0.2c0.1-0.2,0.2-0.5,0.4-0.7c0-0.9,0.5-1.6,0.5-2.4h0c0-0.3,0-0.7-0.4-0.9l0,0
			C84.2,102.7,83.5,101.8,82.9,100.7z"/>
		<path class="st5" d="M65.6,106.5c-1.6,0-3.2-0.1-4.8-0.6c-0.4-0.1-0.5,0.1-0.5,0.4c0,0,0,0,0,0c0,0,0,0,0,0
			c0.1,0.6,0.5,1.1,0.9,1.5c0.6,0.5,1.3,1.1,1.9,1.6c1.3,0.3,2.7,0.6,4,0.9c0,0,0,0,0,0c1.7-0.5,3.4-0.9,5.1-1.4v0
			c-0.1-0.2-0.1-0.3-0.2-0.5h0C69.8,108.2,67.5,107.8,65.6,106.5z"/>
		<path class="st7" d="M88.5,118.7c0.3-1.2,0.2-2.4,0-3.7c-0.4-2.8-2.1-3.9-4.7-3.1c-0.9,0.3-1.1,0.9-0.4,1.6
			c0.7,0.8,1.2,1.6,1.9,2.4c0.9,1.1,1.5,2.3,2.9,2.9C88.2,118.8,88.3,118.8,88.5,118.7C88.4,118.7,88.5,118.7,88.5,118.7z"/>
		<path class="st2" d="M52.6,106.5c0.4-0.5,0.3-1.1,0.1-1.7c-0.3-0.7-0.6-1.5-0.9-2.3c0,0,0,0,0,0c-0.5-1.2-0.6-2.5-0.6-3.8
			c-0.3-0.5-0.4-1.1-0.7-1.5c-0.7-1-1.3-1.1-2.2-0.3c-0.2,0.1-0.4,0.3-0.5,0.4h0l0,0c0,0,0,0,0,0.1c0.3,1.1,1.2,2,1.7,3
			c0.8,1.4,1.4,2.8,0.7,4.4c-0.3,0.7-0.1,1.2,0.3,1.6c0,0,0,0,0,0c0.2,0,0.4,0.1,0.6,0.1C51.6,106.6,52.1,107,52.6,106.5z"/>
		<path class="st2" d="M72.8,117.2c-0.8,0.8-1.5,1.6-2.2,2.4c0.4,1.2,0.8,1.4,1.8,0.7c0.9-0.5,1.8-1.2,2.6-1.8
			c0.2-0.2,0.4-0.4,0.5-0.7c0,0,0,0,0,0C74.9,116,74.2,115.8,72.8,117.2z"/>
		<path class="st2" d="M88.5,118.7C88.5,118.7,88.4,118.7,88.5,118.7c-0.1,0-0.2,0-0.3,0c-0.9,1-1.3,2.3-2.4,3.2
			c-0.1,0.1-0.2,0.3-0.2,0.5c-0.1,0.4-0.1,0.8,0.3,1.1c0.4,0.3,0.7,0,0.9-0.2c0.8-0.6,1.6-1.3,2.5-1.8c0.9-0.6,1-1.3,0.3-2
			C89.3,119.2,88.9,118.8,88.5,118.7z"/>
		<path class="st15" d="M85.3,106.4c0.2-0.1,0.4-0.1,0.7-0.2c1.1-0.3,2.3-0.7,2.9-1.8c-0.9-0.7-2-0.3-3-0.4h0
			C85.8,104.8,85.3,105.5,85.3,106.4z"/>
		<path class="st4" d="M117.9,97.1c-0.6-0.2-1.1,0.2-1.3,1.1c-0.1,0.3-0.2,0.6-0.2,0.9c-0.3,1-1,1.4-2,1.5c-0.7,0-1.3,0.1-2,0.2
			c-1.2,0.2-1.5,0.5-1.5,1.7c0,0.2-0.1,0.5-0.1,0.7c-0.3,1.3-1.5,1.7-2.5,2.2c0.2,1,0.8,1.8,1.3,2.7c0.1,0.2,0.2,0.4,0.3,0.6
			c3.3-3.4,6.2-7.1,8.7-11.1C118.4,97.4,118.2,97.2,117.9,97.1z"/>
		<path class="st5" d="M108.2,105.3c-0.7-0.3-1.2-0.8-1.7-1.3c-0.9-0.9-1.3-2-2.1-2.9l0,0c-0.5,1.1-0.7,2.2-0.2,3.3
			c0.5,1.1,1.2,2,1.6,3.2c0.6,1.2,0.9,2.5,1.2,3.8c1-0.9,1.9-1.8,2.8-2.7c-0.1-0.2-0.2-0.4-0.3-0.6
			C109,107.2,108.4,106.3,108.2,105.3z"/>
		<path class="st15" d="M102.9,96.3c-1.1,0.9-1.6,2.1-1.8,3.5c-0.1,0.4,0.3,0.7,0.6,0.9c0.4,0.2,0.7,0.1,1-0.2
			c0.2-0.2,0.4-0.4,0.6-0.6c0-0.1,0-0.1,0-0.2c0-0.3-0.1-0.6,0.2-0.9c0,0,0,0,0,0c0.1-0.8,0.1-1.6,0.2-2.4v0
			C103.5,95.8,103,96.2,102.9,96.3z"/>
		<path class="st8" d="M118.6,85.9c-0.5-0.3-0.8-0.1-1.2,0.2c-1.1,0.6-1.2,2.2-0.3,3.1c0.6,0.6,1.3,0.5,1.6-0.3
			c0.2-0.6,0.3-1.2,0.4-1.5C119,86.6,119.1,86.2,118.6,85.9z"/>
		<path class="st4" d="M103.3,99.7c0.3-0.3,0.1-0.6,0.2-0.9c0,0,0,0,0,0C103.2,99.1,103.3,99.4,103.3,99.7z"/>
		<path class="st9" d="M6,78.9L6,78.9c0.2-0.8,0.3-1.6,0.5-2.4c-1.1-0.2-2.2-0.4-3.2-0.5c-0.7-0.1-1.4-0.2-2.1-0.2
			c0.3,1.4,0.6,2.8,0.9,4.1C3.1,79.1,4.4,78.8,6,78.9z"/>
		<path class="st11" d="M6.5,76.5c0.7-0.4,1.1-1.1,1.2-1.9c0,0,0,0,0,0l0,0l0,0c-0.4-1.1-0.1-2.2-0.2-3.3c0-0.4,0.2-1.2-0.2-1.2
			c-0.5-0.1-0.9,0.6-1.1,1.1c-0.1,0.1-0.1,0.2-0.1,0.3c-0.3,0.6-0.6,1.1-1,1.6c-0.5,0.6-1.1,0.6-1.7,0.3c-0.8-0.4-1.2-1.1-1.3-1.9
			c-0.1-1,0.1-2,0.4-2.9c0.3-0.9,0.1-1.2-0.7-1.3c-0.6,0-1.1,0-1.7,0c0.1,2.9,0.5,5.7,1,8.5c0.7,0,1.4,0.1,2.1,0.2
			C4.3,76.2,5.4,76.3,6.5,76.5z"/>
		<path class="st15" d="M9.1,73.7c1.1-0.9,2.2-2,3.5-2.6c-0.8-1.9-2.3-2.4-4.3-1.4c-0.4,0.2-0.6,0.5-0.6,0.9c0,1.3,0,2.7,0,4l0,0
			c0,0,0,0,0,0l0,0C8.2,74.4,8.7,74,9.1,73.7z"/>
		<path class="st9" d="M37.8,77.7c-0.2,1.1-0.5,2.2-0.5,3.3c0.3,0.3,0.6,0.6,0.9,0.8c0-1.4-0.1-2.8-0.2-4.2
			C37.9,77.7,37.8,77.7,37.8,77.7L37.8,77.7z"/>
		<path class="st9" d="M35.6,83.8c-0.6-0.2-1.2-0.5-1.8-0.8c-0.4,0.9-0.4,1.8,0,2.7c0.2,0.5,0.7,0.7,1,1.1c0,0,0,0,0,0
			c0.7,0,1.4,0,2.2,0c0.5,0,1,0.1,1.2,0.3c0-1,0-2,0-2.9C37.3,84.3,36.5,84.1,35.6,83.8z"/>
		<path class="st9" d="M47.7,97.3c0.2-0.1,0.4-0.3,0.5-0.4c1-0.8,1.5-0.7,2.2,0.3c0.3,0.5,0.4,1.1,0.7,1.5c0.7-0.3,1.4-0.3,2.1-0.6
			c1.9-0.8,3.7-1.9,5.8-2.2v0c-0.3-0.6-0.5-1.2-0.8-1.8c-0.8-1.4-2-2.2-3.7-1.6c-1.4,0.5-1.9,0.1-2.3-1.4c-0.8-2.9-1.6-5.9-2.4-8.8
			c-0.1-0.4-0.3-0.8-0.7-0.9c-0.5-0.1-0.7,0.3-0.9,0.7c-1.4,2.4-2.6,4.9-3.2,7.6c-0.1,0.5,0,1.3-0.5,1.4c-0.5,0-0.9-0.7-1.3-1.2
			c-0.1-0.1-0.1-0.2-0.2-0.3c-0.8-1.3-1.1-2.8-1.6-4.3c-0.4-1.3-0.3-1.7,0.8-2.5c0.6-0.4,1.3-0.7,1.7-1.3c1.2-1.5,1.1-3.2-0.1-5h0
			c-1.1-0.1-2.2,0.1-3.3,0.5c-0.8,0.3-1.7,0.7-2.6,0.7l0,0c0.1,1.4,0.1,2.8,0.2,4.2c0,0,0,0,0,0c0.5,0.4,1.1,0.8,1.7,1.2
			c0.5,0.4,0.3,0.6-0.1,0.7c-0.5,0.2-1,0.3-1.5,0.4c0,0,0,0,0,0c0,1,0,2,0,2.9c0,0,0,0,0,0c0.4,0.3,0.6,0.7,0.6,1.4
			c0.4-0.3,0.6,0.1,0.8,0.3c0.9,0.9,1.1,2.1,1,3.2c0,0.8,0.1,1.7-0.2,2.6c0.9,0.9,2.1,1.4,3.3,1.9c0.4,0.2,0.9,0.3,1.2,0.8
			c0,0,0,0,0,0C45.9,97.3,46.8,97.3,47.7,97.3C47.7,97.3,47.7,97.3,47.7,97.3L47.7,97.3z"/>
		<path class="st11" d="M43.7,96.5c-1.2-0.4-2.4-0.9-3.3-1.9c-0.1,0-0.2,0-0.3,0c-1.6,0-2.2-0.7-1.8-2.2c0.3-1.3,0.5-2.6,0.5-3.9h0
			c-0.1-0.7-0.2-1.1-0.6-1.4c0,3.1-0.1,6.3-0.3,9.4c2.1-0.1,4,0.9,5.8,2.1h0c0.7-0.2,1.2-0.6,1.2-1.4c0,0,0,0,0,0
			C44.7,96.8,44.2,96.7,43.7,96.5z"/>
		<path class="st11" d="M34.8,86.8C34.8,86.8,34.8,86.8,34.8,86.8c-0.5,0.6-1.2,0.7-1.8,0.9c-1.8,0.3-2.1,1.3-2.5,3.4
			c-0.2,1.1,0.8,1.5,1.6,1.8c0.1,0,0.1,0.1,0.1,0.2c-0.1,0.2-0.2,0.2-0.4,0.2c-1.6,0.1-1.6,0.1-1.7,1.8c-0.1,0.8-0.6,1.3-1.5,1.4
			c-0.3,0-0.6,0-1,0c-0.4,0-0.5,0.1-0.3,0.5c0.6,1.2,1.2,2.5,1.8,3.7c0.2,0.3,0.3,0.9,0.8,0.8c0.5-0.1,0.6-0.6,0.8-1
			c0,0,0-0.1,0-0.1c0.5-1,0.5-2.2,1.1-3.2c0.7-1.3,1.5-1.5,2.7-0.6c0.5,0.3,0.9,0.7,1.6,0.4c0.7-0.3,1.3-0.4,2-0.4c0,0,0,0,0,0
			c0.2-3.1,0.3-6.3,0.3-9.4c0,0,0,0,0,0c-0.3-0.2-0.7-0.3-1.2-0.3C36.3,86.8,35.5,86.8,34.8,86.8z"/>
		<path class="st1" d="M105.7,107.6c-0.1,0-0.3,0-0.3,0.1c-0.7,0.8-1.5,1.7-2.2,2.6c-0.4,0.6-1.3,0.9-1.1,1.8c0,0,0,0,0,0
			c0.2,0.6,0.5,1.1,0.8,1.6c0.1,0.2,0.3,0.4,0.5,0.6c1.2-0.9,2.4-1.9,3.5-3C106.6,110.1,106.3,108.8,105.7,107.6z"/>
		<path class="st9" d="M6.5,90.3C6.5,90.3,6.5,90.3,6.5,90.3c-0.6-1.8-0.7-3.7-0.4-5.6c0.1-0.8,0.5-1.1,1.3-1.1c2.1,0.1,4.2,0,6.4,0
			l0,0c0-0.1,0-0.1,0-0.2c-2,0-3.9,0-5.9,0c-1.4,0-1.4,0-0.8-1.2c0,0,0,0,0,0C6.3,82.1,6,81.7,6,80.4c-1.2,0.4-1.8,1.4-2,2.5
			c-0.1,0.6-0.3,1.1-0.5,1.6c0.7,2,1.4,3.9,2.3,5.8C5.9,90.2,6.2,90.2,6.5,90.3z"/>
		<path class="st2" d="M12.8,97.5c0.1,1,0.2,1.9,0.2,2.9c0.9,0.7,1.3,1.7,1.7,2.7c0.4,0.8,0.5,1.7,1,2.6c1.5-2.6,0.9-7.6-2.6-8.9
			C12.7,96.8,12.8,97.2,12.8,97.5z"/>
		<path class="st15" d="M6.5,90.3c-0.3-0.1-0.6-0.1-0.8,0c0.6,1.4,1.3,2.7,2,4.1C7.6,92.9,7.3,91.6,6.5,90.3
			C6.5,90.3,6.5,90.3,6.5,90.3z"/>
		<path class="st10" d="M27.5,88.8c0.9-0.1,1-0.7,0.5-1.5c-2.3-3.6-4.7-7.2-7-10.8c-0.1-0.2-0.3-0.4-0.5-0.4c0,0,0,0,0,0
			c-1.3,0.4-2.6,1-3.7,1.9c-1.8,1.3-2,3.1-1.5,5.1c0.2,0.1,0.2,0.4,0.5,0.6c1.6,0.8,2.1,1.9,1.7,3.7c-0.1,0.3-0.1,0.6-0.1,0.9l0,0
			c0.8,1.5,1.5,2.9,2.3,4.4c0.3,0.3,0.8,0,1,0.3c1.1-0.3,2.2-0.6,3.3-0.9C24.5,90.3,25.5,89,27.5,88.8z"/>
		<path class="st5" d="M37.3,81c-2.1,0.2-4-0.6-5.8-1.6c0,1.6,1.2,2.6,2.3,3.5c0.6,0.3,1.2,0.6,1.8,0.8c0.9,0.3,1.7,0.5,2.6,0.4
			c0,0,0,0,0,0c0-0.8,0-1.5,0-2.3c0,0,0,0,0,0C37.8,81.6,37.5,81.4,37.3,81z"/>
		<path class="st5" d="M38.2,84.2c0.5,0,1-0.2,1.5-0.4c0.4-0.2,0.6-0.3,0.1-0.7c-0.5-0.4-1.1-0.8-1.7-1.2
			C38.2,82.7,38.2,83.4,38.2,84.2z"/>
		<path class="st11" d="M6,80.4c0-0.5,0-0.9,0-1.4h0c-1.6-0.1-2.9,0.2-4,0.9c0.4,1.6,0.9,3.1,1.4,4.6c0.2-0.5,0.4-1,0.5-1.6
			C4.2,81.8,4.8,80.8,6,80.4z"/>
		<path class="st11" d="M16.9,89c0-0.3,0.2-0.6,0.5-0.8c0-0.3,0.1-0.6,0.1-0.9c0.3-1.7-0.2-2.9-1.7-3.7c-0.3-0.1-0.3-0.4-0.5-0.6
			c-0.3,0.7-0.9,0.2-1.4,0.4v0c0,0.1,0,0.1,0,0.2v0c0.3,0.2,0.2,0.5,0.2,0.8c0,1.2,0,2.4,0,3.6c0,1.7,0,3.3,0,5.1
			c0.5-0.3,0.7-0.7,1-1c0.5-0.5,0.9-1.2,1.8-0.7C16.8,90.7,16.8,89.9,16.9,89z"/>
		<path class="st15" d="M104.7,88.2c-1,0.2-1.2,0.5-1,1.4c0.1,0.3,0.1,0.7,0.1,1c0.5,0,0.9,0,1.4,0c1,0,1.6-0.8,1.6-2.1
			c0-1.3-0.9-0.2-1.3-0.5c-0.1-0.1-0.3,0-0.4,0l0,0C104.9,88.1,104.8,88.2,104.7,88.2z"/>
		<path class="st19" d="M75.6,92.5c-0.6,0.3-1.1,0.6-0.4,1.4c0.3,0.3,0.4,0.8,0.5,1.2c0.7,1.7,0.9,1.9,2.6,1.7
			c0.3-1.1,0.1-2.2,0.2-3.3v0c-0.5-0.6-1.2-0.9-1.8-1.4h0C76.4,92.2,76,92.3,75.6,92.5z"/>
		<path class="st8" d="M67,100.1c0.1-0.8-0.2-1.6-0.6-2.3c-0.3-0.5-0.6-1-0.8-1.5c-0.3-0.7-0.2-1.5,0.5-1.8c1.1-0.4,1.6-1.1,1.6-2.2
			c0-0.1,0-0.2,0.1-0.3c-0.2-0.1-0.4-0.1-0.5-0.2v0l0,0c-0.5,1.2-1.1,1.4-2.1,0.9c-0.6-0.3-1.3-0.6-1.9-0.9c0,0.9,0,1.8-1,2.1
			c-0.6,0.6-0.6,1.3-0.5,2.1c0,0,0,0,0,0c0.5,1.1,1.1,2.1,1.5,3.2c0.4,1.6,0,2.5-1.6,3c-0.5,0.2-1,0.4-1.4,0.6
			c-0.8,0.4-1,1.2-0.5,1.9c0.4,0.5,0.6,1,0.8,1.5c0,0,0,0,0,0c0-0.3,0-0.5,0.5-0.4c1.5,0.5,3.1,0.6,4.8,0.6
			c-0.3-0.6-0.2-1.3-0.1-1.9C65.8,103,66.6,101.6,67,100.1L67,100.1C67,100.1,67,100.1,67,100.1z"/>
		<path class="st12" d="M63.1,91.9c-0.6-0.9-1-1.9-1-3c-0.8-0.5-1.3-1.3-2.3-1.4c-0.1,1.2,0.3,2.3,0.9,3.3c0.6,1,1.2,2,1.4,3.2
			C63.1,93.6,63.1,92.7,63.1,91.9z"/>
		<path class="st14" d="M67.7,92.1c1.7-0.6,1.9-1.1,1.2-2.7c-0.3-0.5-0.5-1.1-0.6-1.9c-0.8,1.5-1.2,2.9-1.2,4.4v0
			C67.3,91.9,67.5,92,67.7,92.1z"/>
		<path class="st4" d="M7.9,50.7c0.2-0.6,0.2-1.2,0-1.8c0,0,0,0,0,0C7.9,49.5,7.9,50.1,7.9,50.7z"/>
		<path class="st20" d="M5.3,53.5c0,0.8,0,1.5,0,2.3c0,0,0,0,0,0C5.6,55,5.6,54.2,5.3,53.5z"/>
		<path class="st9" d="M17.6,92.9c0.5,0.2,0.7,0.9,1.2,0.8c0.5-0.1,0.4-0.8,0.8-1.2c-0.8-1.5-1.5-2.9-2.3-4.4l0,0
			c-0.3,0.2-0.4,0.5-0.5,0.8c-0.1,0.8-0.1,1.7-0.1,2.5c0.2,0.4,0.4,0.8,0.5,1.2C17.4,92.8,17.5,92.9,17.6,92.9z"/>
		<path class="st21" d="M19.6,92.6c-0.4,0.3-0.3,1.1-0.8,1.2c-0.5,0.1-0.7-0.6-1.2-0.8c-0.1,0-0.2-0.1-0.3-0.2c0,0.5,0,1,0.2,1.5
			c0.1,0.4,0.4,0.6,0.8,0.7c0.4,0.1,0.4-0.3,0.6-0.5c0.1-0.2,0.2-0.4,0.5-0.4c0.8,0,1.1-0.5,1.3-1.1C20.4,92.6,19.9,92.8,19.6,92.6z
			"/>
		<path class="st5" d="M38.4,92.5c-0.4,1.5,0.2,2.2,1.8,2.2c0.1,0,0.2,0,0.3,0c0.3-0.8,0.2-1.7,0.2-2.6c0.1-1.1-0.1-2.3-1-3.2
			c-0.2-0.2-0.3-0.6-0.8-0.3h0C38.9,89.9,38.7,91.2,38.4,92.5z"/>
	</g>
	<g>
		<path class="st22" d="M92.5,59c1.6,0.4,2.7,1.1,3.5,2.1c0.7,1,1.1,2,1.1,3.1c0,1-0.3,1.9-1,2.8c-0.7,0.9-1.6,1.6-2.9,2.1v18.7
			c0,1.8-0.6,3.4-1.8,4.6c-1.2,1.2-2.4,2.4-3.4,3.5c-2.7,2.7-5.8,4.6-9.4,5.8c-3.6,1.2-7.3,1.8-11.1,1.8c-6.1,0-11.4-1.3-16-3.8
			c-4.6-2.5-8.4-5.7-11.4-9.6c-3-3.9-5.3-8.1-6.9-12.7c-1.5-4.6-2.3-8.9-2.3-13.1c0-2.4,0.3-5,0.9-7.9c0.6-2.8,1.5-5.6,2.7-8.4
			c1.2-2.7,2.7-5.3,4.6-7.7c1.8-2.4,4-4.4,6.5-6c4.5-2.9,9.1-5.3,13.8-7.2c4.7-1.9,9.5-2.8,14.4-2.8c1.4,0,3.1,0.1,5.1,0.4
			c2,0.3,3.9,0.7,5.8,1.4c1.9,0.6,3.5,1.5,4.8,2.6c1.3,1.1,2,2.4,2,4c0,1.3-0.5,2.5-1.4,3.4c-0.9,0.9-2.1,1.4-3.5,1.4
			c-0.7,0-1.6-0.2-2.6-0.5c-1-0.3-2.1-0.7-3.2-1.1c-1.1-0.4-2.3-0.7-3.5-1.1c-1.2-0.3-2.4-0.5-3.6-0.5c-0.8,0-1.6,0-2.4,0.1
			c-0.7,0.1-1.5,0.2-2.2,0.5c-3.2,1-6.5,2.2-9.9,3.6c-3.3,1.4-6.3,3.2-9.1,5.4c-2.7,2.2-4.9,5-6.6,8.3c-1.7,3.3-2.5,7.4-2.5,12.3
			c0,4,0.7,7.8,2.1,11.3c1.4,3.5,3.3,6.6,5.6,9.2c2.3,2.6,5,4.6,8.1,6.1c3.1,1.5,6.3,2.2,9.6,2.2c2.9,0,5.8-0.6,8.6-1.7
			c2.8-1.2,5.4-2.9,7.7-5.2v-17c-3.2,0.1-6.3,0.1-9.4,0.1c-3.1,0-6.3,0-9.4,0c-1.8-0.2-3.2-0.9-4.1-1.9s-1.3-2.1-1.3-3.2
			c0-1.2,0.5-2.3,1.4-3.4c1-1.1,2.4-1.7,4.3-1.7c0.8,0,2.6,0,5.3-0.1c2.7,0,5.6-0.1,8.7-0.1c3.1,0,6,0,8.7-0.1
			C89.9,59,91.6,59,92.5,59z"/>
	</g>
	<path class="st22" d="M64,119.9c-30.9,0-56-25.1-56-56c0-30.9,25.1-56,56-56c30.9,0,56,25.1,56,56c0,7.4-1.4,14.6-4.3,21.4
		c-2.8,6.8-6.9,13-12.1,18.2s-11.4,9.3-18.2,12.1C78.6,118.4,71.3,119.9,64,119.9L64,119.9z M64,12.3c-28.5,0-51.6,23.1-51.6,51.6
		c0,28.5,23.1,51.6,51.6,51.6c28.5,0,51.6-23.1,51.6-51.6c0-6.8-1.3-13.5-3.9-19.8c-2.6-6.3-6.4-12-11.2-16.8S90,18.8,83.8,16.2
		C77.5,13.6,70.8,12.3,64,12.3L64,12.3z"/>
</g>
</svg>
