<?xml version="1.0" encoding="utf-8"?>
<!-- Generator: Adobe Illustrator 25.2.1, SVG Export Plug-In . SVG Version: 6.00 Build 0)  -->
<svg version="1.1" id="Слой_1" xmlns="http://www.w3.org/2000/svg" xmlns:xlink="http://www.w3.org/1999/xlink" x="0px" y="0px"
	 viewBox="0 0 400 400" style="enable-background:new 0 0 400 400;" xml:space="preserve">
<style type="text/css">
	.st0{opacity:0.54;}
	.st1{fill:#66BC93;}
	.st2{opacity:0.47;}
	.st3{fill:#FFFFFF;}
</style>
<g class="st0">
	
		<image style="overflow:visible;" width="1781" height="1780" xlink:href="8178F62A342C9E43.png"  transform="matrix(0.24 0 0 0.24 -13.68 -13.44)">
	</image>
</g>
<circle class="st1" cx="202.4" cy="193.5" r="184.3"/>
<g>
	<g>
		
			<image style="overflow:visible;" width="1036" height="648" xlink:href="8178F62A342C9E41.png"  transform="matrix(0.24 0 0 0.24 98.4 172.8)">
		</image>
	</g>
	<g>
		
			<image style="overflow:visible;" width="615" height="1030" xlink:href="8178F62A342C9E47.png"  transform="matrix(0.24 0 0 0.24 75.6 57.84)">
		</image>
	</g>
	<g class="st2">
		
			<image style="overflow:visible;" width="1083" height="649" xlink:href="8178F62A342C9E40.png"  transform="matrix(0.24 0 0 0.24 85.92 174.96)">
		</image>
	</g>
	<g class="st2">
		
			<image style="overflow:visible;" width="658" height="1069" xlink:href="8178F62A342C9E4E.png"  transform="matrix(0.24 0 0 0.24 68.88 53.28)">
		</image>
	</g>
	<g class="st2">
		
			<image style="overflow:visible;" width="904" height="812" xlink:href="8178F62A342C9E4F.png"  transform="matrix(0.24 0 0 0.24 138 59.04)">
		</image>
	</g>
	<g>
		<path class="st3" d="M308.3,229.4c-12.1,12.8-35.9,31.3-80.4,46.5c-44.7,15.2-73,13.4-88.9,9.3c-1.4-0.4-2.5-1.4-2.9-2.9
			c-0.4-1.4,0-2.9,1.1-4l68.9-68.3c0.8-0.8,1.8-1.2,2.9-1.2c0.2,0,0.4,0,0.6,0l96.4,13.7c1.5,0.2,2.8,1.2,3.3,2.7
			C309.7,226.7,309.4,228.3,308.3,229.4z"/>
		<path class="st3" d="M194,198.3l-69,68.4c-0.9,0.9-2.2,1.3-3.5,0.9c-1.2-0.3-2.2-1.2-2.5-2.5c-2.6-9-4.9-21.6-4.9-38.6
			c0-14.2,1.6-31.5,6-52.1c9.5-44.8,25.9-67.2,37.8-78.1c0.7-0.6,1.5-0.9,2.4-0.9c0.3,0,0.6,0,1,0.1c1.2,0.3,2.1,1.2,2.5,2.4
			l31.1,96.5C195.3,195.9,195,197.3,194,198.3z"/>
		<path class="st3" d="M316.6,205.4c-0.8,1-2.1,1.4-3.3,1.2l-99.2-14.1c-1.4-0.2-2.6-1.2-3-2.6l-30.7-95.4c-0.4-1.3-0.1-2.6,0.7-3.6
			c0.7-0.8,1.8-1.3,2.8-1.3c0.2,0,0.5,0,0.7,0.1c16.8,3.2,44.3,13.2,80,42c36.1,29.2,48.6,54.3,52.7,70.2
			C317.8,203.3,317.5,204.5,316.6,205.4z"/>
	</g>
</g>
</svg>
