<?xml version="1.0" encoding="UTF-8" standalone="no"?>
<svg
   xmlns:dc="http://purl.org/dc/elements/1.1/"
   xmlns:cc="http://creativecommons.org/ns#"
   xmlns:rdf="http://www.w3.org/1999/02/22-rdf-syntax-ns#"
   xmlns:svg="http://www.w3.org/2000/svg"
   xmlns="http://www.w3.org/2000/svg"
   xmlns:sodipodi="http://sodipodi.sourceforge.net/DTD/sodipodi-0.dtd"
   xmlns:inkscape="http://www.inkscape.org/namespaces/inkscape"
   width="128"
   height="128"
   viewBox="0 0 128.01 128.01"
   version="1.1"
   id="svg15"
   sodipodi:docname="logo.svg"
   inkscape:version="1.0.2-2 (e86c870879, 2021-01-15)">
  <metadata
     id="metadata21">
    <rdf:RDF>
      <cc:Work
         rdf:about="">
        <dc:format>image/svg+xml</dc:format>
        <dc:type
           rdf:resource="http://purl.org/dc/dcmitype/StillImage" />
      </cc:Work>
    </rdf:RDF>
  </metadata>
  <defs
     id="defs19" />
  <sodipodi:namedview
     pagecolor="#ffffff"
     bordercolor="#666666"
     borderopacity="1"
     objecttolerance="10"
     gridtolerance="10"
     guidetolerance="10"
     inkscape:pageopacity="0"
     inkscape:pageshadow="2"
     inkscape:window-width="1920"
     inkscape:window-height="1121"
     id="namedview17"
     showgrid="false"
     inkscape:zoom="2.4279174"
     inkscape:cx="44.171104"
     inkscape:cy="119.00864"
     inkscape:window-x="-9"
     inkscape:window-y="-9"
     inkscape:window-maximized="1"
     inkscape:current-layer="svg15" />
  <title
     id="title10">logo111111</title>
  <circle
     id="path854"
     cx="64"
     cy="64"
     r="63.869999"
     stroke="#000000"
     stroke-miterlimit="2.54"
     stroke-width="0.28" />
  <g
     id="g65"
     transform="matrix(0.17995873,0,0,0.17995873,27.235771,-49.464593)"
     style="fill:#ffffff">
    <path
       style="fill:#ffffff;stroke:none"
       d="m 267.5,723.81 v -4.75 z m -166.25,0 c -4.75,-4.75 -4.75,-9.49 -4.75,-14.24 0,4.75 4.75,9.49 4.75,14.24 z M 296,714.32 c 4.75,-4.75 9.5,-9.49 14.25,-9.49 0,4.74 -9.5,14.23 -14.25,9.49 z m 0,-9.49 c -4.75,0 -14.25,4.74 -19,0 z m -128.25,0 c 14.25,0 28.5,-4.74 42.75,-4.74 -4.75,4.74 -23.75,4.74 -42.75,4.74 z M 258,666.87 h 4.75 C 239,671.62 201,690.6 186.75,690.6 h -19 C 191.5,681.11 220,676.36 239,662.13 c -4.75,0 4.75,4.74 19,4.74 z m -80.75,-4.74 c 0,0 0,4.74 -4.75,0 z m 47.5,-66.43 v -4.74 z M 239,576.72 c 0,0 -4.75,4.75 -4.75,0 z m -80.75,-85.4 H 144 Z M 201,486.57 v -4.74 z m 0,-56.94 v 14.24 c -9.5,4.74 -23.75,9.49 -33.25,18.98 9.5,4.74 23.75,0 28.5,4.74 9.5,14.24 19,33.22 33.25,52.19 l -9.5,9.49 c 14.25,0 28.5,-4.74 42.75,14.24 -9.5,0 -14.25,4.74 -19,9.49 9.5,4.74 23.75,4.74 33.25,4.74 -4.75,0 -14.25,0 -23.75,4.75 9.5,4.74 23.75,0 38,9.49 4.75,0 9.5,14.23 9.5,23.72 9.5,37.96 4.75,85.41 14.25,128.11 0,14.23 19,28.47 19,37.96 0,33.21 -76,37.95 -80.75,42.7 l -9.5,-9.49 c -4.75,9.49 -19,14.23 -33.25,14.23 -9.5,0 -9.5,-9.49 -19,-9.49 -14.25,0 -4.75,14.24 -14.25,14.24 -14.25,0 4.75,-9.49 -9.5,-9.49 -4.75,0 0,4.74 0,9.49 0,9.49 -28.5,4.74 -42.75,4.74 -28.5,0 -38,-4.74 -38,-28.46 C 87,776 96.5,771.26 96.5,761.77 96.5,747.53 68,652.64 68,638.4 v -9.49 c 9.5,-47.44 38,-23.72 38,-33.21 0,-14.23 -9.5,4.75 -9.5,-4.74 0,-14.24 14.25,-4.75 19,-9.49 -4.75,-4.75 -14.25,-9.49 -23.75,-9.49 14.25,-23.73 38,-47.45 38,-71.17 0,-14.24 -4.75,-42.71 -9.5,-61.69 l 57,-14.23 z"
       id="path63" />
  </g>
</svg>
