<?xml version="1.0"?>
<svg xmlns:rdf="http://www.w3.org/1999/02/22-rdf-syntax-ns#" xmlns="http://www.w3.org/2000/svg" xmlns:cc="http://web.resource.org/cc/" xmlns:dc="http://purl.org/dc/elements/1.1/" xmlns:svg="http://www.w3.org/2000/svg" id="svg2" viewBox="0 0 50 50" version="1.0">
  <g id="layer1" stroke="#0002ff" transform="matrix(1.6579 0 0 1.6502 -588.6 -681.87)">
    <path id="path3154" stroke-linejoin="round" d="m382.55 422.12c3.2 6.01 1.09 14.14-4.63 17.84-5.47 3.88-13.63 2.92-18.07-2.1-4.46-4.66-4.9-12.48-0.96-17.6 3.83-5.37 11.63-7.3 17.49-4.23 2.68 1.32 4.9 3.53 6.23 6.2" fill-rule="evenodd" stroke-miterlimit="100" stroke-width="2.3246" fill="#fffafe"/>
    <path id="path3158" d="m365.9 422.18c-0.01-0.01-0.02-0.03-0.02-0.04 0.18 0.34 0.23 0.72 0.16 1.08-0.09 0.51-0.42 0.97-0.92 1.21-0.03 0.01-0.06 0.03-0.09 0.04-0.82 0.34-1.76-0.02-2.15-0.82-0.41-0.83-0.06-1.84 0.78-2.24 0.79-0.39 1.75-0.05 2.19 0.69 0.03 0.05 0.05 0.09 0.08 0.13" fill-rule="evenodd" stroke-miterlimit="3.8" stroke-width="2" fill="#fffafe"/>
    <path id="path3160" d="m377.17 422.18c0.33 0.65 0.2 1.4-0.26 1.9-0.13 0.14-0.29 0.26-0.48 0.36-0.82 0.42-1.83 0.09-2.25-0.74-0.42-0.82-0.1-1.83 0.73-2.25 0.81-0.42 1.8-0.14 2.23 0.67 0 0 0.01 0.01 0.01 0.02l0.08 0.16" fill-rule="evenodd" stroke-miterlimit="65.1" stroke-width="2" fill="#fffafe"/>
    <path id="path3162" fill="none" stroke-width="2" stroke-miterlimit="4.9" d="m361.45 432.08c4.08 4.71 8.86 5.76 13.42 3.17 1.24-0.71 2.63-1.85 3.81-3.09"/>
  </g>
  <metadata>
    <rdf:RDF>
      <cc:Work>
        <dc:format>image/svg+xml</dc:format>
        <dc:type rdf:resource="http://purl.org/dc/dcmitype/StillImage"/>
        <cc:license rdf:resource="http://creativecommons.org/licenses/publicdomain/"/>
        <dc:publisher>
          <cc:Agent rdf:about="http://openclipart.org/">
            <dc:title>Openclipart</dc:title>
          </cc:Agent>
        </dc:publisher>
        <dc:title>smiley face</dc:title>
        <dc:date>2007-10-15T22:31:13</dc:date>
        <dc:description>clip art, clipart, image, media, public domain, smiley face icon, smiley face icon, svg, </dc:description>
        <dc:source>http://openclipart.org/detail/7045/smiley-face-by-jorje_villafan</dc:source>
        <dc:creator>
          <cc:Agent>
            <dc:title>jorje_villafan</dc:title>
          </cc:Agent>
        </dc:creator>
        <dc:subject>
          <rdf:Bag>
            <rdf:li>clip art</rdf:li>
            <rdf:li>clipart</rdf:li>
            <rdf:li>image</rdf:li>
            <rdf:li>media</rdf:li>
            <rdf:li>public domain</rdf:li>
            <rdf:li>smiley face icon</rdf:li>
            <rdf:li>svg</rdf:li>
          </rdf:Bag>
        </dc:subject>
      </cc:Work>
      <cc:License rdf:about="http://creativecommons.org/licenses/publicdomain/">
        <cc:permits rdf:resource="http://creativecommons.org/ns#Reproduction"/>
        <cc:permits rdf:resource="http://creativecommons.org/ns#Distribution"/>
        <cc:permits rdf:resource="http://creativecommons.org/ns#DerivativeWorks"/>
      </cc:License>
    </rdf:RDF>
  </metadata>
</svg>
