<svg width="128" height="128" xmlns="http://www.w3.org/2000/svg">
 <g>
  <title>background</title>
  <rect x="-1" y="-1" width="130" height="130" id="canvas_background" fill="none"/>
 </g>

 <g>
  <title>Layer 1</title>
  <circle stroke="#FCFBFB" cx="64" cy="63.999997" r="61.5" fill="black" id="svg_1"/>
  <path d="m53.48084,78.09783l0,-32.82065c0,0 6.48654,0 19.45977,0c3.14426,0 5.83922,1.61614 8.08513,4.84852c2.27229,3.20471 3.40848,7.05868 3.40848,11.5618c0,4.5308 -1.13619,8.39855 -3.40848,11.60326c-2.24591,3.20471 -4.94087,4.80707 -8.08513,4.80707l-19.45977,0zm2.85358,-2.9837l16.60619,0c2.35152,0 4.35959,-1.31229 6.02421,-3.9368c1.69101,-2.62459 2.53651,-5.78784 2.53651,-9.48983c0,-3.72957 -0.8455,-6.89291 -2.53651,-9.48983c-1.66462,-2.6245 -3.67269,-3.9368 -6.02421,-3.9368l-16.60619,0l0,26.85326zm-5.70715,5.96739l22.31334,0c3.93683,0 7.31885,-1.89241 10.14604,-5.67733c2.85358,-3.8125 4.28079,-8.38467 4.28079,-13.71669c0,-3.50856 -0.66102,-6.75473 -1.98203,-9.73843c-1.29472,-2.98369 -3.05176,-5.33202 -5.27121,-7.04488c-2.19307,-1.74044 -4.58423,-2.61071 -7.17359,-2.61071l-22.31334,0l0,38.78804zm-2.85357,2.9837l0,-44.75544l25.16691,0c3.09133,0 5.97137,0.99457 8.64003,2.9837c2.66858,1.98913 4.78234,4.71035 6.34145,8.16374c1.58532,3.42573 2.37755,7.16918 2.37755,11.23028c0,4.03352 -0.79223,7.77697 -2.37755,11.23028c-1.55911,3.45339 -3.67287,6.17461 -6.34145,8.16374c-2.66866,1.98913 -5.5487,2.9837 -8.64003,2.9837l-25.16691,0zm-2.85358,2.9837l28.02049,0c3.61977,0 6.9754,-1.13266 10.06673,-3.39815c3.11788,-2.26531 5.60129,-5.34572 7.45126,-9.24114c1.84911,-3.89534 2.77409,-8.13608 2.77409,-12.72213c0,-4.55847 -0.92498,-8.78532 -2.77409,-12.68066c-1.84997,-3.9231 -4.33338,-7.0173 -7.45126,-9.28261c-3.11771,-2.26549 -6.47334,-3.39814 -10.06673,-3.39814l-28.02049,0l0,50.72283zm-2.85357,2.98369l0,-56.69022l30.87406,0c4.12183,0 7.96625,1.27084 11.53318,3.8125c3.56667,2.514 6.40756,5.9536 8.52132,10.31864c2.11375,4.36504 3.17063,9.10297 3.17063,14.21397c0,5.11101 -1.05687,9.84894 -3.17063,14.21398c-2.11376,4.36503 -4.95465,7.81843 -8.52132,10.36009c-3.56693,2.51391 -7.41135,3.77104 -11.53318,3.77104l-30.87406,0zm-2.85358,2.9837l33.72764,0c3.46132,0 6.80368,-0.82837 10.02716,-2.48686c3.22349,-1.65672 6.0112,-3.88101 8.36254,-6.67145c2.35135,-2.79027 4.22752,-6.11928 5.62767,-9.98703c1.42721,-3.89542 2.13997,-7.95652 2.13997,-12.18347c0,-4.22694 -0.71276,-8.27425 -2.13997,-12.142c-1.40015,-3.86776 -3.27632,-7.19677 -5.62767,-9.98712c-2.35134,-2.81784 -5.13905,-5.05566 -8.36254,-6.71327c-3.22348,-1.65761 -6.56584,-2.48641 -10.02716,-2.48641l-33.72764,0l0,62.65761zm33.72764,2.98369l-36.58121,0l0,-68.625l36.58121,0c5.15233,0 9.96105,1.53331 14.42683,4.59984c4.4651,3.06662 8.01875,7.23823 10.66095,12.51499c2.66841,5.27668 4.00261,11.00927 4.00261,17.19767c0,4.64131 -0.79224,9.08927 -2.37756,13.34371c-1.5591,4.22694 -3.64665,7.87368 -6.26264,10.94022c-2.61514,3.06662 -5.71983,5.51192 -9.3133,7.33485c-3.56701,1.79552 -7.27928,2.69372 -11.13689,2.69372z" fill="#FFFCFC" id="svg_2" stroke="null"/>
 </g>
</svg>