<svg width="69" height="82" viewBox="0 0 69 82" fill="none" xmlns="http://www.w3.org/2000/svg">
<path d="M17.0875 9.81054C17.1081 9.81054 17.1195 9.81054 17.1241 9.82634C17.1322 9.83584 17.1382 9.84694 17.1418 9.85884C17.1453 9.87074 17.1464 9.88324 17.1449 9.89554C17.1434 9.90784 17.1394 9.91974 17.133 9.93044C17.1267 9.94124 17.1182 9.95054 17.1081 9.95784C11.2932 14.2645 6.35995 19.9879 3.82475 26.7858C3.82195 26.7932 3.81705 26.7997 3.81045 26.8042C3.80395 26.8088 3.79605 26.8113 3.78805 26.8113C3.78005 26.8113 3.77225 26.8088 3.76565 26.8042C3.75915 26.7997 3.75415 26.7932 3.75145 26.7858C2.93155 21.4726 2.34525 16.1867 2.46435 10.801C2.54675 7.11544 3.07806 3.26884 4.98356 0.0546413C5.01336 0.000241335 5.05455 -0.00425832 5.10035 0.0387417C8.90905 3.55894 12.5024 6.72554 17.0577 9.80594L17.0898 9.81954L17.0875 9.81054Z" fill="#FDFAFA"/>
<path d="M37.4315 9.95318C37.421 9.94508 37.4125 9.93478 37.4067 9.92298C37.4009 9.91118 37.3979 9.89828 37.3979 9.88518C37.3979 9.87198 37.4009 9.85908 37.4067 9.84728C37.4125 9.83548 37.421 9.82518 37.4315 9.81718C41.5932 6.80508 45.5699 3.55038 49.341 0.0703839C49.349 0.0625839 49.359 0.0567818 49.37 0.0533818C49.381 0.0499818 49.393 0.0489826 49.404 0.0504826C49.415 0.0519826 49.426 0.0559823 49.436 0.0621823C49.446 0.0683823 49.454 0.0765843 49.46 0.0861843C50.646 2.01748 51.228 4.08918 51.487 6.41708C51.885 9.85768 51.891 13.3317 51.505 16.7736C51.18 19.5677 50.676 22.9058 49.993 26.7879C49.98 26.8604 49.961 26.8627 49.932 26.7879C49.838 26.5612 49.785 26.2552 49.721 26.0875C47.312 19.5571 42.8845 14.2327 37.4315 9.95088V9.95318Z" fill="#FDFAFA"/>
<path d="M21.6519 49.6521C19.6228 47.7163 17.6211 45.7488 15.6034 43.8018C15.3413 43.5479 15.0509 43.3243 14.7377 43.1353C10.2045 40.4136 5.26211 38.4242 0.0963127 37.2419C0.00471274 37.2215 -0.0227872 37.1671 0.0184128 37.0833C1.23441 34.5742 2.94062 32.3285 5.03862 30.4758C7.89312 27.9224 11.0814 25.7603 14.5178 24.0475C14.5532 24.0294 14.5925 24.02 14.6324 24.02C14.6722 24.02 14.7115 24.0294 14.7469 24.0475C20.3969 27.2526 25.2109 32.5544 27.2195 38.7538C27.4637 39.5094 27.7019 40.2717 27.934 41.0409C27.9378 41.0508 27.9445 41.0593 27.9533 41.0653C27.9621 41.0713 27.9726 41.0745 27.9832 41.0745C27.9939 41.0745 28.0044 41.0713 28.0132 41.0653C28.0219 41.0593 28.0287 41.0508 28.0325 41.0409C28.2936 40.1818 28.5959 39.1528 28.8318 38.4886C30.8586 32.6206 34.8314 27.6038 40.1043 24.2538C40.13 24.2388 40.1592 24.2309 40.189 24.2309C40.2188 24.2309 40.2481 24.2388 40.2738 24.2538C43.2262 25.6926 45.9668 27.5228 48.4201 29.6938C50.7351 31.7452 52.5971 34.3723 54.0561 37.1059C54.0881 37.1649 54.0701 37.2011 54.0041 37.2147C49.3731 38.1781 44.6687 39.962 40.67 42.5211C40.3752 42.7289 40.1102 42.9751 39.8821 43.2532C38.1171 45.3023 36.2972 47.3046 34.4222 49.26C32.0289 51.7533 28.7585 53.9724 25.2407 52.2361C23.9178 51.558 22.7075 50.6835 21.6519 49.643M13.2697 36.6299C14.2418 36.7627 15.2037 36.9611 16.1485 37.2238C18.797 38.0059 21.0348 39.7761 22.3894 42.1607C22.3975 42.1758 22.4106 42.1879 22.4265 42.1948C22.4423 42.2018 22.4601 42.2033 22.477 42.1992C22.4938 42.195 22.5088 42.1854 22.5194 42.1718C22.5301 42.1583 22.5359 42.1416 22.5359 42.1244C22.6367 38.9692 21.7344 35.7776 18.2143 34.9616C16.7027 34.6103 13.8628 34.735 13.2033 36.5234C13.199 36.5348 13.1975 36.5471 13.1987 36.5592C13.1999 36.5714 13.2038 36.5831 13.2102 36.5935C13.2165 36.604 13.2252 36.6129 13.2355 36.6195C13.2458 36.6262 13.2575 36.6306 13.2697 36.6322M42.1563 36.5121C41.9937 35.7391 41.1417 35.2518 40.4249 35.0568C38.3637 34.4924 36.1261 34.9344 34.6238 36.4463C33.1214 37.9582 32.8946 40.1546 33 42.1833C33.0012 42.1932 33.0055 42.2025 33.0124 42.2098C33.0192 42.2171 33.0282 42.2222 33.0381 42.2242C33.0479 42.2262 33.0582 42.2251 33.0674 42.221C33.0766 42.2169 33.0842 42.2101 33.0893 42.2015C34.9215 38.8762 38.2629 36.9699 42.0418 36.6617C42.0596 36.6601 42.0768 36.6548 42.0924 36.6462C42.108 36.6377 42.1217 36.626 42.1325 36.6119C42.1432 36.5978 42.1509 36.5817 42.155 36.5645C42.1591 36.5473 42.1596 36.5294 42.1563 36.5121ZM25.6506 48.6593C28.9669 51.3589 33.4786 46.583 29.6059 45.6106C28.2821 45.2554 26.8753 45.361 25.6209 45.9098C24.2903 46.4901 24.7987 47.9679 25.6506 48.6593Z" fill="#FDFAFA"/>
<path d="M46.9155 67.7884C46.9145 67.7964 46.9159 67.8054 46.9198 67.8134C46.9236 67.8214 46.9296 67.8274 46.9371 67.8324C46.9445 67.8364 46.9532 67.8394 46.9619 67.8394C46.9707 67.8384 46.9792 67.8364 46.9865 67.8314C51.6792 65.0554 55.5552 61.1111 58.2292 56.3913C58.4442 56.015 58.5982 55.5435 58.8022 55.1333C58.8072 55.1241 58.8152 55.1168 58.8242 55.1124C58.8342 55.108 58.8452 55.1067 58.8552 55.1087C58.8662 55.1108 58.8752 55.116 58.8822 55.1236C58.8902 55.1313 58.8942 55.141 58.8962 55.1514C59.1932 59.0569 57.6612 62.729 55.6622 66.0184C55.6462 66.0444 55.6392 66.0734 55.6392 66.1044V66.1744C55.6392 66.1894 55.6432 66.2034 55.6512 66.2164C55.6592 66.2284 55.6702 66.2384 55.6832 66.2454C55.6962 66.2514 55.7112 66.2544 55.7262 66.2534C55.7412 66.2524 55.7552 66.2464 55.7672 66.2374C60.8332 62.4456 65.1272 57.1279 67.0012 51.0509C67.0032 51.044 67.0082 51.038 67.0142 51.0338C67.0202 51.0296 67.0272 51.0273 67.0352 51.0273C67.0422 51.0273 67.0502 51.0296 67.0562 51.0338C67.0622 51.038 67.0672 51.044 67.0692 51.0509C69.0712 56.8083 69.4492 63.2184 68.5142 69.1684C67.6742 74.5244 64.4472 78.6724 59.4112 80.7654C58.3612 81.2134 57.2392 81.4734 56.0972 81.5334C54.0112 81.6304 51.9252 81.6684 49.8382 81.6494C48.1642 81.6364 46.4999 81.3984 44.891 80.9414C44.8209 80.9234 44.7466 80.9284 44.6803 80.9574C43.0771 81.6924 41.5335 81.8894 39.6669 81.9684C35.2376 82.1614 28.2479 81.2434 28.3097 75.2524C28.3715 69.1324 32.5604 64.2314 38.0042 61.8109C38.0096 61.8063 38.0166 61.8038 38.0237 61.8038C38.0309 61.8038 38.0378 61.8063 38.0432 61.8109C38.048 61.8167 38.0507 61.8239 38.0507 61.8313C38.0507 61.8388 38.048 61.846 38.0432 61.8517C34.0857 64.6764 31.2801 69.3504 31.2893 74.2664C31.2893 75.9434 31.9214 78.5734 34.3353 77.2564C34.7486 77.0284 35.1376 76.7604 35.4964 76.4564C38.0671 74.3074 40.0905 71.5894 41.4029 68.5224C43.6359 63.2574 42.429 57.0078 39.6532 52.1389C39.6406 52.1177 39.6342 52.0933 39.6349 52.0687C39.6349 52.0392 39.6349 52.0165 39.6349 51.9961C39.6354 51.9895 39.6378 51.9832 39.6419 51.978C39.646 51.9727 39.6516 51.9688 39.6579 51.9666C39.6642 51.9645 39.6711 51.9642 39.6775 51.9658C39.684 51.9674 39.6899 51.9709 39.6944 51.9757C41.9748 54.5514 43.8776 57.4319 45.3467 60.5325C46.4575 62.8672 47.0342 65.1884 46.9132 67.7864M44.9024 65.0324C44.8222 65.0134 44.7787 65.0324 44.7719 65.1224C44.4764 68.2964 43.6268 71.3514 41.7762 74.0124C41.7711 74.0204 41.7677 74.0294 41.7663 74.0384C41.7649 74.0474 41.7655 74.0574 41.7681 74.0664C41.7707 74.0754 41.7753 74.0834 41.7814 74.0904C41.7875 74.0984 41.7952 74.1034 41.8037 74.1074C41.8234 74.1174 41.8449 74.1224 41.8667 74.1224C41.8885 74.1224 41.9101 74.1174 41.9297 74.1074C45.6925 72.5484 47.1242 68.6564 44.9849 65.0954C44.966 65.0664 44.9365 65.0454 44.9024 65.0364V65.0324Z" fill="#FDFAFA"/>
<path d="M13.3934 76.512C10.2695 74.182 8.73274 70.166 8.91144 66.423C9.17934 60.8155 13.0842 55.2439 16.8745 51.1911C16.8838 51.1825 16.8961 51.1777 16.9089 51.1777C16.9216 51.1777 16.9339 51.1825 16.9432 51.1911C16.9543 51.1981 16.9623 51.209 16.9657 51.2216C16.9691 51.2341 16.9676 51.2475 16.9615 51.2591C14.614 55.7517 13.1827 61.0512 14.5316 66.029C15.5187 69.656 17.8708 73.4 20.5618 76.086C21.1564 76.673 21.8337 77.172 22.5726 77.566C24.5078 78.62 25.0552 76.481 25.117 75.132C25.3644 69.674 22.4123 64.728 18.0173 61.5907C18.0154 61.5894 18.0139 61.5878 18.0128 61.5858C18.0117 61.5838 18.0112 61.5816 18.0112 61.5793C18.0112 61.5771 18.0117 61.5749 18.0128 61.5729C18.0139 61.5709 18.0154 61.5693 18.0173 61.568C18.0206 61.5654 18.0246 61.564 18.0288 61.564C18.0329 61.564 18.037 61.5654 18.0402 61.568C23.878 64.114 27.721 69.359 27.4989 75.798C27.3935 78.804 25.1628 81.692 21.9451 81.66C17.8662 81.626 13.9155 81.633 9.89624 81.685C9.37974 81.692 8.86364 81.651 8.35494 81.563C6.73114 81.281 8.05944 79.797 8.64574 79.341C10.0578 78.238 11.6601 77.397 13.375 76.859C13.4193 76.845 13.4576 76.817 13.4837 76.78C13.5099 76.742 13.5225 76.696 13.5193 76.651C13.5193 76.619 13.4758 76.574 13.3934 76.512ZM10.7642 68.867C11.4673 72.677 14.7079 75.832 17.6784 78.221C17.7196 78.256 17.7517 78.261 17.7746 78.235C17.7925 78.213 17.8038 78.187 17.807 78.16C17.8103 78.132 17.8054 78.104 17.7929 78.079C16.5394 75.797 15.3416 73.48 14.1995 71.129C13.1025 68.908 12.2643 66.795 11.9093 64.467C11.9 64.358 11.8629 64.254 11.8016 64.163C11.7886 64.145 11.7709 64.13 11.7503 64.12C11.7297 64.11 11.7069 64.105 11.684 64.106C11.661 64.107 11.6388 64.114 11.6193 64.126C11.5999 64.138 11.5838 64.155 11.5726 64.175C10.7277 65.587 10.4398 67.258 10.7642 68.867Z" fill="#FDFAFA"/>
</svg>
