<svg width="1082" height="1082" viewBox="0 0 1082 1082" fill="none" xmlns="http://www.w3.org/2000/svg">
<rect x="1.34998" y="1.34961" width="1080" height="1080" rx="540" fill="#2D2D2D"/>
<path d="M836.187 674.829C842.734 672.539 847.118 666.36 847.118 659.424L847.118 299.249C847.118 285.681 831.523 278.037 820.799 286.349L548.491 497.41L548.491 857.522C548.491 872.771 567.545 879.69 577.33 867.994L698.689 722.935L836.187 674.829Z" fill="white"/>
<path d="M244.687 674.734C238.034 672.506 233.55 666.275 233.55 659.258L233.55 299.248C233.55 285.68 249.144 278.036 259.869 286.348L532.177 497.409L532.177 855.925C532.177 871.354 512.746 878.168 503.11 866.119L388.598 722.934L244.687 674.734Z" fill="#9565FF"/>
</svg>
