<svg id="Слой_1" data-name="Слой 1" xmlns="http://www.w3.org/2000/svg" xmlns:xlink="http://www.w3.org/1999/xlink" viewBox="0 0 499.23 519.24"><defs><style>.cls-1,.cls-24,.cls-26,.cls-29,.cls-3,.cls-33{fill:none;}.cls-1{clip-rule:evenodd;}.cls-2{fill:#1a1a18;}.cls-14,.cls-19,.cls-2,.cls-20,.cls-21,.cls-22,.cls-23,.cls-25,.cls-32,.cls-4,.cls-5{fill-rule:evenodd;}.cls-29,.cls-3,.cls-33{stroke:#1a1a18;}.cls-24,.cls-26,.cls-29,.cls-3,.cls-33{stroke-miterlimit:22.93;}.cls-3{stroke-width:0.22px;}.cls-4{fill:#e2000f;}.cls-5{fill:#ffd040;}.cls-6{clip-path:url(#clip-path);}.cls-7{fill:url(#Безымянный_градиент);}.cls-8{clip-path:url(#clip-path-2);}.cls-9{fill:url(#Безымянный_градиент_2);}.cls-10{clip-path:url(#clip-path-3);}.cls-11{fill:url(#Безымянный_градиент_3);}.cls-12{clip-path:url(#clip-path-4);}.cls-13{fill:url(#Безымянный_градиент_4);}.cls-14{fill:#f8f8f1;}.cls-15{clip-path:url(#clip-path-5);}.cls-16{fill:url(#Безымянный_градиент_5);}.cls-17{clip-path:url(#clip-path-6);}.cls-18{fill:url(#Безымянный_градиент_6);}.cls-19{fill:#d2d2d2;}.cls-20{fill:#878787;}.cls-21{fill:#e9dccf;}.cls-22{fill:#979696;}.cls-23{fill:#fff;}.cls-24{stroke:#fff;}.cls-24,.cls-26,.cls-29{stroke-width:0.57px;}.cls-25{fill:#5c0501;}.cls-26{stroke:#5c0501;}.cls-27{clip-path:url(#clip-path-7);}.cls-28{fill:url(#Безымянный_градиент_7);}.cls-30{clip-path:url(#clip-path-8);}.cls-31{fill:url(#Безымянный_градиент_8);}.cls-32{fill:#ecb24d;}.cls-33{stroke-width:0.71px;}.cls-34{clip-path:url(#clip-path-9);}.cls-35{fill:url(#Безымянный_градиент_9);}</style><clipPath id="clip-path" transform="translate(-97.95 -1.98)"><path class="cls-1" d="M180.31,456.65c0,5.23.23,14.19,3.63,18.5.09.11.7.56.77.64,5.81-4.82,9.81-19.89,18.33-29,0,7.85-7.06,5-10.32,27-1.09,7.39,1.78,14.67,3.47,22.4.36,1.69,1.72,6.27,3.62,7.13,2-19.26,2.19-25.37,8.61-44,1-3,9.4-17.92,11.63-19.64-.58,2.58-1.85,4.49-2.5,7.8-.9,4.6-3.86,23.84-2.38,26.9.35-1,.72-3.22,1.11-4.57.5-1.74.71-3.19,1.32-4.8,1.08-2.88,2.43-5.71,3.25-8.12,7.19-21.19,23.33-38.71,25.53-45a23.29,23.29,0,0,0,3.69-5c1.09-2,2.12-3,3-4.64-2.72,6-3.68,3.86-5.06,15.54a104.12,104.12,0,0,0-1,18.62c.69-1.34,1.81-6.72,2.48-9.08,1.57-5.54,8.85-20.52,12.31-22.3,0,5,0,10.09,1,14.13.5,2,2.35,9.21,3.61,10.2.41-2.49.09-4.13.69-6.27,1.79-6.35,2.83-3.84,3.39-16.25.36,6,.14,17.16,2.67,20.71.53-4.48,2.46-5.77,2-10.39-.29-2.94-1.26-8.46.56-10.86.6,1,1.23,12.51,1.75,15.14.74,3.67,3.14,9.39,6,10.94-.83-7.22-1.32-5.53-1-14.28.22-5.62,2.21-9.73,2.09-12l-12.11-9.74a194.25,194.25,0,0,0-41.77-23.8c-19-7.78-44.77-17.13-65.09-19-1.62-.14-1.65,2.42-2.07,4l-4.7,22.72a39.54,39.54,0,0,0-1.24,12.31c.14,3.3.76,3.1,2,5a11.91,11.91,0,0,0,5.68-1.45c2.72-1.18,1.6-1.08.62,3.22-.85,3.71-1.78,8.84-1.38,12.3.69,5.93-3.36,19.3,4.08,15.48,1.69-.87,2.49-2.49,4.51-3-.45,1.14-6.27,39.06.27,37.81.83-3.32,4.56-4.66,6.91-5.28"/></clipPath><linearGradient id="Безымянный_градиент" x1="108.74" y1="445.06" x2="182.03" y2="349.94" gradientUnits="userSpaceOnUse"><stop offset="0" stop-color="#f34402"/><stop offset="1" stop-color="#ffec00"/></linearGradient><clipPath id="clip-path-2" transform="translate(-97.95 -1.98)"><path class="cls-1" d="M303,211.71c-5.5-1.4-3.4-.1-6.07-5-1-1.77-1.45-1.94-2.16-3.27,4.87.23,5.95,5.17,9.41,5.39a36.45,36.45,0,0,0-8.38-11.92c-3.63-3.56-4.19-4-9-5.87l-3.36-1.6c2.93-2.15,11.33,1.53,14.75,4l1.42,1.13c1.51,1.23,2.45,2.56,4.23,3.53-.26-2.62-5.22-8.5-7.55-10.64-1.36-1.25-2.09-1.55-3.33-2.57-.89-.6-.79-.21-1.08-1.31,3.77,1.14,9.06,4.49,10.57,7.56.1-1.57-1.67-3-3.11-4.27a36.37,36.37,0,0,0-4-3.53c-4.08-2.93-6.57-3.36-11.6-1.49a42.72,42.72,0,0,1,11.52,6.58c1.51,1.37.47-.2,1.19,1.56-2-.4-2.53-1.05-4.44-1.67-1.33-.43-3.8-1-4.88-1.23-4.12-.77-7.25.43-11.07.6l-1.17.55c5.75.24,17.66,5.35,21.35,10.23,1.5,2,3.3,3.79,4.22,5.66-3.1-1-5-4.9-9.49-4.55.08,2.63,2.54,3.21,2.78,5.85-1.31-.93-3.2-3.67-4.8-5.14-1-.92-1.69-1.19-2.79-2.23s-1-1.42-3-1.64c-.34,4.65,2.4,2.49,1.27,9,0,.07-.07.4-.08.33s0,.23-.09.33c-3.68-.56-12.33-5-15.6-6.55-6.08-2.95-10.65-4.45-13.14-8.9-1.61-2.9-6.48-12-6.17-15.65a5.62,5.62,0,0,1,1.75-3.7c2.71-2.94,2.47-4.85,5.29-5.58,3.27-.85,1.49.86,3.35-2,2.53.69,7.16,8.27,8.4,12.15.69,2.16.66,4.17,2.11,5.13.36-.61.06.51.42-1.17,1.27-6-.87-11.3-3.95-15.91-6.42-9.61-2.76-8-.61-15.22-.12-.06-1.48.3-1.83.23-2.9-.63-1.25-6.8-.76-8.93-3.08.09-3.56,3.87-4.79,6.24-10.28,1.32,0-14.78.53-17.89-3.34.22-2.22,2.57-6,9.38-1.75-.83-4.35-3.77-4.36-5.89,0-2.7,6.73-16.88,11.72-18.61,6.81-2.35,9.74-2.68,17.29-.49a36.65,36.65,0,0,1,7.07,2.83l4.72,2.79c.49.27,1.22.67,1.57.88,2.88,1.23,7.64,6.19,9.77,8.88a29,29,0,0,1,4,5.45c5.12,10,10.09,20,15.93,29.71,4.84,8.09,10.33,13.2,15.85,21.11,4,5.75,16.29,18.38,17,19.53-1.69,1.9-3.07,2.72-5.16,4.78-4.59,4.52-2.29,2.79-4.27,5.13-17.11.63-24.95-.41-41.32-2.11"/></clipPath><linearGradient id="Безымянный_градиент_2" x1="255.59" y1="198.35" x2="132.88" y2="109.86" gradientUnits="userSpaceOnUse"><stop offset="0" stop-color="#e2000f"/><stop offset="1" stop-color="#ffec00"/></linearGradient><clipPath id="clip-path-3" transform="translate(-97.95 -1.98)"><path class="cls-1" d="M355.62,438.63c1,.36,3.81,2.67,5.18,3.53,1.6,1,3.75,2.29,5.78,3.41,5.57,2.58,12.57,4.47,18.81,2.67,4.92-1.42,11.14-5.58,11.48-11.06-11,0-14.87-4.6-19.66-5.17a26.76,26.76,0,0,1-3.16,5.88c-.68,1-3.21,4.36-2.73,5.25-.3-1.73,4.18-8.12,4.7-12.7-5.74-2.76-9.22-10.92-11.21-12.6-1.07.46-5.63,7.67-6.18,8.61-2,3.35-5,6.5-5.69,10.14a15.48,15.48,0,0,1,2.68,2M335.9,418.34l12.4,13.29c4.33,6,4.47,1.08,9.3-6.71,4.62-7.82,7-9.13,5-13.19-.78-1.57-7.79-11-8.81-11-2.2.75-7.88,6.64-9.06,7.81l-8.92,8Zm71.72-59.24s0-1,0-1.71c0-.32,0-.58,0-.75s0-.18,0-.17c-2.14.51-11.31-3.05-12.21-3.27-18-4.3-36.2,2.19-50.44,12.59-3.06,2.24-12.77,9.72-14.41,12.7-1.44,1-11.43,11.51-12.17,13.6,1.66,1.71,3.33,2.82,5.08,4.8,2.4,2.72,8.82,14.17,10.67,18.56,1.73.16,2.64-1.46,3.81-2.66,1-1.05,2.37-2.37,3.26-3.26,4.63-4.64,9.26-7.15,10.29-9.69.61-1.48-.48-2.8-2.48-5-.81-1.38-1.54-3.06-2.34-4.71-2.42-5-6.41-18.93-.72-22.89,1.46-1,2.83-1.72,4.35-2.61,10.37-6.06,15.15-6.85,29.52-5.61,4.74.41,8.81.4,13.24,1.27,5.5,1.09,7.84.68,12.22-.53C406.67,359.55,407.62,360.14,407.62,359.1Z"/></clipPath><linearGradient id="Безымянный_градиент_3" x1="229.88" y1="452.95" x2="281.27" y2="372.02" gradientUnits="userSpaceOnUse"><stop offset="0" stop-color="#ffec00"/><stop offset="1" stop-color="#e74c0a"/></linearGradient><clipPath id="clip-path-4" transform="translate(-97.95 -1.98)"><path class="cls-1" d="M408.85,359.45c.67.67,3.79.37,8.25,1.47,5.44,1.33,8.64,4.79,15.56,8,7.51,3.49,17,6.66,25.18,6.84,9.22.2,17.12-.37,23.39-5.32,4.07-3.2,7.5-9.56,10.22-14.15,7.42-12.52,12.3-29.49-2.37-47.44-10.64-34.61,1.88-35.4-37.36-43.5a12.28,12.28,0,0,0-4.4-1.73c-1.72-.48-3.2-.91-5.12-1.53-5.8-1.85-26.36-7.25-30.84-7.68l-23.19-6.74c-.14,7.5,1.72,22.44,4,28.53-4.38,1.27-11.23,1.49-15.94,2.24-13.88,2.23-15.67,2.71-28.93,6.94-3.67,1.17-11.57,2.94-13,5.61,3.07,2.62,9,2.85,8.5,8.58-1,2.1-23.74,10.22-26.19,11.34l-19,9.41c-1.42.82-5.31,3-5.72,3.61l1.06-.35.37-.11.38-.11,16.15-4.69c12.67-3.73,25.81-6.08,39.2-8.11,5.16-.78,16.09-2.06,19.09-4.56-.63-3.19-8.73-7.07-11.74-9.09-2-1.37-2.38-2.21-2.8-4.92a13.14,13.14,0,0,1,6-3.23,113.49,113.49,0,0,1,24.31-3.2c2.86,0,5.4-1,8.49-.64s3.55,1.61,5,4.05c5.47,9.21,3.07,4.59,10.3,8l-4.37-.24c.19,2.65,6.85,9.09,9.19,10.67,1.86,1.25,4.06,2.64,6.09,3.9s5,1.6,6.32,3.69c-1.64,5.37-12.95,7.9-16.15,28.53-.33,2.14-.66,4-1.05,6.26l0,6.48c0,.26-.3,3.07,0,3.32l2.11.4"/></clipPath><linearGradient id="Безымянный_градиент_4" x1="284.79" y1="265.22" x2="325.38" y2="385.45" xlink:href="#Безымянный_градиент"/><clipPath id="clip-path-5" transform="translate(-97.95 -1.98)"><path class="cls-1" d="M301.37,418.47c5.51-1.82,3.9-4.11,6.51-4,.05,1.63-1.57,3.47-.62,5.3,3.64-4.13,6.19-8.27,15.46-7.12,2.48.3,3.77,1.37,6.54,1.41-.15-1.65-8.53-17.84-13-19.07-2.22,2.05-14.42,19.76-14.9,23.46"/></clipPath><linearGradient id="Безымянный_градиент_5" x1="215.24" y1="409.09" x2="226.14" y2="390.33" xlink:href="#Безымянный_градиент"/><clipPath id="clip-path-6" transform="translate(-97.95 -1.98)"><path class="cls-1" d="M289.24,432.45c1.33-2.22.07-6.83.59-9.7a14.65,14.65,0,0,1,1.56-4c1.18-2.56.61-2.52,3.41-2.28-1.17,3.43-2.75,7-2.85,11.13,3.5-1.93,5.36-5.52,5.48-9.7-3-2-5.84-6.82-9.19-8.05a10.4,10.4,0,0,0-1.76,4.92c-.6,4.75.17,14.37,2.76,17.72"/></clipPath><linearGradient id="Безымянный_градиент_6" x1="191.68" y1="420.68" x2="202.7" y2="412.38" xlink:href="#Безымянный_градиент"/><clipPath id="clip-path-7" transform="translate(-97.95 -1.98)"><path class="cls-1" d="M443.85,284.81a32.82,32.82,0,0,1,3.58-.81c1-.17,1.34-.14,2.06,1.09a18,18,0,0,1,2.09,7.77,52,52,0,0,1-1.19,13.88c-1,4.12-2.4,6.69-3.79,8.15a5.94,5.94,0,0,1-4,1.94,6.93,6.93,0,0,1-3.31-.36,2.65,2.65,0,0,1-1.47-1.57c-.2-.58-.16-1.12.9-2.65a50.3,50.3,0,0,0,4.55-7,28.89,28.89,0,0,0,2.46-8.72,10,10,0,0,0-.45-5.32,19.07,19.07,0,0,0-2.19-3.54,5.47,5.47,0,0,1-1-1.9c0-.31.31-.28.54-.36a5.94,5.94,0,0,1,1.29-.57"/></clipPath><linearGradient id="Безымянный_градиент_7" x1="347.22" y1="285.69" x2="346.49" y2="306.63" gradientUnits="userSpaceOnUse"><stop offset="0" stop-color="#a9bba3"/><stop offset="1" stop-color="#6d906e"/></linearGradient><clipPath id="clip-path-8" transform="translate(-97.95 -1.98)"><path class="cls-1" d="M409.07,363.82a150.71,150.71,0,0,1,2.4,16.62,68.92,68.92,0,0,1-.81,19.65c-1.32,6.16-3.9,11.64-4.82,14.16s-.15,2.08.27,2.37.51,1.31.2,2.56A18.71,18.71,0,0,1,404.7,423a6.11,6.11,0,0,0-1,2.76c0,1,.38,2.17.4,3.5a6.59,6.59,0,0,1-1.13,3.9,8.64,8.64,0,0,1-3.48,2.5,9.82,9.82,0,0,1-6.38.77,35.4,35.4,0,0,1-12.92-5.29,48.81,48.81,0,0,1-12.33-11.71,31.61,31.61,0,0,1-4.49-9.88,21.29,21.29,0,0,0-3.05-6.47c-1.61-2.36-4.15-5.48-6.49-8.34a41.18,41.18,0,0,1-6.15-9,38.52,38.52,0,0,1-3.17-11.15c-.29-3,.33-4.31,2.43-6.09a50.72,50.72,0,0,1,8.79-5.6,31.34,31.34,0,0,1,9.74-3.19,85.08,85.08,0,0,1,15.34-1c6.18.12,13.32.74,17.34,1a37.2,37.2,0,0,0,6.05,0,12.87,12.87,0,0,1,3.18.11c.78.18,1,.54,1.73,4"/></clipPath><linearGradient id="Безымянный_градиент_8" x1="278.65" y1="386.98" x2="287.09" y2="436.67" gradientUnits="userSpaceOnUse"><stop offset="0" stop-color="#1a1a18"/><stop offset="1" stop-color="#e74c0a"/></linearGradient><clipPath id="clip-path-9" transform="translate(-97.95 -1.98)"><path class="cls-1" d="M496.66,338a10,10,0,0,0-3.83-.37,31.93,31.93,0,0,0-6.06,1c-1.82.5-3,1.12-3.19,2.34A5.73,5.73,0,0,0,485.4,345a6.1,6.1,0,0,0,3.22,1.51,11.36,11.36,0,0,1,2,.55c.42.18.61.37.48.75a4.42,4.42,0,0,1-.94,1.32,2.43,2.43,0,0,1-.89.66,2.18,2.18,0,0,1-1.18.08c-.58-.08-1.44-.29-1.58.16s.45,1.56.8,2.53a10,10,0,0,1,.53,2.47c.07.67.11,1.17.35,1s.69-1,2.07-2.46,3.69-3.39,5.17-5.26a12.16,12.16,0,0,0,2.43-5.18,9.52,9.52,0,0,0,.11-3.68,1.72,1.72,0,0,0-1.29-1.48"/></clipPath><linearGradient id="Безымянный_градиент_9" x1="390.92" y1="347.63" x2="399.74" y2="335.03" gradientUnits="userSpaceOnUse"><stop offset="0" stop-color="#f34402"/><stop offset="1" stop-color="#ee7f1a"/></linearGradient></defs><path class="cls-2" d="M353.73,434.17c1.22-2.67,3.39-5.13,4.9-7.72.55-.94,5.11-8.15,6.18-8.61,2,1.68,5.47,9.84,11.21,12.6-.52,4.58-5,11-4.7,12.7-.48-.89,2.05-4.22,2.73-5.25a26.76,26.76,0,0,0,3.16-5.88c4.79.57,8.69,5.19,19.66,5.17-.34,5.48-6.56,9.64-11.48,11.06-6.24,1.8-13.24-.09-18.81-2.67Zm-1.15-.54c-1.08.43-.44,1.93-4.28-2l-12.4-13.29-.08-1.76,8.92-8c1.18-1.17,6.86-7.06,9.06-7.81,1,0,8,9.43,8.81,11,2,4.06-.39,5.37-5,13.19C356,427.64,353.52,430.64,352.58,433.63Zm14,11.94c-2-1.12-4.18-2.4-5.78-3.41-1.37-.86-4.21-3.17-5.18-3.53a13.45,13.45,0,0,0-2.21-1.73Zm-201-92c4.34.08,28.63,6.16,32.7,7.37,11.07,3.3,22,7.36,32.39,11.59a194.25,194.25,0,0,1,41.77,23.8l12.11,9.74c.12,2.25-1.87,6.36-2.09,12-.32,8.75.17,7.06,1,14.28-2.87-1.55-5.27-7.27-6-10.94-.52-2.63-1.15-14.09-1.75-15.14-1.82,2.4-.85,7.92-.56,10.86.45,4.62-1.48,5.91-2,10.39-2.53-3.55-2.31-14.74-2.67-20.71-.56,12.41-1.6,9.9-3.39,16.25-.6,2.14-.28,3.78-.69,6.27-1.26-1-3.11-8.19-3.61-10.2-1-4-1-9.15-1-14.13-3.46,1.78-10.74,16.76-12.31,22.3-.67,2.36-1.79,7.74-2.48,9.08a104.12,104.12,0,0,1,1-18.62c1.38-11.68,2.34-9.51,5.06-15.54-.87,1.61-1.9,2.65-3,4.64a23.29,23.29,0,0,1-3.69,5c-2.2,6.3-18.34,23.82-25.53,45-.82,2.41-2.17,5.24-3.25,8.12-.61,1.61-.82,3.06-1.32,4.8-.39,1.35-.76,3.61-1.11,4.57-1.48-3.06,1.48-22.3,2.38-26.9.65-3.31,1.92-5.22,2.5-7.8-2.23,1.72-10.61,16.67-11.63,19.64-6.42,18.64-6.57,24.75-8.61,44-4-3.84-7.67-26.58-7.09-29.53,3.26-22,10.28-19.17,10.32-27-4.91,5.12-13.6,20-16.69,27.08-1.84,1.7-1.69,2.1-3.07-.34-2.73-4.71-.78-15.25-3-16.87,0,9.13-1.69,13.34,2.43,21.66.5,1,3.2,3.35,3.17,1.58,0-1.55,2.3-4.88,3.24-6.22.84,1.81-.16,3.77.11,6.36,2.13,11.35,2.09,13.07,6.14,23.92,2.26,5.74,4.34,10.94,6.26,16.76,3.92,0,3.17-39.43,7-49.3.7-2.49,1-5.5,2.54-7.75,0,12.68.6,18.71,3,30,.07-.1.16-.39.19-.32,1.26-4.77,5.32-24.1,6.67-27.8,5.82-17.23,11.9-26.56,21.49-41.55l2.31-2.85c-.59,11.93-.18,16.48,1.37,28.48,1.72-.46,1.32,0,1.47-1.89-.14-9.81,5.63-25.28,11.54-34.15,2,7.77.32,5,6.5,19.3,1.35,1.81,4.3,6,6.52,6.23-2.36-4-2.56-5.91-4-10.62-.29-1.6-.33-4.83,1.22-3.24.13.13,2.73,8.5,7.74,11.85.44-2.07-3.12-6.05-1.5-13l.86,2.09c0,.05.06.18.07.23,3.32,9,10.79,17.7,18.09,17.7-5.3-10-3-10.85,3-18a31.85,31.85,0,0,1,4.07-3.43c.89-.66.23.18,1.43-1.08-.07,3-.77,6.07.56,9.17.43,1-.26.83,1.94,1.34,0-5.17,1.63-9.93,5.58-13,8.56-5.49,12-2.6,17.59-1.24l2.35,1.71c-1.31,1.95-3.84,3-4.5,5.5,1.4-1,4.92-3.06,5.5-4.5,1.67.88,14,15,16.33,17.5.55.75.86.21-.2,2.09-2,3.49-4.09,6.93-6.05,10.5-.87,1.64-1.88,2.72-2.07,4.94,1.28-.93,1.19-1.29,2.14-2.86l.2-.31c2.84-4.38,5.6-8.61,8.67-12.84,1.34,5,23.11,11.75,28.66,11.86,11.74.22,13.62-4.09,20.06-12.21,1.29-3.56-.62-1.66,1.46-5.51,5.73-19.79,7.42-63.1,7.26-70.64-3.29-.67,2.88.6-2.17-1.28a.77.77,0,0,1,0-.37l1.32-3-2.58,1.29c-4.38,1.21-6.72,1.62-12.22.53-4.43-.87-8.5-.86-13.24-1.27-14.37-1.24-19.15-.45-29.52,5.61-1.52.89-2.89,1.59-4.35,2.61-5.69,4-1.7,17.88.72,22.89.8,1.65,1.53,3.33,2.34,4.71,1.59,2.69,5.61,4.5-1.24,8.14-.85,1.29-5.49,5.48-6.57,6.55-.89.89-2.25,2.21-3.26,3.26-1.17,1.2-2.08,2.82-3.81,2.66-1.85-4.39-8.27-15.84-10.67-18.56-1.75-2-3.42-3.09-5.08-4.8.74-2.09,10.73-12.61,12.17-13.6,1.64-3,11.35-10.46,14.41-12.7,14.24-10.4,34.19-16.5,52.19-12.2,3.16.75,6.56,2.94,10.52,2.7.32-1.58-.49-3.65,0-6.48.39-2.29.72-4.12,1.05-6.26,3.2-20.63,14.51-23.16,16.15-28.53-1.33-2.09-4.18-2.37-6.32-3.69s-4.23-2.65-6.09-3.9c-2.34-1.58-9-8-9.19-10.67l4.37.24c-7.23-3.43-4.83,1.19-10.3-8-1.46-2.44-2-3.68-5-4.05s-5.63.62-8.49.64a113.49,113.49,0,0,0-24.31,3.2,13.14,13.14,0,0,0-6,3.23c.42,2.71.77,3.55,2.8,4.92,3,2,11.11,5.9,11.74,9.09-3,2.5-13.93,3.78-19.09,4.56-13.39,2-26.53,4.38-39.2,8.11l-16.15,4.69-.38.11-.37.11-1.06.35c.41-.57,4.3-2.79,5.72-3.61l19-9.41c2.45-1.12,25.22-9.24,26.19-11.34.45-5.73-5.43-6-8.5-8.58,1.41-2.67,9.31-4.44,13-5.61,13.26-4.23,15.05-4.71,28.93-6.94,4.71-.75,11.56-1,15.94-2.24-2.24-6.09-4.1-21-4-28.53C507.72,282.45,498,340.77,498.44,340c7.22,4.84-6.46,42,9.35,20.43,2.33-3.18,9.11-15.77,9.35-19.85,3.74-62.38-57.13-195-69.78-200-3.09,4.62-4.09,26.55-7,32.79l-4.54-5c-1.24-1.53-4.14-4-6-4.54l.41-3.37,0-.27c3.65-8.6,5.55-13.08,10.06-21a7.63,7.63,0,0,1,1.08-1.26c3.5-3.56,7.27-6.75,10.43-10.64l1.74-2c3.25-2.58-1.15-4.24-1.75-6.5,1.84-2.76,5.38-5.71,8.26-7.75a7.33,7.33,0,0,0,.89-.61c.35-.28.59-.6,1-1C490.92,89.39,517.62,79.72,555,79.81c.6,0,39.45,2.92,40.06,2.73l.28-.1a2.24,2.24,0,0,0,.27-.13l.53-.39c1.31-1.28.86-.25.91-2.62-2.31-.84-4.76-5-6.79-6.72-24.32-20.52-41-34.21-71.7-49C508,19.21,489.22,39.35,479.35,45.7l-3,3c-.06.07-.19.22-.23.28l-.23.27c-.65-3.08,16.9-23.09,20-26.57,1.64-2,4.33-3.78,4.55-6.46-2.56,0-5.09-1.15-7.44-2.07-5.59-2.19-9.76-2.54-16.31-4.58L463.24,6.51C340.32-10.63,207,19.8,136.52,136.93c0,.07-.09.21-.13.28-6.54,12.08-10.5,22.53-15.18,35.28-.5,1.14,0-.16-.45,1.17-16.24,61.38,21.38,135.85,1.89,144.42-2.94,1.3-1.87,1.47-2.57,4.45,17.49-8.39,20-7.33,36-22.6,9-11.16,15.54-47,24.81-48.69,1-.18,3.38-.36,4.27.67,7.51,8.69,16.11,4.85,26,7.42C224,320.19,100.25,318.26,98.06,344.55c2.29,0,3.17.35,4.59.42C121.45,346,146.61,350.73,165.61,353.61Z" transform="translate(-97.95 -1.98)"/><path class="cls-3" d="M353.73,434.17c1.22-2.67,3.39-5.13,4.9-7.72.55-.94,5.11-8.15,6.18-8.61,2,1.68,5.47,9.84,11.21,12.6-.52,4.58-5,11-4.7,12.7-.48-.89,2.05-4.22,2.73-5.25a26.76,26.76,0,0,0,3.16-5.88c4.79.57,8.69,5.19,19.66,5.17-.34,5.48-6.56,9.64-11.48,11.06-6.24,1.8-13.24-.09-18.81-2.67Zm-1.15-.54c-1.08.43-.44,1.93-4.28-2l-12.4-13.29-.08-1.76,8.92-8c1.18-1.17,6.86-7.06,9.06-7.81,1,0,8,9.43,8.81,11,2,4.06-.39,5.37-5,13.19C356,427.64,353.52,430.64,352.58,433.63Zm14,11.94c-2-1.12-4.18-2.4-5.78-3.41-1.37-.86-4.21-3.17-5.18-3.53a13.45,13.45,0,0,0-2.21-1.73Zm-201-92c4.34.08,28.63,6.16,32.7,7.37,11.07,3.3,22,7.36,32.39,11.59a194.25,194.25,0,0,1,41.77,23.8l12.11,9.74c.12,2.25-1.87,6.36-2.09,12-.32,8.75.17,7.06,1,14.28-2.87-1.55-5.27-7.27-6-10.94-.52-2.63-1.15-14.09-1.75-15.14-1.82,2.4-.85,7.92-.56,10.86.45,4.62-1.48,5.91-2,10.39-2.53-3.55-2.31-14.74-2.67-20.71-.56,12.41-1.6,9.9-3.39,16.25-.6,2.14-.28,3.78-.69,6.27-1.26-1-3.11-8.19-3.61-10.2-1-4-1-9.15-1-14.13-3.46,1.78-10.74,16.76-12.31,22.3-.67,2.36-1.79,7.74-2.48,9.08a104.12,104.12,0,0,1,1-18.62c1.38-11.68,2.34-9.51,5.06-15.54-.87,1.61-1.9,2.65-3,4.64a23.29,23.29,0,0,1-3.69,5c-2.2,6.3-18.34,23.82-25.53,45-.82,2.41-2.17,5.24-3.25,8.12-.61,1.61-.82,3.06-1.32,4.8-.39,1.35-.76,3.61-1.11,4.57-1.48-3.06,1.48-22.3,2.38-26.9.65-3.31,1.92-5.22,2.5-7.8-2.23,1.72-10.61,16.67-11.63,19.64-6.42,18.64-6.57,24.75-8.61,44-4-3.84-7.67-26.58-7.09-29.53,3.26-22,10.28-19.17,10.32-27-4.91,5.12-13.6,20-16.69,27.08-1.84,1.7-1.69,2.1-3.07-.34-2.73-4.71-.78-15.25-3-16.87,0,9.13-1.69,13.34,2.43,21.66.5,1,3.2,3.35,3.17,1.58,0-1.55,2.3-4.88,3.24-6.22.84,1.81-.16,3.77.11,6.36,2.13,11.35,2.09,13.07,6.14,23.92,2.26,5.74,4.34,10.94,6.26,16.76,3.92,0,3.17-39.43,7-49.3.7-2.49,1-5.5,2.54-7.75,0,12.68.6,18.71,3,30,.07-.1.16-.39.19-.32,1.26-4.77,5.32-24.1,6.67-27.8,5.82-17.23,11.9-26.56,21.49-41.55l2.31-2.85c-.59,11.93-.18,16.48,1.37,28.48,1.72-.46,1.32,0,1.47-1.89-.14-9.81,5.63-25.28,11.54-34.15,2,7.77.32,5,6.5,19.3,1.35,1.81,4.3,6,6.52,6.23-2.36-4-2.56-5.91-4-10.62-.29-1.6-.33-4.83,1.22-3.24.13.13,2.73,8.5,7.74,11.85.44-2.07-3.12-6.05-1.5-13l.86,2.09c0,.05.06.18.07.23,3.32,9,10.79,17.7,18.09,17.7-5.3-10-3-10.85,3-18a31.85,31.85,0,0,1,4.07-3.43c.89-.66.23.18,1.43-1.08-.07,3-.77,6.07.56,9.17.43,1-.26.83,1.94,1.34,0-5.17,1.63-9.93,5.58-13,8.56-5.49,12-2.6,17.59-1.24l2.35,1.71c-1.31,1.95-3.84,3-4.5,5.5,1.4-1,4.92-3.06,5.5-4.5,1.67.88,14,15,16.33,17.5.55.75.86.21-.2,2.09-2,3.49-4.09,6.93-6.05,10.5-.87,1.64-1.88,2.72-2.07,4.94,1.28-.93,1.19-1.29,2.14-2.86l.2-.31c2.84-4.38,5.6-8.61,8.67-12.84,1.34,5,23.11,11.75,28.66,11.86,11.74.22,13.62-4.09,20.06-12.21,1.29-3.56-.62-1.66,1.46-5.51,5.73-19.79,7.42-63.1,7.26-70.64-3.29-.67,2.88.6-2.17-1.28a.77.77,0,0,1,0-.37l1.32-3-2.58,1.29c-4.38,1.21-6.72,1.62-12.22.53-4.43-.87-8.5-.86-13.24-1.27-14.37-1.24-19.15-.45-29.52,5.61-1.52.89-2.89,1.59-4.35,2.61-5.69,4-1.7,17.88.72,22.89.8,1.65,1.53,3.33,2.34,4.71,1.59,2.69,5.61,4.5-1.24,8.14-.85,1.29-5.49,5.48-6.57,6.55-.89.89-2.25,2.21-3.26,3.26-1.17,1.2-2.08,2.82-3.81,2.66-1.85-4.39-8.27-15.84-10.67-18.56-1.75-2-3.42-3.09-5.08-4.8.74-2.09,10.73-12.61,12.17-13.6,1.64-3,11.35-10.46,14.41-12.7,14.24-10.4,34.19-16.5,52.19-12.2,3.16.75,6.56,2.94,10.52,2.7.32-1.58-.49-3.65,0-6.48.39-2.29.72-4.12,1.05-6.26,3.2-20.63,14.51-23.16,16.15-28.53-1.33-2.09-4.18-2.37-6.32-3.69s-4.23-2.65-6.09-3.9c-2.34-1.58-9-8-9.19-10.67l4.37.24c-7.23-3.43-4.83,1.19-10.3-8-1.46-2.44-2-3.68-5-4.05s-5.63.62-8.49.64a113.49,113.49,0,0,0-24.31,3.2,13.14,13.14,0,0,0-6,3.23c.42,2.71.77,3.55,2.8,4.92,3,2,11.11,5.9,11.74,9.09-3,2.5-13.93,3.78-19.09,4.56-13.39,2-26.53,4.38-39.2,8.11l-16.15,4.69-.38.11-.37.11-1.06.35c.41-.57,4.3-2.79,5.72-3.61l19-9.41c2.45-1.12,25.22-9.24,26.19-11.34.45-5.73-5.43-6-8.5-8.58,1.41-2.67,9.31-4.44,13-5.61,13.26-4.23,15.05-4.71,28.93-6.94,4.71-.75,11.56-1,15.94-2.24-2.24-6.09-4.1-21-4-28.53C507.72,282.45,498,340.77,498.44,340c7.22,4.84-6.46,42,9.35,20.43,2.33-3.18,9.11-15.77,9.35-19.85,3.74-62.38-57.13-195-69.78-200-3.09,4.62-4.09,26.55-7,32.79l-4.54-5c-1.24-1.53-4.14-4-6-4.54l.41-3.37,0-.27c3.65-8.6,5.55-13.08,10.06-21a7.63,7.63,0,0,1,1.08-1.26c3.5-3.56,7.27-6.75,10.43-10.64l1.74-2c3.25-2.58-1.15-4.24-1.75-6.5,1.84-2.76,5.38-5.71,8.26-7.75a7.33,7.33,0,0,0,.89-.61c.35-.28.59-.6,1-1C490.92,89.39,517.62,79.72,555,79.81c.6,0,39.45,2.92,40.06,2.73l.28-.1a2.24,2.24,0,0,0,.27-.13l.53-.39c1.31-1.28.86-.25.91-2.62-2.31-.84-4.76-5-6.79-6.72-24.32-20.52-41-34.21-71.7-49C508,19.21,489.22,39.35,479.35,45.7l-3,3c-.06.07-.19.22-.23.28l-.23.27c-.65-3.08,16.9-23.09,20-26.57,1.64-2,4.33-3.78,4.55-6.46-2.56,0-5.09-1.15-7.44-2.07-5.59-2.19-9.76-2.54-16.31-4.58L463.24,6.51C340.32-10.63,207,19.8,136.52,136.93c0,.07-.09.21-.13.28-6.54,12.08-10.5,22.53-15.18,35.28-.5,1.14,0-.16-.45,1.17-16.24,61.38,21.38,135.85,1.89,144.42-2.94,1.3-1.87,1.47-2.57,4.45,17.49-8.39,20-7.33,36-22.6,9-11.16,15.54-47,24.81-48.69,1-.18,3.38-.36,4.27.67,7.51,8.69,16.11,4.85,26,7.42C224,320.19,100.25,318.26,98.06,344.55c2.29,0,3.17.35,4.59.42C121.45,346,146.61,350.73,165.61,353.61Z" transform="translate(-97.95 -1.98)"/><path class="cls-4" d="M347.32,25.25c0,5.16,1.07,26.08,1.93,31.27.43,2.63.59,2.67-.7,4-.55-1.51-1.23-7.3-1.66-9.53-.53-2.78-1.49-5.51-1.89-8.86-.78-6.6-1.33-14.65-3-20.76-8.86.07-21.42,3.56-29.79,5.95-6,1.7-25.39,9-29,11.68.28,5,7.7,17,11.08,21.68,1.11,1.52,3.55,4.66,3.64,6.31-2.1-.6-8.06-9.48-9.59-11.37A81,81,0,0,1,279,40.38C267.68,39.16,213.19,72.82,205,77.94c-1.66,1-21.55,16.68-22,19.17-.72,4.15,10.28,8.85,11.91,12.46-6.75-.47-14.13-8.21-16.07-8.35-1.2-.09-10.59,10.3-12.18,12.54L156,128.38c-1.77,2.72-6.52,9.33-7,12.41,1,1.2,7.81,5.6,9.75,6.43,3.05,1.29,7.33,2.25,9.38,4.16a58.25,58.25,0,0,1-15.74-2.31c-6.3-1.91-6.1-6.15-10.95,3.56-4.29,8.56-7.35,17.91-10.46,27.17-4.72,14.09-5.92,37.08-5.92,54.14,0,12.3,6.7,38.47,9.26,52.52,1.11,6.11,1.79,18.42-.31,23.25,17-1.33,23.24-38.84,26.83-49.55,1-3.08,2.25-7.87,4.3-10.66a70.77,70.77,0,0,1,7.63-7.39c4.12-2.79,6.52-2.25,12-3,.88-6,.89-11.36,2.19-17.38,8.39-39,24.62-64.78,56.53-91.09,6.76-5.57,4.18-5.56,8.17-11.84,4.43-7,8.75-11.9,18.91-10.42,9.35,1.35,6.72,3.15,15.61-.64C315.27,95.3,355.31,92,388.69,96.49c6.43.87,11.72,2.29,18.13,3.78a93.47,93.47,0,0,1,16.29,5.78c20.23,9,11.51,9.44,20.81,1.8,6.29-5.16,12.56-10.82,19.38-15.2,16.79-10.79,27.5-16.12,47.5-21,29.07-7.13,31.12-2.74,61-2-2.38-5-7.5-7.13-12-10.15-5.91-3.64-15.12-10.15-21.23-12.77-2.54-1.09-5.34-2.46-7.75-3.79-5.63-3.11-10.06-4.7-15.74-7.27-7-3.15-6.35-2.44-15.25,3.52-7,4.73-13,10.13-19.68,14.86-1.32.93-2.1,1.53-3.19,2.34-3.07,2.28-13.09,13.19-15.6,13.57-.24-5,1.85-9.86,3.58-13.58a79.35,79.35,0,0,1,6-11.48c3.76-5.58,6.52-10.13,10.68-15.37,1.4-1.77,3.54-2.78,3.51-4.94-2.32-1.11-6.3-.79-9-1.54-4.81-1.34-22.6-5.41-26.77-5.12-3,3.37-6.13,6.14-9.14,9.24L433.59,34c-1.29,1.5-1.17,1.85-2.95,2.51.25-3.62,3-7.75,4.37-10.61l4.9-9.58c-6.27-.61-10.24-1.95-16-1.93-26.61-.62-41.76.31-67.86,3.78-1.89.25-5,.2-6.72,1.14-2.4,1.31-2,2.95-2,6" transform="translate(-97.95 -1.98)"/><path class="cls-5" d="M126.15,338c.79.5,11.17,1.49,13.37,1.79,3.93.54,8.09,1.49,12.4,2.48,8.54,2,17,3,25.73,4.66A322.66,322.66,0,0,1,214,356.22c11.24,3.53,22.28,7.3,32.61,13,21.65,11.94,18.92,11.86,36.28,24.74,3.25,2.41,14.51,14,15.9,14.48,4.05-6,12.59-19.3,17.11-24.25,13.5-14.77,27.74-29.46,48-35.17,10.43-2.93,9-1.73,17.54-3,5.31-.8,18.2,2.38,18.91,2.22,1.22-.66.71-.12,1.13-1.52.9-2.94-.3-11.15,7.83-23.69,1.7-2.61,3.88-4.26,5.23-6.48-3.52-3.41-8.48-4.68-14.18-11a36.81,36.81,0,0,1-5.05-7.49c-1.23-2.4-2.61-6.16-4.47-8.41l-6.38,0c1.68,7.45,13.34,22.61,20.26,27.4-2.55,7.1-4.5,1.85-10,23.43-22.65-1.67-42.36,5.33-59.62,17.88-11.68,8.5-20.1,18.19-29.39,29.2a37.1,37.1,0,0,0-4.09,5.92,17.62,17.62,0,0,1-2.18,2.82c-1.74,2.25-.11.89-2.67,2.27-.77-.46-7.72-9-10-10.9-6.36-5.17-23.41-18.52-31.1-22-1.77-.8-6.2-2-6.09-4.28.68,1,4.74,1.93,6.43,2.3,7.84,1.68,25.06,14.12,30.8,19.39L292,387.8c1.39,1.41,3.45,3.78,5.22,4.87,2-1.23,5.92-8.74,7.59-11,12.36-16.78,34.29-34.78,54.5-40.64a100.3,100.3,0,0,1,15.84-3.22c2.77-.41,5.89-.44,8.71-.87,3.89-.6,5.55,1.08,8.45-.08,1.12-3.56,1.48-6.9,3-10.29,1.66-3.81,3.62-5.49,5.06-8.54-.77-1.54-9-8.32-15.89-20.19-1.37-2.36-2.26-5.47-4.15-7.59-5.89-.3-17,1.41-21.33,3.41.41,1.41,2.14,2.1,3.31,2.83,1.74,1.09,2.77,1.79,4.21,2.83,2.92,2.1,5.87,3.72,5.34,8.7-4.11,4.38-16.11,5.31-22.8,6.39a298.56,298.56,0,0,0-47,11c-5.31,1.76-17.48,7-22.71,4.94-.43-3.81,2-5,4.11-6.59,6.71-5.06,13.91-8.65,21.49-12.54a181.19,181.19,0,0,1,24-10.16c1.57-.54,2.65-.92,4-1.46,1.66-.66,3-.95,4.12-2.13l-11.24-6c1-5,18.51-9.16,22.28-10.27,7.64-2.24,18.27-5.26,26.95-6.05.16-1.42-.32-9.18-.55-11.05a33.1,33.1,0,0,1-.06-10.9c.46-3,.16-6.67.92-11.66.5-3.26,1.23-7.2,1.76-10.85L411.67,239c4.05.81,8.06,1.61,12,2.67,7.84,2.13,14.72,4.51,22.5,6.39,7.95,1.92,15.84,3.56,23.51,6,15,4.83,16.83,1.23,20,9.1,2.76,6.83,5.71,13.87,8,21a225,225,0,0,1,6.47,22.52c.78,3.67,3.54,21.37,4.8,24.5,2.37-3.31-7.18-42.89-8.71-48.07-3.34-11.31-5.48-23.29-9.27-34.31-1.35-3.92-2.19-7.35-3.61-11.45A346.66,346.66,0,0,0,454.8,168c-1.3-2.12-3.89-8.13-5.91-9-.18.3-4.64,23.1-6.67,28.26-1.55,3.95-3,8.38-4.57,12.89-4.92,14.32-4,11.81-19.86,15.83-9.81,2.49-20.21,3.4-30.31,5.12-11.64,1.84-37.66,3.44-49.69,3.45a169.13,169.13,0,0,1-84.46-22.23c-3.29-1.88-7.9-4.15-10.88-6.59-4.29-3.52-3.59-2.33-8.67,5.31a52.93,52.93,0,0,0-6.11,11.32A98.2,98.2,0,0,0,223,225.75c-1.87,7.16-2.24,25.52-1.61,33.69,1,13.54,3.84,16.35-1.4,30.42-3.22,8.63-8.65,14.22-17.2,18.39-7.54,3.67-17.16,6.78-25.25,10.13C168.67,322.07,161,325,152,328.44Z" transform="translate(-97.95 -1.98)"/><g class="cls-6"><rect class="cls-7" x="59.45" y="351.49" width="127.3" height="149.86"/></g><path class="cls-5" d="M290.76,114.83c1,1.94,1.92,1.18,4,3.52,1,1.13,2.58,3,3.73,4.29,9.48,11,4.85,8.27,23.66,5a66.18,66.18,0,0,1,8.13-1l12-.61a152.08,152.08,0,0,1,38.5,4.89c3.21.8,6.18,1.87,9.53,3,11.67,4,14.75,5.78,25.44,12.09,2,1.18,6.35,4.17,8.11,4.19,2.82-2.54,5.09-9.75,7.38-13.4,1.33-2.11,2.49-4.33,3.83-6.68s3.53-4.57,3.64-7.22c-4.61-3.89-25.63-11.13-32.21-13.17-25.48-7.9-63.84-8.19-90.5-2.72-4,.82-23.81,5.49-25.25,7.88" transform="translate(-97.95 -1.98)"/><path class="cls-5" d="M316.12,146.2c-.57,3.49,1.76,5.7,3.29,8,5.31,8.12,14.5,19.75,20.59,28,1.72,2.32,3.5,4.43,5.24,6.74l11.57,12.81c2.31-.25,6.87-3.07,11.14-3.93,10-2,15.13-1.93,26.35-4.48,2.2-.5,3.93-.89,6.28-1.34l4.87-1c1.32-.45.48,0,1.46-.66-2.55-8.4-9.44-16.43-14.74-21.86a63.68,63.68,0,0,0-9.5-8.45c-1.95-1.38-3.51-2.49-5.34-3.71a12.65,12.65,0,0,0-3-1.64c-1.24-.53-2.28-.66-2.85-1.87,3.62-2,16.92,1.92,20.57,3.18,9.36,3.26,20.48,10,28.07,16.55,1.06.91,2.27,1.73,3.61,2.92a54.92,54.92,0,0,1,9,10c.66.94,1.67,3.1,2.62,3.9,1.65-.93,2.87-5.18,1.49-7-3.56-4.59-12-13-16.51-16.05a147.06,147.06,0,0,0-20.75-11.8c-3-1.28-5.07-2.11-7.73-3.15-11.05-4.33-33.87-8.27-45.58-8.27-8.84,0-16.43,1.49-25.16,2.79-2.24.34-3.1-.18-5,.25" transform="translate(-97.95 -1.98)"/><g class="cls-8"><rect class="cls-9" x="150.48" y="108.57" width="105.31" height="103.9"/></g><path class="cls-5" d="M195,249.2c3.49.61,12,1.59,15.23,1.31-.28-20.76,1.71-28.58,9.1-46.49.95-2.29,1.71-4.2,2.73-6.28a145.16,145.16,0,0,1,10.5-17.56c5.34-8,21.69-23.07,29.46-26.53a13,13,0,0,0-2.25-4.69c-.39.16-3.89,3.23-6.39-1.76-1-2-2.18-5.28-3.12-7.5a34.44,34.44,0,0,0-12.28,7.9c-9.64,9.39-12,11.86-18.6,22.4-3.12,5-5.09,8.23-7.87,13.18A112.73,112.73,0,0,0,205,197.25c-6.61,17.25-11.12,31.73-10,51.95" transform="translate(-97.95 -1.98)"/><path class="cls-5" d="M385.59,274.14c-1.18-12.25-2.64-6.73-2.59-24.72,0-5.06,1.34-4.3,2.12-7.14.54,2-.73.18,5.09,1.26,7.38,1.37,32.15,8.37,39.25,10.44L462,263.2c3.93,1.19,7.29,2.54,11.08,3.49,13.93,3.49,10,1.41,15.15,12.9,6.52,14.5,13.82,45.12,16,62,.31,2.4-.19,4.82.41,7.13,3.6-1.94,3.37-13,2-18-.64-2.35-.9-4.17-1.5-6.64-4.21-17.44-10.52-43.77-17.91-59.51-2.08-4.42-3.33-3.1-10.37-5.16-8.29-2.44-16.46-3.86-24.84-6.26-17.25-4.93-31.82-8.35-48.94-12.94-3.81-1-21.66-6.72-23.92-6.45-.78,8.57-2.79,28.53-1.75,36.08.91,6.58.88,4.31,8.12,4.26" transform="translate(-97.95 -1.98)"/><path class="cls-5" d="M353.42,213.77c17.54,1.77,29.92-2.37,45.36-4.11,10.69-1.21,19.62-3.72,29.75-7.12a6.88,6.88,0,0,0,5-6.77,92,92,0,0,0-23.2.23c-6.12,1-12.63,2.79-20.77,4.08-10.3,1.62-22,1.54-30,7.6-1.22.94-5.55,4.54-6.15,6.09" transform="translate(-97.95 -1.98)"/><g class="cls-10"><rect class="cls-11" x="220.46" y="346.93" width="89.26" height="101.14"/></g><g class="cls-12"><rect class="cls-13" x="193.91" y="245.7" width="211.89" height="128.3"/></g><path class="cls-5" d="M412.48,189.72c3.34.09,5.69-.56,8.88-.56,3.35,0,5.68.64,8.91.51-.5-1.78-8.76-10-11.24-12.45-6.16-6.09-26.08-19.23-33.53-20.1.14.81,6.61,5.58,7.94,6.64,5.8,4.62,13.07,14.65,16.45,21.12.93,1.77,1.77,3.64,2.59,4.84" transform="translate(-97.95 -1.98)"/><path class="cls-14" d="M477.92,241.23c.9-1.74-1.9-11.61-2.73-13.58-.9-2.13-1.86-4.39-2.54-6.4-3.4-10-7.1-15.7-11.45-24.65-.58-1.19-1-2.11-1.46-3.08-.67-1.29-.65-1.79-2.34-1.92-.09.15-1.82,6.15-2.18,7.13-3,8-2,5.6,1.2,9.66L467,222.33c3.91,5.58,8.69,16.89,10.91,18.9" transform="translate(-97.95 -1.98)"/><g class="cls-15"><rect class="cls-16" x="203.43" y="393.03" width="27.89" height="24.78"/></g><g class="cls-17"><rect class="cls-18" x="187.94" y="407.84" width="11.55" height="22.64"/></g><path class="cls-19" d="M478.92,401.6h-1c.77,1.11.08.62,1.5,1Z" transform="translate(-97.95 -1.98)"/><path class="cls-20" d="M407.35,435.13v-1c-1.66,0-.11.91,0,1" transform="translate(-97.95 -1.98)"/><path class="cls-19" d="M433.88,417.12c.51.51,1.81-.72.58-.27,0,0-1.42-.57-.58.27" transform="translate(-97.95 -1.98)"/><polygon class="cls-14" points="322.92 381.11 322.92 380.61 322.34 381.02 322.92 381.11"/><polygon class="cls-21" points="384.48 369.6 384.48 370.1 385.06 369.68 384.48 369.6"/><polygon class="cls-22" points="228.83 423.15 228.33 423.15 228.75 423.73 228.83 423.15"/><polygon class="cls-19" points="105.22 518.74 105.22 519.24 105.8 518.82 105.22 518.74"/><polygon class="cls-19" points="309.41 433.16 309.41 433.66 309.99 433.24 309.41 433.16"/><polygon class="cls-21" points="313.41 379.61 313.91 379.61 313.5 379.02 313.41 379.61"/><polygon class="cls-19" points="330.93 368.6 330.43 368.6 330.85 369.18 330.93 368.6"/><polygon class="cls-21" points="316.42 387.61 316.42 387.11 315.91 387.61 316.42 387.61"/><polygon class="cls-21" points="316.92 387.11 316.92 386.61 316.42 387.11 316.92 387.11"/><polygon class="cls-21" points="315.91 388.11 315.91 387.61 315.41 388.11 315.91 388.11"/><polygon class="cls-21" points="318.42 386.11 318.42 385.61 317.92 386.11 318.42 386.11"/><polygon class="cls-21" points="315.41 370.6 314.91 370.6 314.91 371.1 315.41 370.6"/><path class="cls-14" d="M424.37,371.57c.05.05.15-.22.15-.15s-.2.1-.15.15" transform="translate(-97.95 -1.98)"/><path class="cls-14" d="M416.86,387.59h0Z" transform="translate(-97.95 -1.98)"/><path class="cls-14" d="M433.38,374.08h0Z" transform="translate(-97.95 -1.98)"/><path class="cls-19" d="M358.81,388.09l-.5.5Z" transform="translate(-97.95 -1.98)"/><path class="cls-21" d="M413.36,390.59v0Z" transform="translate(-97.95 -1.98)"/><path class="cls-21" d="M485.93,305.51v0Z" transform="translate(-97.95 -1.98)"/><path class="cls-21" d="M490.93,303.51v0Z" transform="translate(-97.95 -1.98)"/><path class="cls-22" d="M435.38,414.11" transform="translate(-97.95 -1.98)"/><path class="cls-14" d="M481.92,276h0Z" transform="translate(-97.95 -1.98)"/><path class="cls-14" d="M430.88,375.58h0Z" transform="translate(-97.95 -1.98)"/><path class="cls-20" d="M408.36,433.13l-.51.5Z" transform="translate(-97.95 -1.98)"/><path class="cls-22" d="M407.85,433.63l-.5.5Z" transform="translate(-97.95 -1.98)"/><path class="cls-21" d="M430.38,376.08v0Z" transform="translate(-97.95 -1.98)"/><path class="cls-2" d="M270.37,119.05c.09-.29,1.79-.78,3.7-.78s4.06.49,7.47,2.57a68.43,68.43,0,0,1,12.27,10,96.41,96.41,0,0,1,9.77,11.84c1.94,2.78,2.16,3.54,2,3.68s-.69-.36-2-1.05-3.28-1.58-4.41-2.12-1.41-.71-.32.13A37.11,37.11,0,0,1,304,147.8a12.14,12.14,0,0,1,2.56,4.88,6.91,6.91,0,0,1,.45,2.81c-.13.29-.58-.24-1.05-1.42a15.11,15.11,0,0,0-2.3-4.64,23.31,23.31,0,0,0-5.73-4.42c-2.2-1.36-4.43-2.65-6.13-3.5s-2.85-1.25-2.7-1.43a8.15,8.15,0,0,1,2.92,0,26.19,26.19,0,0,1,3.59.74c1.19.31,2.43.67,3.46,1s1.83.51,2.32.67.67.24.27-.31-1.38-1.77-3.24-3.95-4.57-5.35-7.47-8.3a44.7,44.7,0,0,0-8.94-7.36,24.14,24.14,0,0,0-8-2.74C271.8,119.43,270.28,119.34,270.37,119.05Z" transform="translate(-97.95 -1.98)"/><path class="cls-3" d="M270.37,119.05c.09-.29,1.79-.78,3.7-.78s4.06.49,7.47,2.57a68.43,68.43,0,0,1,12.27,10,96.41,96.41,0,0,1,9.77,11.84c1.94,2.78,2.16,3.54,2,3.68s-.69-.36-2-1.05-3.28-1.58-4.41-2.12-1.41-.71-.32.13A37.11,37.11,0,0,1,304,147.8a12.14,12.14,0,0,1,2.56,4.88,6.91,6.91,0,0,1,.45,2.81c-.13.29-.58-.24-1.05-1.42a15.11,15.11,0,0,0-2.3-4.64,23.31,23.31,0,0,0-5.73-4.42c-2.2-1.36-4.43-2.65-6.13-3.5s-2.85-1.25-2.7-1.43a8.15,8.15,0,0,1,2.92,0,26.19,26.19,0,0,1,3.59.74c1.19.31,2.43.67,3.46,1s1.83.51,2.32.67.67.24.27-.31-1.38-1.77-3.24-3.95-4.57-5.35-7.47-8.3a44.7,44.7,0,0,0-8.94-7.36,24.14,24.14,0,0,0-8-2.74C271.8,119.43,270.28,119.34,270.37,119.05Z" transform="translate(-97.95 -1.98)"/><path class="cls-2" d="M306.88,158.77a17,17,0,0,0-3.93-3.46,9.93,9.93,0,0,0-4.79-1.58c-1.56-.13-3.17,0-4.55,0s-2.54,0-2.48.18a10.32,10.32,0,0,0,2.59,1.07,14.65,14.65,0,0,1,3.48,1.54,24.85,24.85,0,0,1,3.1,2.65c1,.91,1.92,1.72,2.68,2.41s1.33,1.27,1.56,1.47.09,0-1-.4a47.35,47.35,0,0,0-4.62-1.52,16.83,16.83,0,0,0-4.28-.62,13.85,13.85,0,0,0-3.39.27c-.36.15.54.33,1.61.69a25.66,25.66,0,0,1,3.65,1.58,13.82,13.82,0,0,1,4,2.9,19.56,19.56,0,0,1,3.12,5,27.6,27.6,0,0,1,1.69,4.87,34.76,34.76,0,0,1,.67,3.61c.14.91.23,1.49.34,1a21,21,0,0,0,.2-3.68,19.12,19.12,0,0,0-.71-4.64,36.12,36.12,0,0,0-1.61-4.28,6.42,6.42,0,0,0-1.56-2.45,15.09,15.09,0,0,0-3-2.08c-1.05-.55-1.94-.87-1.56-.82a19.17,19.17,0,0,1,3.85,1.2,26.52,26.52,0,0,1,5.42,3.06c1.59,1.18,2.75,2.43,3.3,2.83s.52,0-.24-1.29a39.74,39.74,0,0,0-3.9-5.18c-1.68-1.87-3.55-3.57-4.84-4.81a19.16,19.16,0,0,0-2.92-2.61c-.92-.56-2-.87-1.9-.9a13.45,13.45,0,0,1,3,.81,35.64,35.64,0,0,1,4.48,2.2C305.83,158.55,307.17,159.31,306.88,158.77Z" transform="translate(-97.95 -1.98)"/><path class="cls-3" d="M306.88,158.77a17,17,0,0,0-3.93-3.46,9.93,9.93,0,0,0-4.79-1.58c-1.56-.13-3.17,0-4.55,0s-2.54,0-2.48.18a10.32,10.32,0,0,0,2.59,1.07,14.65,14.65,0,0,1,3.48,1.54,24.85,24.85,0,0,1,3.1,2.65c1,.91,1.92,1.72,2.68,2.41s1.33,1.27,1.56,1.47.09,0-1-.4a47.35,47.35,0,0,0-4.62-1.52,16.83,16.83,0,0,0-4.28-.62,13.85,13.85,0,0,0-3.39.27c-.36.15.54.33,1.61.69a25.66,25.66,0,0,1,3.65,1.58,13.82,13.82,0,0,1,4,2.9,19.56,19.56,0,0,1,3.12,5,27.6,27.6,0,0,1,1.69,4.87,34.76,34.76,0,0,1,.67,3.61c.14.91.23,1.49.34,1a21,21,0,0,0,.2-3.68,19.12,19.12,0,0,0-.71-4.64,36.12,36.12,0,0,0-1.61-4.28,6.42,6.42,0,0,0-1.56-2.45,15.09,15.09,0,0,0-3-2.08c-1.05-.55-1.94-.87-1.56-.82a19.17,19.17,0,0,1,3.85,1.2,26.52,26.52,0,0,1,5.42,3.06c1.59,1.18,2.75,2.43,3.3,2.83s.52,0-.24-1.29a39.74,39.74,0,0,0-3.9-5.18c-1.68-1.87-3.55-3.57-4.84-4.81a19.16,19.16,0,0,0-2.92-2.61c-.92-.56-2-.87-1.9-.9a13.45,13.45,0,0,1,3,.81,35.64,35.64,0,0,1,4.48,2.2C305.83,158.55,307.17,159.31,306.88,158.77Z" transform="translate(-97.95 -1.98)"/><path class="cls-23" d="M385.79,109.37a70.93,70.93,0,0,1,14.32,3c7.13,2.14,16.94,5.8,21.87,7.67s5,2,5.13,1.94.43-.16-.27.78-2.34,2.94-3.1,4-.62,1.07-.6.89-.06-.58-5.66-3.28-16.71-7.69-23-10.39-7.77-3.1-10-3.54-5.35-.94-6-1.12,1,0,2.34,0A36.94,36.94,0,0,1,385.79,109.37Z" transform="translate(-97.95 -1.98)"/><path class="cls-24" d="M385.79,109.37a70.93,70.93,0,0,1,14.32,3c7.13,2.14,16.94,5.8,21.87,7.67s5,2,5.13,1.94.43-.16-.27.78-2.34,2.94-3.1,4-.62,1.07-.6.89-.06-.58-5.66-3.28-16.71-7.69-23-10.39-7.77-3.1-10-3.54-5.35-.94-6-1.12,1,0,2.34,0A36.94,36.94,0,0,1,385.79,109.37Z" transform="translate(-97.95 -1.98)"/><path class="cls-23" d="M365.67,154.46a37.61,37.61,0,0,1,10.39,5.22,52.6,52.6,0,0,1,10.46,9.92,77.1,77.1,0,0,1,6.69,9.61c1.45,2.48,2,3.86,2.23,4.24a20.67,20.67,0,0,0-2.56-2.83,131.35,131.35,0,0,0-12.07-10.53,64.18,64.18,0,0,0-11-6.82c-2.57-1.2-3.73-1.38-4.17-1.65s-.18-.63-.11-1.52a9.9,9.9,0,0,0-.52-3.61C364.56,155.2,363.8,154,365.67,154.46Z" transform="translate(-97.95 -1.98)"/><path class="cls-24" d="M365.67,154.46a37.61,37.61,0,0,1,10.39,5.22,52.6,52.6,0,0,1,10.46,9.92,77.1,77.1,0,0,1,6.69,9.61c1.45,2.48,2,3.86,2.23,4.24a20.67,20.67,0,0,0-2.56-2.83,131.35,131.35,0,0,0-12.07-10.53,64.18,64.18,0,0,0-11-6.82c-2.57-1.2-3.73-1.38-4.17-1.65s-.18-.63-.11-1.52a9.9,9.9,0,0,0-.52-3.61C364.56,155.2,363.8,154,365.67,154.46Z" transform="translate(-97.95 -1.98)"/><path class="cls-2" d="M418.43,281.16a37.34,37.34,0,0,1,2-8,29.24,29.24,0,0,1,3.93-6.52,2,2,0,0,1-.88.45,4.89,4.89,0,0,1-2.86-.58c-1.27-.57-2.88-1.52-4.43-2.41s-3-1.68-4.2-2.3a14.75,14.75,0,0,1-1.86-1.06c.12,0,1.19.48,2.46,1s2.75,1.1,4.31,1.68a29,29,0,0,0,4,1.28c.77.11.66-.25,0-.8s-1.86-1.28-2.32-1.65-.17-.36,1.31.15,4.16,1.54,5.45,2.15q.35.16.57.3c.23-.24.45-.48.68-.7a15.21,15.21,0,0,1,6.06-3.9,4.59,4.59,0,0,1,3.24-.16c.49.27.35.71,0,1.76a16.17,16.17,0,0,0-.83,4.07,2,2,0,0,1,.58-.31,2.65,2.65,0,0,1,1.67,0c.53.18.95.54,1.4.68a1.32,1.32,0,0,0,1.28-.22c.37-.3.64-.84,1.21-.73a18.31,18.31,0,0,1,2.38,1.3,3.77,3.77,0,0,0,2.23.39c.41-.13.32-.46.61-.75a1.78,1.78,0,0,1,1.42-.43c.46.12.7.58,1,.94a7.7,7.7,0,0,0,1.18.88,1.51,1.51,0,0,1,.76,1,2.85,2.85,0,0,1-.48,1.45c-.25.39-.47.57-.7.33a6.83,6.83,0,0,1-.68-1.24c-.2-.37-.36-.46-.9-.29a16,16,0,0,1-2.52.77c-1.07.17-2.29.11-2.9.24s-.58.47-1,.41a23.8,23.8,0,0,1-2.33-.84,12.88,12.88,0,0,0-2.84-.66,2.78,2.78,0,0,0-1.32.13h0c.17,2.16.56,4.57.91,6.49a52.75,52.75,0,0,0,1.16,5.2c.29,1,.47,1.18,2.17.91s4.9-1,7.65-1.62,5-1.05,6.4-1.28,1.87-.22,2.27.07.71.87.69,2.14-.38,3.24-.56,5.93a82.33,82.33,0,0,0,0,8.59,20.14,20.14,0,0,0,1,5.66,21,21,0,0,0,2.85,5.8,42,42,0,0,0,5.67,6.16,47.09,47.09,0,0,0,6.71,5.35c2.28,1.43,4.55,2.36,6.13,3.61A8.3,8.3,0,0,1,481,326.2a12.3,12.3,0,0,1,.31,3.07c.07.76.34,1.25.38,2a6.52,6.52,0,0,1-.42,2.43c-.29.78-.7,1.4-.07,1.78a6.58,6.58,0,0,0,3.88.18c1.6-.33,3.17-1.14,4.64-1.54a12.37,12.37,0,0,1,3.79-.36c.94,0,1.43.14,1.83.56a7.34,7.34,0,0,1,1,1.88,4.3,4.3,0,0,1,.56,1.47c-.07.15-.51-.16-2-.27a26.38,26.38,0,0,0-6.22.4,8.26,8.26,0,0,0-4.57,2.12,2.77,2.77,0,0,0-.31,3.08,5.57,5.57,0,0,0,2.47,2.61,16,16,0,0,0,3.73,1.25c1,.24,1.56.37,1.47.82a4.82,4.82,0,0,1-1.36,1.7,2.06,2.06,0,0,1-1.7.66,11.3,11.3,0,0,1-2.59-.62c-.78-.27-1.27-.49-1.11.13s1,2.1,1.38,3.17a15.32,15.32,0,0,1,.65,2.39c.18.64.49,1.27.74,2.38a19.4,19.4,0,0,1,.35,4.66,17.52,17.52,0,0,1-1.16,6.05,9.18,9.18,0,0,1-4.48,4.57,42.73,42.73,0,0,1-9.48,3.55,39.69,39.69,0,0,1-10.37,1.18,77.55,77.55,0,0,1-13.36-1.3,85.29,85.29,0,0,1-13-3.56,78.33,78.33,0,0,1-8.47-3.62c-1.72-.87-2.16-1.22-4.1-.73a30.31,30.31,0,0,0-7.63,3.28,23.44,23.44,0,0,0-3.9,3.45c-.58.45-.67-.22-.67-1a4.42,4.42,0,0,1,.71-2.64,7.55,7.55,0,0,1,3.39-2.38c1.61-.65,3.66-1.09,5.51-1.79s3.5-1.62,5.11-2.25,3.16-.94,8-1.63,12.89-1.76,18-2.23a43.39,43.39,0,0,1,8.63-.2c1.38.14,2,.27.89.34a81.47,81.47,0,0,0-9.21.78c-5.24.71-12.87,2.14-17.22,3a41.63,41.63,0,0,0-6,1.4c-.56.23-.61.36.71,1.07a61.41,61.41,0,0,0,6,2.79,16.6,16.6,0,0,0,4.19,1.14,3.46,3.46,0,0,0,2.32-.54,42.57,42.57,0,0,1,5.75-2.41,65.86,65.86,0,0,1,9.15-2.11,37.62,37.62,0,0,1,5.39-.49c.9,0,.9,0-.36.2s-3.79.67-7,1.53-7.11,2.17-9.4,3a10.91,10.91,0,0,0-3.29,1.53c-.33.31-.33.56,0,.75a3.16,3.16,0,0,0,1.5.32,6,6,0,0,0,2.5-.69c1.3-.56,3.28-1.54,5.61-2.31s5-1.32,7-1.84,3.41-1,4.47-1.23a5.76,5.76,0,0,1,1.84-.26s-.6.18-2.21,1-4.17,2.38-6.1,3.58a37.24,37.24,0,0,0-3.88,2.65c-.66.56-.68.83,0,1.07a17.2,17.2,0,0,0,3.22.54,11.43,11.43,0,0,0,2.88,0c.66-.12,1-.39,2.28-1.82s3.73-4.05,5.51-5.83a37.51,37.51,0,0,1,3.62-3.21c.64-.5.75-.57-.14.36S467.76,368,466,370s-3.49,3.94-4.31,5-.74,1.05-.12,1.1a17.76,17.76,0,0,0,4-.23,65.21,65.21,0,0,0,8-1.82,28.75,28.75,0,0,0,6.68-2.79,9,9,0,0,0,3.84-4.28,20.57,20.57,0,0,0,.42-14,37.11,37.11,0,0,0-2.81-6.62,47.57,47.57,0,0,0-2.88-4.43,6.34,6.34,0,0,1-1.38-3.56,45.69,45.69,0,0,1,.43-5.67,13.78,13.78,0,0,0-.28-5.27,8.73,8.73,0,0,0-3.19-4,60.54,60.54,0,0,0-5.78-4.08c-1.57-1-2.24-1.22-2.63-1s-.5,1-1,2.33-1.49,3.31-2.29,4.89-1.45,2.79-2,3.72a9.31,9.31,0,0,1-1.6,2c-.47.4-.87.56-.78.19s.67-1.26,1.53-2.88a31.29,31.29,0,0,0,2.58-6.17,13.25,13.25,0,0,0,.38-5.64,3.07,3.07,0,0,0-1.76-2.49,13.69,13.69,0,0,0-3.69-1.09,10.56,10.56,0,0,0-4.09-.14,5,5,0,0,0-2.76,1.82,4.38,4.38,0,0,0-.73,3.13,40.72,40.72,0,0,1,0,6.43,15.4,15.4,0,0,1-2.93,7.42,27.88,27.88,0,0,1-6.71,6.18,20.81,20.81,0,0,1-5.5,2.62c-1.38.41-2.3.52-2.4.31s.62-.75,1.25-1.47a10.3,10.3,0,0,0,1.73-2.91,14.47,14.47,0,0,0,1.16-4.92,23.47,23.47,0,0,0-.75-6.7,44.44,44.44,0,0,0-2-5.78,6.35,6.35,0,0,0-1.32-2.44,18.14,18.14,0,0,1-2.43-2.23,30.25,30.25,0,0,1-4-6.81,105.08,105.08,0,0,1-4.12-10.88c-1-3.08-1.28-4.8-1.72-6.25a11.64,11.64,0,0,0-1.8-3.65,25.17,25.17,0,0,0-2.49-2.61,11.57,11.57,0,0,1-1.68-2,6.5,6.5,0,0,0-1.1-1.63c-.56-.5-1.5-1-1.45-1.07a4.83,4.83,0,0,1,1.8.48,14.91,14.91,0,0,1,1.84,1.05c.66.38,1.53.78,2.13,1.08S418.1,282.64,418.43,281.16Z" transform="translate(-97.95 -1.98)"/><path class="cls-3" d="M418.43,281.16a37.34,37.34,0,0,1,2-8,29.24,29.24,0,0,1,3.93-6.52,2,2,0,0,1-.88.45,4.89,4.89,0,0,1-2.86-.58c-1.27-.57-2.88-1.52-4.43-2.41s-3-1.68-4.2-2.3a14.75,14.75,0,0,1-1.86-1.06c.12,0,1.19.48,2.46,1s2.75,1.1,4.31,1.68a29,29,0,0,0,4,1.28c.77.11.66-.25,0-.8s-1.86-1.28-2.32-1.65-.17-.36,1.31.15,4.16,1.54,5.45,2.15q.35.16.57.3c.23-.24.45-.48.68-.7a15.21,15.21,0,0,1,6.06-3.9,4.59,4.59,0,0,1,3.24-.16c.49.27.35.71,0,1.76a16.17,16.17,0,0,0-.83,4.07,2,2,0,0,1,.58-.31,2.65,2.65,0,0,1,1.67,0c.53.18.95.54,1.4.68a1.32,1.32,0,0,0,1.28-.22c.37-.3.64-.84,1.21-.73a18.31,18.31,0,0,1,2.38,1.3,3.77,3.77,0,0,0,2.23.39c.41-.13.32-.46.61-.75a1.78,1.78,0,0,1,1.42-.43c.46.12.7.58,1,.94a7.7,7.7,0,0,0,1.18.88,1.51,1.51,0,0,1,.76,1,2.85,2.85,0,0,1-.48,1.45c-.25.39-.47.57-.7.33a6.83,6.83,0,0,1-.68-1.24c-.2-.37-.36-.46-.9-.29a16,16,0,0,1-2.52.77c-1.07.17-2.29.11-2.9.24s-.58.47-1,.41a23.8,23.8,0,0,1-2.33-.84,12.88,12.88,0,0,0-2.84-.66,2.78,2.78,0,0,0-1.32.13h0c.17,2.16.56,4.57.91,6.49a52.75,52.75,0,0,0,1.16,5.2c.29,1,.47,1.18,2.17.91s4.9-1,7.65-1.62,5-1.05,6.4-1.28,1.87-.22,2.27.07.71.87.69,2.14-.38,3.24-.56,5.93a82.33,82.33,0,0,0,0,8.59,20.14,20.14,0,0,0,1,5.66,21,21,0,0,0,2.85,5.8,42,42,0,0,0,5.67,6.16,47.09,47.09,0,0,0,6.71,5.35c2.28,1.43,4.55,2.36,6.13,3.61A8.3,8.3,0,0,1,481,326.2a12.3,12.3,0,0,1,.31,3.07c.07.76.34,1.25.38,2a6.52,6.52,0,0,1-.42,2.43c-.29.78-.7,1.4-.07,1.78a6.58,6.58,0,0,0,3.88.18c1.6-.33,3.17-1.14,4.64-1.54a12.37,12.37,0,0,1,3.79-.36c.94,0,1.43.14,1.83.56a7.34,7.34,0,0,1,1,1.88,4.3,4.3,0,0,1,.56,1.47c-.07.15-.51-.16-2-.27a26.38,26.38,0,0,0-6.22.4,8.26,8.26,0,0,0-4.57,2.12,2.77,2.77,0,0,0-.31,3.08,5.57,5.57,0,0,0,2.47,2.61,16,16,0,0,0,3.73,1.25c1,.24,1.56.37,1.47.82a4.82,4.82,0,0,1-1.36,1.7,2.06,2.06,0,0,1-1.7.66,11.3,11.3,0,0,1-2.59-.62c-.78-.27-1.27-.49-1.11.13s1,2.1,1.38,3.17a15.32,15.32,0,0,1,.65,2.39c.18.64.49,1.27.74,2.38a19.4,19.4,0,0,1,.35,4.66,17.52,17.52,0,0,1-1.16,6.05,9.18,9.18,0,0,1-4.48,4.57,42.73,42.73,0,0,1-9.48,3.55,39.69,39.69,0,0,1-10.37,1.18,77.55,77.55,0,0,1-13.36-1.3,85.29,85.29,0,0,1-13-3.56,78.33,78.33,0,0,1-8.47-3.62c-1.72-.87-2.16-1.22-4.1-.73a30.31,30.31,0,0,0-7.63,3.28,23.44,23.44,0,0,0-3.9,3.45c-.58.45-.67-.22-.67-1a4.42,4.42,0,0,1,.71-2.64,7.55,7.55,0,0,1,3.39-2.38c1.61-.65,3.66-1.09,5.51-1.79s3.5-1.62,5.11-2.25,3.16-.94,8-1.63,12.89-1.76,18-2.23a43.39,43.39,0,0,1,8.63-.2c1.38.14,2,.27.89.34a81.47,81.47,0,0,0-9.21.78c-5.24.71-12.87,2.14-17.22,3a41.63,41.63,0,0,0-6,1.4c-.56.23-.61.36.71,1.07a61.41,61.41,0,0,0,6,2.79,16.6,16.6,0,0,0,4.19,1.14,3.46,3.46,0,0,0,2.32-.54,42.57,42.57,0,0,1,5.75-2.41,65.86,65.86,0,0,1,9.15-2.11,37.62,37.62,0,0,1,5.39-.49c.9,0,.9,0-.36.2s-3.79.67-7,1.53-7.11,2.17-9.4,3a10.91,10.91,0,0,0-3.29,1.53c-.33.31-.33.56,0,.75a3.16,3.16,0,0,0,1.5.32,6,6,0,0,0,2.5-.69c1.3-.56,3.28-1.54,5.61-2.31s5-1.32,7-1.84,3.41-1,4.47-1.23a5.76,5.76,0,0,1,1.84-.26s-.6.18-2.21,1-4.17,2.38-6.1,3.58a37.24,37.24,0,0,0-3.88,2.65c-.66.56-.68.83,0,1.07a17.2,17.2,0,0,0,3.22.54,11.43,11.43,0,0,0,2.88,0c.66-.12,1-.39,2.28-1.82s3.73-4.05,5.51-5.83a37.51,37.51,0,0,1,3.62-3.21c.64-.5.75-.57-.14.36S467.76,368,466,370s-3.49,3.94-4.31,5-.74,1.05-.12,1.1a17.76,17.76,0,0,0,4-.23,65.21,65.21,0,0,0,8-1.82,28.75,28.75,0,0,0,6.68-2.79,9,9,0,0,0,3.84-4.28,20.57,20.57,0,0,0,.42-14,37.11,37.11,0,0,0-2.81-6.62,47.57,47.57,0,0,0-2.88-4.43,6.34,6.34,0,0,1-1.38-3.56,45.69,45.69,0,0,1,.43-5.67,13.78,13.78,0,0,0-.28-5.27,8.73,8.73,0,0,0-3.19-4,60.54,60.54,0,0,0-5.78-4.08c-1.57-1-2.24-1.22-2.63-1s-.5,1-1,2.33-1.49,3.31-2.29,4.89-1.45,2.79-2,3.72a9.31,9.31,0,0,1-1.6,2c-.47.4-.87.56-.78.19s.67-1.26,1.53-2.88a31.29,31.29,0,0,0,2.58-6.17,13.25,13.25,0,0,0,.38-5.64,3.07,3.07,0,0,0-1.76-2.49,13.69,13.69,0,0,0-3.69-1.09,10.56,10.56,0,0,0-4.09-.14,5,5,0,0,0-2.76,1.82,4.38,4.38,0,0,0-.73,3.13,40.72,40.72,0,0,1,0,6.43,15.4,15.4,0,0,1-2.93,7.42,27.88,27.88,0,0,1-6.71,6.18,20.81,20.81,0,0,1-5.5,2.62c-1.38.41-2.3.52-2.4.31s.62-.75,1.25-1.47a10.3,10.3,0,0,0,1.73-2.91,14.47,14.47,0,0,0,1.16-4.92,23.47,23.47,0,0,0-.75-6.7,44.44,44.44,0,0,0-2-5.78,6.35,6.35,0,0,0-1.32-2.44,18.14,18.14,0,0,1-2.43-2.23,30.25,30.25,0,0,1-4-6.81,105.08,105.08,0,0,1-4.12-10.88c-1-3.08-1.28-4.8-1.72-6.25a11.64,11.64,0,0,0-1.8-3.65,25.17,25.17,0,0,0-2.49-2.61,11.57,11.57,0,0,1-1.68-2,6.5,6.5,0,0,0-1.1-1.63c-.56-.5-1.5-1-1.45-1.07a4.83,4.83,0,0,1,1.8.48,14.91,14.91,0,0,1,1.84,1.05c.66.38,1.53.78,2.13,1.08S418.1,282.64,418.43,281.16Z" transform="translate(-97.95 -1.98)"/><path class="cls-25" d="M421.46,281a18.66,18.66,0,0,1,1.05-6.5,23.11,23.11,0,0,1,3.24-6.34,17.38,17.38,0,0,1,3.36-3.46,8.88,8.88,0,0,1,2-1.28,7.18,7.18,0,0,1,1.61-.53c.33,0,.33.13.2.69a15.89,15.89,0,0,0-.46,3.71,52.11,52.11,0,0,0,.46,7.85,16.82,16.82,0,0,0,1.41,4.87c.49,1.07.91,1.78,1.12,2.27s.21.76-.5.87a33.75,33.75,0,0,1-3.59.07c-1.45,0-2.92,0-4.32-.07s-2.71-.38-3.72-.54S421.62,282.37,421.46,281Z" transform="translate(-97.95 -1.98)"/><path class="cls-26" d="M421.46,281a18.66,18.66,0,0,1,1.05-6.5,23.11,23.11,0,0,1,3.24-6.34,17.38,17.38,0,0,1,3.36-3.46,8.88,8.88,0,0,1,2-1.28,7.18,7.18,0,0,1,1.61-.53c.33,0,.33.13.2.69a15.89,15.89,0,0,0-.46,3.71,52.11,52.11,0,0,0,.46,7.85,16.82,16.82,0,0,0,1.41,4.87c.49,1.07.91,1.78,1.12,2.27s.21.76-.5.87a33.75,33.75,0,0,1-3.59.07c-1.45,0-2.92,0-4.32-.07s-2.71-.38-3.72-.54S421.62,282.37,421.46,281Z" transform="translate(-97.95 -1.98)"/><path class="cls-23" d="M427.56,287.55a17.53,17.53,0,0,1-1,3.55,5.68,5.68,0,0,0-.31,2c0,.49,0,1-.09,1s-.39-.32-.75-.87-.8-1.26-1.25-2-.89-1.59-1.21-2.23a8.5,8.5,0,0,1-.63-1.47c-.1-.39-.1-.72.21-.9a3.81,3.81,0,0,1,1.58-.21,19,19,0,0,1,2.13,0C427,286.57,427.57,286.68,427.56,287.55Z" transform="translate(-97.95 -1.98)"/><path class="cls-24" d="M427.56,287.55a17.53,17.53,0,0,1-1,3.55,5.68,5.68,0,0,0-.31,2c0,.49,0,1-.09,1s-.39-.32-.75-.87-.8-1.26-1.25-2-.89-1.59-1.21-2.23a8.5,8.5,0,0,1-.63-1.47c-.1-.39-.1-.72.21-.9a3.81,3.81,0,0,1,1.58-.21,19,19,0,0,1,2.13,0C427,286.57,427.57,286.68,427.56,287.55Z" transform="translate(-97.95 -1.98)"/><path class="cls-23" d="M425.85,301.69c1,2.25,2.39,5.42,3.64,7.68a21.32,21.32,0,0,0,3.19,4.53,10.12,10.12,0,0,0,2.25,1.78c.72.43,1.48.86,1.35,1s-1.12.05-2.34-.68a13.87,13.87,0,0,1-3.85-3.75,38.22,38.22,0,0,1-2.94-5.32,34.85,34.85,0,0,1-1.67-3.78,33.93,33.93,0,0,1-.85-3.33,9.16,9.16,0,0,1-.39-1.9C424.36,298.1,424.88,299.43,425.85,301.69Z" transform="translate(-97.95 -1.98)"/><path class="cls-24" d="M425.85,301.69c1,2.25,2.39,5.42,3.64,7.68a21.32,21.32,0,0,0,3.19,4.53,10.12,10.12,0,0,0,2.25,1.78c.72.43,1.48.86,1.35,1s-1.12.05-2.34-.68a13.87,13.87,0,0,1-3.85-3.75,38.22,38.22,0,0,1-2.94-5.32,34.85,34.85,0,0,1-1.67-3.78,33.93,33.93,0,0,1-.85-3.33,9.16,9.16,0,0,1-.39-1.9C424.36,298.1,424.88,299.43,425.85,301.69Z" transform="translate(-97.95 -1.98)"/><path class="cls-23" d="M439.79,286.12c.47,0,.85.67.85,1.49s-.38,1.49-.85,1.49-.85-.67-.85-1.49S439.32,286.12,439.79,286.12Z" transform="translate(-97.95 -1.98)"/><path class="cls-24" d="M439.79,286.12c.47,0,.85.67.85,1.49s-.38,1.49-.85,1.49-.85-.67-.85-1.49S439.32,286.12,439.79,286.12Z" transform="translate(-97.95 -1.98)"/><g class="cls-27"><rect class="cls-28" x="339.63" y="281.86" width="14.29" height="33.12"/></g><path class="cls-29" d="M443.85,284.81a32.82,32.82,0,0,1,3.58-.81c1-.17,1.34-.14,2.06,1.09a18,18,0,0,1,2.09,7.77,52,52,0,0,1-1.19,13.88c-1,4.12-2.4,6.69-3.79,8.15a5.94,5.94,0,0,1-4,1.94,6.93,6.93,0,0,1-3.31-.36,2.65,2.65,0,0,1-1.47-1.57c-.2-.58-.16-1.12.9-2.65a50.3,50.3,0,0,0,4.55-7,28.89,28.89,0,0,0,2.46-8.72,10,10,0,0,0-.45-5.32,19.07,19.07,0,0,0-2.19-3.54,5.47,5.47,0,0,1-1-1.9c0-.31.31-.28.54-.36A5.94,5.94,0,0,1,443.85,284.81Z" transform="translate(-97.95 -1.98)"/><path class="cls-25" d="M438.26,320.58c.27-.24,1.21,0,2.21,0a12.47,12.47,0,0,0,3.1-.19,6.17,6.17,0,0,0,2.57-.95c.56-.44.69-1,.78-.55a22.09,22.09,0,0,1,0,4,15.87,15.87,0,0,1-1.55,6.39,18.7,18.7,0,0,1-4.53,5.15c-1.53,1.3-2.68,2.1-3.12,2s-.14-1.07.26-2.28A38.1,38.1,0,0,0,439.2,330a15.62,15.62,0,0,0,.32-4.39,11,11,0,0,0-.81-3.25C438.36,321.48,438,320.81,438.26,320.58Z" transform="translate(-97.95 -1.98)"/><path class="cls-26" d="M438.26,320.58c.27-.24,1.21,0,2.21,0a12.47,12.47,0,0,0,3.1-.19,6.17,6.17,0,0,0,2.57-.95c.56-.44.69-1,.78-.55a22.09,22.09,0,0,1,0,4,15.87,15.87,0,0,1-1.55,6.39,18.7,18.7,0,0,1-4.53,5.15c-1.53,1.3-2.68,2.1-3.12,2s-.14-1.07.26-2.28A38.1,38.1,0,0,0,439.2,330a15.62,15.62,0,0,0,.32-4.39,11,11,0,0,0-.81-3.25C438.36,321.48,438,320.81,438.26,320.58Z" transform="translate(-97.95 -1.98)"/><path class="cls-2" d="M452.43,377.8a14.54,14.54,0,0,1-1.17,5.95,26,26,0,0,1-4.72,6.76c-1.83,2-3.61,3.58-4.64,4.55s-1.29,1.33-1.19,1a17.51,17.51,0,0,0,.89-3.3,37.93,37.93,0,0,0,.38-7.42,47.19,47.19,0,0,0-1-7.47c-.43-2-.85-3.18-1.05-3.89s-.18-.9.11-.91a12.07,12.07,0,0,1,2.28.59c1.42.42,3.72,1.09,5.47,1.53s3,.63,3.67.86S452.41,376.51,452.43,377.8Z" transform="translate(-97.95 -1.98)"/><path class="cls-29" d="M452.43,377.8a14.54,14.54,0,0,1-1.17,5.95,26,26,0,0,1-4.72,6.76c-1.83,2-3.61,3.58-4.64,4.55s-1.29,1.33-1.19,1a17.51,17.51,0,0,0,.89-3.3,37.93,37.93,0,0,0,.38-7.42,47.19,47.19,0,0,0-1-7.47c-.43-2-.85-3.18-1.05-3.89s-.18-.9.11-.91a12.07,12.07,0,0,1,2.28.59c1.42.42,3.72,1.09,5.47,1.53s3,.63,3.67.86S452.41,376.51,452.43,377.8Z" transform="translate(-97.95 -1.98)"/><path class="cls-23" d="M443.79,376.17a37.76,37.76,0,0,0,.44,5.51,21.41,21.41,0,0,1,.09,5.14c-.21,1.45-.72,2.68-.58,3s.95-.19,2.05-1.44a24.05,24.05,0,0,0,3.34-4.91,13,13,0,0,0,1.2-4.23c.13-1.07.16-1.76.17-2.17s0-.52-.9-.76-2.7-.61-3.89-.87-1.79-.4-1.92.71" transform="translate(-97.95 -1.98)"/><path class="cls-2" d="M457.42,378.13c.14.87.83,2.65,1.31,4.69a52,52,0,0,1,.92,5.89c.18,1.57.27,2.43.28,3s-.08.95.34.56a17.5,17.5,0,0,0,2.27-3,19.1,19.1,0,0,0,2.38-5.17,18.37,18.37,0,0,0,.5-4.77c0-1.13,0-1.56-.24-1.76s-.76-.19-1.51-.18-1.75,0-2.56,0-1.42,0-1.89-.06l-1.16-.06C457.69,377.28,457.28,377.26,457.42,378.13Z" transform="translate(-97.95 -1.98)"/><path class="cls-29" d="M457.42,378.13c.14.87.83,2.65,1.31,4.69a52,52,0,0,1,.92,5.89c.18,1.57.27,2.43.28,3s-.08.95.34.56a17.5,17.5,0,0,0,2.27-3,19.1,19.1,0,0,0,2.38-5.17,18.37,18.37,0,0,0,.5-4.77c0-1.13,0-1.56-.24-1.76s-.76-.19-1.51-.18-1.75,0-2.56,0-1.42,0-1.89-.06l-1.16-.06C457.69,377.28,457.28,377.26,457.42,378.13Z" transform="translate(-97.95 -1.98)"/><path class="cls-23" d="M459,378.06c.16.7.69,2.12,1,3.3a22.16,22.16,0,0,1,.61,2.94c.12.78.19,1.4.27,1.93s.16,1,.35,1,.49-.43.81-1.06a13.59,13.59,0,0,0,.92-2.41,17.71,17.71,0,0,0,.58-3,12,12,0,0,0,0-2.07c0-.45-.07-.65-.39-.77a8.54,8.54,0,0,0-1.65-.24c-.71-.07-1.52-.17-1.93-.22a2.82,2.82,0,0,0-.5-.06c-.1,0-.29,0-.12.69" transform="translate(-97.95 -1.98)"/><path class="cls-2" d="M402.43,295.57a8.79,8.79,0,0,1,3.95-.65,5.41,5.41,0,0,1,3.1.89c.74.54,1.23,1.29,1.14,1.47s-.76-.22-1.79-.42a9,9,0,0,0-3.36,0,16.27,16.27,0,0,0-2,.8,1.13,1.13,0,0,1-1.27-.49A1,1,0,0,1,402.43,295.57Z" transform="translate(-97.95 -1.98)"/><path class="cls-29" d="M402.43,295.57a8.79,8.79,0,0,1,3.95-.65,5.41,5.41,0,0,1,3.1.89c.74.54,1.23,1.29,1.14,1.47s-.76-.22-1.79-.42a9,9,0,0,0-3.36,0,16.27,16.27,0,0,0-2,.8,1.13,1.13,0,0,1-1.27-.49A1,1,0,0,1,402.43,295.57Z" transform="translate(-97.95 -1.98)"/><path class="cls-2" d="M472.68,273.09a81.38,81.38,0,0,1-.53,9.88c-.52,3.52-1.56,6.4-1.62,9.4a20.45,20.45,0,0,0,1.85,8.29,20,20,0,0,0,2.62,4.28,5.91,5.91,0,0,1,1.08,1.94c.15.53.15,1-.14,1s-.87-.58-1.59-1.11a14,14,0,0,1-2.2-1.71,16.33,16.33,0,0,1-1.82-2.88,16,16,0,0,1-2.13-4.81,19.1,19.1,0,0,1,.15-6.5c.36-2.28.87-4.58,1.29-6.36s.72-3.06.89-4.37a20.4,20.4,0,0,0,.09-4.07c-.1-1.4-.33-2.83-.5-4s-.32-2.25,0-2.61,1.14-.05,1.68.24a1.86,1.86,0,0,1,.93.8A17.92,17.92,0,0,1,472.68,273.09Z" transform="translate(-97.95 -1.98)"/><path class="cls-3" d="M472.68,273.09a81.38,81.38,0,0,1-.53,9.88c-.52,3.52-1.56,6.4-1.62,9.4a20.45,20.45,0,0,0,1.85,8.29,20,20,0,0,0,2.62,4.28,5.91,5.91,0,0,1,1.08,1.94c.15.53.15,1-.14,1s-.87-.58-1.59-1.11a14,14,0,0,1-2.2-1.71,16.33,16.33,0,0,1-1.82-2.88,16,16,0,0,1-2.13-4.81,19.1,19.1,0,0,1,.15-6.5c.36-2.28.87-4.58,1.29-6.36s.72-3.06.89-4.37a20.4,20.4,0,0,0,.09-4.07c-.1-1.4-.33-2.83-.5-4s-.32-2.25,0-2.61,1.14-.05,1.68.24a1.86,1.86,0,0,1,.93.8A17.92,17.92,0,0,1,472.68,273.09Z" transform="translate(-97.95 -1.98)"/><path class="cls-2" d="M481.21,308.94a49.25,49.25,0,0,0,4,4,26.78,26.78,0,0,1,3,2.66,7.94,7.94,0,0,1,1.35,3.13,20.44,20.44,0,0,1,.49,3.53c.06,1,0,1.81-.11,1.62s-.32-1.35-.59-2.48a8.12,8.12,0,0,0-1.46-3.36c-.86-1.1-2.24-2.2-3.3-3.33a19,19,0,0,1-2.36-3.25,19.57,19.57,0,0,1-1.21-2.24c-.28-.65-.46-1.27-.56-1.45S480.33,307.9,481.21,308.94Z" transform="translate(-97.95 -1.98)"/><path class="cls-3" d="M481.21,308.94a49.25,49.25,0,0,0,4,4,26.78,26.78,0,0,1,3,2.66,7.94,7.94,0,0,1,1.35,3.13,20.44,20.44,0,0,1,.49,3.53c.06,1,0,1.81-.11,1.62s-.32-1.35-.59-2.48a8.12,8.12,0,0,0-1.46-3.36c-.86-1.1-2.24-2.2-3.3-3.33a19,19,0,0,1-2.36-3.25,19.57,19.57,0,0,1-1.21-2.24c-.28-.65-.46-1.27-.56-1.45S480.33,307.9,481.21,308.94Z" transform="translate(-97.95 -1.98)"/><path class="cls-2" d="M479.53,317.63a8.05,8.05,0,0,1,3.13,2.33,20.43,20.43,0,0,1,2.9,5c.72,1.68,1.21,3.06,1.69,4.07a5.5,5.5,0,0,0,1.57,2.15c.61.47,1.37.79,1.44,1s-.52.36-1.32.12a6.46,6.46,0,0,1-2.66-1.7,13.26,13.26,0,0,1-2.16-3.24c-.62-1.22-1.18-2.54-1.68-3.68s-.95-2.09-1.31-2.86a12.86,12.86,0,0,0-1.05-2C479.66,318.25,479.08,317.56,479.53,317.63Z" transform="translate(-97.95 -1.98)"/><path class="cls-3" d="M479.53,317.63a8.05,8.05,0,0,1,3.13,2.33,20.43,20.43,0,0,1,2.9,5c.72,1.68,1.21,3.06,1.69,4.07a5.5,5.5,0,0,0,1.57,2.15c.61.47,1.37.79,1.44,1s-.52.36-1.32.12a6.46,6.46,0,0,1-2.66-1.7,13.26,13.26,0,0,1-2.16-3.24c-.62-1.22-1.18-2.54-1.68-3.68s-.95-2.09-1.31-2.86a12.86,12.86,0,0,0-1.05-2C479.66,318.25,479.08,317.56,479.53,317.63Z" transform="translate(-97.95 -1.98)"/><path class="cls-2" d="M463.27,341.06a4.91,4.91,0,0,0-1.86.32c-.64.22-1.11.46-1.05,1a5.17,5.17,0,0,0,1.13,2c.51.63.93,1.1,1.38,1.18a1.07,1.07,0,0,0,1.12-.77,3.92,3.92,0,0,0,.09-1.83,9.32,9.32,0,0,0-.27-1.16C463.74,341.44,463.69,341.13,463.27,341.06Z" transform="translate(-97.95 -1.98)"/><path class="cls-3" d="M463.27,341.06a4.91,4.91,0,0,0-1.86.32c-.64.22-1.11.46-1.05,1a5.17,5.17,0,0,0,1.13,2c.51.63.93,1.1,1.38,1.18a1.07,1.07,0,0,0,1.12-.77,3.92,3.92,0,0,0,.09-1.83,9.32,9.32,0,0,0-.27-1.16C463.74,341.44,463.69,341.13,463.27,341.06Z" transform="translate(-97.95 -1.98)"/><path class="cls-2" d="M469.76,342.1a4.19,4.19,0,0,1,1.66,2,2.81,2.81,0,0,1-.29,2.25c-.32.53-.73.73-1,.63s-.34-.5-.42-1a4.68,4.68,0,0,0-.47-1.48c-.29-.51-.78-1-.95-1.45a.85.85,0,0,1,.24-1A.91.91,0,0,1,469.76,342.1Z" transform="translate(-97.95 -1.98)"/><path class="cls-3" d="M469.76,342.1a4.19,4.19,0,0,1,1.66,2,2.81,2.81,0,0,1-.29,2.25c-.32.53-.73.73-1,.63s-.34-.5-.42-1a4.68,4.68,0,0,0-.47-1.48c-.29-.51-.78-1-.95-1.45a.85.85,0,0,1,.24-1A.91.91,0,0,1,469.76,342.1Z" transform="translate(-97.95 -1.98)"/><path class="cls-2" d="M454.6,343.39a1.26,1.26,0,0,0-.9.6c-.11.28.07.59.17.87a2.67,2.67,0,0,1,.12,1,2.94,2.94,0,0,0,.22,1.46.77.77,0,0,0,1.11.19,2.43,2.43,0,0,0,.61-1.45,5.67,5.67,0,0,0,.05-1.46,1.53,1.53,0,0,0-.37-1A1.18,1.18,0,0,0,454.6,343.39Z" transform="translate(-97.95 -1.98)"/><path class="cls-3" d="M454.6,343.39a1.26,1.26,0,0,0-.9.6c-.11.28.07.59.17.87a2.67,2.67,0,0,1,.12,1,2.94,2.94,0,0,0,.22,1.46.77.77,0,0,0,1.11.19,2.43,2.43,0,0,0,.61-1.45,5.67,5.67,0,0,0,.05-1.46,1.53,1.53,0,0,0-.37-1A1.18,1.18,0,0,0,454.6,343.39Z" transform="translate(-97.95 -1.98)"/><g class="cls-30"><rect class="cls-31" x="246.23" y="356.64" width="67.84" height="78.33"/></g><path class="cls-2" d="M403.34,426.77a11.06,11.06,0,0,1-2.42,2.72c-1.33.91-3.29,1.31-6.19.89a44,44,0,0,1-9.77-3,46.82,46.82,0,0,1-7.4-4,19.37,19.37,0,0,1-5.73-5c-1.54-2.18-2.57-5.13-3.7-7.8s-2.39-5.09-3.07-7-.8-3.34-1.29-4.59-1.35-2.32-1.78-3.42-.4-2.22-1.27-3.65-2.63-3.16-2.24-4.65,2.93-2.74,5.12-4.41,4-3.77,6-5.38a18,18,0,0,1,7.74-3.5,84.94,84.94,0,0,1,12-1.47c3.82-.25,6.72-.29,9.08,1.29s4.19,4.8,5.71,8.08a51.08,51.08,0,0,1,3.41,9.61,22.53,22.53,0,0,1,.51,8.29,44.35,44.35,0,0,1-1.89,7.43c-.65,2-1.05,3.37-1.21,4.19a3.86,3.86,0,0,0,.05,1.75c.11.62.25,1.53.76,1.75s1.4-.24,2.29-1.5a23.2,23.2,0,0,0,2.5-5.34c.71-2,1.25-4,2.43-6.83a68,68,0,0,1,4.64-8.92,21.91,21.91,0,0,1,5.69-6.17,93.58,93.58,0,0,1,9.53-6.39c3.06-1.79,5.34-2.84,6.52-3.64s1.24-1.38.86-1.35a25.38,25.38,0,0,0-3,1.56,36.55,36.55,0,0,1-5.66,2.32c-1.16.27-.76-.35.61-1.38a41,41,0,0,1,5.13-3.16c1.43-.7,1.95-.69,1.87-1.1a2.3,2.3,0,0,0-1.43-1.38c-.64-.14-1.25.41-3.38,2.11s-5.79,4.56-9.84,8-8.5,7.43-10.58,9.21-1.77,1.35-1.44-.11a28.14,28.14,0,0,0,.62-6.35,38.37,38.37,0,0,0-.86-6.22,21.79,21.79,0,0,1-.43-3.45,18.49,18.49,0,0,0-.42-4,53.75,53.75,0,0,0-1.76-5.5c-.54-1.52-.83-2.32-1.82-3s-2.68-1.26-5.55-1.6-6.91-.45-11.21-.75-8.84-.78-12.1-1a44,44,0,0,0-7.56.09,54.89,54.89,0,0,0-7.82,1.25,43.21,43.21,0,0,0-7.6,2.63c-2.28,1-4.2,2.15-6.12,3.08s-3.85,1.67-4.76,3.06-.81,3.42-.14,7.46a91.27,91.27,0,0,0,3.46,14.38,23,23,0,0,0,5.36,8.86c1.94,2,3.95,3.3,5.54,4.82a14.51,14.51,0,0,1,3.71,5.75c.93,2.52,1.63,5.85,4.14,9.35s6.83,7.15,9.24,9.24,2.88,2.63,5.07,3.68a42.7,42.7,0,0,0,9.65,3.24,16.68,16.68,0,0,0,8.87-.46,6.43,6.43,0,0,0,3.57-3.44,4.94,4.94,0,0,0,.47-2.55c0-.67-.13-1.27-.21-1.87S403.73,426.36,403.34,426.77Z" transform="translate(-97.95 -1.98)"/><path class="cls-3" d="M403.34,426.77a11.06,11.06,0,0,1-2.42,2.72c-1.33.91-3.29,1.31-6.19.89a44,44,0,0,1-9.77-3,46.82,46.82,0,0,1-7.4-4,19.37,19.37,0,0,1-5.73-5c-1.54-2.18-2.57-5.13-3.7-7.8s-2.39-5.09-3.07-7-.8-3.34-1.29-4.59-1.35-2.32-1.78-3.42-.4-2.22-1.27-3.65-2.63-3.16-2.24-4.65,2.93-2.74,5.12-4.41,4-3.77,6-5.38a18,18,0,0,1,7.74-3.5,84.94,84.94,0,0,1,12-1.47c3.82-.25,6.72-.29,9.08,1.29s4.19,4.8,5.71,8.08a51.08,51.08,0,0,1,3.41,9.61,22.53,22.53,0,0,1,.51,8.29,44.35,44.35,0,0,1-1.89,7.43c-.65,2-1.05,3.37-1.21,4.19a3.86,3.86,0,0,0,.05,1.75c.11.62.25,1.53.76,1.75s1.4-.24,2.29-1.5a23.2,23.2,0,0,0,2.5-5.34c.71-2,1.25-4,2.43-6.83a68,68,0,0,1,4.64-8.92,21.91,21.91,0,0,1,5.69-6.17,93.58,93.58,0,0,1,9.53-6.39c3.06-1.79,5.34-2.84,6.52-3.64s1.24-1.38.86-1.35a25.38,25.38,0,0,0-3,1.56,36.55,36.55,0,0,1-5.66,2.32c-1.16.27-.76-.35.61-1.38a41,41,0,0,1,5.13-3.16c1.43-.7,1.95-.69,1.87-1.1a2.3,2.3,0,0,0-1.43-1.38c-.64-.14-1.25.41-3.38,2.11s-5.79,4.56-9.84,8-8.5,7.43-10.58,9.21-1.77,1.35-1.44-.11a28.14,28.14,0,0,0,.62-6.35,38.37,38.37,0,0,0-.86-6.22,21.79,21.79,0,0,1-.43-3.45,18.49,18.49,0,0,0-.42-4,53.75,53.75,0,0,0-1.76-5.5c-.54-1.52-.83-2.32-1.82-3s-2.68-1.26-5.55-1.6-6.91-.45-11.21-.75-8.84-.78-12.1-1a44,44,0,0,0-7.56.09,54.89,54.89,0,0,0-7.82,1.25,43.21,43.21,0,0,0-7.6,2.63c-2.28,1-4.2,2.15-6.12,3.08s-3.85,1.67-4.76,3.06-.81,3.42-.14,7.46a91.27,91.27,0,0,0,3.46,14.38,23,23,0,0,0,5.36,8.86c1.94,2,3.95,3.3,5.54,4.82a14.51,14.51,0,0,1,3.71,5.75c.93,2.52,1.63,5.85,4.14,9.35s6.83,7.15,9.24,9.24,2.88,2.63,5.07,3.68a42.7,42.7,0,0,0,9.65,3.24,16.68,16.68,0,0,0,8.87-.46,6.43,6.43,0,0,0,3.57-3.44,4.94,4.94,0,0,0,.47-2.55c0-.67-.13-1.27-.21-1.87S403.73,426.36,403.34,426.77Z" transform="translate(-97.95 -1.98)"/><path class="cls-32" d="M397.5,362.4c-1.54-.2-5.13-.29-6.8-.29s-1.43.09-.8.66a25.75,25.75,0,0,1,2.15,2.28c.52.65.57.92.87.7s.86-.94,1.53-1.43a5.64,5.64,0,0,1,2.06-.9c.61-.15,1.06-.17,1.54-.34S399,362.6,397.5,362.4Z" transform="translate(-97.95 -1.98)"/><path class="cls-3" d="M397.5,362.4c-1.54-.2-5.13-.29-6.8-.29s-1.43.09-.8.66a25.75,25.75,0,0,1,2.15,2.28c.52.65.57.92.87.7s.86-.94,1.53-1.43a5.64,5.64,0,0,1,2.06-.9c.61-.15,1.06-.17,1.54-.34S399,362.6,397.5,362.4Z" transform="translate(-97.95 -1.98)"/><path class="cls-32" d="M402.76,363.61a35.53,35.53,0,0,0-4.8.93c-1.4.36-1.84.56-1.53.9a21.39,21.39,0,0,0,2.48,1.45c1.09.64,2.2,1.47,2.78,1.85s.63.31.88.22a6.79,6.79,0,0,1,1.19-.26c.45-.05.9-.05,1-.52a4.85,4.85,0,0,0-.42-2.13,10.2,10.2,0,0,1-.65-1.68C403.63,363.92,403.83,363.54,402.76,363.61Z" transform="translate(-97.95 -1.98)"/><path class="cls-3" d="M402.76,363.61a35.53,35.53,0,0,0-4.8.93c-1.4.36-1.84.56-1.53.9a21.39,21.39,0,0,0,2.48,1.45c1.09.64,2.2,1.47,2.78,1.85s.63.31.88.22a6.79,6.79,0,0,1,1.19-.26c.45-.05.9-.05,1-.52a4.85,4.85,0,0,0-.42-2.13,10.2,10.2,0,0,1-.65-1.68C403.63,363.92,403.83,363.54,402.76,363.61Z" transform="translate(-97.95 -1.98)"/><path class="cls-32" d="M405.08,370.11a2.22,2.22,0,0,0-1.68.12c-.41.25-.42.7-.15,1.23a20.47,20.47,0,0,0,1.2,1.69c.38.56.57,1.07.79,1.34a.53.53,0,0,0,.72.16,1.52,1.52,0,0,0,.62-.81,1.87,1.87,0,0,0,0-1.19,3.15,3.15,0,0,0-.59-.82,2,2,0,0,1-.31-.8A1.15,1.15,0,0,0,405.08,370.11Z" transform="translate(-97.95 -1.98)"/><path class="cls-3" d="M405.08,370.11a2.22,2.22,0,0,0-1.68.12c-.41.25-.42.7-.15,1.23a20.47,20.47,0,0,0,1.2,1.69c.38.56.57,1.07.79,1.34a.53.53,0,0,0,.72.16,1.52,1.52,0,0,0,.62-.81,1.87,1.87,0,0,0,0-1.19,3.15,3.15,0,0,0-.59-.82,2,2,0,0,1-.31-.8A1.15,1.15,0,0,0,405.08,370.11Z" transform="translate(-97.95 -1.98)"/><path class="cls-32" d="M407.79,376.79a1.07,1.07,0,0,0-.94,0,.77.77,0,0,0-.41.83,1.49,1.49,0,0,0,.7.9.55.55,0,0,0,.73-.16,1.55,1.55,0,0,0,.26-.88A.7.7,0,0,0,407.79,376.79Z" transform="translate(-97.95 -1.98)"/><path class="cls-3" d="M407.79,376.79a1.07,1.07,0,0,0-.94,0,.77.77,0,0,0-.41.83,1.49,1.49,0,0,0,.7.9.55.55,0,0,0,.73-.16,1.55,1.55,0,0,0,.26-.88A.7.7,0,0,0,407.79,376.79Z" transform="translate(-97.95 -1.98)"/><path class="cls-23" d="M359.35,376.25c.15-.8.84-2.23,1.22-3.32s.45-1.85.06-2.1-1.24,0-2.09.62a9.3,9.3,0,0,0-2.31,2.44,12.79,12.79,0,0,0-1.25,2.6,3.78,3.78,0,0,0-.34,1.68,6.38,6.38,0,0,0,.45,1.66A1.59,1.59,0,0,0,356.2,381a10.14,10.14,0,0,0,3.4.36,6.62,6.62,0,0,0,3.3-.92,3.45,3.45,0,0,0,1.37-1.93c.13-.54,0-.81-.46-.9a12.16,12.16,0,0,0-1.82,0,8,8,0,0,1-1.86-.22C359.61,377.23,359.21,377.05,359.35,376.25Z" transform="translate(-97.95 -1.98)"/><path class="cls-33" d="M359.35,376.25c.15-.8.84-2.23,1.22-3.32s.45-1.85.06-2.1-1.24,0-2.09.62a9.3,9.3,0,0,0-2.31,2.44,12.79,12.79,0,0,0-1.25,2.6,3.78,3.78,0,0,0-.34,1.68,6.38,6.38,0,0,0,.45,1.66A1.59,1.59,0,0,0,356.2,381a10.14,10.14,0,0,0,3.4.36,6.62,6.62,0,0,0,3.3-.92,3.45,3.45,0,0,0,1.37-1.93c.13-.54,0-.81-.46-.9a12.16,12.16,0,0,0-1.82,0,8,8,0,0,1-1.86-.22C359.61,377.23,359.21,377.05,359.35,376.25Z" transform="translate(-97.95 -1.98)"/><path class="cls-23" d="M365.2,387a38.75,38.75,0,0,0-5-.89c-1.43-.18-1.87-.18-1.62.51s1.22,2.07,1.81,3.28.81,2.23,1.23,2.36,1-.62,1.52-1.31a14.35,14.35,0,0,1,1.44-1.79c.5-.47,1.08-.78,1.41-1.11S366.37,387.34,365.2,387Z" transform="translate(-97.95 -1.98)"/><path class="cls-33" d="M365.2,387a38.75,38.75,0,0,0-5-.89c-1.43-.18-1.87-.18-1.62.51s1.22,2.07,1.81,3.28.81,2.23,1.23,2.36,1-.62,1.52-1.31a14.35,14.35,0,0,1,1.44-1.79c.5-.47,1.08-.78,1.41-1.11S366.37,387.34,365.2,387Z" transform="translate(-97.95 -1.98)"/><path class="cls-23" d="M373.07,397c-1.1-.1-3.34-.06-5.1-.13s-3.05-.24-3.67,0-.54,1-.15,1.9a9.4,9.4,0,0,0,1.77,2.61,2.89,2.89,0,0,0,2.21,1,8.06,8.06,0,0,0,3-.62,5,5,0,0,0,1.76-1.31,5.14,5.14,0,0,0,1-1.41,4.66,4.66,0,0,0,.28-1.34C374.15,397.37,374.17,397.13,373.07,397Z" transform="translate(-97.95 -1.98)"/><path class="cls-33" d="M373.07,397c-1.1-.1-3.34-.06-5.1-.13s-3.05-.24-3.67,0-.54,1-.15,1.9a9.4,9.4,0,0,0,1.77,2.61,2.89,2.89,0,0,0,2.21,1,8.06,8.06,0,0,0,3-.62,5,5,0,0,0,1.76-1.31,5.14,5.14,0,0,0,1-1.41,4.66,4.66,0,0,0,.28-1.34C374.15,397.37,374.17,397.13,373.07,397Z" transform="translate(-97.95 -1.98)"/><path class="cls-23" d="M379.55,410.17a22.88,22.88,0,0,1-3.68.89,14.63,14.63,0,0,1-3.34-.2c-.68-.06-.74.07-.61.67a14,14,0,0,0,.81,2.42,1.86,1.86,0,0,0,1.73,1.28,9.1,9.1,0,0,0,3.83-.53,4.65,4.65,0,0,0,2-1.71,4.82,4.82,0,0,0,.91-1.47,1.32,1.32,0,0,0-.22-1.2C380.8,410,380.44,410,379.55,410.17Z" transform="translate(-97.95 -1.98)"/><path class="cls-33" d="M379.55,410.17a22.88,22.88,0,0,1-3.68.89,14.63,14.63,0,0,1-3.34-.2c-.68-.06-.74.07-.61.67a14,14,0,0,0,.81,2.42,1.86,1.86,0,0,0,1.73,1.28,9.1,9.1,0,0,0,3.83-.53,4.65,4.65,0,0,0,2-1.71,4.82,4.82,0,0,0,.91-1.47,1.32,1.32,0,0,0-.22-1.2C380.8,410,380.44,410,379.55,410.17Z" transform="translate(-97.95 -1.98)"/><path class="cls-23" d="M385.6,414.07a6.87,6.87,0,0,0-2.64.82,15.53,15.53,0,0,1-2.45,1.1c-.83.23-1.77.23-2.59.4a3.19,3.19,0,0,0-1.81.92c-.26.38-.09.78.55,1.16a23.6,23.6,0,0,0,2.84,1.16,6.66,6.66,0,0,0,3.2.73,4.1,4.1,0,0,0,2.29-1.81,9.41,9.41,0,0,0,1.19-2.09,2.71,2.71,0,0,0,.19-1.38C386.33,414.63,386.22,414.12,385.6,414.07Z" transform="translate(-97.95 -1.98)"/><path class="cls-33" d="M385.6,414.07a6.87,6.87,0,0,0-2.64.82,15.53,15.53,0,0,1-2.45,1.1c-.83.23-1.77.23-2.59.4a3.19,3.19,0,0,0-1.81.92c-.26.38-.09.78.55,1.16a23.6,23.6,0,0,0,2.84,1.16,6.66,6.66,0,0,0,3.2.73,4.1,4.1,0,0,0,2.29-1.81,9.41,9.41,0,0,0,1.19-2.09,2.71,2.71,0,0,0,.19-1.38C386.33,414.63,386.22,414.12,385.6,414.07Z" transform="translate(-97.95 -1.98)"/><path class="cls-23" d="M391.4,416a2.73,2.73,0,0,0-2.58.63,8.88,8.88,0,0,0-1.24,3.43c-.26,1-.48,1.47.15,2.1a12.9,12.9,0,0,0,4.11,2.2,15.48,15.48,0,0,0,6.34,1.18,6.77,6.77,0,0,0,4.29-2.32,27.86,27.86,0,0,0,2.19-3,14.24,14.24,0,0,0,1.35-1.75c.18-.45-.05-.83-.81-.78s-2.05.54-3.35.83a11,11,0,0,1-3.79.22,9.49,9.49,0,0,1-3-1,20.26,20.26,0,0,1-2-1.12A4.05,4.05,0,0,0,391.4,416Z" transform="translate(-97.95 -1.98)"/><path class="cls-33" d="M391.4,416a2.73,2.73,0,0,0-2.58.63,8.88,8.88,0,0,0-1.24,3.43c-.26,1-.48,1.47.15,2.1a12.9,12.9,0,0,0,4.11,2.2,15.48,15.48,0,0,0,6.34,1.18,6.77,6.77,0,0,0,4.29-2.32,27.86,27.86,0,0,0,2.19-3,14.24,14.24,0,0,0,1.35-1.75c.18-.45-.05-.83-.81-.78s-2.05.54-3.35.83a11,11,0,0,1-3.79.22,9.49,9.49,0,0,1-3-1,20.26,20.26,0,0,1-2-1.12A4.05,4.05,0,0,0,391.4,416Z" transform="translate(-97.95 -1.98)"/><path class="cls-2" d="M483.68,370.53a8.73,8.73,0,0,0,2.77-2.51,12.29,12.29,0,0,0,1.75-4,53.35,53.35,0,0,1,2-5.61,12.88,12.88,0,0,1,2.92-4,46.36,46.36,0,0,0,4.74-5.22,15.83,15.83,0,0,0,2.77-6.69,26.84,26.84,0,0,0-.07-6.69c-.19-1.82-.32-3-.39-3.8a9.28,9.28,0,0,1,0-1.9,10.17,10.17,0,0,0,.05-2.33c-.11-1.15-.43-2.84-1.28-3.55a2,2,0,0,0-2.87.47c-.61.91-.45,2.46-.29,4.18s.32,3.58.63,5.24a29.28,29.28,0,0,1,.81,4.94,16.38,16.38,0,0,1-1,5.86,15.25,15.25,0,0,1-2.77,4.53c-1.11,1.34-2.34,2.63-3.24,3.62s-1.46,1.68-1.8,2.08-.49.51-.57,0-.1-1.55-.32-2.49-.61-1.74-.92-2.7a19.73,19.73,0,0,0-.86-2.7,1.15,1.15,0,0,0-1.12-.71c-.33,0-.55.14-.34.93a28.81,28.81,0,0,1,1.14,3.9,32.55,32.55,0,0,1,.22,4.91,20.92,20.92,0,0,1,0,3.22c-.15,1-.55,2-.87,3.23s-.56,2.61-.8,3.73-.48,2-.65,2.76S483.06,370.76,483.68,370.53Z" transform="translate(-97.95 -1.98)"/><path class="cls-3" d="M483.68,370.53a8.73,8.73,0,0,0,2.77-2.51,12.29,12.29,0,0,0,1.75-4,53.35,53.35,0,0,1,2-5.61,12.88,12.88,0,0,1,2.92-4,46.36,46.36,0,0,0,4.74-5.22,15.83,15.83,0,0,0,2.77-6.69,26.84,26.84,0,0,0-.07-6.69c-.19-1.82-.32-3-.39-3.8a9.28,9.28,0,0,1,0-1.9,10.17,10.17,0,0,0,.05-2.33c-.11-1.15-.43-2.84-1.28-3.55a2,2,0,0,0-2.87.47c-.61.91-.45,2.46-.29,4.18s.32,3.58.63,5.24a29.28,29.28,0,0,1,.81,4.94,16.38,16.38,0,0,1-1,5.86,15.25,15.25,0,0,1-2.77,4.53c-1.11,1.34-2.34,2.63-3.24,3.62s-1.46,1.68-1.8,2.08-.49.51-.57,0-.1-1.55-.32-2.49-.61-1.74-.92-2.7a19.73,19.73,0,0,0-.86-2.7,1.15,1.15,0,0,0-1.12-.71c-.33,0-.55.14-.34.93a28.81,28.81,0,0,1,1.14,3.9,32.55,32.55,0,0,1,.22,4.91,20.92,20.92,0,0,1,0,3.22c-.15,1-.55,2-.87,3.23s-.56,2.61-.8,3.73-.48,2-.65,2.76S483.06,370.76,483.68,370.53Z" transform="translate(-97.95 -1.98)"/><path class="cls-2" d="M482.79,274c.46,1.71.38,4.36.63,6.68s.85,4.29,1.1,6.55.17,4.81.36,7.3a28.75,28.75,0,0,0,1.39,7.1,25.2,25.2,0,0,0,3,5.84,44.55,44.55,0,0,0,3.75,4.71,20.05,20.05,0,0,1,3.77,5.35,42.19,42.19,0,0,1,2.69,8.76A27.82,27.82,0,0,1,500,332a28.84,28.84,0,0,0,.14,3.14c.09.82.25,1.46-.11,1.79a3.12,3.12,0,0,1-1.9.34c-.66,0-1.09-.11-1.27-.71a20.86,20.86,0,0,1-.23-3.31c-.09-1.58-.34-3.61-.46-5.35a19.83,19.83,0,0,0-.62-4.79,25.09,25.09,0,0,0-3.11-5.77c-1.58-2.39-3.72-5.42-5.68-7.82s-3.76-4.21-5.15-6.81a25.37,25.37,0,0,1-2.66-10.21,106.31,106.31,0,0,1,.3-12.21,25.65,25.65,0,0,0-.15-5.73,11,11,0,0,1-.29-3.37c.2-.64.89-.53,1.74-.09A4.34,4.34,0,0,1,482.79,274Z" transform="translate(-97.95 -1.98)"/><path class="cls-3" d="M482.79,274c.46,1.71.38,4.36.63,6.68s.85,4.29,1.1,6.55.17,4.81.36,7.3a28.75,28.75,0,0,0,1.39,7.1,25.2,25.2,0,0,0,3,5.84,44.55,44.55,0,0,0,3.75,4.71,20.05,20.05,0,0,1,3.77,5.35,42.19,42.19,0,0,1,2.69,8.76A27.82,27.82,0,0,1,500,332a28.84,28.84,0,0,0,.14,3.14c.09.82.25,1.46-.11,1.79a3.12,3.12,0,0,1-1.9.34c-.66,0-1.09-.11-1.27-.71a20.86,20.86,0,0,1-.23-3.31c-.09-1.58-.34-3.61-.46-5.35a19.83,19.83,0,0,0-.62-4.79,25.09,25.09,0,0,0-3.11-5.77c-1.58-2.39-3.72-5.42-5.68-7.82s-3.76-4.21-5.15-6.81a25.37,25.37,0,0,1-2.66-10.21,106.31,106.31,0,0,1,.3-12.21,25.65,25.65,0,0,0-.15-5.73,11,11,0,0,1-.29-3.37c.2-.64.89-.53,1.74-.09A4.34,4.34,0,0,1,482.79,274Z" transform="translate(-97.95 -1.98)"/><path class="cls-23" d="M482.69,276.76a9.06,9.06,0,0,0-.37,3.91,27.26,27.26,0,0,1,.44,5.78c-.2,2.41-1.1,5.52-.37,8.93s3.09,7.15,5,9.75,3.31,4.09,4.26,5.23a14.05,14.05,0,0,1,1.73,2.51c.31.56.43.89.23-.66s-.72-5-1.85-10-2.88-11.71-4.11-16a59.25,59.25,0,0,0-2.48-7.38,6.68,6.68,0,0,0-1.28-2.24c-.4-.38-.85-.53-1.18.17" transform="translate(-97.95 -1.98)"/><path class="cls-2" d="M402,360.44c.23-.25.91-.3,2.38-.41a37.48,37.48,0,0,1,6.76,0,45,45,0,0,1,9.34,1.93,17.11,17.11,0,0,1,5,2.65,22.45,22.45,0,0,1,2,1.57,1.65,1.65,0,0,1,.57.91c.06.27,0,.55-.56.57a6.18,6.18,0,0,1-2.39-.57,6.67,6.67,0,0,1-1.56-1.34,10.82,10.82,0,0,0-3.05-1.88,25.41,25.41,0,0,0-7.14-2.15,47.75,47.75,0,0,0-8.08-.14c-1.93.06-2.53,0-2.94-.23S401.74,360.68,402,360.44Z" transform="translate(-97.95 -1.98)"/><path class="cls-3" d="M402,360.44c.23-.25.91-.3,2.38-.41a37.48,37.48,0,0,1,6.76,0,45,45,0,0,1,9.34,1.93,17.11,17.11,0,0,1,5,2.65,22.45,22.45,0,0,1,2,1.57,1.65,1.65,0,0,1,.57.91c.06.27,0,.55-.56.57a6.18,6.18,0,0,1-2.39-.57,6.67,6.67,0,0,1-1.56-1.34,10.82,10.82,0,0,0-3.05-1.88,25.41,25.41,0,0,0-7.14-2.15,47.75,47.75,0,0,0-8.08-.14c-1.93.06-2.53,0-2.94-.23S401.74,360.68,402,360.44Z" transform="translate(-97.95 -1.98)"/><path class="cls-2" d="M452.48,353.05c-1.84.08-7.2.35-11,.78a66.21,66.21,0,0,0-7.62,1.34,13.77,13.77,0,0,1-4.37.24,49.2,49.2,0,0,0-7.89-.22,52.73,52.73,0,0,0-10.55,2.17,94.49,94.49,0,0,0-12.6,4.68,60,60,0,0,0-13.73,8.22,51.18,51.18,0,0,0-7.81,9c-1.37,1.8-1.53,1.53,0,0s4.66-4.23,7.39-6.58a47.24,47.24,0,0,1,8.19-6.1c3.15-1.77,7.17-3.32,9.82-4.47a60.65,60.65,0,0,1,6.23-2.63,73.92,73.92,0,0,1,8.43-1.9,55.5,55.5,0,0,1,7.17-.83,41.25,41.25,0,0,1,4.85.11c1,.08,1.07.13-.11.64a48,48,0,0,0-5.43,2.55,25.59,25.59,0,0,0-4.26,3.45,49.06,49.06,0,0,0-5.59,5.56,130.94,130.94,0,0,0-11.32,15.77c-4.76,7.6-10.44,17.77-15.71,27.75S376.4,432.35,373.8,438s-2.91,7.06-3,7.49.16-.16,1.58-2.78,4-7.28,8.48-15.66,10.71-20.47,15.71-29.38a184.55,184.55,0,0,1,11.75-18.74,84,84,0,0,1,7.6-9,58.47,58.47,0,0,1,7.47-6.85,34.78,34.78,0,0,1,8-4.28,27.12,27.12,0,0,1,14.1-1.71c3.75.32,9.58,1,12.79,1.36s3.8.57.83.08-9.5-1.6-12.87-2.22-3.59-.72-3.32-.77,1-.06,2-.22a20.22,20.22,0,0,0,3.34-.85,20.18,20.18,0,0,1,3.08-1.07C452.67,353.08,454.33,353,452.48,353.05Z" transform="translate(-97.95 -1.98)"/><path class="cls-3" d="M452.48,353.05c-1.84.08-7.2.35-11,.78a66.21,66.21,0,0,0-7.62,1.34,13.77,13.77,0,0,1-4.37.24,49.2,49.2,0,0,0-7.89-.22,52.73,52.73,0,0,0-10.55,2.17,94.49,94.49,0,0,0-12.6,4.68,60,60,0,0,0-13.73,8.22,51.18,51.18,0,0,0-7.81,9c-1.37,1.8-1.53,1.53,0,0s4.66-4.23,7.39-6.58a47.24,47.24,0,0,1,8.19-6.1c3.15-1.77,7.17-3.32,9.82-4.47a60.65,60.65,0,0,1,6.23-2.63,73.92,73.92,0,0,1,8.43-1.9,55.5,55.5,0,0,1,7.17-.83,41.25,41.25,0,0,1,4.85.11c1,.08,1.07.13-.11.64a48,48,0,0,0-5.43,2.55,25.59,25.59,0,0,0-4.26,3.45,49.06,49.06,0,0,0-5.59,5.56,130.94,130.94,0,0,0-11.32,15.77c-4.76,7.6-10.44,17.77-15.71,27.75S376.4,432.35,373.8,438s-2.91,7.06-3,7.49.16-.16,1.58-2.78,4-7.28,8.48-15.66,10.71-20.47,15.71-29.38a184.55,184.55,0,0,1,11.75-18.74,84,84,0,0,1,7.6-9,58.47,58.47,0,0,1,7.47-6.85,34.78,34.78,0,0,1,8-4.28,27.12,27.12,0,0,1,14.1-1.71c3.75.32,9.58,1,12.79,1.36s3.8.57.83.08-9.5-1.6-12.87-2.22-3.59-.72-3.32-.77,1-.06,2-.22a20.22,20.22,0,0,0,3.34-.85,20.18,20.18,0,0,1,3.08-1.07C452.67,353.08,454.33,353,452.48,353.05Z" transform="translate(-97.95 -1.98)"/><path class="cls-2" d="M444.14,362.15c-.6-.21-16.41,1.63-27,3.21s-16,2.89-23.75,6.56a164.31,164.31,0,0,0-28.31,17.75,340.72,340.72,0,0,0-28.25,24.79,134.26,134.26,0,0,0-10.62,11.26c-1.33,1.59-1.43,1.7,1.92-1.51s10.19-9.74,16.12-15.12,11-9.61,15.46-13.3,8.5-6.85,12.85-9.86a130.83,130.83,0,0,1,13.94-8.42A117.31,117.31,0,0,1,401.28,371c4.87-1.71,9.55-2.91,19.2-4.65S444.74,362.36,444.14,362.15Z" transform="translate(-97.95 -1.98)"/><path class="cls-3" d="M444.14,362.15c-.6-.21-16.41,1.63-27,3.21s-16,2.89-23.75,6.56a164.31,164.31,0,0,0-28.31,17.75,340.72,340.72,0,0,0-28.25,24.79,134.26,134.26,0,0,0-10.62,11.26c-1.33,1.59-1.43,1.7,1.92-1.51s10.19-9.74,16.12-15.12,11-9.61,15.46-13.3,8.5-6.85,12.85-9.86a130.83,130.83,0,0,1,13.94-8.42A117.31,117.31,0,0,1,401.28,371c4.87-1.71,9.55-2.91,19.2-4.65S444.74,362.36,444.14,362.15Z" transform="translate(-97.95 -1.98)"/><path class="cls-2" d="M412.78,375.38a156.07,156.07,0,0,1,15.78-8.48,52.62,52.62,0,0,1,9.6-3.42c1.61-.41,1.74-.43-2.11.86s-11.66,3.9-16.26,5.68-6,2.75-7.82,4.45-4.17,4.13-4.54,4.59S408.64,378,412.78,375.38Z" transform="translate(-97.95 -1.98)"/><path class="cls-3" d="M412.78,375.38a156.07,156.07,0,0,1,15.78-8.48,52.62,52.62,0,0,1,9.6-3.42c1.61-.41,1.74-.43-2.11.86s-11.66,3.9-16.26,5.68-6,2.75-7.82,4.45-4.17,4.13-4.54,4.59S408.64,378,412.78,375.38Z" transform="translate(-97.95 -1.98)"/><path class="cls-2" d="M384.61,426.43A199.37,199.37,0,0,1,397.4,409,241.68,241.68,0,0,1,414,391.08a131.8,131.8,0,0,1,11.91-10.94,64.88,64.88,0,0,1,12-7.28A88.52,88.52,0,0,1,452,367.48a74.4,74.4,0,0,1,10.62-2.06c2.06-.27,2.17-.27-.59.34a125.77,125.77,0,0,0-13.81,3.75,85.09,85.09,0,0,0-13.83,6.32c-3.16,1.84-4.23,3-4.71,3.58s-.38.73,2.19-.61a138.4,138.4,0,0,1,12.74-6.18,114.14,114.14,0,0,1,13.84-4.31c3.45-.91,5.11-1.39,6-1.58s.91-.08-1.07.53-6,1.74-9.93,3.13-7.78,3.06-12.33,5.12a136.69,136.69,0,0,0-13.44,6.74,28.64,28.64,0,0,0-8.27,7.44,140.71,140.71,0,0,0-8.77,12.55c-3,4.82-5.92,10-8.7,15.31s-5.46,10.92-6.88,13.73-1.58,2.86,2-4.12,10.76-21,14.27-28.05,3.29-7.09.91-4.74-6.93,7.12-11.29,12.26-8.54,10.65-11.89,14.93S383.11,428.9,384.61,426.43Z" transform="translate(-97.95 -1.98)"/><path class="cls-3" d="M384.61,426.43A199.37,199.37,0,0,1,397.4,409,241.68,241.68,0,0,1,414,391.08a131.8,131.8,0,0,1,11.91-10.94,64.88,64.88,0,0,1,12-7.28A88.52,88.52,0,0,1,452,367.48a74.4,74.4,0,0,1,10.62-2.06c2.06-.27,2.17-.27-.59.34a125.77,125.77,0,0,0-13.81,3.75,85.09,85.09,0,0,0-13.83,6.32c-3.16,1.84-4.23,3-4.71,3.58s-.38.73,2.19-.61a138.4,138.4,0,0,1,12.74-6.18,114.14,114.14,0,0,1,13.84-4.31c3.45-.91,5.11-1.39,6-1.58s.91-.08-1.07.53-6,1.74-9.93,3.13-7.78,3.06-12.33,5.12a136.69,136.69,0,0,0-13.44,6.74,28.64,28.64,0,0,0-8.27,7.44,140.71,140.71,0,0,0-8.77,12.55c-3,4.82-5.92,10-8.7,15.31s-5.46,10.92-6.88,13.73-1.58,2.86,2-4.12,10.76-21,14.27-28.05,3.29-7.09.91-4.74-6.93,7.12-11.29,12.26-8.54,10.65-11.89,14.93S383.11,428.9,384.61,426.43Z" transform="translate(-97.95 -1.98)"/><path class="cls-2" d="M453.61,372.24a131,131,0,0,0-17.18,14.23c-6.27,6.4-11,13.58-15.66,22.06s-9.34,18.28-11.73,23.15-2.48,4.82,0,.29,7.58-13.51,11.43-20.18a118.21,118.21,0,0,1,21.84-29c4-4,7.49-7,10.1-9.19S456.69,370.08,453.61,372.24Z" transform="translate(-97.95 -1.98)"/><path class="cls-3" d="M453.61,372.24a131,131,0,0,0-17.18,14.23c-6.27,6.4-11,13.58-15.66,22.06s-9.34,18.28-11.73,23.15-2.48,4.82,0,.29,7.58-13.51,11.43-20.18a118.21,118.21,0,0,1,21.84-29c4-4,7.49-7,10.1-9.19S456.69,370.08,453.61,372.24Z" transform="translate(-97.95 -1.98)"/><path class="cls-2" d="M467.7,367.51a76.3,76.3,0,0,0-12.28,13.43,257.77,257.77,0,0,0-16.62,26.6c-4.36,7.92-6.55,12.79-7.57,15s-.86,1.63,1.93-3.45,8.18-14.72,13-22.7a203.06,203.06,0,0,1,12.32-18.42,70.35,70.35,0,0,1,7.27-7.94C467.68,368.09,469.34,366.22,467.7,367.51Z" transform="translate(-97.95 -1.98)"/><path class="cls-3" d="M467.7,367.51a76.3,76.3,0,0,0-12.28,13.43,257.77,257.77,0,0,0-16.62,26.6c-4.36,7.92-6.55,12.79-7.57,15s-.86,1.63,1.93-3.45,8.18-14.72,13-22.7a203.06,203.06,0,0,1,12.32-18.42,70.35,70.35,0,0,1,7.27-7.94C467.68,368.09,469.34,366.22,467.7,367.51Z" transform="translate(-97.95 -1.98)"/><path class="cls-2" d="M468.38,376.86a12,12,0,0,1,.24,4.79,126.8,126.8,0,0,1-2.43,12.83c-.92,4-1.59,6.26-1.86,7.24s-.13.63.61-.75a39,39,0,0,0,3.08-6.73,57.9,57.9,0,0,0,1.92-9c.38-2.55.6-4.15.66-5.13s0-1.32.39-1,1.29,1.23,2.6,4,3.05,7.45,4.33,11,2.12,6.1,2.57,7.13.54.57-.18-2.23-2.25-8-3.38-11.58a36.79,36.79,0,0,0-2.7-7.12,11.68,11.68,0,0,0-2.73-3.17,5.43,5.43,0,0,0-2.23-1.38C468.69,375.77,468.32,376.2,468.38,376.86Z" transform="translate(-97.95 -1.98)"/><path class="cls-3" d="M468.38,376.86a12,12,0,0,1,.24,4.79,126.8,126.8,0,0,1-2.43,12.83c-.92,4-1.59,6.26-1.86,7.24s-.13.63.61-.75a39,39,0,0,0,3.08-6.73,57.9,57.9,0,0,0,1.92-9c.38-2.55.6-4.15.66-5.13s0-1.32.39-1,1.29,1.23,2.6,4,3.05,7.45,4.33,11,2.12,6.1,2.57,7.13.54.57-.18-2.23-2.25-8-3.38-11.58a36.79,36.79,0,0,0-2.7-7.12,11.68,11.68,0,0,0-2.73-3.17,5.43,5.43,0,0,0-2.23-1.38C468.69,375.77,468.32,376.2,468.38,376.86Z" transform="translate(-97.95 -1.98)"/><g class="cls-34"><rect class="cls-35" x="385.47" y="335.54" width="14.73" height="18.71"/></g><path class="cls-3" d="M496.66,338a10,10,0,0,0-3.83-.37,31.93,31.93,0,0,0-6.06,1c-1.82.5-3,1.12-3.19,2.34A5.73,5.73,0,0,0,485.4,345a6.1,6.1,0,0,0,3.22,1.51,11.36,11.36,0,0,1,2,.55c.42.18.61.37.48.75a4.42,4.42,0,0,1-.94,1.32,2.43,2.43,0,0,1-.89.66,2.18,2.18,0,0,1-1.18.08c-.58-.08-1.44-.29-1.58.16s.45,1.56.8,2.53a10,10,0,0,1,.53,2.47c.07.67.11,1.17.35,1s.69-1,2.07-2.46,3.69-3.39,5.17-5.26a12.16,12.16,0,0,0,2.43-5.18,9.52,9.52,0,0,0,.11-3.68A1.72,1.72,0,0,0,496.66,338Z" transform="translate(-97.95 -1.98)"/><path class="cls-23" d="M276.28,113.57a15.36,15.36,0,0,1,5.86,1.44,48.8,48.8,0,0,1,9.55,5.86,44.3,44.3,0,0,1,7,6.58,33.23,33.23,0,0,1,4.34,6.46c1.16,2.28,2.13,4.76,2.66,6.09s.64,1.48.1.55-1.76-3-3.66-5.65a70.62,70.62,0,0,0-7.56-9,64.21,64.21,0,0,0-9.44-7.73,35.86,35.86,0,0,0-6.67-3.53c-1.64-.65-2.77-1-2.18-1" transform="translate(-97.95 -1.98)"/><path class="cls-23" d="M441.73,286.05a10.79,10.79,0,0,0,.47,2.37,13.81,13.81,0,0,0,1.38,2.23,7.15,7.15,0,0,1,.94,2.19,2.69,2.69,0,0,1-.07,1.38c-.09.33-.16.56,0,.59s.51-.17.92-.22.88,0,1.26,0a.78.78,0,0,0,.8-.7,5.33,5.33,0,0,0-.16-2.47,11.85,11.85,0,0,0-1.33-2.84,10.16,10.16,0,0,0-1.65-2.13,4.36,4.36,0,0,0-1.61-1,2,2,0,0,0-1-.11c-.13,0,0,.12.05.66" transform="translate(-97.95 -1.98)"/></svg>