<svg xmlns="http://www.w3.org/2000/svg" xmlns:xlink="http://www.w3.org/1999/xlink" viewBox="0 0 920 1000">
    <defs>
        <linearGradient id="gradient" x1="500" y1="1000" x2="500" gradientTransform="matrix(1, 0, 0, -1, 0, 1000)" gradientUnits="userSpaceOnUse">
            <stop offset="0" stop-color="#ff502b"/>
            <stop offset="1" stop-color="#711714"/>
        </linearGradient>
        <linearGradient id="gradient_2" x1="500.27" y1="968.68" x2="500.27" y2="30.8" gradientTransform="matrix(1, 0, 0, -1, 0, 1000)" gradientUnits="userSpaceOnUse">
            <stop offset="0" stop-color="#ffff87"/>
            <stop offset="1" stop-color="#ffcf2f"/>
        </linearGradient>
        <linearGradient id="gradient_3" x1="507.24" y1="880.74" x2="507.24" y2="151.85" gradientTransform="matrix(1, 0, 0, -1, 0, 1000)" gradientUnits="userSpaceOnUse">
            <stop offset="0" stop-color="#3d1e0a"/>
            <stop offset="1" stop-color="#a91411"/>
        </linearGradient>
        <linearGradient id="gradient_4" x1="506.99" y1="819.44" x2="506.99" y2="326.96" gradientTransform="matrix(1, 0, 0, -1, 0, 1000)" gradientUnits="userSpaceOnUse">
            <stop offset="0" stop-color="#dc8d30"/>
            <stop offset="0.46" stop-color="#ff7"/>
            <stop offset="1" stop-color="#ffb330"/>
        </linearGradient>
    </defs>
    <title>Revoland-icon</title>
    <path d="M93.47,88.25,40,147.82l68.35,647L505.24,1000,885.58,805.85l74.42-658L909.84,88.25H723.52L505.24,0,283.64,88.25Z" transform="translate(-40)" fill="url(#gradient)"/>
    <path d="M119.24,114.09,69.12,170l64.07,606.8,372,192.44L861.67,787.11,931.42,170l-47-55.87H709.77L505.18,31.32l-207.7,82.77Z" transform="translate(-40)" fill="url(#gradient_2)"/>
    <path d="M209.65,721.41l293,126.74L789.85,721.41l64.59-517.83L834.8,177.72H686.52L502.6,119.26l-171,62.59H196.22l-36.17,56.39Z" transform="translate(-40)" fill="url(#gradient_3)"/>
    <path d="M301.1,238.24,249.43,689.85h202l-13.54-187h60l42.38,187H764.54l-128.14-187h92.67L739.74,207.2Z" transform="translate(-40)" fill="url(#gradient_4)"/>
    <path d="M425.74,432l-6.84-99.34L591.31,305l6.07,106.94Z" transform="translate(-40)" fill="#601c0d"/>
</svg>