<svg xmlns="http://www.w3.org/2000/svg" xmlns:xlink="http://www.w3.org/1999/xlink" width="128" height="128" viewBox="0 0 1644 1644">
    <defs>
        <style>
            .cls-1 {
            stroke-width: 20px;
            fill-rule: evenodd;
            fill: url(#linear-gradient);
            stroke: url(#linear-gradient-2);
            }
        </style>
        <linearGradient id="linear-gradient" x1="558.368" y1="1266.09" x2="1085.132" y2="315.781" gradientUnits="userSpaceOnUse">
            <stop offset="0" stop-color="#5cb042"/>
            <stop offset="1" stop-color="#99df36"/>
        </linearGradient>
        <linearGradient id="linear-gradient-2" x1="408.704" y1="1266.09" x2="1234.796" y2="315.781" xlink:href="#linear-gradient"/>
    </defs>
    <path id="ellipse" class="cls-1"
          d="M929.429,498s-124.793,112.133-209.436-8c0,0-60.98-129.211,71.806-170,0,0,79.307-25.777,149.6,50,0,0,63.174,47.379,133.644-13,0,0,102.95-94.1,195.47,3,0,0,81.03,76.8-38.9,200,0,0-46.48,74.941,24.94,131,0,0,101.79,113.844-24.94,226,0,0-30.66,64.641,8.98,113,0,0,104.03,122.84,16.95,200,0,0-80.08,68.95-163.55-3,0,0-85.54-79.9,20.94-202,0,0,41.79-77.832,1.99-114,0,0-127.014-113.258-3.99-237,0,0,44.91-64.453,3.99-121C1116.92,553,1058,439.223,929.429,498ZM529.506,900s-45.159,80.535-7.978,126c0,0,114.675,103.5,21.941,209,0,0-88.979,71.26-158.573-2,0,0-100.69-70.22,22.938-216,0,0,37.146-69.078-12.965-121,0,0-111.407-138.285,19.946-209,0,0,47.695-17.083,91.753-3C564.161,702.409,614.177,765.267,529.506,900ZM820.719,676c63.34,0,114.687,51.487,114.687,115S884.059,906,820.719,906,706.031,854.513,706.031,791,757.379,676,820.719,676Zm0,360c63.34,0,114.687,51.49,114.687,115s-51.347,115-114.687,115-114.688-51.49-114.688-115S757.379,1036,820.719,1036ZM462.688,316c63.34,0,114.687,51.487,114.687,115S526.028,546,462.688,546,348,494.513,348,431,399.347,316,462.688,316Z"/>
</svg>
