<?xml version="1.0" encoding="UTF-8" standalone="no"?>
<svg
   xmlns:dc="http://purl.org/dc/elements/1.1/"
   xmlns:cc="http://creativecommons.org/ns#"
   xmlns:rdf="http://www.w3.org/1999/02/22-rdf-syntax-ns#"
   xmlns:svg="http://www.w3.org/2000/svg"
   xmlns="http://www.w3.org/2000/svg"
   xmlns:sodipodi="http://sodipodi.sourceforge.net/DTD/sodipodi-0.dtd"
   xmlns:inkscape="http://www.inkscape.org/namespaces/inkscape"
   width="128"
   height="128"
   viewBox="0 0 128 128"
   fill="none"
   version="1.1"
   id="svg952"
   sodipodi:docname="logo.svg"
   inkscape:version="1.0.2-2 (e86c870879, 2021-01-15)">
  <metadata
     id="metadata956">
    <rdf:RDF>
      <cc:Work
         rdf:about="">
        <dc:format>image/svg+xml</dc:format>
        <dc:type
           rdf:resource="http://purl.org/dc/dcmitype/StillImage" />
        <dc:title></dc:title>
      </cc:Work>
    </rdf:RDF>
  </metadata>
  <sodipodi:namedview
     pagecolor="#ffffff"
     bordercolor="#666666"
     borderopacity="1"
     objecttolerance="10"
     gridtolerance="10"
     guidetolerance="10"
     inkscape:pageopacity="0"
     inkscape:pageshadow="2"
     inkscape:window-width="1920"
     inkscape:window-height="1121"
     id="namedview954"
     showgrid="false"
     inkscape:zoom="3.828125"
     inkscape:cx="45.14606"
     inkscape:cy="24.768369"
     inkscape:window-x="-9"
     inkscape:window-y="-9"
     inkscape:window-maximized="1"
     inkscape:current-layer="svg952" />
  <path
     d="m 127.75467,64.000032 c 0,13.722061 -4.33655,26.426186 -11.70655,36.829638 -3.8887,5.49708 -8.63237,10.34233 -14.04771,14.37361 -10.607135,7.87897 -23.75912,12.56154 -37.990151,12.56154 C 28.788745,127.74445 0.245328,99.200907 0.245328,64.000032 c 0,-28.319477 18.465723,-52.323008 44.01645,-60.6295484 4.784417,-1.5472873 9.792629,-2.56524407 15.004804,-2.95206857 1.567646,-0.12215525 3.155661,-0.18323153 4.764046,-0.18323153 35.180508,0 63.724042,28.5436015 63.724042,63.7648485 z"
     fill="url(#paint0_linear_102_2)"
     id="path939"
     style="fill:url(#paint0_linear_102_2);stroke-width:2.68019" />
  <path
     d="m 12.888454,71.736517 c 0.59042,0 0.956883,0 1.323346,0 10.24065,0 20.481299,0 30.722056,0 1.343582,0 1.343582,0 1.343582,-1.32348 0,-10.240489 0,-20.481246 0,-30.721735 0,-0.36665 0,-0.733033 0,-1.119785 0.407122,-0.04074 0.549708,0.305274 0.733033,0.4886 5.435704,5.354493 10.851306,10.729088 16.246538,16.103951 0.570078,0.570077 0.854982,0.570077 1.42506,0 5.395232,-5.394964 10.831203,-10.749458 16.246537,-16.124321 0.183325,-0.183325 0.387021,-0.366383 0.753402,-0.712664 0,0.529339 0,0.87562 0,1.242003 0,10.301597 0.02037,20.623832 -0.02037,30.925429 0,0.997569 0.305274,1.242002 1.262104,1.242002 10.281496,-0.02037 20.542628,-0.02037 30.823858,-0.02037 0.36638,0 0.73303,0 1.36395,0 -1.28248,1.323212 -2.42263,2.504106 -3.58315,3.685 -4.43814,4.519613 -8.89691,9.039494 -13.314683,13.579476 -0.488867,0.508969 -0.977467,0.692294 -1.689863,0.692294 -21.682509,0 -43.385388,0 -65.088266,0 -0.692295,0 -1.201264,-0.183325 -1.689863,-0.692294 C 24.309944,83.402334 18.833314,77.844146 13.37708,72.265856 13.275286,72.164009 13.173493,72.041792 12.888454,71.736517 Z"
     fill="#ffffff"
     id="path941"
     style="stroke-width:2.68019" />
  <defs
     id="defs950">
    <linearGradient
       id="paint0_linear_102_2"
       x1="41.159"
       y1="6.9946699"
       x2="16.3619"
       y2="31.572399"
       gradientUnits="userSpaceOnUse"
       gradientTransform="matrix(2.680195,0,0,2.680195,-0.32460474,-0.33483232)">
      <stop
         stop-color="#4792D5"
         id="stop943" />
      <stop
         offset="0.3432"
         stop-color="#4792D5"
         id="stop945" />
      <stop
         offset="1"
         stop-color="#6347F4"
         id="stop947" />
    </linearGradient>
  </defs>
</svg>
