<svg width="700" height="700" viewBox="0 0 700 700" fill="none" xmlns="http://www.w3.org/2000/svg">
<g clip-path="url(#clip0_29_1291)">
<circle cx="350" cy="350" r="350" fill="#F1FCF4"/>
<g clip-path="url(#clip1_29_1291)">
<path d="M174.772 350.503L155.102 384.571C140.301 410.218 140.301 441.767 155.102 467.414L185.436 520.006L283.233 350.503H174.772Z" fill="#55D491"/>
<path d="M272.575 181L242.241 233.592C227.44 259.239 227.44 290.788 242.241 316.435L261.911 350.503H373.878L272.575 181Z" fill="#1D7949"/>
<path d="M524.945 350.503H416.483L514.281 520.006L544.614 467.414C559.416 441.767 559.416 410.218 544.614 384.571L524.945 350.503Z" fill="#1D7949"/>
<path d="M437.064 181L319.598 384.565C304.796 410.212 304.796 441.761 319.598 467.408L349.931 520L467.929 315.506C482.93 289.491 482.702 257.381 467.298 231.599L437.064 181Z" fill="#55D491"/>
</g>
</g>
<defs>
<clipPath id="clip0_29_1291">
<rect width="700" height="700" fill="white"/>
</clipPath>
<clipPath id="clip1_29_1291">
<rect width="411.717" height="339" fill="white" transform="translate(144 181)"/>
</clipPath>
</defs>
</svg>
