<svg xmlns="http://www.w3.org/2000/svg" width="1280" height="1280" fill="none" xmlns:v="https://vecta.io/nano"><g clip-path="url(#B)"><path d="M638.5 110l568.55 678H69.954L638.5 110z" fill="#fbe1d0"/><mask id="A" maskUnits="userSpaceOnUse" x="49" y="65.045" width="1182" height="1005" fill="#000"><path fill="#fff" d="M49 65.045h1182v1005H49z"/><path fill-rule="evenodd" d="M642.8 82.2c.5.7 2.2 3.5 3.7 6.3 1.4 2.7 5.1 8.8 8 13.5 3 4.7 7.1 11.4 9.1 15s4.5 7.6 5.5 9c1.1 1.4 2.3 3.4 2.8 4.5 1.2 2.8 16.3 28 20.3 33.8 23.8 35 60.9 70.3 114.3 108.6l9.5 6.6 5.5 3.8c3.4 2.7 12 8.6 16.1 11.2 2.6 1.6 5.9 3.8 7.3 4.7 1.4 1 3.6 2.3 4.9 2.9 1.2.7 2.2 1.6 2.2 2.1 0 .4.4.8.9.8s3.6 1.7 6.8 3.9l21.8 14.1c.3 0 1.1.5 1.8 1 1.4 1.3 15.9 10.6 33.1 21.3 1 .7 5.4 3.4 9.7 6.2l14.1 8.9c10.2 6.4 28.8 18.5 36.1 23.5l8.5 5.6c2.3 1.3 22.4 14.8 23.7 15.8 1.2 1 8.8 6.4 18.4 13.2 8.9 6.3 38.5 29 45.9 35.2 37.2 31.1 68.1 63.9 88.4 93.8 6.3 9.2 19.8 31.9 19.8 33.3 0 .4 1.4 3.5 3.1 6.8 6.5 12.5 13.4 30.7 18.2 47.4l3.1 11c3.7 13.3 8.4 41.6 9.4 57.5.9 15.2.9 42.7 0 57-.7 10-4.4 38-5.2 39.4-.2.3-.7 2.4-1 4.6-.4 2.2-1.5 7.1-2.6 11-1 3.8-2.2 8.1-2.4 9.5-.7 3.3-3.2 11.7-4.7 16l-6.9 18.5c-.5 1.1-2.7 6.3-4.9 11.5-4.3 10.2-11.9 25.5-16.7 33.4-4.4 7.4-11.2 18-12.4 19.3-.5.7-1 1.5-1 1.8 0 .8-13.6 19.1-18.9 25.5-9.1 10.7-33.8 34.8-43.8 42.6-14.3 11.1-18.9 14.4-19.8 14.4-.4 0-2.4 1.2-4.4 2.7-4.1 3.1-5.7 4.1-12.1 7.6l-13.9 7.6c-5.2 2.8-9.7 5.1-10.1 5.1s-4 1.4-8.1 3.1-11.4 4.4-16.4 6.1c-4.9 1.6-9.7 3.2-10.5 3.6-.8.3-4 1.2-7 1.9-26 6.3-48.2 9.1-73 9.1-10.7 0-22.2-.3-25.5-.8l-15.5-1.9c-17.2-2.1-37.9-6.5-50-10.6-4.1-1.5-8.8-3-10.5-3.4-1.6-.5-4.3-1.4-6-2.1-1.6-.6-4-1.4-5.1-1.6-1.2-.2-3.5-1.1-5-1.9-1.6-.8-3.2-1.5-3.6-1.5-1.7 0-34.6-16.1-41.3-20.1-1.6-1-4.1-2.4-5.5-3.1s-2.7-1.5-3-1.8c-.6-.6-12.1-8.3-13.5-9-3.5-1.7-18.1-12.3-31.5-22.9-15.5-12.2-54-50-59.6-58.6-.9-1.4-2.4-2.5-3.3-2.5s-4.1 3-7.1 6.7c-5.3 6.3-33.7 35.2-39.6 40.2L584 968c-10.2 8.9-42.6 33-44.4 33-.3 0-2.8 1.6-5.5 3.5-2.6 1.9-5.1 3.5-5.4 3.5s-4.3 2.1-8.9 4.7c-9.5 5.5-17.4 9.4-30.3 15.1-9.1 4-23 9.4-24 9.3-.3-.1-2.2.6-4.2 1.4-8.3 3.3-27 8.2-41.8 11-29.6 5.6-65.2 7-91.6 3.6-9-1.2-19.5-2.8-23.4-3.6l-9.5-2c-3.9-.8-14.3-3.5-16-4.2-.8-.4-3.3-1.2-5.5-1.9-4.6-1.4-9.9-3.2-13.5-4.7-1.4-.6-2.7-1.1-3-1.2-.3 0-2.7-1.1-5.4-2.3s-5.1-2.2-5.3-2.2c-.3 0-5-2.3-10.5-5.1-13.4-6.7-31.1-17.3-34.6-20.7-.7-.6-1.7-1.2-2.2-1.2s-1.5-.6-2.2-1.3-3.5-3-6.3-5.1c-20.9-15.8-37.2-32.1-58-58.1-11.2-14.1-24.2-35.7-36.3-60.2-4.3-8.8-11.9-27.6-12.4-30.8-.2-1.1-.6-2.2-.9-2.5-1.4-1.2-11-36-12.4-45-.3-1.9-1.2-6.9-2-11-2.6-13.8-4.5-37.4-4.5-57.1 0-19.8 2.9-54.8 5-60.3.5-1.5 1-4 1-5.6 0-4.4 6.4-30.3 9-36.5.5-1.1 2-5.6 3.3-10 2.5-7.9 4.5-13.2 7.2-19a97.68 97.68 0 0 0 2.7-6.5c5.5-14.5 27.9-51.8 39.2-65.1a326.84 326.84 0 0 0 8.1-10c8.9-11.3 32.7-35.7 47.4-48.8l8.7-7.6c1.2-1.2 4.4-3.9 7-6l7.8-6.6c6-5.1 39.5-30.5 47.3-35.8L269 407c1.9-1.4 5.3-3.7 7.5-5s4.2-2.6 4.5-3c.3-.3 2.5-1.9 5-3.5l5.5-3.8 12.5-8.2 12.5-8.2c.6-.5 3.8-2.7 7.3-4.8l14.4-9.3c4.4-2.8 8.2-5.2 8.5-5.2.2 0 1.6-.9 3.1-1.9l10.2-6.6 20.7-13.4c.7-.6 1.5-1.1 1.9-1.1.7 0 3.9-2 21.4-13.6 5.7-3.8 10.9-7.1 11.5-7.4s7.1-4.6 14.4-9.5l18.6-12.5c4.6-3 8.8-5.9 21.5-14.7 5.8-4.1 38.4-28.5 39.7-29.8.7-.8 3.5-3.1 6.1-5.2 17.4-13.8 45.1-41 56.7-55.6l4-5c4.6-5.5 14.2-19.6 18.6-27.4 1.3-2.3 4.4-7.4 6.9-11.5l6.4-10.8c1-1.9 3.7-6.4 6-10s6.2-9.9 8.6-14l9.2-15.3c2.6-4.3 4.8-8.2 4.8-8.7 0-1.4 4.6-1.2 5.8.2h0zm-3.4 193.9c-.5.1-5.5 4.9-11.2 10.8-12.1 12.4-24.6 23.7-42.8 38.8-19.8 16.4-27.6 22.2-64.6 48.5-11.8 8.4-52.2 34.9-68.8 45.3l-17.4 11-32.1 20.5-47 30.6c-103 68.6-149.1 116.5-169.5 176.3-4.9 14.2-5 14.1 5 14.1 6.8 0 46.5 3.3 60.5 5 32.8 4 44.8 5.7 68 9.7 11.5 1.9 33 6.1 37.5 7.3 1.9.5 7.8 1.9 13 3 27.8 6.2 69.2 19.1 86.5 27 1.1.5 4.9 2.1 8.5 3.5s7.4 3 8.5 3.5 8.1 3.4 15.5 6.5l24 10 60.5 25.1 15.3 6.5c7.9 3.6 8.3 3.4 10.2-5.6 4.5-21.2 5.1-37.5 2-55.5-2.6-15.3-3.6-18.5-11.8-39-10.6-26.7-23-53.2-27.8-59.7-2.6-3.4-3-5.3-1.3-5.3 1.5 0 11.9 8.2 25.5 20.2 19.3 16.8 38.2 38.7 48.6 56 2.2 3.8 4.6 6.8 5.2 6.8.7 0 4.4-4.9 8.4-10.8 11.9-18.2 26.5-34.9 44.1-50.6 12.6-11.3 25.5-21.6 27.1-21.6s1.3.9-3.3 8.9c-4.2 7.3-5.5 9.9-12.7 25.6-10.7 23.1-20 47.2-23 59.4-4.7 18.6-4.6 46.8.1 65.6 2.5 9.8 2 9.6 12.2 5.1l13.2-5.6 29-12c1.1-.5 5.8-2.5 10.5-4.4l69.5-28.9c11-4.7 30.7-12 46-17.2 7.4-2.5 34.9-10.1 43.5-12.1l15-3.4c11.2-2.6 20.3-4.5 31.9-6.5 4.6-.8 9.1-1.7 10-1.9 2.1-.7 18.3-3.1 41.1-6.1 31.2-4.2 35.1-4.6 48.5-5.6 29.6-2.1 46.5-3.6 47.1-4.1.6-.7-.4-4.5-3.8-13.8-14.4-39.9-35-68-78.8-107.7-10.2-9.2-36.8-30.4-48.5-38.6-2.2-1.5-7.1-5.1-11-7.8-8.4-6.1-62.3-41.9-76.1-50.6l-35.9-22.9-33.3-21.2C744.9 366.7 693 327.4 656 291.3c-8.7-8.4-16.1-15.2-16.6-15.2h0z"/></mask><path fill-rule="evenodd" d="M642.8 82.2c.5.7 2.2 3.5 3.7 6.3 1.4 2.7 5.1 8.8 8 13.5 3 4.7 7.1 11.4 9.1 15s4.5 7.6 5.5 9c1.1 1.4 2.3 3.4 2.8 4.5 1.2 2.8 16.3 28 20.3 33.8 23.8 35 60.9 70.3 114.3 108.6l9.5 6.6 5.5 3.8c3.4 2.7 12 8.6 16.1 11.2 2.6 1.6 5.9 3.8 7.3 4.7 1.4 1 3.6 2.3 4.9 2.9 1.2.7 2.2 1.6 2.2 2.1 0 .4.4.8.9.8s3.6 1.7 6.8 3.9l21.8 14.1c.3 0 1.1.5 1.8 1 1.4 1.3 15.9 10.6 33.1 21.3 1 .7 5.4 3.4 9.7 6.2l14.1 8.9c10.2 6.4 28.8 18.5 36.1 23.5l8.5 5.6c2.3 1.3 22.4 14.8 23.7 15.8 1.2 1 8.8 6.4 18.4 13.2 8.9 6.3 38.5 29 45.9 35.2 37.2 31.1 68.1 63.9 88.4 93.8 6.3 9.2 19.8 31.9 19.8 33.3 0 .4 1.4 3.5 3.1 6.8 6.5 12.5 13.4 30.7 18.2 47.4l3.1 11c3.7 13.3 8.4 41.6 9.4 57.5.9 15.2.9 42.7 0 57-.7 10-4.4 38-5.2 39.4-.2.3-.7 2.4-1 4.6-.4 2.2-1.5 7.1-2.6 11-1 3.8-2.2 8.1-2.4 9.5-.7 3.3-3.2 11.7-4.7 16l-6.9 18.5c-.5 1.1-2.7 6.3-4.9 11.5-4.3 10.2-11.9 25.5-16.7 33.4-4.4 7.4-11.2 18-12.4 19.3-.5.7-1 1.5-1 1.8 0 .8-13.6 19.1-18.9 25.5-9.1 10.7-33.8 34.8-43.8 42.6-14.3 11.1-18.9 14.4-19.8 14.4-.4 0-2.4 1.2-4.4 2.7-4.1 3.1-5.7 4.1-12.1 7.6l-13.9 7.6c-5.2 2.8-9.7 5.1-10.1 5.1s-4 1.4-8.1 3.1-11.4 4.4-16.4 6.1c-4.9 1.6-9.7 3.2-10.5 3.6-.8.3-4 1.2-7 1.9-26 6.3-48.2 9.1-73 9.1-10.7 0-22.2-.3-25.5-.8l-15.5-1.9c-17.2-2.1-37.9-6.5-50-10.6-4.1-1.5-8.8-3-10.5-3.4-1.6-.5-4.3-1.4-6-2.1-1.6-.6-4-1.4-5.1-1.6-1.2-.2-3.5-1.1-5-1.9-1.6-.8-3.2-1.5-3.6-1.5-1.7 0-34.6-16.1-41.3-20.1-1.6-1-4.1-2.4-5.5-3.1s-2.7-1.5-3-1.8c-.6-.6-12.1-8.3-13.5-9-3.5-1.7-18.1-12.3-31.5-22.9-15.5-12.2-54-50-59.6-58.6-.9-1.4-2.4-2.5-3.3-2.5s-4.1 3-7.1 6.7c-5.3 6.3-33.7 35.2-39.6 40.2L584 968c-10.2 8.9-42.6 33-44.4 33-.3 0-2.8 1.6-5.5 3.5-2.6 1.9-5.1 3.5-5.4 3.5s-4.3 2.1-8.9 4.7c-9.5 5.5-17.4 9.4-30.3 15.1-9.1 4-23 9.4-24 9.3-.3-.1-2.2.6-4.2 1.4-8.3 3.3-27 8.2-41.8 11-29.6 5.6-65.2 7-91.6 3.6-9-1.2-19.5-2.8-23.4-3.6l-9.5-2c-3.9-.8-14.3-3.5-16-4.2-.8-.4-3.3-1.2-5.5-1.9-4.6-1.4-9.9-3.2-13.5-4.7-1.4-.6-2.7-1.1-3-1.2-.3 0-2.7-1.1-5.4-2.3s-5.1-2.2-5.3-2.2c-.3 0-5-2.3-10.5-5.1-13.4-6.7-31.1-17.3-34.6-20.7-.7-.6-1.7-1.2-2.2-1.2s-1.5-.6-2.2-1.3-3.5-3-6.3-5.1c-20.9-15.8-37.2-32.1-58-58.1-11.2-14.1-24.2-35.7-36.3-60.2-4.3-8.8-11.9-27.6-12.4-30.8-.2-1.1-.6-2.2-.9-2.5-1.4-1.2-11-36-12.4-45-.3-1.9-1.2-6.9-2-11-2.6-13.8-4.5-37.4-4.5-57.1 0-19.8 2.9-54.8 5-60.3.5-1.5 1-4 1-5.6 0-4.4 6.4-30.3 9-36.5.5-1.1 2-5.6 3.3-10 2.5-7.9 4.5-13.2 7.2-19a97.68 97.68 0 0 0 2.7-6.5c5.5-14.5 27.9-51.8 39.2-65.1a326.84 326.84 0 0 0 8.1-10c8.9-11.3 32.7-35.7 47.4-48.8l8.7-7.6c1.2-1.2 4.4-3.9 7-6l7.8-6.6c6-5.1 39.5-30.5 47.3-35.8L269 407c1.9-1.4 5.3-3.7 7.5-5s4.2-2.6 4.5-3c.3-.3 2.5-1.9 5-3.5l5.5-3.8 12.5-8.2 12.5-8.2c.6-.5 3.8-2.7 7.3-4.8l14.4-9.3c4.4-2.8 8.2-5.2 8.5-5.2.2 0 1.6-.9 3.1-1.9l10.2-6.6 20.7-13.4c.7-.6 1.5-1.1 1.9-1.1.7 0 3.9-2 21.4-13.6 5.7-3.8 10.9-7.1 11.5-7.4s7.1-4.6 14.4-9.5l18.6-12.5c4.6-3 8.8-5.9 21.5-14.7 5.8-4.1 38.4-28.5 39.7-29.8.7-.8 3.5-3.1 6.1-5.2 17.4-13.8 45.1-41 56.7-55.6l4-5c4.6-5.5 14.2-19.6 18.6-27.4 1.3-2.3 4.4-7.4 6.9-11.5l6.4-10.8c1-1.9 3.7-6.4 6-10s6.2-9.9 8.6-14l9.2-15.3c2.6-4.3 4.8-8.2 4.8-8.7 0-1.4 4.6-1.2 5.8.2h0zm-3.4 193.9c-.5.1-5.5 4.9-11.2 10.8-12.1 12.4-24.6 23.7-42.8 38.8-19.8 16.4-27.6 22.2-64.6 48.5-11.8 8.4-52.2 34.9-68.8 45.3l-17.4 11-32.1 20.5-47 30.6c-103 68.6-149.1 116.5-169.5 176.3-4.9 14.2-5 14.1 5 14.1 6.8 0 46.5 3.3 60.5 5 32.8 4 44.8 5.7 68 9.7 11.5 1.9 33 6.1 37.5 7.3 1.9.5 7.8 1.9 13 3 27.8 6.2 69.2 19.1 86.5 27 1.1.5 4.9 2.1 8.5 3.5s7.4 3 8.5 3.5 8.1 3.4 15.5 6.5l24 10 60.5 25.1 15.3 6.5c7.9 3.6 8.3 3.4 10.2-5.6 4.5-21.2 5.1-37.5 2-55.5-2.6-15.3-3.6-18.5-11.8-39-10.6-26.7-23-53.2-27.8-59.7-2.6-3.4-3-5.3-1.3-5.3 1.5 0 11.9 8.2 25.5 20.2 19.3 16.8 38.2 38.7 48.6 56 2.2 3.8 4.6 6.8 5.2 6.8.7 0 4.4-4.9 8.4-10.8 11.9-18.2 26.5-34.9 44.1-50.6 12.6-11.3 25.5-21.6 27.1-21.6s1.3.9-3.3 8.9c-4.2 7.3-5.5 9.9-12.7 25.6-10.7 23.1-20 47.2-23 59.4-4.7 18.6-4.6 46.8.1 65.6 2.5 9.8 2 9.6 12.2 5.1l13.2-5.6 29-12c1.1-.5 5.8-2.5 10.5-4.4l69.5-28.9c11-4.7 30.7-12 46-17.2 7.4-2.5 34.9-10.1 43.5-12.1l15-3.4c11.2-2.6 20.3-4.5 31.9-6.5 4.6-.8 9.1-1.7 10-1.9 2.1-.7 18.3-3.1 41.1-6.1 31.2-4.2 35.1-4.6 48.5-5.6 29.6-2.1 46.5-3.6 47.1-4.1.6-.7-.4-4.5-3.8-13.8-14.4-39.9-35-68-78.8-107.7-10.2-9.2-36.8-30.4-48.5-38.6-2.2-1.5-7.1-5.1-11-7.8-8.4-6.1-62.3-41.9-76.1-50.6l-35.9-22.9-33.3-21.2C744.9 366.7 693 327.4 656 291.3c-8.7-8.4-16.1-15.2-16.6-15.2h0z" fill="#000"/><path d="M642.8 82.2c.5.7 2.2 3.5 3.7 6.3 1.4 2.7 5.1 8.8 8 13.5 3 4.7 7.1 11.4 9.1 15s4.5 7.6 5.5 9c1.1 1.4 2.3 3.4 2.8 4.5 1.2 2.8 16.3 28 20.3 33.8 23.8 35 60.9 70.3 114.3 108.6l9.5 6.6 5.5 3.8c3.4 2.7 12 8.6 16.1 11.2 2.6 1.6 5.9 3.8 7.3 4.7 1.4 1 3.6 2.3 4.9 2.9 1.2.7 2.2 1.6 2.2 2.1 0 .4.4.8.9.8s3.6 1.7 6.8 3.9l21.8 14.1c.3 0 1.1.5 1.8 1 1.4 1.3 15.9 10.6 33.1 21.3 1 .7 5.4 3.4 9.7 6.2l14.1 8.9c10.2 6.4 28.8 18.5 36.1 23.5l8.5 5.6c2.3 1.3 22.4 14.8 23.7 15.8 1.2 1 8.8 6.4 18.4 13.2 8.9 6.3 38.5 29 45.9 35.2 37.2 31.1 68.1 63.9 88.4 93.8 6.3 9.2 19.8 31.9 19.8 33.3 0 .4 1.4 3.5 3.1 6.8 6.5 12.5 13.4 30.7 18.2 47.4l3.1 11c3.7 13.3 8.4 41.6 9.4 57.5.9 15.2.9 42.7 0 57-.7 10-4.4 38-5.2 39.4-.2.3-.7 2.4-1 4.6-.4 2.2-1.5 7.1-2.6 11-1 3.8-2.2 8.1-2.4 9.5-.7 3.3-3.2 11.7-4.7 16l-6.9 18.5c-.5 1.1-2.7 6.3-4.9 11.5-4.3 10.2-11.9 25.5-16.7 33.4-4.4 7.4-11.2 18-12.4 19.3-.5.7-1 1.5-1 1.8 0 .8-13.6 19.1-18.9 25.5-9.1 10.7-33.8 34.8-43.8 42.6-14.3 11.1-18.9 14.4-19.8 14.4-.4 0-2.4 1.2-4.4 2.7-4.1 3.1-5.7 4.1-12.1 7.6l-13.9 7.6c-5.2 2.8-9.7 5.1-10.1 5.1s-4 1.4-8.1 3.1-11.4 4.4-16.4 6.1c-4.9 1.6-9.7 3.2-10.5 3.6-.8.3-4 1.2-7 1.9-26 6.3-48.2 9.1-73 9.1-10.7 0-22.2-.3-25.5-.8l-15.5-1.9c-17.2-2.1-37.9-6.5-50-10.6-4.1-1.5-8.8-3-10.5-3.4-1.6-.5-4.3-1.4-6-2.1-1.6-.6-4-1.4-5.1-1.6-1.2-.2-3.5-1.1-5-1.9-1.6-.8-3.2-1.5-3.6-1.5-1.7 0-34.6-16.1-41.3-20.1-1.6-1-4.1-2.4-5.5-3.1s-2.7-1.5-3-1.8c-.6-.6-12.1-8.3-13.5-9-3.5-1.7-18.1-12.3-31.5-22.9-15.5-12.2-54-50-59.6-58.6-.9-1.4-2.4-2.5-3.3-2.5s-4.1 3-7.1 6.7c-5.3 6.3-33.7 35.2-39.6 40.2L584 968c-10.2 8.9-42.6 33-44.4 33-.3 0-2.8 1.6-5.5 3.5-2.6 1.9-5.1 3.5-5.4 3.5s-4.3 2.1-8.9 4.7c-9.5 5.5-17.4 9.4-30.3 15.1-9.1 4-23 9.4-24 9.3-.3-.1-2.2.6-4.2 1.4-8.3 3.3-27 8.2-41.8 11-29.6 5.6-65.2 7-91.6 3.6-9-1.2-19.5-2.8-23.4-3.6l-9.5-2c-3.9-.8-14.3-3.5-16-4.2-.8-.4-3.3-1.2-5.5-1.9-4.6-1.4-9.9-3.2-13.5-4.7-1.4-.6-2.7-1.1-3-1.2-.3 0-2.7-1.1-5.4-2.3s-5.1-2.2-5.3-2.2c-.3 0-5-2.3-10.5-5.1-13.4-6.7-31.1-17.3-34.6-20.7-.7-.6-1.7-1.2-2.2-1.2s-1.5-.6-2.2-1.3-3.5-3-6.3-5.1c-20.9-15.8-37.2-32.1-58-58.1-11.2-14.1-24.2-35.7-36.3-60.2-4.3-8.8-11.9-27.6-12.4-30.8-.2-1.1-.6-2.2-.9-2.5-1.4-1.2-11-36-12.4-45-.3-1.9-1.2-6.9-2-11-2.6-13.8-4.5-37.4-4.5-57.1 0-19.8 2.9-54.8 5-60.3.5-1.5 1-4 1-5.6 0-4.4 6.4-30.3 9-36.5.5-1.1 2-5.6 3.3-10 2.5-7.9 4.5-13.2 7.2-19a97.68 97.68 0 0 0 2.7-6.5c5.5-14.5 27.9-51.8 39.2-65.1a326.84 326.84 0 0 0 8.1-10c8.9-11.3 32.7-35.7 47.4-48.8l8.7-7.6c1.2-1.2 4.4-3.9 7-6l7.8-6.6c6-5.1 39.5-30.5 47.3-35.8L269 407c1.9-1.4 5.3-3.7 7.5-5s4.2-2.6 4.5-3c.3-.3 2.5-1.9 5-3.5l5.5-3.8 12.5-8.2 12.5-8.2c.6-.5 3.8-2.7 7.3-4.8l14.4-9.3c4.4-2.8 8.2-5.2 8.5-5.2.2 0 1.6-.9 3.1-1.9l10.2-6.6 20.7-13.4c.7-.6 1.5-1.1 1.9-1.1.7 0 3.9-2 21.4-13.6 5.7-3.8 10.9-7.1 11.5-7.4s7.1-4.6 14.4-9.5l18.6-12.5c4.6-3 8.8-5.9 21.5-14.7 5.8-4.1 38.4-28.5 39.7-29.8.7-.8 3.5-3.1 6.1-5.2 17.4-13.8 45.1-41 56.7-55.6l4-5c4.6-5.5 14.2-19.6 18.6-27.4 1.3-2.3 4.4-7.4 6.9-11.5l6.4-10.8c1-1.9 3.7-6.4 6-10s6.2-9.9 8.6-14l9.2-15.3c2.6-4.3 4.8-8.2 4.8-8.7 0-1.4 4.6-1.2 5.8.2h0zm-3.4 193.9c-.5.1-5.5 4.9-11.2 10.8-12.1 12.4-24.6 23.7-42.8 38.8-19.8 16.4-27.6 22.2-64.6 48.5-11.8 8.4-52.2 34.9-68.8 45.3l-17.4 11-32.1 20.5-47 30.6c-103 68.6-149.1 116.5-169.5 176.3-4.9 14.2-5 14.1 5 14.1 6.8 0 46.5 3.3 60.5 5 32.8 4 44.8 5.7 68 9.7 11.5 1.9 33 6.1 37.5 7.3 1.9.5 7.8 1.9 13 3 27.8 6.2 69.2 19.1 86.5 27 1.1.5 4.9 2.1 8.5 3.5s7.4 3 8.5 3.5 8.1 3.4 15.5 6.5l24 10 60.5 25.1 15.3 6.5c7.9 3.6 8.3 3.4 10.2-5.6 4.5-21.2 5.1-37.5 2-55.5-2.6-15.3-3.6-18.5-11.8-39-10.6-26.7-23-53.2-27.8-59.7-2.6-3.4-3-5.3-1.3-5.3 1.5 0 11.9 8.2 25.5 20.2 19.3 16.8 38.2 38.7 48.6 56 2.2 3.8 4.6 6.8 5.2 6.8.7 0 4.4-4.9 8.4-10.8 11.9-18.2 26.5-34.9 44.1-50.6 12.6-11.3 25.5-21.6 27.1-21.6s1.3.9-3.3 8.9c-4.2 7.3-5.5 9.9-12.7 25.6-10.7 23.1-20 47.2-23 59.4-4.7 18.6-4.6 46.8.1 65.6 2.5 9.8 2 9.6 12.2 5.1l13.2-5.6 29-12c1.1-.5 5.8-2.5 10.5-4.4l69.5-28.9c11-4.7 30.7-12 46-17.2 7.4-2.5 34.9-10.1 43.5-12.1l15-3.4c11.2-2.6 20.3-4.5 31.9-6.5 4.6-.8 9.1-1.7 10-1.9 2.1-.7 18.3-3.1 41.1-6.1 31.2-4.2 35.1-4.6 48.5-5.6 29.6-2.1 46.5-3.6 47.1-4.1.6-.7-.4-4.5-3.8-13.8-14.4-39.9-35-68-78.8-107.7-10.2-9.2-36.8-30.4-48.5-38.6-2.2-1.5-7.1-5.1-11-7.8-8.4-6.1-62.3-41.9-76.1-50.6l-35.9-22.9-33.3-21.2C744.9 366.7 693 327.4 656 291.3c-8.7-8.4-16.1-15.2-16.6-15.2h0z" stroke="#fbe1d0" stroke-width="30" mask="url(#A)"/></g><defs><clipPath id="B"><path fill="#fff" d="M0 0h1280v1280H0z"/></clipPath></defs></svg>
