<?xml version="1.0" standalone="no"?>
<!DOCTYPE svg PUBLIC "-//W3C//DTD SVG 20010904//EN"
 "http://www.w3.org/TR/2001/REC-SVG-20010904/DTD/svg10.dtd">
<svg version="1.0" xmlns="http://www.w3.org/2000/svg"
 width="286.000000pt" height="152.000000pt" viewBox="0 0 286.000000 152.000000"
 preserveAspectRatio="xMidYMid meet">

<g transform="translate(0.000000,152.000000) scale(0.100000,-0.100000)"
fill="#000000" stroke="none">
<path d="M482 1433 c-18 -8 -43 -28 -56 -44 -28 -33 -68 -149 -92 -269 -10
-47 -18 -86 -20 -88 -1 -2 -37 11 -80 27 -44 17 -89 31 -102 31 -47 0 -102
-43 -102 -80 0 -15 108 -64 204 -92 l76 -22 0 -46 c1 -240 108 -499 262 -635
156 -137 411 -192 579 -125 133 52 268 188 371 373 l60 108 46 -93 c36 -75 60
-108 121 -168 118 -117 219 -160 376 -160 152 0 258 43 366 150 109 108 163
245 176 446 5 88 -7 236 -23 278 -3 9 18 19 63 31 77 21 115 51 106 85 -9 36
-45 42 -115 20 -35 -11 -68 -20 -74 -20 -6 0 -21 26 -33 59 -44 121 -97 165
-191 158 -30 -2 -72 -11 -92 -20 l-37 -16 33 -55 c43 -72 80 -162 73 -180 -3
-7 -18 -16 -34 -19 -15 -2 -116 -21 -223 -41 -191 -35 -412 -67 -419 -61 -1 2
-6 32 -10 66 -10 86 -49 118 -131 110 -55 -6 -100 -75 -100 -153 l0 -46 -97
-7 c-139 -11 -558 1 -688 19 -60 9 -111 16 -113 16 -6 0 12 91 34 179 13 51
42 131 63 177 l39 83 -61 20 c-73 25 -111 26 -155 4z m1932 -485 c18 -69 -4
-239 -40 -311 -70 -135 -231 -205 -377 -163 -107 31 -210 155 -262 314 -9 29
-15 56 -12 59 3 3 77 16 164 29 155 22 464 81 472 90 14 13 49 2 55 -18z
m-1584 -129 c88 -7 236 -9 378 -5 265 7 245 15 216 -85 -43 -146 -124 -248
-242 -306 -73 -36 -80 -38 -176 -38 -120 0 -178 17 -261 77 -93 66 -158 187
-180 332 l-7 49 64 -7 c34 -3 128 -11 208 -17z"/>
</g>
</svg>
