<?xml version="1.0" standalone="no"?>
<!DOCTYPE svg PUBLIC "-//W3C//DTD SVG 20010904//EN"
 "http://www.w3.org/TR/2001/REC-SVG-20010904/DTD/svg10.dtd">
<svg version="1.0" xmlns="http://www.w3.org/2000/svg"
 width="564.000000pt" height="564.000000pt" viewBox="0 0 564.000000 564.000000"
 preserveAspectRatio="xMidYMid meet">

<g transform="translate(0.000000,564.000000) scale(0.100000,-0.100000)"
fill="#000000" stroke="none">
<path d="M969 4306 c-56 -20 -105 -53 -142 -96 -33 -39 -97 -156 -97 -178 0
-7 -4 -20 -9 -30 -5 -9 -14 -37 -21 -62 -7 -25 -16 -55 -21 -68 -5 -13 -9 -36
-9 -52 0 -16 -4 -31 -9 -34 -4 -3 -11 -25 -15 -48 -3 -24 -10 -65 -16 -93 -5
-27 -13 -71 -16 -97 -4 -27 -12 -48 -18 -48 -23 0 -193 63 -264 99 -57 28
-129 28 -179 0 -53 -29 -73 -49 -73 -71 0 -10 -4 -18 -10 -18 -5 0 -10 -16
-10 -35 0 -38 25 -75 50 -75 9 0 20 -4 26 -8 15 -14 115 -51 157 -58 20 -3 40
-10 43 -15 3 -5 16 -9 29 -9 13 0 27 -4 30 -10 3 -5 16 -10 29 -10 12 0 26 -3
30 -7 4 -4 35 -14 69 -23 l62 -16 6 -109 c7 -134 16 -223 30 -295 19 -101 50
-235 59 -255 4 -11 13 -36 20 -55 7 -19 16 -45 21 -57 5 -13 13 -33 18 -45 13
-34 75 -162 81 -168 5 -5 18 -27 44 -75 6 -11 13 -22 16 -25 3 -3 17 -21 30
-40 57 -81 170 -210 216 -246 121 -93 333 -199 469 -236 423 -114 731 -28
1054 292 100 99 143 150 200 234 19 28 38 53 43 54 4 2 8 8 8 14 0 5 9 23 20
38 11 16 43 72 70 125 58 111 73 138 80 145 3 3 10 14 16 24 19 35 31 28 48
-31 19 -62 76 -186 88 -191 5 -2 8 -8 8 -13 0 -6 23 -45 52 -87 61 -91 210
-242 295 -300 65 -44 174 -102 191 -102 13 0 97 -26 127 -40 34 -15 94 -22
245 -27 167 -6 238 4 387 53 150 50 243 108 361 225 108 106 183 220 253 384
19 45 68 213 78 265 44 243 42 433 -8 723 -6 31 -12 61 -15 66 -9 15 15 26
124 60 149 46 157 50 186 84 32 38 28 88 -11 126 -22 23 -34 26 -86 25 -33 -1
-65 -6 -72 -13 -6 -6 -19 -11 -29 -11 -10 0 -26 -4 -36 -9 -30 -15 -88 -31
-114 -31 -20 0 -27 7 -38 43 -8 23 -22 62 -33 87 -10 25 -23 54 -27 65 -45
114 -72 145 -164 193 -67 35 -76 37 -166 37 -82 -1 -103 -4 -154 -28 -32 -15
-67 -27 -77 -27 -33 0 -30 -19 14 -92 24 -40 48 -84 52 -98 7 -24 20 -54 64
-152 11 -26 21 -54 21 -61 0 -7 4 -17 9 -23 4 -5 11 -21 15 -35 4 -21 1 -28
-20 -37 -14 -7 -38 -12 -54 -12 -16 0 -31 -4 -34 -9 -3 -4 -25 -11 -48 -14
-24 -3 -86 -15 -138 -27 -106 -23 -177 -36 -262 -50 -32 -6 -84 -14 -115 -20
-32 -5 -85 -14 -118 -20 -33 -6 -89 -16 -125 -21 -149 -21 -219 -30 -290 -38
-41 -5 -89 -12 -106 -16 l-32 -7 -11 64 c-6 36 -11 88 -11 116 0 58 -11 84
-55 125 -44 41 -92 59 -160 60 -71 1 -106 -15 -155 -70 -43 -48 -60 -77 -60
-102 0 -11 -4 -23 -10 -26 -6 -3 -10 -48 -10 -99 l0 -93 -127 -12 c-157 -14
-902 -15 -1033 -1 -52 5 -165 14 -250 20 -211 13 -365 37 -365 55 3 54 27 194
45 268 23 89 33 123 40 142 4 11 14 40 21 65 7 25 16 49 21 55 4 5 8 15 8 22
0 20 63 154 122 261 13 24 15 34 6 37 -213 76 -299 90 -379 61z m3770 -970
c15 -62 14 -254 -4 -356 -22 -135 -78 -287 -123 -336 -10 -11 -28 -33 -40 -51
-48 -68 -179 -149 -292 -182 -51 -14 -161 -31 -206 -31 -254 0 -511 218 -635
538 -5 12 -13 32 -18 45 -14 34 -51 161 -51 174 0 14 34 22 130 33 41 5 105
14 143 20 37 5 95 14 130 19 34 6 89 15 122 21 33 6 87 16 120 21 91 16 144
26 210 39 124 25 152 30 225 40 41 5 91 14 110 20 76 20 155 37 161 34 4 -2
12 -24 18 -48z m-3554 -211 c50 -8 208 -22 385 -36 223 -16 720 -22 900 -10
91 6 208 12 260 13 l95 3 -3 -35 c-4 -51 -48 -210 -77 -275 -48 -110 -89 -185
-108 -200 -6 -5 -25 -28 -42 -50 -39 -53 -140 -150 -190 -184 -161 -109 -410
-156 -605 -115 -41 8 -87 18 -103 21 -15 3 -30 9 -33 14 -3 5 -12 9 -20 9 -8
0 -36 10 -62 22 -225 103 -407 336 -463 593 -16 71 -38 229 -33 237 3 4 17 5
32 3 15 -2 45 -7 67 -10z"/>
</g>
</svg>
