<svg id="svg" version="1.1" xmlns="http://www.w3.org/2000/svg" xmlns:xlink="http://www.w3.org/1999/xlink" width="400" height="400" viewBox="0, 0, 400,400"><g id="svgg"><path id="path0" d="M75.521 105.097 C 72.097 105.667,67.529 108.034,64.611 110.750 C 61.723 113.438,56.794 121.665,56.033 125.067 C 55.885 125.727,55.405 127.287,54.967 128.533 C 53.329 133.188,52.214 137.226,52.011 139.243 C 51.896 140.387,51.616 141.606,51.389 141.952 C 50.845 142.782,50.482 144.184,49.871 147.807 C 47.429 162.306,47.434 162.284,46.071 161.989 C 43.620 161.459,33.885 157.763,29.065 155.534 C 23.946 153.166,20.114 153.081,15.788 155.241 C 12.870 156.698,11.063 158.407,10.833 159.925 C 10.727 160.627,10.475 161.150,10.163 161.317 C 8.231 162.352,10.280 168.800,12.541 168.800 C 12.868 168.800,14.230 169.331,15.568 169.979 C 18.650 171.474,22.131 172.697,25.200 173.364 C 26.520 173.651,27.927 174.123,28.326 174.412 C 28.726 174.702,29.759 175.035,30.621 175.153 C 31.566 175.283,32.485 175.600,32.931 175.951 C 33.393 176.314,34.048 176.533,34.669 176.533 C 35.218 176.533,36.312 176.815,37.100 177.159 C 37.888 177.503,39.973 178.169,41.733 178.639 C 46.556 179.928,46.030 179.313,46.243 183.911 C 47.270 206.008,49.862 219.350,56.260 235.467 C 62.946 252.309,76.400 270.617,87.467 277.933 C 112.054 294.186,137.979 299.090,159.733 291.602 C 174.023 286.683,191.573 272.286,203.132 256.000 C 204.746 253.727,206.321 251.638,206.633 251.359 C 206.945 251.079,207.200 250.716,207.200 250.551 C 207.200 250.385,208.035 248.852,209.055 247.143 C 210.075 245.434,212.519 240.998,214.487 237.285 C 217.940 230.769,220.700 226.226,221.468 225.797 C 222.104 225.441,222.875 226.621,223.761 229.308 C 225.390 234.244,228.602 241.319,229.740 242.477 C 230.059 242.801,230.396 243.380,230.489 243.764 C 231.432 247.638,244.256 262.469,251.912 268.539 C 256.742 272.369,265.027 276.913,268.933 277.875 C 270.253 278.200,272.473 278.878,273.867 279.382 C 279.796 281.525,280.698 281.684,289.467 282.135 C 305.319 282.949,313.207 281.806,325.333 276.936 C 339.895 271.088,352.398 258.856,360.635 242.400 C 369.745 224.197,373.016 201.522,369.982 177.600 C 369.411 173.095,368.044 165.031,367.604 163.567 C 366.981 161.499,367.632 161.136,377.530 158.027 C 388.195 154.676,390.400 153.103,390.400 148.841 C 390.400 143.139,383.432 140.271,376.986 143.320 C 376.195 143.694,375.224 144.000,374.826 144.000 C 374.429 144.000,373.289 144.347,372.293 144.771 C 370.047 145.726,366.395 146.667,364.929 146.667 C 363.402 146.667,362.910 146.046,361.654 142.533 C 355.888 126.402,353.652 123.175,345.467 119.174 C 339.512 116.262,331.151 116.160,324.533 118.918 C 321.206 120.305,320.143 120.664,318.586 120.926 C 316.871 121.214,316.973 122.022,319.226 126.000 C 322.561 131.887,323.021 132.772,323.659 134.533 C 324.031 135.560,325.109 138.140,326.056 140.267 C 328.258 145.213,329.333 147.899,329.333 148.453 C 329.333 148.694,329.705 149.655,330.160 150.588 C 332.113 154.597,331.152 155.995,326.133 156.446 C 325.180 156.531,324.040 156.816,323.600 157.079 C 323.160 157.341,322.080 157.692,321.200 157.858 C 316.198 158.801,312.238 159.589,306.438 160.791 C 292.089 163.768,264.760 168.192,247.867 170.274 C 242.965 170.878,239.245 171.476,237.836 171.887 C 237.273 172.052,236.346 166.447,235.980 160.667 C 235.610 154.815,235.050 153.378,232.082 150.666 C 227.597 146.567,219.905 145.226,214.718 147.638 C 211.498 149.136,206.617 155.026,206.134 157.998 C 205.996 158.843,205.698 159.818,205.470 160.165 C 204.911 161.019,204.786 162.174,204.578 168.399 L 204.400 173.730 199.733 174.177 C 186.759 175.418,133.818 175.597,121.333 174.443 C 118.033 174.138,111.913 173.641,107.733 173.339 C 92.608 172.246,84.615 171.221,81.695 170.001 L 80.722 169.595 80.887 167.641 C 81.606 159.138,87.271 135.981,89.443 132.666 C 89.671 132.318,89.986 131.457,90.144 130.751 C 90.578 128.818,92.486 124.576,96.157 117.386 C 97.977 113.821,99.467 110.739,99.467 110.536 C 99.467 110.292,97.668 109.573,94.188 108.425 C 84.713 105.298,79.692 104.403,75.521 105.097 M335.126 171.689 C 336.898 176.618,336.723 192.192,334.792 201.323 C 332.959 209.994,329.726 218.143,326.658 221.828 C 325.847 222.803,324.732 224.223,324.181 224.984 C 316.674 235.347,295.643 242.488,281.967 239.316 C 263.108 234.942,247.297 215.884,240.513 189.348 L 239.937 187.096 240.496 186.643 C 241.136 186.125,243.899 185.590,250.000 184.803 C 255.276 184.122,265.983 182.558,270.267 181.842 C 278.692 180.434,294.000 177.674,301.200 176.266 C 305.600 175.405,311.720 174.323,314.800 173.863 C 317.880 173.403,322.560 172.491,325.200 171.837 C 334.512 169.528,334.350 169.531,335.126 171.689 M85.641 187.726 C 96.967 189.475,118.149 190.995,137.733 191.465 C 157.308 191.934,167.170 191.802,185.333 190.828 C 189.367 190.612,194.815 190.358,197.440 190.263 L 202.214 190.091 202.034 192.248 C 201.297 201.077,193.995 220.114,189.276 225.506 C 188.568 226.316,187.083 228.115,185.975 229.506 C 174.393 244.055,159.497 251.211,140.820 251.198 C 134.717 251.193,122.768 249.090,121.200 247.743 C 120.907 247.491,119.990 247.140,119.163 246.964 C 117.267 246.558,112.070 244.005,108.933 241.938 C 97.621 234.485,88.794 222.724,84.536 209.434 C 82.307 202.473,80.088 187.684,81.229 187.391 C 82.056 187.179,82.134 187.185,85.641 187.726 " stroke="none" fill="#040404" fill-rule="evenodd"></path><path id="path1" d="M186.667 0.284 C 72.993 8.437,-10.690 107.800,0.950 220.800 C 12.246 330.464,110.813 410.380,220.800 399.050 C 326.996 388.111,406.434 294.427,399.758 188.000 C 393.531 88.733,317.666 10.532,218.000 0.646 C 212.977 0.147,191.957 -0.095,186.667 0.284 M86.000 105.833 C 92.083 107.335,99.319 109.896,99.416 110.581 C 99.465 110.923,98.342 113.401,96.699 116.581 C 93.250 123.257,91.019 128.163,90.482 130.254 C 90.258 131.127,89.903 132.104,89.693 132.424 C 86.797 136.845,79.721 168.286,81.320 169.628 C 82.428 170.557,91.150 171.901,100.933 172.649 C 103.867 172.873,109.507 173.305,113.467 173.608 C 117.427 173.911,121.747 174.272,123.067 174.411 C 134.184 175.582,187.096 175.303,199.733 174.007 C 201.860 173.789,203.797 173.608,204.039 173.605 C 204.430 173.601,204.487 172.934,204.572 167.400 C 204.660 161.646,204.707 161.133,205.232 160.267 C 205.543 159.753,205.874 158.743,205.967 158.022 C 206.460 154.184,212.647 147.731,216.761 146.763 C 222.415 145.432,228.193 146.967,232.326 150.898 C 235.339 153.764,235.728 154.696,236.027 159.764 C 236.159 161.989,236.450 165.022,236.675 166.505 C 236.900 167.987,237.157 169.713,237.246 170.341 C 237.454 171.807,237.465 171.811,239.777 171.323 C 240.853 171.096,245.933 170.379,251.067 169.730 C 262.718 168.258,268.077 167.481,275.867 166.136 C 279.240 165.553,285.180 164.530,289.067 163.862 C 299.779 162.022,303.049 161.406,309.722 159.974 C 313.090 159.252,317.290 158.416,319.056 158.117 C 320.822 157.818,322.736 157.331,323.309 157.036 C 323.882 156.740,325.202 156.402,326.242 156.286 C 331.059 155.744,331.929 154.443,330.000 150.667 C 329.663 150.007,329.258 148.905,329.099 148.218 C 328.941 147.531,327.743 144.531,326.438 141.551 C 325.133 138.571,323.870 135.560,323.633 134.859 C 323.058 133.163,322.218 131.524,319.665 127.122 C 317.140 122.768,316.728 121.203,318.033 120.937 C 319.816 120.574,321.898 119.871,324.400 118.789 C 330.425 116.184,339.548 116.135,344.800 118.679 C 353.658 122.971,356.206 126.531,361.827 142.463 C 363.624 147.556,364.350 147.658,373.600 144.114 C 374.113 143.918,374.866 143.751,375.272 143.745 C 375.678 143.739,376.614 143.417,377.353 143.031 C 378.797 142.276,383.524 141.835,385.731 142.249 C 389.039 142.869,391.681 148.389,390.080 151.333 C 388.428 154.373,386.608 155.363,377.333 158.273 C 370.549 160.402,367.467 161.611,367.467 162.145 C 367.467 162.316,367.642 163.134,367.857 163.962 C 370.287 173.340,371.837 193.420,370.958 204.133 C 367.876 241.680,348.766 269.755,319.951 279.071 C 310.144 282.241,304.269 282.948,292.133 282.419 C 280.936 281.930,280.439 281.848,272.800 279.218 C 270.673 278.486,268.601 277.882,268.194 277.877 C 267.323 277.865,260.413 274.381,256.818 272.141 C 248.000 266.647,233.820 251.579,230.588 244.267 C 230.296 243.607,229.767 242.719,229.412 242.294 C 228.207 240.849,225.286 234.439,223.871 230.133 C 222.854 227.038,222.211 225.813,221.660 225.919 C 220.928 226.060,218.416 230.120,214.598 237.333 C 211.143 243.860,210.597 244.839,208.434 248.384 C 207.902 249.256,207.467 250.151,207.467 250.374 C 207.467 250.597,207.000 251.264,206.429 251.857 C 205.859 252.449,204.355 254.418,203.087 256.232 C 191.673 272.566,173.624 287.166,158.791 292.064 C 137.478 299.101,111.621 294.062,87.600 278.190 C 82.441 274.781,75.923 268.124,70.154 260.372 C 69.074 258.921,67.667 257.042,67.027 256.197 C 66.387 255.352,65.275 253.602,64.556 252.307 C 63.837 251.013,62.809 249.266,62.272 248.426 C 53.628 234.913,47.745 212.377,46.257 187.072 C 46.024 183.116,45.811 179.866,45.784 179.851 C 45.756 179.836,44.413 179.488,42.800 179.078 C 41.187 178.668,39.087 178.037,38.133 177.675 C 37.180 177.314,35.750 176.917,34.955 176.793 C 34.160 176.669,33.167 176.313,32.748 176.003 C 32.323 175.689,31.369 175.367,30.593 175.276 C 29.827 175.186,28.900 174.897,28.533 174.632 C 28.167 174.368,26.599 173.856,25.050 173.493 C 21.787 172.730,17.091 171.025,15.070 169.869 C 14.299 169.428,13.383 169.066,13.034 169.066 C 10.270 169.061,7.891 162.714,10.080 161.181 C 10.426 160.938,10.667 160.488,10.667 160.083 C 10.667 159.000,11.658 157.671,13.294 156.563 C 18.864 152.788,23.101 152.584,29.950 155.762 C 34.919 158.068,45.230 161.867,46.519 161.867 C 47.306 161.867,47.403 161.438,49.746 147.600 C 50.160 145.155,50.670 143.082,51.058 142.267 C 51.429 141.487,51.751 140.214,51.833 139.200 C 51.971 137.500,52.686 134.916,54.562 129.333 C 55.080 127.793,55.628 126.053,55.780 125.467 C 57.046 120.586,61.838 112.835,65.443 109.836 C 71.257 105.001,77.618 103.762,86.000 105.833 M331.733 170.439 C 331.073 170.582,328.373 171.223,325.733 171.864 C 320.437 173.150,319.496 173.330,313.867 174.140 C 311.740 174.446,306.040 175.467,301.200 176.408 C 284.581 179.640,266.486 182.703,254.000 184.396 C 238.675 186.475,239.844 186.011,240.761 189.646 C 247.443 216.126,263.783 235.439,282.794 239.328 C 295.716 241.971,316.142 235.219,323.270 225.948 C 323.892 225.140,325.231 223.441,326.247 222.173 C 333.223 213.461,337.475 193.834,335.998 177.155 C 335.450 170.962,334.708 169.794,331.733 170.439 M80.961 187.689 C 80.267 188.811,83.050 204.363,84.998 210.250 C 90.506 226.898,105.833 243.354,119.020 246.778 C 119.874 247.000,120.993 247.440,121.505 247.757 C 123.803 249.177,134.592 250.922,141.120 250.928 C 159.466 250.947,173.842 244.181,185.293 230.137 C 186.550 228.595,188.150 226.697,188.848 225.920 C 193.619 220.610,200.924 201.806,201.821 192.527 L 202.034 190.320 195.758 190.506 C 192.306 190.608,187.679 190.799,185.474 190.931 C 171.723 191.752,169.532 191.796,149.512 191.655 C 126.967 191.497,121.960 191.313,107.467 190.116 C 95.308 189.112,90.648 188.642,86.351 187.984 C 82.688 187.424,81.176 187.341,80.961 187.689 " stroke="none" fill="#f3f3e3" fill-rule="evenodd"></path><path id="path2" d="M136.736 175.122 C 137.068 175.186,137.548 175.183,137.803 175.117 C 138.058 175.050,137.787 174.998,137.200 175.001 C 136.613 175.004,136.405 175.058,136.736 175.122 M178.070 175.122 C 178.401 175.186,178.881 175.183,179.136 175.117 C 179.391 175.050,179.120 174.998,178.533 175.001 C 177.947 175.004,177.738 175.058,178.070 175.122 M139.000 191.650 C 139.257 191.718,139.677 191.718,139.933 191.650 C 140.190 191.583,139.980 191.529,139.467 191.529 C 138.953 191.529,138.743 191.583,139.000 191.650 M242.667 260.133 C 243.164 260.647,243.631 261.067,243.705 261.067 C 243.778 261.067,243.431 260.647,242.933 260.133 C 242.436 259.620,241.969 259.200,241.895 259.200 C 241.822 259.200,242.169 259.620,242.667 260.133 M245.733 263.200 C 246.306 263.787,246.835 264.267,246.908 264.267 C 246.982 264.267,246.573 263.787,246.000 263.200 C 245.427 262.613,244.898 262.133,244.825 262.133 C 244.752 262.133,245.160 262.613,245.733 263.200 M190.792 270.467 L 189.200 272.133 190.867 270.542 C 191.783 269.666,192.533 268.916,192.533 268.875 C 192.533 268.678,192.270 268.918,190.792 270.467 " stroke="none" fill="#7c7c74" fill-rule="evenodd"></path><path id="path3" d="M235.801 158.267 C 235.804 158.853,235.858 159.062,235.922 158.730 C 235.986 158.399,235.983 157.919,235.917 157.664 C 235.850 157.409,235.798 157.680,235.801 158.267 M204.601 164.933 C 204.604 165.520,204.658 165.729,204.722 165.397 C 204.786 165.065,204.783 164.585,204.717 164.330 C 204.650 164.075,204.598 164.347,204.601 164.933 M190.200 174.850 C 190.457 174.918,190.877 174.918,191.133 174.850 C 191.390 174.783,191.180 174.729,190.667 174.729 C 190.153 174.729,189.943 174.783,190.200 174.850 M134.071 175.127 C 134.551 175.186,135.271 175.185,135.671 175.124 C 136.072 175.063,135.680 175.014,134.800 175.016 C 133.920 175.017,133.592 175.067,134.071 175.127 M180.200 175.126 C 180.677 175.185,181.457 175.185,181.933 175.126 C 182.410 175.067,182.020 175.019,181.067 175.019 C 180.113 175.019,179.723 175.067,180.200 175.126 M336.329 183.733 C 336.329 184.247,336.383 184.457,336.450 184.200 C 336.518 183.943,336.518 183.523,336.450 183.267 C 336.383 183.010,336.329 183.220,336.329 183.733 M198.600 190.322 C 198.930 190.385,199.470 190.385,199.800 190.322 C 200.130 190.258,199.860 190.206,199.200 190.206 C 198.540 190.206,198.270 190.258,198.600 190.322 M123.000 191.117 C 123.257 191.184,123.677 191.184,123.933 191.117 C 124.190 191.050,123.980 190.995,123.467 190.995 C 122.953 190.995,122.743 191.050,123.000 191.117 M130.204 191.391 C 130.609 191.453,131.209 191.451,131.537 191.388 C 131.865 191.324,131.533 191.274,130.800 191.276 C 130.067 191.278,129.798 191.330,130.204 191.391 M141.267 191.662 C 141.890 191.718,142.910 191.718,143.533 191.662 C 144.157 191.606,143.647 191.560,142.400 191.560 C 141.153 191.560,140.643 191.606,141.267 191.662 M168.738 191.660 C 169.217 191.719,169.937 191.718,170.338 191.657 C 170.739 191.596,170.347 191.548,169.467 191.549 C 168.587 191.551,168.259 191.601,168.738 191.660 M99.722 234.467 C 100.827 235.644,101.067 235.856,101.067 235.656 C 101.067 235.613,100.497 235.043,99.800 234.389 L 98.533 233.200 99.722 234.467 M180.923 235.000 L 179.600 236.400 181.000 235.077 C 181.770 234.349,182.400 233.719,182.400 233.677 C 182.400 233.478,182.153 233.699,180.923 235.000 M288.470 240.189 C 288.801 240.252,289.281 240.250,289.536 240.183 C 289.791 240.116,289.520 240.064,288.933 240.067 C 288.347 240.070,288.138 240.125,288.470 240.189 M291.136 282.322 C 291.468 282.386,291.948 282.383,292.203 282.317 C 292.458 282.250,292.187 282.198,291.600 282.201 C 291.013 282.204,290.805 282.258,291.136 282.322 M136.604 295.125 C 137.009 295.186,137.609 295.184,137.937 295.121 C 138.265 295.058,137.933 295.008,137.200 295.010 C 136.467 295.012,136.198 295.063,136.604 295.125 M141.000 295.122 C 141.330 295.185,141.870 295.185,142.200 295.122 C 142.530 295.058,142.260 295.006,141.600 295.006 C 140.940 295.006,140.670 295.058,141.000 295.122 " stroke="none" fill="#6c6c64" fill-rule="evenodd"></path><path id="path4" d="M334.867 116.993 C 335.343 117.052,336.123 117.052,336.600 116.993 C 337.077 116.934,336.687 116.885,335.733 116.885 C 334.780 116.885,334.390 116.934,334.867 116.993 M128.600 174.850 C 128.857 174.918,129.277 174.918,129.533 174.850 C 129.790 174.783,129.580 174.729,129.067 174.729 C 128.553 174.729,128.343 174.783,128.600 174.850 M187.400 174.855 C 187.730 174.918,188.270 174.918,188.600 174.855 C 188.930 174.791,188.660 174.739,188.000 174.739 C 187.340 174.739,187.070 174.791,187.400 174.855 M139.267 175.129 C 139.963 175.184,141.103 175.184,141.800 175.129 C 142.497 175.074,141.927 175.029,140.533 175.029 C 139.140 175.029,138.570 175.074,139.267 175.129 M173.809 175.130 C 174.584 175.184,175.784 175.184,176.476 175.129 C 177.167 175.074,176.533 175.030,175.067 175.031 C 173.600 175.031,173.034 175.076,173.809 175.130 M193.003 190.589 C 193.335 190.652,193.815 190.650,194.070 190.583 C 194.325 190.516,194.053 190.464,193.467 190.467 C 192.880 190.470,192.671 190.525,193.003 190.589 M127.403 191.389 C 127.735 191.452,128.215 191.450,128.470 191.383 C 128.725 191.316,128.453 191.264,127.867 191.267 C 127.280 191.270,127.071 191.325,127.403 191.389 M136.471 191.660 C 136.951 191.719,137.671 191.718,138.071 191.657 C 138.472 191.596,138.080 191.548,137.200 191.549 C 136.320 191.551,135.992 191.601,136.471 191.660 M172.203 191.655 C 172.535 191.719,173.015 191.717,173.270 191.650 C 173.525 191.583,173.253 191.531,172.667 191.534 C 172.080 191.537,171.871 191.591,172.203 191.655 M139.667 251.130 C 140.437 251.184,141.697 251.184,142.467 251.130 C 143.237 251.076,142.607 251.032,141.067 251.032 C 139.527 251.032,138.897 251.076,139.667 251.130 M297.144 282.598 C 298.141 282.649,299.701 282.649,300.611 282.597 C 301.522 282.545,300.707 282.503,298.800 282.504 C 296.893 282.504,296.148 282.547,297.144 282.598 " stroke="none" fill="#8c8c84" fill-rule="evenodd"></path></g></svg>
