<svg width="128" height="128" fill="none" xmlns="http://www.w3.org/2000/svg"><rect width="128" height="128" rx="64" fill="#8A79FF"/><g clip-path="url(#a)"><g clip-path="url(#b)"><path d="M100 28H55.847C40.492 28 28 38.743 28 51.999 28 65.254 40.492 76 55.847 76H100V28Z" fill="url(#c)"/><path d="M28 99.998h44.153C87.508 99.998 100 89.255 100 76S87.508 52 72.153 52H28v47.998Z" fill="url(#d)"/><path fill-rule="evenodd" clip-rule="evenodd" d="M100 75.998C99.999 62.744 87.551 52 72.197 52H28c0 13.255 12.448 24 27.803 24h.044v-.002H100Z" fill="#fff"/></g></g><defs><linearGradient id="c" x1="100" y1="52.004" x2="28" y2="52.004" gradientUnits="userSpaceOnUse"><stop stop-color="#fff" stop-opacity="0"/><stop offset="1" stop-color="#fff"/></linearGradient><linearGradient id="d" x1="28" y1="75.993" x2="100" y2="75.993" gradientUnits="userSpaceOnUse"><stop stop-color="#fff" stop-opacity="0"/><stop offset="1" stop-color="#fff"/></linearGradient><clipPath id="a"><path fill="#fff" transform="translate(28 28)" d="M0 0h72v72H0z"/></clipPath><clipPath id="b"><path fill="#fff" transform="translate(28 28)" d="M0 0h72v72H0z"/></clipPath></defs></svg>