<?xml version="1.0" encoding="UTF-8" standalone="no"?>
<!-- Created with Inkscape (http://www.inkscape.org/) -->

<svg
   width="100mm"
   height="100mm"
   viewBox="0 0 100 100"
   version="1.1"
   id="svg99"
   inkscape:version="1.1.2 (0a00cf5339, 2022-02-04)"
   sodipodi:docname="logo.svg"
   xmlns:inkscape="http://www.inkscape.org/namespaces/inkscape"
   xmlns:sodipodi="http://sodipodi.sourceforge.net/DTD/sodipodi-0.dtd"
   xmlns:xlink="http://www.w3.org/1999/xlink"
   xmlns="http://www.w3.org/2000/svg"
   xmlns:svg="http://www.w3.org/2000/svg">
  <sodipodi:namedview
     id="namedview101"
     pagecolor="#ffffff"
     bordercolor="#000000"
     borderopacity="1"
     inkscape:pageshadow="0"
     inkscape:pageopacity="0"
     inkscape:pagecheckerboard="0"
     inkscape:document-units="mm"
     showgrid="false"
     showguides="false"
     width="100mm"
     inkscape:zoom="1.3273709"
     inkscape:cx="183.82202"
     inkscape:cy="218.1003"
     inkscape:window-width="1680"
     inkscape:window-height="992"
     inkscape:window-x="0"
     inkscape:window-y="30"
     inkscape:window-maximized="1"
     inkscape:current-layer="layer1" />
  <defs
     id="defs96">
    <linearGradient
       inkscape:collect="always"
       id="linearGradient4232">
      <stop
         style="stop-color:#eeeeee;stop-opacity:1"
         offset="0"
         id="stop4228" />
      <stop
         style="stop-color:#666666;stop-opacity:0.99899083"
         offset="1"
         id="stop4230" />
    </linearGradient>
    <linearGradient
       inkscape:collect="always"
       id="linearGradient3326">
      <stop
         style="stop-color:#4d4d4d;stop-opacity:1;"
         offset="0"
         id="stop3322" />
      <stop
         style="stop-color:#999999;stop-opacity:1;"
         offset="0.66393405"
         id="stop3988" />
      <stop
         style="stop-color:#f0f0f0;stop-opacity:1"
         offset="1"
         id="stop3324" />
    </linearGradient>
    <linearGradient
       inkscape:collect="always"
       id="linearGradient1208">
      <stop
         style="stop-color:#ffffff;stop-opacity:1"
         offset="0"
         id="stop1204" />
      <stop
         style="stop-color:#6a6a6a;stop-opacity:1"
         offset="1"
         id="stop1206" />
    </linearGradient>
    <radialGradient
       inkscape:collect="always"
       xlink:href="#linearGradient1208"
       id="radialGradient1210"
       cx="28.119987"
       cy="61.025547"
       fx="28.119987"
       fy="61.025547"
       r="32.33913"
       gradientTransform="matrix(3.0477351,-0.02783444,0.02536344,2.7771708,-73.926032,-91.728516)"
       gradientUnits="userSpaceOnUse"
       spreadMethod="pad" />
    <linearGradient
       inkscape:collect="always"
       xlink:href="#linearGradient3326"
       id="linearGradient3330"
       x1="43.50893"
       y1="43.72205"
       x2="65.698608"
       y2="43.72205"
       gradientUnits="userSpaceOnUse"
       gradientTransform="matrix(1.3258071,0,0,1.3258071,-18.298835,-12.505417)" />
    <radialGradient
       inkscape:collect="always"
       xlink:href="#linearGradient4232"
       id="radialGradient4236"
       cx="43.319347"
       cy="46.262821"
       fx="43.319347"
       fy="46.262821"
       r="11.470754"
       gradientTransform="matrix(1.0551323,1.1875069,-0.96649623,0.85875825,38.139464,-42.238283)"
       gradientUnits="userSpaceOnUse" />
  </defs>
  <g
     inkscape:label="Capa 1"
     inkscape:groupmode="layer"
     id="layer1">
    <circle
       style="fill:#999999;stroke:#505050;stroke-width:0.593962;stroke-linecap:round;stroke-linejoin:round;stroke-miterlimit:4;stroke-dasharray:0.593962, 1.78189;stroke-dashoffset:0;stroke-opacity:1"
       id="path843"
       cx="49.704624"
       cy="49.151867"
       r="47.781635" />
    <circle
       style="fill:url(#radialGradient1210);fill-opacity:1;stroke:#ffffff;stroke-width:0.529683;stroke-linecap:round;stroke-linejoin:round;stroke-miterlimit:4;stroke-dasharray:0.529683, 1.58905;stroke-dashoffset:0;stroke-opacity:1"
       id="circle1104"
       cx="49.704624"
       cy="49.151623"
       r="42.610607" />
    <path
       id="rect29929"
       style="fill:url(#linearGradient3330);fill-opacity:1;stroke:none;stroke-width:1.23974;stroke-linecap:round;stroke-linejoin:round"
       d="m 42.858009,24.412781 c 7.969782,0.17188 16.006994,-0.350796 23.932801,0.274088 3.756682,2.219075 1.08876,6.973996 1.179807,10.464405 -1.321661,9.715446 -2.124606,19.534573 -3.776302,29.184047 -2.3303,3.597244 -7.187931,1.607457 -10.795826,2.124604 -3.604368,-0.05551 -9.450841,1.059823 -9.396866,-4.379608 -1.529869,-11.398262 -3.059739,-22.796525 -4.58961,-34.194784 -0.274913,-1.949885 1.646745,-3.505208 3.445996,-3.472766 z" />
    <path
       id="path29330"
       style="fill:url(#radialGradient4236);fill-opacity:1;stroke:#9d9d9d;stroke-width:1.24714;stroke-linecap:round;stroke-linejoin:round;stroke-miterlimit:4;stroke-dasharray:none;stroke-opacity:1;paint-order:normal"
       d="m 36.25904,40.663568 c -3.422594,1.342709 -9.130182,9.556743 -6.087766,11.960706 9.02318,0 18.046358,0 27.069541,0 C 57.503922,42.295477 45.181627,35.1281 36.25904,40.663568 Z m -6.666999,13.680395 c -3.334034,3.590012 4.413698,2.35157 6.810371,2.536686 6.912118,0 13.824236,0 20.736354,0 3.334037,-3.59001 -4.413698,-2.351572 -6.810373,-2.536686 -6.912116,0 -13.824234,0 -20.736352,0 z m 0,4.102118 c -3.334034,3.590012 4.413698,2.351575 6.810371,2.536692 6.912118,0 13.824236,0 20.736354,0 3.334037,-3.590015 -4.413698,-2.351577 -6.810373,-2.536692 -6.912116,0 -13.824234,0 -20.736352,0 z m 1.230221,4.107835 c -4.040671,3.308273 1.802365,5.303022 4.994271,4.342078 6.805051,0 13.610107,0 20.415163,0 4.040668,-3.308276 -1.802368,-5.303025 -4.994275,-4.342078 -6.805055,0 -13.610107,0 -20.415159,0 z" />
    <g
       aria-label="MYLUNCH"
       id="text9151"
       style="font-weight:bold;font-size:7.05556px;line-height:1.25;font-family:'Simply Rounded';-inkscape-font-specification:'Simply Rounded, Bold';text-align:center;letter-spacing:1.85208px;text-anchor:middle;fill:#5c5c5c;stroke-width:0.264583"
       transform="translate(0.93229796,-106.5757)">
      <path
         d="m 28.327429,187.29746 q -0.102852,0.20664 -0.329197,0.28254 -0.226345,0.0759 -0.448406,-0.0346 l -0.0093,-0.005 q -0.222061,-0.11053 -0.294894,-0.34304 -0.07897,-0.22018 0.02388,-0.42682 l 1.455287,-2.92379 q 0.181143,-0.36393 0.573783,-0.4956 0.38802,-0.13013 0.767373,0.0587 l 0.01542,0.008 q 0.305333,0.15197 0.455327,0.45368 0.151529,0.29862 0.0874,0.62074 l -0.453069,2.49521 1.703708,-1.86887 q 0.221419,-0.24383 0.557176,-0.30761 0.323433,-0.0622 0.631851,0.0913 l 0.01542,0.008 q 0.379353,0.18882 0.509474,0.57684 0.13167,0.39264 -0.04947,0.75657 l -1.455287,2.9238 q -0.102853,0.20664 -0.326127,0.27637 -0.229416,0.0821 -0.451476,-0.0285 l -0.0093,-0.005 q -0.22206,-0.11053 -0.297964,-0.33687 -0.0759,-0.22635 0.02695,-0.43299 l 1.037737,-2.0849 -1.594562,1.73463 q -0.192196,0.21605 -0.480211,0.26895 -0.292634,0.0545 -0.560957,-0.0791 l -0.01234,-0.006 q -0.268323,-0.13355 -0.401305,-0.39985 -0.131433,-0.26168 -0.07494,-0.54527 l 0.425661,-2.31644 z"
         id="path27779" />
      <path
         d="m 35.532613,189.30984 -0.432792,-2.60974 q -0.05343,-0.32691 0.19826,-0.54445 0.262366,-0.22866 0.597901,-0.12427 l 0.05921,0.0184 q 0.414484,0.12895 0.442548,0.549 0.120662,1.8271 0.125047,1.88259 l 1.181932,-1.47956 q 0.260393,-0.32669 0.671588,-0.19876 l 0.0099,0.003 q 0.345404,0.10747 0.426395,0.45017 0.0818,0.32852 -0.160833,0.56332 l -1.861125,1.84191 -0.294761,0.9474 q -0.07676,0.24671 -0.302062,0.36784 -0.240506,0.12361 -0.500382,0.0428 l -0.01316,-0.004 q -0.256585,-0.0798 -0.384509,-0.31807 -0.123392,-0.22961 -0.04663,-0.47633 z"
         id="path27781" />
      <path
         d="m 41.035141,187.39168 q 0.271683,0.0463 0.422626,0.26781 0.153261,0.20788 0.109811,0.46258 l -0.532409,3.12096 1.453504,0.24796 q 0.220743,0.0376 0.347494,0.21654 0.117723,0.17037 0.08296,0.37413 l -0.0012,0.007 q -0.03476,0.20376 -0.202305,0.32546 -0.178892,0.12675 -0.399634,0.0891 l -2.139504,-0.36498 q -0.254703,-0.0435 -0.401171,-0.25017 -0.140835,-0.19876 -0.100282,-0.43649 l 0.605404,-3.54886 q 0.04345,-0.2547 0.256962,-0.40001 0.215829,-0.15889 0.487512,-0.11255 z"
         id="path27783" />
      <path
         d="m 48.109972,188.67301 q 0.0071,-0.25484 0.198311,-0.43559 0.191171,-0.18076 0.463227,-0.17313 l 0.01033,2.8e-4 q 0.272056,0.008 0.452809,0.1988 0.180753,0.19117 0.173614,0.44601 l -0.06164,2.20055 q -0.02392,0.85405 -0.650542,1.44652 -0.626619,0.59247 -1.497887,0.56806 l -0.04133,-0.001 q -0.89193,-0.025 -1.497787,-0.66576 -0.609205,-0.64432 -0.584605,-1.52248 l 0.0601,-2.14545 q 0.0071,-0.25484 0.198311,-0.43559 0.191171,-0.18076 0.463227,-0.17313 l 0.01033,2.8e-4 q 0.272056,0.008 0.452809,0.1988 0.180753,0.19117 0.173615,0.44601 l -0.06444,2.30042 q -0.01003,0.35815 0.230971,0.61304 0.241004,0.2549 0.581935,0.26445 l 0.02066,5.8e-4 q 0.334043,0.009 0.585399,-0.2283 0.247815,-0.23431 0.257558,-0.58213 z"
         id="path27785" />
      <path
         d="m 52.952341,192.08487 q 0.03305,0.25279 -0.127296,0.46137 -0.157378,0.20472 -0.427244,0.24001 l -0.01025,0.001 q -0.269866,0.0353 -0.474587,-0.1221 -0.208583,-0.16034 -0.241634,-0.41313 l -0.463602,-3.54583 q -0.03305,-0.25279 0.127297,-0.46137 0.157378,-0.20472 0.427244,-0.24001 l 0.321106,-0.042 q 0.341602,-0.0447 0.565661,0.20747 l 2.150535,2.39066 -0.298796,-2.28532 q -0.03305,-0.25279 0.124774,-0.45409 0.163317,-0.21245 0.429767,-0.24729 l 0.01025,-0.001 q 0.269866,-0.0353 0.474586,0.1221 0.208584,0.16034 0.241634,0.41313 l 0.421173,3.22131 q 0.05047,0.38601 -0.193022,0.70275 -0.24052,0.31287 -0.640195,0.36513 l -0.01708,0.002 q -0.536316,0.0701 -0.871969,-0.34461 l -1.826254,-2.24891 z"
         id="path27787" />
      <path
         d="m 61.748081,189.83895 q 0.388059,5.5e-4 0.488592,0.366 0.104811,0.36778 -0.234721,0.56842 -0.282971,0.1732 -0.638296,0.29589 -0.07075,0.028 -0.110407,0.0397 l -0.02644,0.008 q -0.01652,0.005 -0.02644,0.008 -0.0099,0.003 -0.02644,0.008 l -0.02974,0.009 q -0.03965,0.0117 -0.114303,0.0265 -1.164208,0.27851 -2.000092,-0.19344 -0.780263,-0.44166 -1.067598,-1.4165 -0.309737,-1.05084 0.179499,-1.91337 0.463601,-0.81546 1.489503,-1.22201 0.109432,-0.043 0.16561,-0.0596 0.05618,-0.0165 0.171453,-0.0398 0.369935,-0.0731 0.727279,-0.0671 0.363953,0.004 0.461947,0.34872 0.09799,0.34464 -0.208876,0.54643 l -0.01224,0.007 q -0.162861,0.10547 -0.365656,0.0755 -0.262487,-0.0376 -0.507023,0.0345 -0.522117,0.15389 -0.775517,0.6955 -0.2534,0.5416 -0.07126,1.15955 0.182141,0.61795 0.693064,0.93785 0.501392,0.31195 1.023509,0.15805 0.244536,-0.0721 0.43905,-0.24075 0.163035,-0.14143 0.361343,-0.13883 z"
         id="path27789" />
      <path
         d="m 64.314943,186.15391 1.280578,-0.59603 -0.329996,-0.709 q -0.109029,-0.23426 -0.01887,-0.48142 0.09016,-0.24716 0.34003,-0.36346 l 0.0094,-0.004 q 0.246745,-0.11484 0.499939,-0.0199 0.244255,0.0839 0.353284,0.31816 l 1.503152,3.22956 q 0.109029,0.23425 0.01596,0.47517 -0.09038,0.25486 -0.337122,0.3697 l -0.0094,0.004 q -0.249869,0.11629 -0.497031,0.0261 -0.247163,-0.0902 -0.356192,-0.32441 l -0.723955,-1.55543 -1.280578,0.59602 0.723955,1.55544 q 0.109029,0.23425 0.01596,0.47517 -0.08725,0.25341 -0.337121,0.3697 l -0.0094,0.004 q -0.249869,0.1163 -0.499939,0.0199 -0.244255,-0.0839 -0.353285,-0.31817 l -1.503151,-3.22956 q -0.10903,-0.23425 -0.01596,-0.47516 0.08725,-0.25341 0.337122,-0.36971 l 0.0094,-0.004 q 0.249869,-0.1163 0.499939,-0.0199 0.244255,0.0839 0.353284,0.31816 z"
         id="path27791" />
    </g>
  </g>
</svg>
