<svg width="128" height="128" viewBox="0 0 1200 1200" fill="none" xmlns="http://www.w3.org/2000/svg">
    <path d="M600 1200C931.371 1200 1200 931.371 1200 600C1200 268.629 931.371 0 600 0C268.629 0 0 268.629 0 600C0 931.371 268.629 1200 600 1200Z" fill="#0098EA"/>
    <path d="M804.863 334.879H395.112C319.773 334.879 272.022 416.147 309.925 481.845L562.808 920.162C579.31 948.782 620.665 948.782 637.167 920.162L890.101 481.845C927.953 416.252 880.201 334.879 804.914 334.879H804.863ZM562.602 788.717L507.528 682.129L374.641 444.459C365.875 429.247 376.703 409.753 395.06 409.753H562.55V788.769L562.602 788.717ZM825.23 444.407L692.395 682.181L637.321 788.717V409.702H804.811C823.169 409.702 833.997 429.195 825.23 444.407Z" fill="white"/>
</svg>
